<svg xmlns="http://www.w3.org/2000/svg" xmlns:xlink="http://www.w3.org/1999/xlink" width="450" zoomAndPan="magnify" viewBox="0 0 337.5 149.999998" height="200" preserveAspectRatio="xMidYMid meet" version="1.0"><defs><clipPath id="b7e1afc561"><path d="M 152 7.71875 L 174 7.71875 L 174 28 L 152 28 Z M 152 7.71875 " clip-rule="nonzero"/></clipPath><clipPath id="e697823e5e"><path d="M 185 7.71875 L 235.976562 7.71875 L 235.976562 12 L 185 12 Z M 185 7.71875 " clip-rule="nonzero"/></clipPath><clipPath id="8f65997eb8"><path d="M 185 10 L 235.976562 10 L 235.976562 43 L 185 43 Z M 185 10 " clip-rule="nonzero"/></clipPath><clipPath id="989f7a7909"><path d="M 101.175781 140 L 114 140 L 114 142.515625 L 101.175781 142.515625 Z M 101.175781 140 " clip-rule="nonzero"/></clipPath><clipPath id="f899e95982"><path d="M 126 140 L 140 140 L 140 142.515625 L 126 142.515625 Z M 126 140 " clip-rule="nonzero"/></clipPath></defs><path fill="#fda4ff" d="M 147.308594 31.195312 C 145.378906 31.757812 143.363281 30.65625 142.804688 28.730469 C 142.246094 26.804688 143.351562 24.785156 145.28125 24.222656 C 147.207031 23.65625 149.222656 24.757812 149.78125 26.683594 C 150.34375 28.609375 149.234375 30.628906 147.308594 31.195312 Z M 154.257812 26.875 L 153.453125 24.109375 L 151.726562 24.613281 C 151.394531 24.027344 150.972656 23.503906 150.484375 23.066406 L 151.347656 21.488281 L 148.824219 20.109375 L 147.957031 21.683594 C 147.324219 21.511719 146.65625 21.433594 145.980469 21.46875 L 145.480469 19.746094 L 142.710938 20.558594 L 143.214844 22.28125 C 142.625 22.617188 142.101562 23.039062 141.660156 23.527344 L 140.085938 22.667969 L 138.699219 25.195312 L 140.273438 26.058594 C 140.097656 26.691406 140.019531 27.359375 140.054688 28.035156 L 138.296875 28.628906 L 139.132812 31.304688 L 140.859375 30.800781 C 141.191406 31.390625 141.613281 31.910156 142.101562 32.347656 L 141.238281 33.925781 L 143.761719 35.308594 L 144.628906 33.730469 C 145.261719 33.90625 145.929688 33.980469 146.605469 33.945312 L 147.109375 35.667969 L 149.875 34.855469 L 149.375 33.132812 C 149.964844 32.800781 150.484375 32.375 150.925781 31.886719 L 152.5 32.746094 L 153.886719 30.21875 L 152.3125 29.355469 C 152.492188 28.722656 152.566406 28.054688 152.53125 27.378906 L 154.257812 26.875 " fill-opacity="1" fill-rule="nonzero"/><g clip-path="url(#b7e1afc561)"><path fill="#fda4ff" d="M 164.242188 22.296875 C 161.789062 23.015625 159.226562 21.613281 158.511719 19.164062 C 157.800781 16.714844 159.210938 14.144531 161.664062 13.425781 C 164.113281 12.707031 166.679688 14.113281 167.390625 16.5625 C 168.105469 19.011719 166.695312 21.578125 164.242188 22.296875 Z M 173.085938 16.800781 L 172.0625 13.285156 L 169.867188 13.925781 C 169.441406 13.179688 168.90625 12.515625 168.285156 11.957031 L 169.386719 9.949219 L 166.171875 8.191406 L 165.070312 10.199219 C 164.265625 9.976562 163.414062 9.878906 162.554688 9.925781 L 161.917969 7.734375 L 158.394531 8.765625 L 159.035156 10.957031 C 158.285156 11.382812 157.621094 11.921875 157.058594 12.546875 L 155.054688 11.449219 L 153.289062 14.667969 L 155.292969 15.761719 C 155.070312 16.570312 154.972656 17.417969 155.015625 18.28125 L 152.78125 19.039062 L 153.84375 22.441406 L 156.039062 21.796875 C 156.460938 22.546875 157 23.207031 157.621094 23.769531 L 156.519531 25.773438 L 159.730469 27.53125 L 160.832031 25.527344 C 161.640625 25.746094 162.488281 25.84375 163.351562 25.796875 L 163.988281 27.992188 L 167.507812 26.960938 L 166.871094 24.765625 C 167.621094 24.339844 168.285156 23.800781 168.847656 23.179688 L 170.851562 24.273438 L 172.617188 21.058594 L 170.613281 19.960938 C 170.835938 19.15625 170.933594 18.304688 170.890625 17.445312 L 173.085938 16.800781 " fill-opacity="1" fill-rule="nonzero"/></g><g clip-path="url(#e697823e5e)"><path fill="#000000" d="M 185.746094 10.699219 L 235.625 10.699219 L 235.625 8.042969 L 185.746094 8.042969 Z M 235.789062 11.023438 L 185.582031 11.023438 C 185.492188 11.023438 185.417969 10.953125 185.417969 10.863281 L 185.417969 7.878906 C 185.417969 7.789062 185.492188 7.71875 185.582031 7.71875 L 235.789062 7.71875 C 235.878906 7.71875 235.953125 7.789062 235.953125 7.878906 L 235.953125 10.863281 C 235.953125 10.953125 235.878906 11.023438 235.789062 11.023438 " fill-opacity="1" fill-rule="nonzero"/></g><g clip-path="url(#8f65997eb8)"><path fill="#000000" d="M 185.746094 42.070312 L 235.625 42.070312 L 235.625 11.023438 L 185.746094 11.023438 Z M 235.789062 42.394531 L 185.582031 42.394531 C 185.492188 42.394531 185.417969 42.320312 185.417969 42.230469 L 185.417969 10.863281 C 185.417969 10.773438 185.492188 10.699219 185.582031 10.699219 L 235.789062 10.699219 C 235.878906 10.699219 235.953125 10.773438 235.953125 10.863281 L 235.953125 42.230469 C 235.953125 42.320312 235.878906 42.394531 235.789062 42.394531 " fill-opacity="1" fill-rule="nonzero"/></g><path fill="#000000" d="M 187.3125 8.84375 C 187 8.84375 186.742188 9.09375 186.742188 9.402344 C 186.742188 9.710938 187 9.964844 187.3125 9.964844 C 187.628906 9.964844 187.886719 9.710938 187.886719 9.402344 C 187.886719 9.09375 187.628906 8.84375 187.3125 8.84375 Z M 187.3125 10.289062 C 186.820312 10.289062 186.417969 9.890625 186.417969 9.402344 C 186.417969 8.917969 186.820312 8.519531 187.3125 8.519531 C 187.808594 8.519531 188.210938 8.917969 188.210938 9.402344 C 188.210938 9.890625 187.808594 10.289062 187.3125 10.289062 " fill-opacity="1" fill-rule="nonzero"/><path fill="#000000" d="M 189.867188 8.84375 C 189.550781 8.84375 189.292969 9.09375 189.292969 9.402344 C 189.292969 9.710938 189.550781 9.964844 189.867188 9.964844 C 190.179688 9.964844 190.4375 9.710938 190.4375 9.402344 C 190.4375 9.09375 190.179688 8.84375 189.867188 8.84375 Z M 189.867188 10.289062 C 189.371094 10.289062 188.96875 9.890625 188.96875 9.402344 C 188.96875 8.917969 189.371094 8.519531 189.867188 8.519531 C 190.359375 8.519531 190.761719 8.917969 190.761719 9.402344 C 190.761719 9.890625 190.359375 10.289062 189.867188 10.289062 " fill-opacity="1" fill-rule="nonzero"/><path fill="#000000" d="M 192.417969 8.84375 C 192.101562 8.84375 191.84375 9.09375 191.84375 9.402344 C 191.84375 9.710938 192.101562 9.964844 192.417969 9.964844 C 192.730469 9.964844 192.988281 9.710938 192.988281 9.402344 C 192.988281 9.09375 192.730469 8.84375 192.417969 8.84375 Z M 192.417969 10.289062 C 191.921875 10.289062 191.519531 9.890625 191.519531 9.402344 C 191.519531 8.917969 191.921875 8.519531 192.417969 8.519531 C 192.910156 8.519531 193.3125 8.917969 193.3125 9.402344 C 193.3125 9.890625 192.910156 10.289062 192.417969 10.289062 " fill-opacity="1" fill-rule="nonzero"/><path fill="#fed101" d="M 214.496094 35.050781 L 216.46875 42.078125 L 228.800781 42.082031 L 227.320312 37.175781 L 227.324219 37.175781 L 223.832031 30.851562 L 214.496094 35.050781 " fill-opacity="1" fill-rule="nonzero"/><path fill="#000000" d="M 228.800781 42.394531 C 228.730469 42.394531 228.664062 42.347656 228.644531 42.273438 C 228.632812 42.230469 227.363281 37.789062 226.914062 36.769531 C 226.246094 35.265625 223.71875 30.980469 223.691406 30.9375 C 223.644531 30.859375 223.671875 30.757812 223.75 30.714844 C 223.828125 30.667969 223.925781 30.691406 223.972656 30.769531 C 224.074219 30.949219 226.539062 35.117188 227.210938 36.636719 C 227.671875 37.675781 228.90625 42.003906 228.957031 42.1875 C 228.984375 42.273438 228.933594 42.363281 228.847656 42.386719 C 228.832031 42.390625 228.816406 42.394531 228.800781 42.394531 " fill-opacity="1" fill-rule="nonzero"/><path fill="#fed101" d="M 223.601562 42.082031 L 220.277344 32.621094 L 210.914062 36.285156 L 210.953125 42.082031 L 223.601562 42.082031 " fill-opacity="1" fill-rule="nonzero"/><path fill="#020202" d="M 210.914062 39.15625 L 225.835938 34.347656 L 223.910156 30.949219 L 210.078125 36.5625 L 210.914062 39.15625 " fill-opacity="1" fill-rule="nonzero"/><path fill="#8c7bff" d="M 228.039062 15.628906 L 189.859375 15.804688 C 187.71875 15.816406 185.988281 17.5625 186 19.707031 C 186.007812 21.847656 187.75 23.578125 189.894531 23.566406 L 199.765625 23.523438 L 209.507812 38.769531 L 225.351562 32.152344 L 220.328125 23.425781 L 228.070312 23.390625 C 230.210938 23.378906 231.941406 21.632812 231.933594 19.492188 C 231.921875 17.347656 230.179688 15.621094 228.039062 15.628906 " fill-opacity="1" fill-rule="nonzero"/><path fill="#000000" d="M 200.890625 28.492188 L 203.445312 28.492188 L 203.445312 14.371094 L 201.398438 12.308594 L 200.890625 28.492188 " fill-opacity="1" fill-rule="nonzero"/><path fill="#955b50" d="M 208.199219 17.144531 L 206.519531 19.898438 L 203.65625 15.417969 L 206.097656 13.855469 L 208.199219 17.144531 " fill-opacity="1" fill-rule="nonzero"/><path fill="#000000" d="M 206.691406 14.78125 L 206.097656 13.855469 L 203.65625 15.417969 L 204.960938 17.464844 C 205.210938 17.367188 205.6875 17.140625 206.085938 16.652344 C 206.707031 15.886719 206.699219 15.019531 206.691406 14.78125 " fill-opacity="1" fill-rule="nonzero"/><path fill="#955b50" d="M 206.289062 12.457031 C 207.082031 13.695312 206.800781 15.519531 205.539062 16.257812 C 204.390625 16.929688 202.890625 16.480469 202.257812 15.152344 C 201.667969 13.914062 201.925781 12.371094 202.972656 11.652344 C 204.070312 10.898438 205.496094 11.214844 206.289062 12.457031 " fill-opacity="1" fill-rule="nonzero"/><path fill="#ffffff" d="M 205.527344 14.535156 C 205.449219 14.828125 205.277344 15.101562 205.019531 15.308594 C 204.445312 15.765625 203.636719 15.71875 203.113281 15.238281 L 205.527344 14.535156 " fill-opacity="1" fill-rule="nonzero"/><path fill="#000000" d="M 203.984375 11.8125 C 203.984375 11.8125 200.242188 9.792969 201.984375 23.105469 L 202.757812 28.550781 L 197.453125 28.550781 C 197.453125 28.550781 200.199219 16.664062 200.398438 15.675781 C 200.96875 12.871094 201.265625 9.304688 203.789062 9.878906 L 203.984375 11.8125 " fill-opacity="1" fill-rule="nonzero"/><path fill="#000000" d="M 206.378906 28.550781 L 211.5 28.550781 C 211.5 28.550781 208.550781 14.519531 208.351562 13.378906 C 208.160156 12.277344 207.59375 11.140625 206.703125 10.417969 C 206.207031 10.015625 205.050781 9.199219 203.789062 9.878906 L 203.984375 11.8125 C 203.984375 11.8125 204.824219 11.296875 205.640625 12.042969 C 206.582031 13.289062 206.445312 15.175781 206.445312 15.175781 L 206.378906 28.550781 " fill-opacity="1" fill-rule="nonzero"/><path fill="#000000" d="M 208.152344 12.59375 L 209.371094 15.714844 L 208.453125 15.730469 L 208.152344 12.59375 " fill-opacity="1" fill-rule="nonzero"/><path fill="#ffffff" d="M 210.917969 97.460938 L 108.613281 97.460938 L 108.613281 28.550781 L 210.917969 28.550781 L 210.917969 97.460938 " fill-opacity="1" fill-rule="nonzero"/><path fill="#000000" d="M 108.777344 97.296875 L 210.753906 97.296875 L 210.753906 28.714844 L 108.777344 28.714844 Z M 210.914062 97.621094 L 108.613281 97.621094 C 108.523438 97.621094 108.449219 97.550781 108.449219 97.460938 L 108.449219 28.550781 C 108.449219 28.460938 108.523438 28.390625 108.613281 28.390625 L 210.914062 28.390625 C 211.007812 28.390625 211.078125 28.460938 211.078125 28.550781 L 211.078125 97.460938 C 211.078125 97.550781 211.007812 97.621094 210.914062 97.621094 " fill-opacity="1" fill-rule="nonzero"/><path fill="#ffffff" d="M 112.570312 32.566406 L 112.570312 93.445312 L 206.796875 93.445312 L 206.796875 32.566406 L 112.570312 32.566406 " fill-opacity="1" fill-rule="nonzero"/><path fill="#000000" d="M 112.730469 93.285156 L 206.636719 93.285156 L 206.636719 32.726562 L 112.730469 32.726562 Z M 206.796875 93.609375 L 112.570312 93.609375 C 112.480469 93.609375 112.40625 93.535156 112.40625 93.445312 L 112.40625 32.566406 C 112.40625 32.476562 112.480469 32.402344 112.570312 32.402344 L 206.796875 32.402344 C 206.886719 32.402344 206.960938 32.476562 206.960938 32.566406 L 206.960938 93.445312 C 206.960938 93.535156 206.886719 93.609375 206.796875 93.609375 " fill-opacity="1" fill-rule="nonzero"/><path fill="#000000" d="M 143.785156 119.046875 L 175.746094 119.046875 L 175.746094 97.621094 L 143.785156 97.621094 Z M 175.910156 119.371094 L 143.621094 119.371094 C 143.53125 119.371094 143.457031 119.296875 143.457031 119.207031 L 143.457031 97.460938 C 143.457031 97.371094 143.53125 97.296875 143.621094 97.296875 L 175.910156 97.296875 C 176 97.296875 176.070312 97.371094 176.070312 97.460938 L 176.070312 119.207031 C 176.070312 119.296875 176 119.371094 175.910156 119.371094 " fill-opacity="1" fill-rule="nonzero"/><path fill="#000000" d="M 123.75 128.964844 L 195.78125 128.964844 L 195.242188 128.386719 C 189.929688 122.65625 182.398438 119.371094 174.585938 119.371094 L 144.941406 119.371094 C 137.128906 119.371094 129.601562 122.65625 124.285156 128.386719 Z M 196.152344 129.289062 L 123.375 129.289062 C 123.3125 129.289062 123.253906 129.253906 123.226562 129.195312 C 123.199219 129.132812 123.210938 129.066406 123.257812 129.015625 L 124.046875 128.164062 C 129.421875 122.367188 137.039062 119.046875 144.941406 119.046875 L 174.585938 119.046875 C 182.488281 119.046875 190.105469 122.367188 195.480469 128.164062 L 196.273438 129.015625 C 196.316406 129.066406 196.328125 129.132812 196.300781 129.195312 C 196.277344 129.253906 196.21875 129.289062 196.152344 129.289062 " fill-opacity="1" fill-rule="nonzero"/><path fill="#8c7bff" d="M 170.171875 89.308594 L 170.171875 37.570312 L 116.152344 37.570312 L 116.152344 89.308594 L 170.171875 89.308594 " fill-opacity="1" fill-rule="nonzero"/><path fill="#ffffff" d="M 145.988281 56.640625 L 127.164062 56.640625 L 127.164062 55.273438 L 145.988281 55.273438 L 145.988281 56.640625 " fill-opacity="1" fill-rule="nonzero"/><path fill="#ffffff" d="M 135.882812 48.753906 L 127.164062 48.753906 L 127.164062 47.386719 L 135.882812 47.386719 L 135.882812 48.753906 " fill-opacity="1" fill-rule="nonzero"/><path fill="#ffffff" d="M 142.902344 48.753906 L 137.683594 48.753906 L 137.683594 47.386719 L 142.902344 47.386719 L 142.902344 48.753906 " fill-opacity="1" fill-rule="nonzero"/><path fill="#fed101" d="M 137.269531 72.410156 L 130.027344 72.410156 L 130.027344 71.046875 L 137.269531 71.046875 L 137.269531 72.410156 " fill-opacity="1" fill-rule="nonzero"/><path fill="#fed101" d="M 131.34375 84.238281 L 122.246094 84.238281 L 122.246094 82.875 L 131.34375 82.875 L 131.34375 84.238281 " fill-opacity="1" fill-rule="nonzero"/><path fill="#ffffff" d="M 152.875 84.238281 L 132.875 84.238281 L 132.875 82.875 L 152.875 82.875 L 152.875 84.238281 " fill-opacity="1" fill-rule="nonzero"/><path fill="#fed101" d="M 166.164062 68.46875 L 148.367188 68.46875 L 148.367188 67.101562 L 166.164062 67.101562 L 166.164062 68.46875 " fill-opacity="1" fill-rule="nonzero"/><path fill="#ffffff" d="M 142.902344 68.46875 L 133.285156 68.46875 L 133.285156 67.101562 L 142.902344 67.101562 L 142.902344 68.46875 " fill-opacity="1" fill-rule="nonzero"/><path fill="#fed101" d="M 146.835938 68.46875 L 144.25 68.46875 L 144.25 67.101562 L 146.835938 67.101562 L 146.835938 68.46875 " fill-opacity="1" fill-rule="nonzero"/><path fill="#fed101" d="M 133.992188 76.355469 L 126.527344 76.355469 L 126.527344 74.988281 L 133.992188 74.988281 L 133.992188 76.355469 " fill-opacity="1" fill-rule="nonzero"/><path fill="#ffffff" d="M 155.875 76.355469 L 147.414062 76.355469 L 147.414062 74.988281 L 155.875 74.988281 L 155.875 76.355469 " fill-opacity="1" fill-rule="nonzero"/><path fill="#ffffff" d="M 146.65625 76.355469 L 135.40625 76.355469 L 135.40625 74.988281 L 146.65625 74.988281 L 146.65625 76.355469 " fill-opacity="1" fill-rule="nonzero"/><path fill="#ffffff" d="M 159.792969 76.355469 L 157.210938 76.355469 L 157.210938 74.988281 L 159.792969 74.988281 L 159.792969 76.355469 " fill-opacity="1" fill-rule="nonzero"/><path fill="#ffffff" d="M 136.730469 64.511719 L 129.839844 64.511719 L 129.839844 63.144531 L 136.730469 63.144531 L 136.730469 64.511719 " fill-opacity="1" fill-rule="nonzero"/><path fill="#fed101" d="M 146.390625 64.511719 L 137.945312 64.511719 L 137.945312 63.144531 L 146.390625 63.144531 L 146.390625 64.511719 " fill-opacity="1" fill-rule="nonzero"/><path fill="#ffffff" d="M 154.457031 64.511719 L 147.90625 64.511719 L 147.90625 63.144531 L 154.457031 63.144531 L 154.457031 64.511719 " fill-opacity="1" fill-rule="nonzero"/><path fill="#ffffff" d="M 158.898438 64.539062 L 156.3125 64.539062 L 156.3125 63.171875 L 158.898438 63.171875 L 158.898438 64.539062 " fill-opacity="1" fill-rule="nonzero"/><path fill="#fed101" d="M 150.269531 60.582031 L 133.515625 60.582031 L 133.515625 59.214844 L 150.269531 59.214844 L 150.269531 60.582031 " fill-opacity="1" fill-rule="nonzero"/><path fill="#fed101" d="M 140.148438 44.777344 L 123.535156 44.777344 L 123.535156 43.410156 L 140.148438 43.410156 L 140.148438 44.777344 " fill-opacity="1" fill-rule="nonzero"/><path fill="#ffffff" d="M 158.914062 44.84375 L 143.160156 44.84375 L 143.160156 43.476562 L 158.914062 43.476562 L 158.914062 44.84375 " fill-opacity="1" fill-rule="nonzero"/><path fill="#ffffff" d="M 166.164062 44.84375 L 161.015625 44.84375 L 161.015625 43.476562 L 166.164062 43.476562 L 166.164062 44.84375 " fill-opacity="1" fill-rule="nonzero"/><path fill="#ffffff" d="M 165.414062 80.296875 L 149.007812 80.296875 L 149.007812 78.929688 L 165.414062 78.929688 L 165.414062 80.296875 " fill-opacity="1" fill-rule="nonzero"/><path fill="#ffffff" d="M 140.589844 80.296875 L 130.210938 80.296875 L 130.210938 78.929688 L 140.589844 78.929688 L 140.589844 80.296875 " fill-opacity="1" fill-rule="nonzero"/><path fill="#ffffff" d="M 159.429688 52.707031 L 156.144531 52.707031 L 156.144531 51.339844 L 159.429688 51.339844 L 159.429688 52.707031 " fill-opacity="1" fill-rule="nonzero"/><path fill="#fed101" d="M 133.734375 52.683594 L 125.484375 52.683594 L 125.484375 51.320312 L 133.734375 51.320312 L 133.734375 52.683594 " fill-opacity="1" fill-rule="nonzero"/><path fill="#fed101" d="M 154.457031 52.707031 L 135.882812 52.707031 L 135.882812 51.339844 L 154.457031 51.339844 L 154.457031 52.707031 " fill-opacity="1" fill-rule="nonzero"/><path fill="#955b50" d="M 187.234375 41.597656 L 185.636719 41.878906 L 185.992188 45.136719 C 186.042969 45.617188 186.441406 45.945312 186.882812 45.867188 C 187.324219 45.789062 187.640625 45.339844 187.589844 44.859375 L 187.234375 41.597656 " fill-opacity="1" fill-rule="nonzero"/><path fill="#955b50" d="M 185.539062 41.003906 L 183.941406 41.285156 L 184.292969 44.542969 C 184.34375 45.023438 184.746094 45.351562 185.1875 45.273438 C 185.628906 45.195312 185.945312 44.746094 185.890625 44.265625 L 185.539062 41.003906 " fill-opacity="1" fill-rule="nonzero"/><path fill="#955b50" d="M 183.914062 40.988281 L 182.484375 41.238281 L 182.800781 44.148438 C 182.847656 44.578125 183.203125 44.867188 183.597656 44.800781 C 183.992188 44.730469 184.273438 44.328125 184.226562 43.898438 L 183.914062 40.988281 " fill-opacity="1" fill-rule="nonzero"/><path fill="#955b50" d="M 188.984375 42.664062 L 187.417969 42.316406 L 186.027344 48.648438 C 185.929688 49.078125 186.203125 49.507812 186.636719 49.601562 C 187.066406 49.699219 187.496094 49.425781 187.589844 48.992188 L 188.984375 42.664062 " fill-opacity="1" fill-rule="nonzero"/><path fill="#955b50" d="M 190.449219 37.203125 L 188.25 39.628906 L 191.144531 44.4375 C 191.355469 44.855469 191.839844 44.996094 192.234375 44.75 C 192.625 44.5 192.773438 43.960938 192.5625 43.542969 L 191.425781 41.269531 L 190.449219 37.203125 " fill-opacity="1" fill-rule="nonzero"/><path fill="#955b50" d="M 190.375 37.085938 L 190.929688 31.785156 L 184.957031 31.25 L 184.402344 35.957031 L 182.488281 41.226562 L 188.980469 42.664062 L 190.375 37.085938 " fill-opacity="1" fill-rule="nonzero"/><path fill="#020202" d="M 190.929688 31.785156 L 184.957031 31.25 L 184.675781 32.984375 L 190.558594 35.445312 L 190.929688 31.785156 " fill-opacity="1" fill-rule="nonzero"/><path fill="#000000" d="M 186.5 46 C 186.492188 46 186.484375 46 186.476562 45.996094 C 185.910156 45.90625 185.851562 45.339844 185.832031 45.152344 L 185.511719 42.246094 C 185.5 42.160156 185.566406 42.078125 185.65625 42.070312 C 185.746094 42.058594 185.824219 42.125 185.832031 42.210938 L 186.15625 45.117188 C 186.203125 45.5625 186.363281 45.648438 186.527344 45.675781 C 186.617188 45.691406 186.675781 45.777344 186.664062 45.863281 C 186.648438 45.945312 186.578125 46 186.5 46 " fill-opacity="1" fill-rule="nonzero"/><path fill="#000000" d="M 185.058594 45.445312 C 184.863281 45.445312 184.679688 45.382812 184.519531 45.265625 C 184.304688 45.101562 184.164062 44.847656 184.132812 44.5625 L 183.820312 41.65625 C 183.8125 41.566406 183.875 41.488281 183.964844 41.476562 C 184.054688 41.46875 184.132812 41.53125 184.144531 41.621094 L 184.453125 44.527344 C 184.476562 44.722656 184.570312 44.898438 184.714844 45.003906 C 184.84375 45.101562 185 45.140625 185.160156 45.113281 C 185.515625 45.050781 185.773438 44.679688 185.730469 44.28125 L 185.511719 42.25 C 185.5 42.160156 185.566406 42.078125 185.652344 42.070312 C 185.742188 42.058594 185.824219 42.125 185.832031 42.214844 L 186.054688 44.246094 C 186.113281 44.808594 185.738281 45.34375 185.214844 45.433594 C 185.160156 45.441406 185.109375 45.445312 185.058594 45.445312 " fill-opacity="1" fill-rule="nonzero"/><path fill="#000000" d="M 183.484375 44.972656 C 183.308594 44.972656 183.136719 44.914062 182.992188 44.804688 C 182.796875 44.65625 182.667969 44.425781 182.640625 44.164062 L 182.324219 41.253906 C 182.316406 41.164062 182.378906 41.085938 182.46875 41.074219 C 182.554688 41.066406 182.636719 41.128906 182.648438 41.21875 L 182.960938 44.128906 C 182.980469 44.300781 183.0625 44.453125 183.1875 44.546875 C 183.300781 44.628906 183.433594 44.664062 183.570312 44.640625 C 183.882812 44.585938 184.105469 44.261719 184.066406 43.917969 L 183.820312 41.65625 C 183.8125 41.566406 183.878906 41.488281 183.964844 41.476562 C 184.054688 41.46875 184.136719 41.53125 184.144531 41.621094 L 184.390625 43.882812 C 184.445312 44.394531 184.101562 44.875 183.625 44.960938 C 183.578125 44.96875 183.53125 44.972656 183.484375 44.972656 " fill-opacity="1" fill-rule="nonzero"/><path fill="#000000" d="M 186.808594 49.785156 C 186.738281 49.785156 186.667969 49.777344 186.601562 49.761719 C 186.351562 49.707031 186.132812 49.554688 185.996094 49.339844 C 185.859375 49.121094 185.8125 48.863281 185.867188 48.613281 L 187.125 42.257812 C 187.140625 42.167969 187.226562 42.113281 187.3125 42.128906 C 187.402344 42.144531 187.460938 42.230469 187.441406 42.320312 L 186.183594 48.679688 C 186.148438 48.851562 186.179688 49.019531 186.269531 49.164062 C 186.363281 49.308594 186.503906 49.40625 186.671875 49.441406 C 187.015625 49.519531 187.355469 49.300781 187.429688 48.957031 L 188.824219 42.628906 C 188.84375 42.539062 188.929688 42.484375 189.015625 42.503906 C 189.105469 42.523438 189.160156 42.609375 189.140625 42.695312 L 187.75 49.027344 C 187.648438 49.476562 187.25 49.785156 186.808594 49.785156 " fill-opacity="1" fill-rule="nonzero"/><path fill="#000000" d="M 191.824219 45.03125 C 191.742188 45.03125 191.660156 45.023438 191.582031 45 C 191.328125 44.929688 191.125 44.753906 191 44.507812 L 189.179688 41.488281 C 189.136719 41.410156 189.160156 41.3125 189.238281 41.265625 C 189.3125 41.21875 189.414062 41.242188 189.460938 41.320312 L 191.285156 44.351562 C 191.371094 44.527344 191.507812 44.640625 191.667969 44.6875 C 191.828125 44.730469 192 44.703125 192.148438 44.609375 C 192.46875 44.40625 192.59375 43.960938 192.417969 43.617188 L 191.28125 41.34375 C 191.277344 41.332031 191.273438 41.320312 191.269531 41.308594 L 190.214844 37.125 C 190.210938 37.105469 190.210938 37.085938 190.214844 37.066406 L 190.707031 32.679688 C 190.71875 32.59375 190.796875 32.527344 190.886719 32.539062 C 190.976562 32.546875 191.042969 32.628906 191.03125 32.71875 L 190.539062 37.074219 L 191.582031 41.210938 L 192.710938 43.46875 C 192.957031 43.960938 192.78125 44.59375 192.320312 44.886719 C 192.164062 44.984375 191.996094 45.03125 191.824219 45.03125 " fill-opacity="1" fill-rule="nonzero"/><path fill="#000000" d="M 188.980469 42.824219 C 188.96875 42.824219 188.953125 42.824219 188.941406 42.820312 C 188.851562 42.796875 188.800781 42.707031 188.824219 42.621094 L 189.488281 40.152344 C 189.511719 40.066406 189.601562 40.015625 189.6875 40.039062 C 189.773438 40.0625 189.824219 40.152344 189.800781 40.238281 L 189.136719 42.703125 C 189.117188 42.777344 189.054688 42.824219 188.980469 42.824219 " fill-opacity="1" fill-rule="nonzero"/><path fill="#000000" d="M 182.488281 41.390625 C 182.46875 41.390625 182.449219 41.386719 182.433594 41.382812 C 182.347656 41.351562 182.304688 41.257812 182.335938 41.171875 L 184.242188 35.917969 L 184.699219 32.148438 C 184.710938 32.058594 184.789062 31.996094 184.878906 32.007812 C 184.96875 32.019531 185.03125 32.101562 185.023438 32.1875 L 184.5625 35.976562 C 184.558594 35.988281 184.554688 36 184.554688 36.011719 L 182.640625 41.285156 C 182.617188 41.347656 182.554688 41.390625 182.488281 41.390625 " fill-opacity="1" fill-rule="nonzero"/><path fill="#8c7bff" d="M 183.804688 32.914062 L 191.277344 33.53125 L 192.683594 19.511719 L 186.035156 19.152344 L 183.804688 32.914062 " fill-opacity="1" fill-rule="nonzero"/><path fill="#000000" d="M 191.28125 33.695312 C 191.273438 33.695312 191.269531 33.695312 191.261719 33.691406 C 191.175781 33.683594 191.109375 33.605469 191.117188 33.515625 L 192.523438 19.496094 C 192.53125 19.40625 192.613281 19.34375 192.703125 19.351562 C 192.789062 19.359375 192.855469 19.4375 192.847656 19.527344 L 191.441406 33.546875 C 191.433594 33.632812 191.363281 33.695312 191.28125 33.695312 " fill-opacity="1" fill-rule="nonzero"/><path fill="#8c7bff" d="M 230.117188 22.132812 L 217.949219 29.917969 L 213.730469 23.308594 L 225.894531 15.523438 L 230.117188 22.132812 " fill-opacity="1" fill-rule="nonzero"/><path fill="#000000" d="M 217.949219 30.078125 C 217.9375 30.078125 217.925781 30.078125 217.914062 30.074219 C 217.875 30.066406 217.835938 30.039062 217.8125 30.003906 L 213.589844 23.398438 C 213.542969 23.320312 213.566406 23.222656 213.640625 23.171875 L 224.257812 16.378906 C 224.332031 16.332031 224.433594 16.351562 224.480469 16.429688 C 224.53125 16.503906 224.507812 16.605469 224.433594 16.652344 L 213.953125 23.359375 L 218 29.691406 L 222.277344 26.957031 C 222.351562 26.90625 222.453125 26.929688 222.5 27.003906 C 222.550781 27.082031 222.527344 27.183594 222.453125 27.230469 L 218.039062 30.054688 C 218.011719 30.070312 217.980469 30.078125 217.949219 30.078125 " fill-opacity="1" fill-rule="nonzero"/><path fill="#955b50" d="M 212.636719 25.5625 C 212.113281 25.902344 211.34375 25.371094 210.160156 26.128906 L 207.300781 27.957031 C 206.453125 28.5 205.871094 29.371094 205.691406 30.363281 L 205.597656 30.882812 C 205.527344 31.28125 205.710938 31.679688 206.042969 31.890625 L 206.050781 31.890625 L 205.945312 32.472656 C 205.867188 32.917969 206.097656 33.359375 206.503906 33.546875 L 206.441406 33.894531 C 206.359375 34.359375 206.613281 34.816406 207.050781 34.988281 L 207.429688 35.140625 C 207.417969 35.515625 207.640625 35.867188 208 36.011719 C 208.539062 36.222656 209.136719 35.882812 209.230469 35.3125 L 209.332031 34.679688 C 209.382812 34.375 209.558594 34.105469 209.816406 33.941406 L 212.816406 32.023438 L 214.394531 31.011719 L 217.414062 29.082031 L 214.433594 24.414062 L 212.636719 25.5625 " fill-opacity="1" fill-rule="nonzero"/><path fill="#020202" d="M 212.773438 25.476562 L 217.414062 29.082031 L 214.433594 24.414062 L 212.773438 25.476562 " fill-opacity="1" fill-rule="nonzero"/><path fill="#000000" d="M 206.503906 33.707031 C 206.480469 33.707031 206.460938 33.703125 206.4375 33.695312 C 205.960938 33.476562 205.691406 32.960938 205.785156 32.445312 L 205.949219 31.53125 C 206.089844 30.75 206.554688 30.058594 207.222656 29.632812 L 208.6875 28.695312 C 208.761719 28.644531 208.863281 28.667969 208.910156 28.742188 C 208.957031 28.820312 208.9375 28.921875 208.863281 28.96875 L 207.394531 29.90625 C 206.804688 30.285156 206.394531 30.898438 206.269531 31.589844 L 206.105469 32.503906 C 206.039062 32.875 206.230469 33.242188 206.574219 33.398438 C 206.65625 33.4375 206.691406 33.53125 206.652344 33.613281 C 206.625 33.671875 206.566406 33.707031 206.503906 33.707031 " fill-opacity="1" fill-rule="nonzero"/><path fill="#000000" d="M 207.433594 35.300781 C 207.414062 35.300781 207.394531 35.300781 207.375 35.292969 L 206.988281 35.140625 C 206.484375 34.9375 206.1875 34.402344 206.285156 33.867188 L 206.480469 32.769531 C 206.601562 32.105469 206.996094 31.515625 207.5625 31.152344 L 209.488281 29.917969 C 209.5625 29.871094 209.664062 29.894531 209.714844 29.96875 C 209.761719 30.042969 209.738281 30.144531 209.664062 30.191406 L 207.738281 31.425781 C 207.246094 31.742188 206.902344 32.25 206.800781 32.824219 L 206.601562 33.925781 C 206.535156 34.308594 206.746094 34.691406 207.109375 34.835938 L 207.496094 34.988281 C 207.578125 35.023438 207.617188 35.117188 207.585938 35.199219 C 207.558594 35.261719 207.5 35.300781 207.433594 35.300781 " fill-opacity="1" fill-rule="nonzero"/><path fill="#000000" d="M 212.816406 32.1875 C 212.761719 32.1875 212.710938 32.160156 212.675781 32.109375 C 212.628906 32.035156 212.652344 31.933594 212.726562 31.886719 L 217.191406 29.03125 L 214.386719 24.640625 L 212.726562 25.703125 C 212.472656 25.863281 212.183594 25.855469 211.878906 25.851562 C 211.425781 25.84375 210.917969 25.835938 210.246094 26.265625 L 207.390625 28.09375 C 206.582031 28.609375 206.023438 29.449219 205.851562 30.390625 L 205.757812 30.910156 C 205.699219 31.242188 205.84375 31.574219 206.128906 31.753906 C 206.207031 31.800781 206.230469 31.902344 206.179688 31.976562 C 206.132812 32.054688 206.03125 32.078125 205.957031 32.027344 C 205.558594 31.777344 205.355469 31.316406 205.4375 30.851562 L 205.53125 30.335938 C 205.71875 29.300781 206.332031 28.386719 207.214844 27.820312 L 210.070312 25.992188 C 210.824219 25.511719 211.4375 25.519531 211.882812 25.527344 C 212.160156 25.53125 212.382812 25.535156 212.550781 25.425781 L 214.484375 24.191406 L 217.640625 29.128906 L 212.902344 32.160156 C 212.875 32.175781 212.84375 32.1875 212.816406 32.1875 " fill-opacity="1" fill-rule="nonzero"/><path fill="#000000" d="M 208.335938 36.238281 C 208.203125 36.238281 208.066406 36.210938 207.941406 36.160156 C 207.46875 35.972656 207.191406 35.476562 207.28125 34.976562 L 207.488281 33.832031 C 207.609375 33.15625 208.011719 32.558594 208.589844 32.1875 L 210.191406 31.164062 C 210.265625 31.113281 210.367188 31.136719 210.414062 31.210938 C 210.464844 31.289062 210.441406 31.390625 210.367188 31.4375 L 208.761719 32.464844 C 208.261719 32.785156 207.914062 33.304688 207.808594 33.890625 L 207.601562 35.035156 C 207.539062 35.382812 207.730469 35.726562 208.058594 35.859375 C 208.269531 35.941406 208.503906 35.925781 208.703125 35.816406 C 208.898438 35.703125 209.03125 35.511719 209.066406 35.285156 L 209.171875 34.652344 C 209.230469 34.304688 209.433594 33.996094 209.730469 33.804688 L 214.308594 30.875 C 215.058594 30.394531 215.519531 29.574219 215.546875 28.683594 C 215.546875 28.59375 215.625 28.523438 215.710938 28.523438 C 215.800781 28.527344 215.875 28.601562 215.871094 28.691406 C 215.84375 29.691406 215.324219 30.609375 214.480469 31.148438 L 209.90625 34.078125 C 209.683594 34.21875 209.535156 34.445312 209.492188 34.703125 L 209.390625 35.339844 C 209.335938 35.660156 209.144531 35.9375 208.859375 36.097656 C 208.699219 36.191406 208.515625 36.238281 208.335938 36.238281 " fill-opacity="1" fill-rule="nonzero"/><path fill="#ffffff" d="M 213.0625 111.582031 C 209.382812 110.304688 207.433594 106.296875 208.710938 102.625 C 209.988281 98.949219 214.007812 97.007812 217.683594 98.28125 C 221.367188 99.554688 223.3125 103.566406 222.035156 107.238281 C 220.757812 110.910156 216.742188 112.855469 213.0625 111.582031 Z M 228.894531 112.566406 L 230.726562 107.292969 L 227.433594 106.152344 C 227.570312 104.847656 227.488281 103.550781 227.207031 102.304688 L 230.34375 100.789062 L 227.90625 95.765625 L 224.769531 97.28125 C 223.960938 96.292969 222.992188 95.425781 221.882812 94.722656 L 223.023438 91.433594 L 217.742188 89.605469 L 216.597656 92.890625 C 215.289062 92.757812 213.992188 92.839844 212.746094 93.117188 L 211.222656 89.988281 L 206.191406 92.421875 L 207.710938 95.554688 C 206.722656 96.359375 205.851562 97.328125 205.144531 98.433594 L 201.699219 97.402344 L 200.019531 102.566406 L 203.3125 103.707031 C 203.179688 105.011719 203.261719 106.308594 203.539062 107.554688 L 200.402344 109.074219 L 202.84375 114.097656 L 205.980469 112.578125 C 206.785156 113.566406 207.753906 114.4375 208.863281 115.140625 L 207.722656 118.425781 L 213.007812 120.257812 L 214.148438 116.96875 C 215.457031 117.101562 216.757812 117.019531 218.003906 116.742188 L 219.523438 119.875 L 224.558594 117.4375 L 223.035156 114.308594 C 224.027344 113.5 224.898438 112.535156 225.601562 111.425781 L 228.894531 112.566406 " fill-opacity="1" fill-rule="nonzero"/><path fill="#000000" d="M 215.378906 98.054688 C 212.527344 98.054688 209.851562 99.839844 208.863281 102.675781 C 208.261719 104.410156 208.371094 106.273438 209.171875 107.921875 C 209.972656 109.578125 211.375 110.824219 213.117188 111.425781 C 216.703125 112.667969 220.636719 110.765625 221.882812 107.183594 C 222.484375 105.453125 222.378906 103.589844 221.578125 101.9375 C 220.773438 100.28125 219.375 99.039062 217.632812 98.433594 C 216.886719 98.175781 216.128906 98.054688 215.378906 98.054688 Z M 215.367188 112.132812 C 214.585938 112.132812 213.789062 112.003906 213.007812 111.734375 C 211.1875 111.101562 209.71875 109.800781 208.878906 108.066406 C 208.042969 106.335938 207.925781 104.386719 208.558594 102.570312 C 209.859375 98.816406 213.980469 96.824219 217.738281 98.128906 C 219.5625 98.757812 221.027344 100.0625 221.867188 101.796875 C 222.707031 103.523438 222.820312 105.476562 222.191406 107.292969 C 221.15625 110.265625 218.355469 112.132812 215.367188 112.132812 Z M 207.929688 118.324219 L 212.90625 120.050781 L 213.996094 116.917969 C 214.019531 116.84375 214.089844 116.800781 214.164062 116.808594 C 215.4375 116.9375 216.714844 116.863281 217.96875 116.582031 C 218.042969 116.566406 218.117188 116.601562 218.152344 116.671875 L 219.601562 119.65625 L 224.339844 117.363281 L 222.890625 114.378906 C 222.855469 114.308594 222.875 114.226562 222.933594 114.179688 C 223.929688 113.371094 224.78125 112.414062 225.464844 111.339844 C 225.507812 111.277344 225.585938 111.25 225.65625 111.273438 L 228.796875 112.359375 L 230.519531 107.394531 L 227.382812 106.308594 C 227.3125 106.28125 227.265625 106.210938 227.273438 106.136719 C 227.40625 104.867188 227.328125 103.589844 227.050781 102.339844 C 227.03125 102.269531 227.070312 102.191406 227.136719 102.160156 L 230.128906 100.710938 L 227.832031 95.980469 L 224.839844 97.429688 C 224.773438 97.460938 224.6875 97.445312 224.644531 97.386719 C 223.832031 96.394531 222.875 95.542969 221.796875 94.859375 C 221.730469 94.820312 221.703125 94.738281 221.730469 94.667969 L 222.816406 91.535156 L 217.84375 89.8125 L 216.753906 92.945312 C 216.726562 93.015625 216.65625 93.058594 216.582031 93.054688 C 215.308594 92.921875 214.03125 93 212.78125 93.277344 C 212.707031 93.292969 212.628906 93.257812 212.597656 93.191406 L 211.148438 90.203125 L 206.40625 92.5 L 207.859375 95.484375 C 207.890625 95.550781 207.871094 95.632812 207.8125 95.679688 C 206.820312 96.488281 205.96875 97.445312 205.28125 98.519531 C 205.242188 98.582031 205.167969 98.609375 205.097656 98.589844 L 201.804688 97.601562 L 200.222656 102.464844 L 203.363281 103.554688 C 203.4375 103.578125 203.480469 103.648438 203.472656 103.722656 C 203.34375 104.992188 203.417969 106.269531 203.699219 107.519531 C 203.714844 107.59375 203.679688 107.667969 203.609375 107.703125 L 200.621094 109.148438 L 202.917969 113.878906 L 205.910156 112.429688 C 205.976562 112.398438 206.058594 112.417969 206.105469 112.476562 C 206.914062 113.46875 207.871094 114.316406 208.953125 115.003906 C 209.015625 115.042969 209.042969 115.121094 209.019531 115.191406 Z M 213.007812 120.417969 C 212.988281 120.417969 212.96875 120.414062 212.953125 120.410156 L 207.667969 118.582031 C 207.628906 118.566406 207.59375 118.535156 207.574219 118.496094 C 207.558594 118.457031 207.554688 118.414062 207.570312 118.375 L 208.671875 115.207031 C 207.640625 114.539062 206.722656 113.722656 205.933594 112.78125 L 202.914062 114.242188 C 202.832031 114.28125 202.734375 114.246094 202.695312 114.167969 L 200.257812 109.144531 C 200.238281 109.105469 200.234375 109.0625 200.25 109.019531 C 200.261719 108.980469 200.292969 108.945312 200.332031 108.925781 L 203.355469 107.464844 C 203.097656 106.265625 203.027344 105.039062 203.136719 103.820312 L 199.964844 102.722656 C 199.882812 102.691406 199.835938 102.601562 199.863281 102.515625 L 201.546875 97.351562 C 201.574219 97.265625 201.660156 97.21875 201.746094 97.246094 L 205.074219 98.242188 C 205.742188 97.214844 206.5625 96.296875 207.507812 95.511719 L 206.042969 92.492188 C 206.027344 92.453125 206.023438 92.410156 206.039062 92.371094 C 206.050781 92.328125 206.082031 92.292969 206.121094 92.277344 L 211.152344 89.839844 C 211.234375 89.800781 211.328125 89.835938 211.371094 89.917969 L 212.835938 92.933594 C 214.039062 92.679688 215.265625 92.605469 216.488281 92.71875 L 217.589844 89.550781 C 217.617188 89.46875 217.710938 89.421875 217.792969 89.453125 L 223.078125 91.28125 C 223.121094 91.296875 223.152344 91.324219 223.171875 91.363281 C 223.191406 91.402344 223.191406 91.449219 223.179688 91.488281 L 222.078125 94.652344 C 223.105469 95.320312 224.027344 96.136719 224.8125 97.082031 L 227.835938 95.617188 C 227.917969 95.578125 228.011719 95.613281 228.050781 95.695312 L 230.492188 100.714844 C 230.511719 100.753906 230.515625 100.800781 230.5 100.839844 C 230.484375 100.882812 230.457031 100.914062 230.417969 100.933594 L 227.394531 102.398438 C 227.648438 103.597656 227.722656 104.820312 227.609375 106.042969 L 230.78125 107.140625 C 230.824219 107.15625 230.855469 107.183594 230.875 107.222656 C 230.894531 107.261719 230.894531 107.308594 230.882812 107.347656 L 229.050781 112.621094 C 229.019531 112.707031 228.925781 112.75 228.84375 112.722656 L 225.671875 111.621094 C 225 112.648438 224.183594 113.566406 223.238281 114.351562 L 224.703125 117.367188 C 224.722656 117.40625 224.726562 117.449219 224.710938 117.492188 C 224.695312 117.53125 224.667969 117.566406 224.628906 117.585938 L 219.59375 120.019531 C 219.515625 120.058594 219.417969 120.023438 219.378906 119.945312 L 217.914062 116.929688 C 216.710938 117.183594 215.480469 117.253906 214.261719 117.144531 L 213.160156 120.308594 C 213.136719 120.375 213.074219 120.417969 213.007812 120.417969 " fill-opacity="1" fill-rule="nonzero"/><path fill="#fed101" d="M 112.699219 140.675781 L 102.296875 140.675781 L 106.871094 131.875 L 114.222656 131.875 L 112.699219 140.675781 " fill-opacity="1" fill-rule="nonzero"/><path fill="#000000" d="M 113.84375 134.078125 L 104.582031 136.277344 L 106.871094 131.875 L 114.222656 131.875 L 113.84375 134.078125 " fill-opacity="1" fill-rule="nonzero"/><g clip-path="url(#989f7a7909)"><path fill="#000000" d="M 113.425781 142.515625 L 111.453125 142.515625 L 110.609375 141.648438 L 109.765625 142.515625 L 105.792969 142.515625 L 104.902344 141.648438 L 103.976562 142.515625 L 101.207031 142.515625 L 101.582031 140.480469 L 113.050781 140.480469 L 113.425781 142.515625 " fill-opacity="1" fill-rule="nonzero"/></g><path fill="#fed101" d="M 138.984375 141.574219 C 139.023438 141.324219 139.042969 141.070312 139.042969 140.808594 C 139.042969 137.964844 136.734375 135.65625 133.890625 135.65625 C 131.046875 135.65625 128.738281 137.964844 128.738281 140.808594 C 128.738281 141.070312 128.757812 141.324219 128.796875 141.574219 L 138.984375 141.574219 " fill-opacity="1" fill-rule="nonzero"/><path fill="#fed101" d="M 138.09375 140.40625 L 127.183594 140.40625 L 128.519531 133.496094 L 134.089844 133.496094 L 138.09375 140.40625 " fill-opacity="1" fill-rule="nonzero"/><path fill="#000000" d="M 134.429688 134.078125 L 128.042969 135.964844 L 128.519531 133.496094 L 134.089844 133.496094 L 134.429688 134.078125 " fill-opacity="1" fill-rule="nonzero"/><path fill="#000000" d="M 136.535156 137.875 C 136.476562 137.875 136.421875 137.84375 136.394531 137.792969 L 135.347656 135.992188 C 135.304688 135.914062 135.332031 135.8125 135.410156 135.769531 C 135.484375 135.722656 135.585938 135.75 135.628906 135.828125 L 136.675781 137.628906 C 136.71875 137.707031 136.691406 137.808594 136.613281 137.851562 C 136.589844 137.867188 136.5625 137.875 136.535156 137.875 " fill-opacity="1" fill-rule="nonzero"/><g clip-path="url(#f899e95982)"><path fill="#000000" d="M 139.644531 142.441406 L 137.542969 142.441406 L 136.644531 141.574219 L 135.746094 142.441406 L 131.515625 142.441406 L 130.5625 141.574219 L 129.578125 142.441406 L 126.628906 142.441406 L 127.027344 140.40625 L 139.246094 140.40625 L 139.644531 142.441406 " fill-opacity="1" fill-rule="nonzero"/></g><path fill="#8c7bff" d="M 138.460938 97.285156 L 136.449219 82.671875 L 118.109375 82.671875 L 118.109375 92.503906 L 114.640625 109.292969 L 104.789062 134.078125 L 114.652344 134.078125 L 120.902344 120.710938 C 123.703125 114.71875 125.617188 108.351562 126.585938 101.804688 L 127.671875 94.460938 L 129.007812 108.964844 L 126.585938 134.078125 L 136.449219 134.078125 L 138.367188 120.902344 C 139.503906 113.074219 139.535156 105.125 138.460938 97.285156 " fill-opacity="1" fill-rule="nonzero"/><path fill="#6155ff" d="M 130.910156 92.328125 C 129.320312 92.328125 128.03125 91.039062 128.03125 89.445312 L 128.03125 86.089844 L 133.789062 86.089844 L 133.789062 89.445312 C 133.789062 91.039062 132.5 92.328125 130.910156 92.328125 " fill-opacity="1" fill-rule="nonzero"/><path fill="#000000" d="M 136.449219 134.238281 L 126.585938 134.238281 C 126.542969 134.238281 126.5 134.21875 126.46875 134.183594 C 126.4375 134.152344 126.421875 134.105469 126.425781 134.0625 L 128.847656 108.964844 L 127.511719 94.472656 C 127.503906 94.382812 127.570312 94.304688 127.660156 94.296875 C 127.746094 94.289062 127.828125 94.355469 127.835938 94.445312 L 129.171875 108.953125 C 129.171875 108.960938 129.171875 108.972656 129.171875 108.980469 L 126.765625 133.914062 L 136.308594 133.914062 L 138.207031 120.878906 C 139.34375 113.066406 139.375 105.132812 138.296875 97.308594 L 136.289062 82.695312 C 136.277344 82.605469 136.339844 82.523438 136.429688 82.511719 C 136.515625 82.496094 136.597656 82.5625 136.609375 82.648438 L 138.621094 97.261719 C 139.699219 105.117188 139.667969 113.082031 138.527344 120.925781 L 136.609375 134.101562 C 136.597656 134.179688 136.53125 134.238281 136.449219 134.238281 " fill-opacity="1" fill-rule="nonzero"/><path fill="#000000" d="M 130.140625 94.558594 L 123.917969 94.558594 C 123.828125 94.558594 123.753906 94.488281 123.753906 94.398438 C 123.753906 94.308594 123.828125 94.234375 123.917969 94.234375 L 130.140625 94.234375 C 130.230469 94.234375 130.304688 94.308594 130.304688 94.398438 C 130.304688 94.488281 130.230469 94.558594 130.140625 94.558594 " fill-opacity="1" fill-rule="nonzero"/><path fill="#000000" d="M 119.066406 111.304688 C 119.039062 111.304688 119.011719 111.296875 118.988281 111.28125 L 114.558594 108.765625 C 114.492188 108.726562 114.460938 108.652344 114.484375 108.578125 C 114.503906 108.503906 114.574219 108.460938 114.648438 108.460938 L 118.445312 108.6875 C 118.535156 108.695312 118.605469 108.769531 118.597656 108.859375 C 118.59375 108.949219 118.515625 109.015625 118.425781 109.011719 L 115.328125 108.828125 L 119.148438 111 C 119.226562 111.042969 119.253906 111.144531 119.207031 111.222656 C 119.179688 111.273438 119.125 111.304688 119.066406 111.304688 " fill-opacity="1" fill-rule="nonzero"/><path fill="#000000" d="M 131.535156 110.714844 C 131.503906 110.714844 131.476562 110.707031 131.449219 110.6875 L 128.921875 109.105469 C 128.863281 109.066406 128.832031 108.992188 128.851562 108.921875 C 128.875 108.851562 128.9375 108.804688 129.007812 108.804688 L 132.640625 108.804688 C 132.730469 108.804688 132.800781 108.875 132.800781 108.964844 C 132.800781 109.054688 132.730469 109.128906 132.640625 109.128906 L 129.574219 109.128906 L 131.621094 110.414062 C 131.695312 110.460938 131.71875 110.5625 131.671875 110.636719 C 131.640625 110.6875 131.589844 110.714844 131.535156 110.714844 " fill-opacity="1" fill-rule="nonzero"/><path fill="#000000" d="M 118.109375 89.210938 L 118.109375 82.671875 L 136.441406 82.671875 Z M 118.109375 89.210938 " fill-opacity="1" fill-rule="nonzero"/><path fill="#fda4ff" d="M 142.488281 54.792969 L 141.203125 58.101562 L 140.898438 56.152344 L 141.210938 55.308594 C 141.382812 54.835938 141.90625 54.589844 142.378906 54.753906 L 142.488281 54.792969 " fill-opacity="1" fill-rule="nonzero"/><path fill="#fda4ff" d="M 147.449219 57.335938 L 146.949219 61.117188 L 142.332031 62.46875 L 140.980469 58.945312 C 140.617188 57.996094 140.609375 56.949219 140.957031 55.996094 L 141.171875 55.414062 L 147.449219 57.335938 " fill-opacity="1" fill-rule="nonzero"/><path fill="#ffffff" d="M 139.296875 51.535156 C 139.296875 55.890625 135.769531 59.421875 131.417969 59.421875 C 127.066406 59.421875 123.535156 55.890625 123.535156 51.535156 C 123.535156 47.179688 127.066406 43.648438 131.417969 43.648438 C 135.769531 43.648438 139.296875 47.179688 139.296875 51.535156 " fill-opacity="1" fill-rule="nonzero"/><path fill="#000000" d="M 140.203125 55.8125 L 149.277344 59.519531 L 150.039062 57.648438 L 140.976562 53.945312 Z M 149.363281 59.894531 C 149.34375 59.894531 149.324219 59.890625 149.304688 59.882812 L 139.929688 56.054688 C 139.890625 56.039062 139.859375 56.003906 139.839844 55.964844 C 139.824219 55.925781 139.824219 55.878906 139.839844 55.839844 L 140.738281 53.671875 C 140.773438 53.589844 140.867188 53.550781 140.949219 53.585938 L 150.3125 57.40625 C 150.394531 57.441406 150.433594 57.535156 150.398438 57.621094 L 149.515625 59.792969 C 149.5 59.832031 149.46875 59.863281 149.425781 59.878906 C 149.40625 59.886719 149.386719 59.894531 149.363281 59.894531 " fill-opacity="1" fill-rule="nonzero"/><path fill="#000000" d="M 131.417969 43.8125 C 127.160156 43.8125 123.699219 47.277344 123.699219 51.535156 C 123.699219 55.792969 127.160156 59.257812 131.417969 59.257812 C 135.671875 59.257812 139.132812 55.792969 139.132812 51.535156 C 139.132812 47.277344 135.671875 43.8125 131.417969 43.8125 Z M 131.417969 59.582031 C 126.980469 59.582031 123.375 55.972656 123.375 51.535156 C 123.375 47.097656 126.980469 43.488281 131.417969 43.488281 C 135.851562 43.488281 139.460938 47.097656 139.460938 51.535156 C 139.460938 55.972656 135.851562 59.582031 131.417969 59.582031 " fill-opacity="1" fill-rule="nonzero"/><path fill="#000000" d="M 135.9375 56.222656 C 135.898438 56.222656 135.855469 56.207031 135.824219 56.175781 C 135.757812 56.109375 135.757812 56.007812 135.824219 55.945312 C 136.769531 54.996094 137.375 53.800781 137.578125 52.484375 C 137.589844 52.394531 137.671875 52.332031 137.761719 52.347656 C 137.851562 52.359375 137.910156 52.445312 137.898438 52.53125 C 137.6875 53.917969 137.050781 55.175781 136.054688 56.175781 C 136.019531 56.207031 135.980469 56.222656 135.9375 56.222656 " fill-opacity="1" fill-rule="nonzero"/><path fill="#000000" d="M 137.738281 50.726562 C 137.660156 50.726562 137.589844 50.667969 137.578125 50.585938 C 137.117188 47.570312 134.46875 45.296875 131.417969 45.296875 C 131.328125 45.296875 131.253906 45.226562 131.253906 45.136719 C 131.253906 45.046875 131.328125 44.972656 131.417969 44.972656 C 134.628906 44.972656 137.414062 47.363281 137.898438 50.539062 C 137.914062 50.625 137.851562 50.710938 137.761719 50.722656 C 137.753906 50.722656 137.746094 50.726562 137.738281 50.726562 " fill-opacity="1" fill-rule="nonzero"/><path fill="#000000" d="M 140.125 55.746094 C 140.105469 55.746094 140.082031 55.742188 140.0625 55.734375 L 138.523438 55.101562 C 138.4375 55.066406 138.398438 54.972656 138.433594 54.886719 C 138.46875 54.804688 138.5625 54.765625 138.644531 54.800781 L 140.035156 55.371094 L 140.53125 54.164062 L 139.039062 53.550781 C 138.957031 53.519531 138.917969 53.421875 138.949219 53.339844 C 138.984375 53.257812 139.082031 53.21875 139.164062 53.25 L 140.804688 53.925781 C 140.84375 53.941406 140.878906 53.976562 140.894531 54.015625 C 140.910156 54.054688 140.910156 54.097656 140.894531 54.140625 L 140.277344 55.644531 C 140.257812 55.683594 140.226562 55.71875 140.1875 55.734375 C 140.167969 55.742188 140.148438 55.746094 140.125 55.746094 " fill-opacity="1" fill-rule="nonzero"/><path fill="#fda4ff" d="M 144.105469 54.160156 L 142.691406 58.015625 L 141.417969 57.546875 L 142.832031 53.691406 C 142.957031 53.355469 143.332031 53.179688 143.667969 53.304688 L 143.71875 53.324219 C 144.058594 53.449219 144.230469 53.820312 144.105469 54.160156 " fill-opacity="1" fill-rule="nonzero"/><path fill="#fda4ff" d="M 145.59375 54.046875 L 144.101562 58.105469 L 142.828125 57.636719 L 144.320312 53.582031 C 144.445312 53.242188 144.820312 53.066406 145.160156 53.191406 L 145.203125 53.207031 C 145.542969 53.332031 145.71875 53.707031 145.59375 54.046875 " fill-opacity="1" fill-rule="nonzero"/><path fill="#fda4ff" d="M 148.136719 54.988281 L 146.667969 58.984375 L 145.398438 58.515625 L 146.863281 54.519531 C 146.988281 54.179688 147.367188 54.003906 147.710938 54.128906 L 147.746094 54.140625 C 148.085938 54.265625 148.261719 54.648438 148.136719 54.988281 " fill-opacity="1" fill-rule="nonzero"/><path fill="#fda4ff" d="M 148.136719 57.929688 L 146.960938 61.089844 L 145.683594 60.617188 L 147.664062 55.265625 L 148.125 56.464844 C 148.304688 56.933594 148.308594 57.457031 148.136719 57.929688 " fill-opacity="1" fill-rule="nonzero"/><path fill="#fda4ff" d="M 146.3125 53.945312 L 146.382812 53.96875 C 146.714844 54.09375 146.867188 54.507812 146.726562 54.898438 L 145.292969 58.800781 L 144.019531 58.332031 L 145.453125 54.429688 C 145.59375 54.039062 145.980469 53.824219 146.3125 53.945312 " fill-opacity="1" fill-rule="nonzero"/><path fill="#fda4ff" d="M 147.003906 60.785156 L 146.867188 66.503906 L 141.945312 64.929688 L 142.058594 58.964844 L 147.003906 60.785156 " fill-opacity="1" fill-rule="nonzero"/><path fill="#000000" d="M 146.957031 62.734375 L 146.867188 66.503906 L 141.945312 64.929688 L 141.976562 63.277344 L 145.03125 62.945312 L 146.957031 62.734375 " fill-opacity="1" fill-rule="nonzero"/><path fill="#000000" d="M 145.089844 55.578125 C 145.070312 55.578125 145.050781 55.578125 145.035156 55.570312 C 144.949219 55.539062 144.90625 55.445312 144.9375 55.359375 L 145.441406 53.992188 C 145.484375 53.867188 145.480469 53.734375 145.425781 53.617188 C 145.371094 53.496094 145.269531 53.40625 145.148438 53.359375 L 145.105469 53.34375 C 144.980469 53.296875 144.847656 53.304688 144.726562 53.359375 C 144.609375 53.414062 144.515625 53.511719 144.472656 53.636719 L 143.902344 55.191406 C 143.871094 55.277344 143.777344 55.320312 143.691406 55.289062 C 143.609375 55.257812 143.566406 55.164062 143.59375 55.078125 L 144.167969 53.523438 C 144.324219 53.101562 144.792969 52.882812 145.214844 53.039062 L 145.257812 53.054688 C 145.464844 53.128906 145.628906 53.28125 145.71875 53.480469 C 145.8125 53.675781 145.820312 53.898438 145.746094 54.105469 L 145.242188 55.472656 C 145.21875 55.539062 145.15625 55.578125 145.089844 55.578125 " fill-opacity="1" fill-rule="nonzero"/><path fill="#000000" d="M 146.289062 56.25 C 146.269531 56.25 146.25 56.246094 146.230469 56.238281 C 146.148438 56.207031 146.105469 56.113281 146.136719 56.03125 L 146.609375 54.738281 C 146.703125 54.488281 146.574219 54.214844 146.328125 54.121094 L 146.257812 54.097656 C 146.007812 54.003906 145.734375 54.132812 145.644531 54.382812 L 145.183594 55.628906 C 145.152344 55.714844 145.058594 55.757812 144.976562 55.726562 C 144.890625 55.695312 144.847656 55.601562 144.878906 55.515625 L 145.335938 54.269531 C 145.492188 53.851562 145.953125 53.640625 146.371094 53.792969 L 146.4375 53.816406 C 146.855469 53.96875 147.070312 54.433594 146.914062 54.851562 L 146.441406 56.144531 C 146.417969 56.207031 146.355469 56.25 146.289062 56.25 " fill-opacity="1" fill-rule="nonzero"/><path fill="#000000" d="M 141.546875 57.355469 C 141.53125 57.355469 141.511719 57.351562 141.492188 57.34375 C 141.40625 57.3125 141.363281 57.21875 141.394531 57.136719 L 142.679688 53.636719 C 142.835938 53.214844 143.304688 52.996094 143.726562 53.152344 L 143.777344 53.171875 C 143.980469 53.246094 144.144531 53.394531 144.234375 53.59375 C 144.324219 53.789062 144.335938 54.011719 144.257812 54.214844 L 143.800781 55.46875 C 143.769531 55.550781 143.675781 55.59375 143.589844 55.5625 C 143.507812 55.53125 143.464844 55.4375 143.496094 55.355469 L 143.953125 54.101562 C 144 53.980469 143.992188 53.847656 143.9375 53.730469 C 143.882812 53.613281 143.785156 53.523438 143.664062 53.476562 L 143.613281 53.457031 C 143.359375 53.363281 143.078125 53.496094 142.984375 53.746094 L 141.699219 57.246094 C 141.675781 57.3125 141.613281 57.355469 141.546875 57.355469 " fill-opacity="1" fill-rule="nonzero"/><path fill="#000000" d="M 146.867188 66.664062 C 146.851562 66.664062 146.835938 66.664062 146.820312 66.65625 L 141.894531 65.082031 C 141.828125 65.0625 141.78125 65 141.78125 64.925781 L 141.84375 61.648438 L 140.828125 59.003906 C 140.488281 58.117188 140.445312 57.125 140.714844 56.214844 C 140.738281 56.128906 140.832031 56.078125 140.917969 56.105469 C 141.003906 56.128906 141.050781 56.21875 141.027344 56.304688 C 140.777344 57.148438 140.816406 58.066406 141.132812 58.886719 L 142.160156 61.5625 C 142.167969 61.582031 142.171875 61.601562 142.167969 61.621094 L 142.109375 64.8125 L 146.710938 66.28125 L 146.835938 61.007812 C 146.835938 60.988281 146.839844 60.972656 146.847656 60.953125 L 147.984375 57.875 C 148.144531 57.4375 148.140625 56.957031 147.972656 56.523438 L 147.710938 55.839844 C 147.695312 55.804688 147.695312 55.765625 147.707031 55.726562 L 147.984375 54.9375 C 148.03125 54.808594 148.023438 54.671875 147.96875 54.554688 C 147.914062 54.433594 147.8125 54.339844 147.6875 54.292969 L 147.652344 54.28125 C 147.398438 54.1875 147.109375 54.320312 147.015625 54.578125 L 146.367188 56.339844 C 146.335938 56.425781 146.242188 56.46875 146.160156 56.4375 C 146.074219 56.40625 146.03125 56.3125 146.0625 56.230469 L 146.710938 54.464844 C 146.867188 54.039062 147.339844 53.820312 147.765625 53.976562 L 147.800781 53.988281 C 148.007812 54.066406 148.171875 54.214844 148.261719 54.414062 C 148.355469 54.617188 148.363281 54.839844 148.289062 55.046875 L 148.035156 55.777344 L 148.277344 56.40625 C 148.472656 56.914062 148.476562 57.476562 148.289062 57.984375 L 147.160156 61.042969 L 147.03125 66.507812 C 147.03125 66.558594 147.003906 66.605469 146.960938 66.636719 C 146.933594 66.65625 146.902344 66.664062 146.867188 66.664062 " fill-opacity="1" fill-rule="nonzero"/><path fill="#fed101" d="M 144.460938 80.285156 C 142.132812 80.246094 140.277344 78.324219 140.320312 75.996094 L 140.488281 64.09375 L 148.957031 64.113281 L 148.75 76.140625 C 148.707031 78.472656 146.789062 80.328125 144.460938 80.285156 " fill-opacity="1" fill-rule="nonzero"/><path fill="#000000" d="M 140.648438 64.257812 L 140.480469 76 C 140.441406 78.234375 142.230469 80.085938 144.464844 80.125 C 144.488281 80.125 144.511719 80.125 144.535156 80.125 C 146.738281 80.125 148.546875 78.351562 148.585938 76.140625 L 148.789062 64.273438 Z M 144.535156 80.449219 C 144.507812 80.449219 144.484375 80.449219 144.457031 80.449219 C 142.042969 80.40625 140.113281 78.410156 140.15625 75.992188 L 140.328125 64.09375 C 140.328125 64.003906 140.402344 63.929688 140.488281 63.929688 C 140.488281 63.929688 140.492188 63.929688 140.492188 63.929688 L 148.957031 63.949219 C 149 63.949219 149.039062 63.964844 149.070312 63.996094 C 149.101562 64.027344 149.117188 64.070312 149.117188 64.113281 L 148.910156 76.144531 C 148.871094 78.535156 146.914062 80.449219 144.535156 80.449219 " fill-opacity="1" fill-rule="nonzero"/><path fill="#fed101" d="M 147.558594 73.132812 L 140.023438 65.585938 C 136.960938 62.519531 132.804688 60.800781 128.476562 60.800781 L 123.59375 60.800781 C 120.230469 60.800781 117.164062 62.726562 115.703125 65.757812 L 111.988281 73.464844 C 110.964844 75.597656 111.585938 78.730469 113.714844 79.757812 C 115.152344 80.449219 116.355469 80.398438 117.691406 79.753906 L 117.203125 85.296875 L 137.117188 82.671875 L 135.996094 74.496094 L 141.597656 79.097656 L 147.558594 73.132812 " fill-opacity="1" fill-rule="nonzero"/><path fill="#000000" d="M 141.597656 79.257812 C 141.5625 79.257812 141.523438 79.246094 141.496094 79.222656 L 132.488281 71.824219 C 132.421875 71.765625 132.410156 71.664062 132.46875 71.59375 C 132.523438 71.527344 132.625 71.515625 132.695312 71.574219 L 141.699219 78.972656 C 141.769531 79.027344 141.78125 79.132812 141.722656 79.199219 C 141.691406 79.238281 141.644531 79.257812 141.597656 79.257812 " fill-opacity="1" fill-rule="nonzero"/><path fill="#000000" d="M 147.558594 73.292969 C 147.519531 73.292969 147.476562 73.277344 147.445312 73.246094 L 139.90625 65.703125 C 136.808594 62.601562 132.808594 60.960938 128.339844 60.960938 C 128.25 60.960938 128.179688 60.890625 128.179688 60.800781 C 128.179688 60.710938 128.25 60.636719 128.339844 60.636719 C 132.898438 60.636719 136.976562 62.308594 140.136719 65.472656 L 147.675781 73.015625 C 147.738281 73.082031 147.738281 73.183594 147.675781 73.246094 C 147.640625 73.277344 147.601562 73.292969 147.558594 73.292969 " fill-opacity="1" fill-rule="nonzero"/><path fill="#000000" d="M 117.714844 79.917969 C 117.707031 79.917969 117.703125 79.917969 117.699219 79.917969 C 117.609375 79.910156 117.542969 79.828125 117.550781 79.742188 L 118.738281 67.738281 C 118.746094 67.648438 118.828125 67.582031 118.914062 67.589844 C 119.003906 67.601562 119.070312 67.679688 119.0625 67.769531 L 117.875 79.773438 C 117.867188 79.855469 117.796875 79.917969 117.714844 79.917969 " fill-opacity="1" fill-rule="nonzero"/><path fill="#000000" d="M 118.863281 68.113281 L 116.15625 80.230469 C 116.15625 80.230469 116.570312 80.195312 117 80.050781 C 117.304688 79.953125 117.691406 79.753906 117.691406 79.753906 L 118.863281 68.113281 " fill-opacity="1" fill-rule="nonzero"/><path fill="#fda4ff" d="M 129.980469 56.144531 C 129.980469 57.640625 130.074219 59.714844 128.582031 59.714844 C 127.085938 59.714844 124.566406 57.640625 124.566406 56.144531 C 124.566406 54.648438 125.777344 53.433594 127.273438 53.433594 C 128.765625 53.433594 129.980469 54.648438 129.980469 56.144531 " fill-opacity="1" fill-rule="nonzero"/><path fill="#000000" d="M 130.972656 55.480469 C 130.558594 54.101562 129.28125 53.09375 127.769531 53.09375 C 126.257812 53.09375 125.023438 54.019531 124.648438 55.480469 L 130.972656 55.480469 " fill-opacity="1" fill-rule="nonzero"/><path fill="#fda4ff" d="M 128.242188 60.800781 L 125.109375 60.800781 L 125.109375 56.144531 L 128.242188 56.144531 L 128.242188 60.800781 " fill-opacity="1" fill-rule="nonzero"/><path fill="#000000" d="M 128.242188 61.007812 C 128.152344 61.007812 128.078125 60.9375 128.078125 60.847656 L 128.078125 58.222656 C 128.078125 58.132812 128.152344 58.0625 128.242188 58.0625 C 128.332031 58.0625 128.40625 58.132812 128.40625 58.222656 L 128.40625 60.847656 C 128.40625 60.9375 128.332031 61.007812 128.242188 61.007812 " fill-opacity="1" fill-rule="nonzero"/><path fill="#000000" d="M 216.230469 75.554688 L 181.136719 75.554688 L 181.136719 51.539062 L 216.230469 51.539062 L 216.230469 75.554688 " fill-opacity="1" fill-rule="nonzero"/><path fill="#4ada85" d="M 214.1875 73.441406 L 179.09375 73.441406 L 179.09375 51.117188 L 214.1875 51.117188 L 214.1875 73.441406 " fill-opacity="1" fill-rule="nonzero"/><path fill="#ffffff" d="M 209.175781 57.421875 L 184.796875 57.421875 L 184.796875 55.589844 L 209.175781 55.589844 L 209.175781 57.421875 " fill-opacity="1" fill-rule="nonzero"/><path fill="#ffffff" d="M 209.175781 61.976562 L 184.796875 61.976562 L 184.796875 60.140625 L 209.175781 60.140625 L 209.175781 61.976562 " fill-opacity="1" fill-rule="nonzero"/><path fill="#ffffff" d="M 205.234375 66.921875 L 184.796875 66.921875 L 184.796875 65.089844 L 205.234375 65.089844 L 205.234375 66.921875 " fill-opacity="1" fill-rule="nonzero"/><path fill="#000000" d="M 216.230469 104.949219 L 181.136719 104.949219 L 181.136719 80.933594 L 216.230469 80.933594 L 216.230469 104.949219 " fill-opacity="1" fill-rule="nonzero"/><path fill="#4ada85" d="M 214.1875 102.835938 L 179.09375 102.835938 L 179.09375 80.511719 L 214.1875 80.511719 L 214.1875 102.835938 " fill-opacity="1" fill-rule="nonzero"/><path fill="#ffffff" d="M 209.175781 86.816406 L 184.796875 86.816406 L 184.796875 84.984375 L 209.175781 84.984375 L 209.175781 86.816406 " fill-opacity="1" fill-rule="nonzero"/><path fill="#ffffff" d="M 209.175781 91.371094 L 184.796875 91.371094 L 184.796875 89.539062 L 209.175781 89.539062 L 209.175781 91.371094 " fill-opacity="1" fill-rule="nonzero"/><path fill="#ffffff" d="M 205.234375 96.320312 L 184.796875 96.320312 L 184.796875 94.484375 L 205.234375 94.484375 L 205.234375 96.320312 " fill-opacity="1" fill-rule="nonzero"/><path fill="#000000" d="M 216.230469 134.332031 L 181.136719 134.332031 L 181.136719 110.320312 L 216.230469 110.320312 L 216.230469 134.332031 " fill-opacity="1" fill-rule="nonzero"/><path fill="#4ada85" d="M 214.1875 132.222656 L 179.09375 132.222656 L 179.09375 109.894531 L 214.1875 109.894531 L 214.1875 132.222656 " fill-opacity="1" fill-rule="nonzero"/><path fill="#ffffff" d="M 209.175781 116.203125 L 184.796875 116.203125 L 184.796875 114.367188 L 209.175781 114.367188 L 209.175781 116.203125 " fill-opacity="1" fill-rule="nonzero"/><path fill="#ffffff" d="M 209.175781 120.757812 L 184.796875 120.757812 L 184.796875 118.921875 L 209.175781 118.921875 L 209.175781 120.757812 " fill-opacity="1" fill-rule="nonzero"/><path fill="#ffffff" d="M 205.234375 125.703125 L 184.796875 125.703125 L 184.796875 123.871094 L 205.234375 123.871094 L 205.234375 125.703125 " fill-opacity="1" fill-rule="nonzero"/></svg>