<svg xmlns="http://www.w3.org/2000/svg" xmlns:xlink="http://www.w3.org/1999/xlink" width="450" zoomAndPan="magnify" viewBox="0 0 337.5 149.999998" height="200" preserveAspectRatio="xMidYMid meet" version="1.0"><defs><clipPath id="ebfdc0a10f"><path d="M 224 48 L 235 48 L 235 140.300781 L 224 140.300781 Z M 224 48 " clip-rule="nonzero"/></clipPath><clipPath id="494cfd7f16"><path d="M 194.539062 13 L 264.933594 13 L 264.933594 84 L 194.539062 84 Z M 194.539062 13 " clip-rule="nonzero"/></clipPath><clipPath id="a9b10fa6c4"><path d="M 194.539062 25 L 264.933594 25 L 264.933594 72 L 194.539062 72 Z M 194.539062 25 " clip-rule="nonzero"/></clipPath><clipPath id="af70bbc455"><path d="M 194.539062 48 L 264.933594 48 L 264.933594 84 L 194.539062 84 Z M 194.539062 48 " clip-rule="nonzero"/></clipPath><clipPath id="a2e060d8a1"><path d="M 79.410156 1.371094 L 168.527344 1.371094 L 168.527344 148.902344 L 79.410156 148.902344 Z M 79.410156 1.371094 " clip-rule="nonzero"/></clipPath></defs><g clip-path="url(#ebfdc0a10f)"><path fill="#bdbcbc" d="M 224.652344 140.328125 L 234.78125 140.328125 L 234.78125 48.355469 L 224.652344 48.355469 Z M 224.652344 140.328125 " fill-opacity="1" fill-rule="nonzero"/></g><path fill="#7f8784" d="M 224.652344 87.519531 L 234.78125 87.519531 L 234.78125 83.714844 L 224.652344 83.714844 Z M 224.652344 87.519531 " fill-opacity="1" fill-rule="nonzero"/><g clip-path="url(#494cfd7f16)"><path fill="#bdbcbc" d="M 264.867188 71.929688 C 264.867188 78.4375 259.621094 83.714844 253.152344 83.714844 L 206.285156 83.714844 C 199.816406 83.714844 194.570312 78.4375 194.570312 71.929688 L 194.570312 24.785156 C 194.570312 18.277344 199.816406 13 206.285156 13 L 253.152344 13 C 259.621094 13 264.867188 18.277344 264.867188 24.785156 L 264.867188 71.929688 " fill-opacity="1" fill-rule="nonzero"/></g><path fill="#f68712" d="M 262.179688 70.125 C 262.179688 76.136719 257.339844 81.011719 251.359375 81.011719 L 208.074219 81.011719 C 202.101562 81.011719 197.253906 76.136719 197.253906 70.125 L 197.253906 26.585938 C 197.253906 20.574219 202.101562 15.703125 208.074219 15.703125 L 251.359375 15.703125 C 257.339844 15.703125 262.179688 20.574219 262.179688 26.585938 L 262.179688 70.125 " fill-opacity="1" fill-rule="nonzero"/><path fill="#ffffff" d="M 230.699219 27.886719 L 223.546875 27.886719 L 223.546875 21.882812 L 230.699219 21.882812 L 230.699219 27.886719 M 230.699219 76.019531 L 223.546875 76.019531 L 223.546875 70.015625 L 230.699219 70.015625 L 230.699219 76.019531 M 225.054688 65.144531 C 225.882812 65.289062 227.097656 65.144531 228.609375 65.144531 C 232.992188 65.144531 237.035156 63.734375 237.035156 58.972656 C 237.035156 54.503906 233.1875 52.65625 228.5625 52.65625 L 225.054688 52.65625 L 225.054688 65.144531 M 224.734375 44.046875 L 228.667969 44.046875 C 233.253906 44.046875 235.941406 41.726562 235.941406 38.585938 C 235.941406 34.769531 232.953125 33.269531 228.570312 33.269531 L 224.734375 33.269531 L 224.734375 44.046875 M 213.386719 26.007812 L 227.855469 26.027344 C 227.855469 26.027344 236.648438 25.523438 240.511719 29.347656 C 242.621094 31.429688 244.339844 33.808594 244.339844 37.394531 C 244.339844 45.328125 239.0625 47.542969 239.0625 47.542969 C 239.0625 47.542969 246.050781 49.1875 246.050781 58.976562 C 246.050781 62.902344 244.261719 65.675781 242.152344 68.113281 C 238.460938 72.371094 226.214844 72.371094 226.214844 72.371094 L 213.386719 72.371094 L 213.386719 65.144531 L 216.980469 65.144531 L 216.980469 33.269531 L 213.386719 33.269531 L 213.386719 26.007812 " fill-opacity="1" fill-rule="nonzero"/><g clip-path="url(#a9b10fa6c4)"><path fill="#ab9c91" d="M 194.570312 71.929688 L 194.570312 25.617188 C 195.335938 27.363281 196.265625 29.054688 197.226562 30.722656 C 197.234375 30.738281 197.246094 30.757812 197.253906 30.773438 L 197.253906 52.839844 C 196.316406 51.574219 195.425781 50.273438 194.570312 48.949219 L 194.570312 71.929688 M 262.179688 65.632812 L 262.179688 57 C 263.089844 56.578125 263.984375 56.128906 264.867188 55.660156 L 264.867188 64.238281 C 263.984375 64.71875 263.085938 65.183594 262.179688 65.632812 " fill-opacity="1" fill-rule="nonzero"/></g><path fill="#de7211" d="M 234.765625 72.675781 C 233.410156 72.675781 232.050781 72.617188 230.699219 72.496094 L 230.699219 72.105469 C 234.585938 71.699219 239.925781 70.679688 242.152344 68.113281 C 243.765625 66.25 245.1875 64.191406 245.769531 61.574219 C 251.429688 60.976562 257 59.402344 262.179688 57 L 262.179688 65.632812 C 253.632812 69.863281 244.171875 72.675781 234.765625 72.675781 M 213.386719 67.078125 C 207.902344 64.039062 202.972656 59.921875 199.027344 55.113281 C 198.421875 54.371094 197.828125 53.613281 197.253906 52.839844 L 197.253906 30.773438 C 199.71875 35.0625 202.113281 39.417969 204.898438 43.507812 C 208.148438 48.277344 212.238281 52.171875 216.980469 55.148438 L 216.980469 65.144531 L 213.386719 65.144531 L 213.386719 67.078125 M 226.007812 65.207031 C 225.648438 65.207031 225.328125 65.191406 225.054688 65.144531 L 225.054688 59.113281 C 228.757812 60.484375 232.601562 61.320312 236.480469 61.667969 C 235.226562 64.289062 232.019531 65.144531 228.609375 65.144531 C 227.601562 65.144531 226.726562 65.207031 226.007812 65.207031 " fill-opacity="1" fill-rule="nonzero"/><path fill="#e5d3c3" d="M 230.699219 72.496094 C 227.753906 72.230469 224.828125 71.667969 221.949219 70.765625 C 218.996094 69.835938 216.121094 68.59375 213.386719 67.078125 L 213.386719 65.144531 L 216.980469 65.144531 L 216.980469 55.148438 C 219.460938 56.707031 222.117188 58.011719 224.925781 59.066406 C 224.96875 59.082031 225.011719 59.097656 225.054688 59.113281 L 225.054688 65.144531 C 225.328125 65.191406 225.648438 65.207031 226.007812 65.207031 C 226.726562 65.207031 227.601562 65.144531 228.609375 65.144531 C 232.019531 65.144531 235.226562 64.289062 236.480469 61.667969 C 237.859375 61.789062 239.242188 61.847656 240.625 61.847656 C 242.34375 61.847656 244.0625 61.757812 245.769531 61.574219 C 245.1875 64.191406 243.765625 66.25 242.152344 68.113281 C 239.925781 70.679688 234.585938 71.699219 230.699219 72.105469 L 230.699219 72.496094 " fill-opacity="1" fill-rule="nonzero"/><g clip-path="url(#af70bbc455)"><path fill="#9b8370" d="M 253.152344 83.714844 L 206.285156 83.714844 C 199.816406 83.714844 194.570312 78.4375 194.570312 71.929688 L 194.570312 48.949219 C 195.425781 50.273438 196.316406 51.574219 197.253906 52.839844 L 197.253906 70.125 C 197.253906 76.136719 202.101562 81.011719 208.074219 81.011719 L 251.359375 81.011719 C 257.339844 81.011719 262.179688 76.136719 262.179688 70.125 L 262.179688 65.632812 C 263.085938 65.183594 263.984375 64.71875 264.867188 64.238281 L 264.867188 71.929688 C 264.867188 78.4375 259.621094 83.714844 253.152344 83.714844 " fill-opacity="1" fill-rule="nonzero"/></g><path fill="#c86010" d="M 251.359375 81.011719 L 208.074219 81.011719 C 202.101562 81.011719 197.253906 76.136719 197.253906 70.125 L 197.253906 52.839844 C 197.828125 53.613281 198.421875 54.371094 199.027344 55.113281 C 202.972656 59.921875 207.902344 64.039062 213.386719 67.078125 L 213.386719 72.371094 L 223.546875 72.371094 L 223.546875 76.019531 L 230.699219 76.019531 L 230.699219 72.496094 C 232.050781 72.617188 233.410156 72.675781 234.765625 72.675781 C 244.171875 72.675781 253.632812 69.863281 262.179688 65.632812 L 262.179688 70.125 C 262.179688 76.136719 257.339844 81.011719 251.359375 81.011719 " fill-opacity="1" fill-rule="nonzero"/><path fill="#cfb097" d="M 230.699219 76.019531 L 223.546875 76.019531 L 223.546875 72.371094 L 213.386719 72.371094 L 213.386719 67.078125 C 216.121094 68.59375 218.996094 69.835938 221.949219 70.765625 C 224.828125 71.667969 227.753906 72.230469 230.699219 72.496094 L 230.699219 76.019531 " fill-opacity="1" fill-rule="nonzero"/><path fill="#f6ba99" d="M 86.285156 82.804688 C 86.285156 88.136719 79.441406 121.304688 93.617188 134.441406 C 107.792969 147.582031 118.585938 143.875 121.335938 142.707031 C 124.085938 141.542969 131.773438 143.34375 131.773438 143.34375 C 131.773438 143.34375 144.144531 145.164062 152.648438 138.539062 C 162.960938 130.507812 167.207031 109.210938 167.207031 95.964844 C 167.207031 82.714844 152.542969 81.773438 152.542969 81.773438 C 151.699219 79.65625 152.367188 65.359375 158.011719 40.214844 C 163.652344 15.066406 155.46875 13.9375 149.265625 13.9375 C 143.054688 13.9375 137.839844 18.316406 137.554688 22.976562 C 137.554688 22.976562 141.789062 4.613281 125.988281 3.484375 C 110.191406 2.351562 112.730469 20.292969 112.730469 20.292969 C 112.730469 20.292969 111.917969 10.15625 100.707031 10.898438 C 89.492188 11.640625 89.914062 24.671875 92.136719 30.820312 L 106.605469 73.976562 C 106.605469 73.976562 102.511719 62.488281 93.515625 65.492188 C 84.523438 68.496094 86.285156 82.804688 86.285156 82.804688 " fill-opacity="1" fill-rule="nonzero"/><g clip-path="url(#a2e060d8a1)"><path stroke-linecap="butt" transform="matrix(0.0529126, 0, 0, -0.0529926, 12.190906, 186.421594)" fill="none" stroke-linejoin="miter" d="M 1400.314466 1955.308577 C 1400.314466 1854.690186 1270.973767 1228.792196 1538.883241 980.895017 C 1806.792715 732.924126 2010.770085 802.877864 2062.742603 824.918083 C 2114.715122 846.884589 2260.001935 812.902847 2260.001935 812.902847 C 2260.001935 812.902847 2493.804443 778.552539 2654.520598 903.569968 C 2849.417542 1055.124116 2929.664882 1457.007975 2929.664882 1706.96912 C 2929.664882 1957.003979 2652.527334 1974.768837 2652.527334 1974.768837 C 2636.58122 2014.721341 2649.205227 2284.511312 2755.881774 2759.002581 C 2862.484496 3233.567564 2707.821959 3254.870652 2590.588494 3254.870652 C 2473.20738 3254.870652 2374.651539 3172.238259 2369.262343 3084.298522 C 2369.262343 3084.298522 2449.288209 3430.823838 2150.667702 3452.126926 C 1852.121019 3473.503727 1900.107009 3134.939427 1900.107009 3134.939427 C 1900.107009 3134.939427 1884.751492 3326.224939 1672.87489 3312.219449 C 1460.924463 3298.213958 1468.89752 3052.307034 1510.903717 2936.282604 L 1784.350036 2121.900199 C 1784.350036 2121.900199 1706.981855 2338.690446 1536.963801 2282.005067 C 1367.019572 2225.319688 1400.314466 1955.308577 1400.314466 1955.308577 Z M 1400.314466 1955.308577 " stroke="#1e1613" stroke-width="47.986" stroke-opacity="1" stroke-miterlimit="10"/></g><path fill="#1e1613" d="M 135.175781 78.367188 L 133.59375 78.277344 C 134.984375 52.929688 136.289062 23.140625 136.304688 22.84375 L 138.832031 23.089844 C 138.8125 23.382812 136.570312 53.019531 135.175781 78.367188 " fill-opacity="1" fill-rule="nonzero"/><path fill="#1e1613" d="M 119.730469 75.496094 L 118.144531 75.496094 C 118.144531 45.84375 111.496094 20.574219 111.433594 20.316406 L 113.898438 19.804688 C 113.957031 20.0625 119.730469 45.65625 119.730469 75.496094 " fill-opacity="1" fill-rule="nonzero"/><path fill="#1e1613" d="M 138.917969 81.277344 C 130.664062 77.089844 121.828125 75.527344 112.660156 76.628906 C 112.660156 76.628906 111.464844 76.984375 111.316406 76.097656 C 111.167969 75.214844 112.46875 75.050781 112.46875 75.050781 C 121.957031 73.910156 131.097656 75.527344 139.636719 79.859375 C 139.636719 79.859375 140.445312 80.339844 140.144531 81.007812 C 139.847656 81.679688 138.917969 81.277344 138.917969 81.277344 " fill-opacity="1" fill-rule="nonzero"/><path fill="#1e1613" d="M 150.671875 101.238281 C 147.6875 101.238281 146.378906 100.015625 146.292969 99.933594 L 147.40625 99.054688 C 147.433594 99.082031 150.253906 101.460938 157.746094 97.949219 L 163.09375 95.476562 L 158.359375 98.894531 C 155.039062 100.449219 152.550781 101.238281 150.671875 101.238281 " fill-opacity="1" fill-rule="nonzero"/><path fill="#1e1613" d="M 121.335938 117.492188 L 120.785156 122.613281 L 120.390625 117.316406 C 120.390625 104.285156 133.394531 100.289062 133.53125 100.25 L 133.984375 101.773438 C 133.484375 101.921875 122.328125 105.898438 121.335938 117.492188 " fill-opacity="1" fill-rule="nonzero"/><path fill="#1e1613" d="M 116.78125 91.527344 C 114.082031 83.148438 105.433594 74.363281 105.351562 74.28125 L 107.710938 73.433594 C 107.820312 73.761719 115.480469 82.316406 118.292969 91.039062 L 116.78125 91.527344 " fill-opacity="1" fill-rule="nonzero"/><path fill="#1e1613" d="M 107.011719 100.265625 C 98.890625 100.265625 93.917969 93.332031 91.308594 79.1875 L 91.0625 75.695312 L 92.121094 79.039062 C 94.609375 92.546875 99.957031 98.914062 107.425781 98.671875 C 115.25 98.425781 116.960938 93.21875 116.976562 93.167969 L 118.492188 93.636719 C 118.410156 93.898438 116.417969 99.976562 107.476562 100.261719 C 107.320312 100.265625 107.164062 100.265625 107.011719 100.265625 " fill-opacity="1" fill-rule="nonzero"/><path fill="#1e1613" d="M 93.359375 87.109375 C 91.488281 86.460938 89.148438 79.566406 88.199219 76.753906 L 87.828125 74.21875 L 88.976562 76.4375 C 90.351562 80.511719 92.738281 85.054688 93.578125 85.441406 L 93.359375 87.109375 " fill-opacity="1" fill-rule="nonzero"/><path stroke-linecap="butt" transform="matrix(0.0529126, 0, 0, -0.0529926, 12.190906, 186.421594)" fill-opacity="1" fill="#fcebdc" fill-rule="nonzero" stroke-linejoin="miter" d="M 2109.39975 1972.336305 C 2109.39975 1972.336305 2169.41915 1954.497733 2181.969332 1899.507755 C 2194.519514 1844.517777 2306.585257 1856.975293 2339.289555 1864.494029 C 2371.993853 1872.012766 2401.523693 1932.60494 2369.262343 1959.805077 " stroke="#1e1613" stroke-width="10" stroke-opacity="1" stroke-miterlimit="10"/><path fill="#1e1613" d="M 99.441406 89.152344 C 99.441406 89.152344 98.824219 89.628906 98.601562 89.28125 C 98.378906 88.933594 99.085938 88.574219 99.085938 88.574219 L 109.140625 83.464844 C 109.140625 83.464844 109.839844 83.023438 110.027344 83.378906 C 110.214844 83.730469 109.496094 84.039062 109.496094 84.039062 L 99.441406 89.152344 " fill-opacity="1" fill-rule="nonzero"/><path fill="#1e1613" d="M 134.660156 101.828125 C 129.660156 101.828125 125.324219 100.960938 122.015625 99.214844 C 119.324219 97.789062 117.574219 95.851562 116.96875 93.613281 C 116.347656 91.320312 116.988281 86.535156 119.8125 83.496094 C 121.316406 81.875 124.042969 80.128906 128.46875 80.996094 C 137.410156 82.75 152.300781 81.003906 152.449219 80.988281 L 152.289062 83.019531 C 151.03125 82.871094 137.351562 84.355469 128.164062 82.554688 C 125.183594 81.972656 122.765625 82.652344 120.972656 84.582031 C 118.578125 87.160156 117.988281 91.3125 118.5 93.195312 C 118.988281 95 120.460938 96.59375 122.753906 97.808594 C 128.164062 100.664062 139.511719 102.105469 155 96.714844 L 158.960938 95.621094 L 155.433594 97.585938 C 147.945312 100.191406 140.816406 101.828125 134.660156 101.828125 " fill-opacity="1" fill-rule="nonzero"/></svg>