<svg xmlns="http://www.w3.org/2000/svg" xmlns:xlink="http://www.w3.org/1999/xlink" width="450" zoomAndPan="magnify" viewBox="0 0 337.5 149.999998" height="200" preserveAspectRatio="xMidYMid meet" version="1.0"><defs><clipPath id="8bb13a433d"><path d="M 71.824219 10.023438 L 178.167969 10.023438 L 178.167969 136.585938 L 71.824219 136.585938 Z M 71.824219 10.023438 " clip-rule="nonzero"/></clipPath><clipPath id="1c75eb05bc"><path d="M 224 48 L 235 48 L 235 140.300781 L 224 140.300781 Z M 224 48 " clip-rule="nonzero"/></clipPath><clipPath id="2501235d68"><path d="M 194.539062 13 L 264.933594 13 L 264.933594 84 L 194.539062 84 Z M 194.539062 13 " clip-rule="nonzero"/></clipPath><clipPath id="bad1d8badc"><path d="M 194.539062 25 L 264.933594 25 L 264.933594 72 L 194.539062 72 Z M 194.539062 25 " clip-rule="nonzero"/></clipPath><clipPath id="83d2dbeddf"><path d="M 194.539062 48 L 264.933594 48 L 264.933594 84 L 194.539062 84 Z M 194.539062 48 " clip-rule="nonzero"/></clipPath></defs><path fill="#f6ba99" d="M 170.601562 60.773438 C 173.90625 63.265625 176.636719 67.214844 176.636719 73.453125 C 176.636719 89.246094 171.566406 114.628906 159.253906 124.203125 C 149.097656 132.097656 134.324219 129.929688 134.324219 129.929688 C 134.324219 129.929688 125.144531 127.78125 121.859375 129.171875 C 118.574219 130.5625 105.6875 134.980469 88.757812 119.320312 C 71.828125 103.660156 75.753906 64.546875 75.65625 58.1875 C 75.214844 29.339844 89.980469 35.027344 89.980469 35.027344 C 89.980469 35.027344 87.71875 25.921875 99.40625 22.683594 C 113.804688 18.691406 114.621094 30.605469 114.621094 30.605469 C 114.621094 30.605469 115.390625 16.441406 126.921875 15.816406 C 126.921875 15.816406 140.664062 14.550781 143.035156 25.921875 C 143.035156 25.921875 149.742188 10.074219 164.910156 19.128906 C 164.910156 19.128906 176.96875 26.480469 170.648438 56.285156 L 170.601562 60.773438 " fill-opacity="1" fill-rule="nonzero"/><g clip-path="url(#8bb13a433d)"><path stroke-linecap="butt" transform="matrix(0.0631862, 0, 0, -0.0631673, -17.331747, 202.134194)" fill="none" stroke-linejoin="miter" d="M 2974.275758 2237.877585 C 3026.576502 2198.423845 3069.789528 2135.90389 3069.789528 2037.14586 C 3069.789528 1787.127881 2989.545597 1385.293394 2794.685142 1233.724245 C 2633.949994 1108.746175 2400.142176 1143.067219 2400.142176 1143.067219 C 2400.142176 1143.067219 2254.862331 1177.079064 2202.870693 1155.064124 C 2150.879055 1133.049185 1946.930882 1063.108464 1678.997755 1311.023893 C 1411.064629 1558.939322 1473.194946 2178.140417 1471.649415 2278.815478 C 1464.663619 2735.501795 1698.347794 2645.463165 1698.347794 2645.463165 C 1698.347794 2645.463165 1662.553313 2789.611548 1847.522375 2840.876674 C 2075.395357 2904.076866 2088.31599 2715.465726 2088.31599 2715.465726 C 2088.31599 2715.465726 2100.494769 2939.696543 2282.990982 2949.590898 C 2282.990982 2949.590898 2500.478001 2969.626967 2538.003475 2789.611548 C 2538.003475 2789.611548 2644.150494 3040.495283 2884.202254 2897.150817 C 2884.202254 2897.150817 3075.044331 2780.768468 2975.017613 2308.931421 Z M 2974.275758 2237.877585 " stroke="#1e1613" stroke-width="47.986" stroke-opacity="1" stroke-miterlimit="10"/></g><path fill="#1e1613" d="M 167.128906 43.671875 L 166.820312 41.800781 C 166.742188 41.816406 166.707031 41.832031 166.707031 41.832031 C 166.71875 41.824219 168.738281 41.046875 168.9375 34.746094 L 169.308594 28.535156 L 169.9375 34.878906 C 169.695312 42.660156 167.820312 43.558594 167.128906 43.671875 " fill-opacity="1" fill-rule="nonzero"/><path fill="#1e1613" d="M 117.347656 64.535156 C 113.855469 57.011719 113.289062 28.09375 113.089844 26.808594 L 116.160156 26.53125 C 115.804688 28.09375 115.746094 56.585938 119.066406 63.734375 L 117.347656 64.535156 " fill-opacity="1" fill-rule="nonzero"/><path fill="#1e1613" d="M 143.171875 58.320312 L 141.320312 57.925781 C 144.097656 44.941406 142.113281 22.441406 142.09375 22.214844 L 143.980469 22.046875 C 144.066406 22.976562 146.011719 45.058594 143.171875 58.320312 " fill-opacity="1" fill-rule="nonzero"/><path fill="#1e1613" d="M 114.839844 70.027344 C 113.914062 70.027344 112.960938 69.835938 111.984375 69.460938 C 100.949219 65.183594 89.578125 37.199219 89.097656 36.011719 L 91.261719 34.941406 C 91.375 35.222656 102.398438 63.710938 112.667969 67.695312 C 114.21875 68.292969 115.609375 68.28125 116.914062 67.652344 L 117.734375 69.363281 C 116.8125 69.804688 115.84375 70.027344 114.839844 70.027344 " fill-opacity="1" fill-rule="nonzero"/><path fill="#1e1613" d="M 156.917969 80.425781 C 153.351562 80.425781 151.789062 78.96875 151.6875 78.867188 L 153.019531 77.824219 C 153.050781 77.851562 156.417969 80.691406 165.367188 76.503906 L 171.75 73.558594 L 166.097656 77.628906 C 162.132812 79.484375 159.160156 80.425781 156.917969 80.425781 " fill-opacity="1" fill-rule="nonzero"/><path stroke-linecap="butt" transform="matrix(0.0631862, 0, 0, -0.0631673, -17.331747, 202.134194)" fill-opacity="1" fill="#fcebdc" fill-rule="nonzero" stroke-linejoin="miter" d="M 2249.916634 2291.678139 C 2249.916634 2291.678139 2309.94503 2273.806461 2322.494736 2218.830952 C 2335.044441 2163.855442 2447.126296 2176.347065 2479.829716 2183.829671 C 2512.533137 2191.312277 2542.083675 2251.915201 2509.813003 2279.124677 " stroke="#1e1613" stroke-width="10" stroke-opacity="1" stroke-miterlimit="10"/><path fill="#1e1613" d="M 137.796875 81.125 C 131.824219 81.128906 126.648438 80.09375 122.695312 78.011719 C 119.480469 76.316406 117.394531 74.003906 116.667969 71.332031 C 115.925781 68.605469 116.695312 62.898438 120.0625 59.277344 C 121.863281 57.34375 125.113281 55.261719 130.402344 56.292969 C 141.082031 58.386719 169.601562 58.957031 169.777344 58.933594 L 169.777344 61.984375 C 168.148438 60.722656 141.011719 60.300781 130.039062 58.152344 C 126.480469 57.457031 123.589844 58.269531 121.453125 60.566406 C 118.585938 63.644531 117.890625 68.589844 118.5 70.835938 C 119.082031 72.988281 120.839844 74.886719 123.582031 76.335938 C 130.039062 79.738281 143.589844 81.457031 162.085938 75.03125 L 166.8125 73.730469 L 162.601562 76.070312 C 153.660156 79.175781 145.148438 81.125 137.796875 81.125 " fill-opacity="1" fill-rule="nonzero"/><path fill="#1e1613" d="M 99.0625 77.320312 C 89.363281 77.320312 83.425781 69.050781 80.3125 52.191406 L 80.015625 48.027344 L 81.277344 52.015625 C 84.253906 68.117188 90.636719 75.707031 99.554688 75.417969 C 108.898438 75.121094 110.941406 68.917969 110.960938 68.851562 L 112.769531 69.417969 C 112.675781 69.726562 110.292969 76.972656 99.617188 77.3125 C 99.429688 77.316406 99.246094 77.320312 99.0625 77.320312 " fill-opacity="1" fill-rule="nonzero"/><path fill="#1e1613" d="M 84.179688 65.738281 C 81.945312 64.96875 79.152344 56.746094 78.019531 53.398438 L 77.574219 50.375 L 78.949219 53.023438 C 80.585938 57.875 83.4375 63.292969 84.441406 63.75 L 84.179688 65.738281 " fill-opacity="1" fill-rule="nonzero"/><path fill="#1e1613" d="M 90.027344 64.070312 C 90.027344 64.070312 89.285156 64.640625 89.019531 64.222656 C 88.753906 63.808594 89.597656 63.378906 89.597656 63.378906 L 100.875 57.605469 C 100.875 57.605469 101.710938 57.082031 101.9375 57.503906 C 102.160156 57.925781 101.304688 58.292969 101.304688 58.292969 L 90.027344 64.070312 " fill-opacity="1" fill-rule="nonzero"/><path fill="#1e1613" d="M 103.273438 50.921875 C 103.273438 50.921875 102.53125 51.492188 102.265625 51.078125 C 102 50.664062 102.84375 50.234375 102.84375 50.234375 L 112.769531 45.023438 C 112.769531 45.023438 113.605469 44.5 113.828125 44.921875 C 114.054688 45.34375 113.195312 45.714844 113.195312 45.714844 L 103.273438 50.921875 " fill-opacity="1" fill-rule="nonzero"/><path fill="#1e1613" d="M 121.335938 45.511719 C 121.335938 45.511719 120.417969 45.660156 120.378906 45.171875 C 120.339844 44.679688 121.289062 44.703125 121.289062 44.703125 L 138.578125 44.777344 C 138.578125 44.777344 139.5625 44.710938 139.558594 45.1875 C 139.558594 45.664062 138.628906 45.582031 138.628906 45.582031 L 121.335938 45.511719 " fill-opacity="1" fill-rule="nonzero"/><path fill="#1e1613" d="M 144.097656 50.738281 C 144.097656 50.738281 143.171875 50.890625 143.136719 50.394531 C 143.097656 49.90625 144.046875 49.929688 144.046875 49.929688 L 161.335938 50 C 161.335938 50 162.320312 49.9375 162.320312 50.414062 C 162.316406 50.890625 161.386719 50.808594 161.386719 50.808594 L 144.097656 50.738281 " fill-opacity="1" fill-rule="nonzero"/><path fill="#1e1613" d="M 121.230469 99.746094 L 120.570312 105.851562 L 120.097656 99.535156 C 120.097656 84.007812 135.628906 79.238281 135.792969 79.191406 L 136.332031 81.007812 C 135.730469 81.1875 122.414062 85.929688 121.230469 99.746094 " fill-opacity="1" fill-rule="nonzero"/><path fill="#1e1613" d="M 165.367188 59.894531 L 163.5 59.550781 C 166.800781 41.675781 166.757812 32.519531 166.738281 32.429688 L 166.707031 26.527344 L 167.804688 33.351562 C 167.890625 33.734375 168.746094 41.582031 165.367188 59.894531 " fill-opacity="1" fill-rule="nonzero"/><g clip-path="url(#1c75eb05bc)"><path fill="#bdbcbc" d="M 224.652344 140.328125 L 234.78125 140.328125 L 234.78125 48.355469 L 224.652344 48.355469 Z M 224.652344 140.328125 " fill-opacity="1" fill-rule="nonzero"/></g><path fill="#7f8784" d="M 224.652344 87.519531 L 234.78125 87.519531 L 234.78125 83.714844 L 224.652344 83.714844 Z M 224.652344 87.519531 " fill-opacity="1" fill-rule="nonzero"/><g clip-path="url(#2501235d68)"><path fill="#bdbcbc" d="M 264.867188 71.929688 C 264.867188 78.4375 259.621094 83.714844 253.152344 83.714844 L 206.285156 83.714844 C 199.816406 83.714844 194.570312 78.4375 194.570312 71.929688 L 194.570312 24.785156 C 194.570312 18.277344 199.816406 13 206.285156 13 L 253.152344 13 C 259.621094 13 264.867188 18.277344 264.867188 24.785156 L 264.867188 71.929688 " fill-opacity="1" fill-rule="nonzero"/></g><path fill="#f68712" d="M 262.179688 70.125 C 262.179688 76.136719 257.339844 81.011719 251.359375 81.011719 L 208.074219 81.011719 C 202.101562 81.011719 197.253906 76.136719 197.253906 70.125 L 197.253906 26.585938 C 197.253906 20.574219 202.101562 15.703125 208.074219 15.703125 L 251.359375 15.703125 C 257.339844 15.703125 262.179688 20.574219 262.179688 26.585938 L 262.179688 70.125 " fill-opacity="1" fill-rule="nonzero"/><path fill="#ffffff" d="M 230.699219 27.886719 L 223.546875 27.886719 L 223.546875 21.882812 L 230.699219 21.882812 L 230.699219 27.886719 M 230.699219 76.019531 L 223.546875 76.019531 L 223.546875 70.015625 L 230.699219 70.015625 L 230.699219 76.019531 M 225.054688 65.144531 C 225.882812 65.289062 227.097656 65.144531 228.609375 65.144531 C 232.992188 65.144531 237.035156 63.734375 237.035156 58.972656 C 237.035156 54.503906 233.1875 52.65625 228.5625 52.65625 L 225.054688 52.65625 L 225.054688 65.144531 M 224.734375 44.046875 L 228.667969 44.046875 C 233.253906 44.046875 235.941406 41.726562 235.941406 38.585938 C 235.941406 34.769531 232.953125 33.269531 228.570312 33.269531 L 224.734375 33.269531 L 224.734375 44.046875 M 213.386719 26.007812 L 227.855469 26.027344 C 227.855469 26.027344 236.648438 25.523438 240.511719 29.347656 C 242.621094 31.429688 244.339844 33.808594 244.339844 37.394531 C 244.339844 45.328125 239.0625 47.542969 239.0625 47.542969 C 239.0625 47.542969 246.050781 49.1875 246.050781 58.976562 C 246.050781 62.902344 244.261719 65.675781 242.152344 68.113281 C 238.460938 72.371094 226.214844 72.371094 226.214844 72.371094 L 213.386719 72.371094 L 213.386719 65.144531 L 216.980469 65.144531 L 216.980469 33.269531 L 213.386719 33.269531 L 213.386719 26.007812 " fill-opacity="1" fill-rule="nonzero"/><g clip-path="url(#bad1d8badc)"><path fill="#ab9c91" d="M 194.570312 71.929688 L 194.570312 25.617188 C 195.335938 27.363281 196.265625 29.054688 197.226562 30.722656 C 197.234375 30.738281 197.246094 30.757812 197.253906 30.773438 L 197.253906 52.839844 C 196.316406 51.574219 195.425781 50.273438 194.570312 48.949219 L 194.570312 71.929688 M 262.179688 65.632812 L 262.179688 57 C 263.089844 56.578125 263.984375 56.128906 264.867188 55.660156 L 264.867188 64.238281 C 263.984375 64.71875 263.085938 65.183594 262.179688 65.632812 " fill-opacity="1" fill-rule="nonzero"/></g><path fill="#de7211" d="M 234.765625 72.675781 C 233.410156 72.675781 232.050781 72.617188 230.699219 72.496094 L 230.699219 72.105469 C 234.585938 71.699219 239.925781 70.679688 242.152344 68.113281 C 243.765625 66.25 245.1875 64.191406 245.769531 61.574219 C 251.429688 60.976562 257 59.402344 262.179688 57 L 262.179688 65.632812 C 253.632812 69.863281 244.171875 72.675781 234.765625 72.675781 M 213.386719 67.078125 C 207.902344 64.039062 202.972656 59.921875 199.027344 55.113281 C 198.421875 54.371094 197.828125 53.613281 197.253906 52.839844 L 197.253906 30.773438 C 199.71875 35.0625 202.113281 39.417969 204.898438 43.507812 C 208.148438 48.277344 212.238281 52.171875 216.980469 55.148438 L 216.980469 65.144531 L 213.386719 65.144531 L 213.386719 67.078125 M 226.007812 65.207031 C 225.648438 65.207031 225.328125 65.191406 225.054688 65.144531 L 225.054688 59.113281 C 228.757812 60.484375 232.601562 61.320312 236.480469 61.667969 C 235.226562 64.289062 232.019531 65.144531 228.609375 65.144531 C 227.601562 65.144531 226.726562 65.207031 226.007812 65.207031 " fill-opacity="1" fill-rule="nonzero"/><path fill="#e5d3c3" d="M 230.699219 72.496094 C 227.753906 72.230469 224.828125 71.667969 221.949219 70.765625 C 218.996094 69.835938 216.121094 68.59375 213.386719 67.078125 L 213.386719 65.144531 L 216.980469 65.144531 L 216.980469 55.148438 C 219.460938 56.707031 222.117188 58.011719 224.925781 59.066406 C 224.96875 59.082031 225.011719 59.097656 225.054688 59.113281 L 225.054688 65.144531 C 225.328125 65.191406 225.648438 65.207031 226.007812 65.207031 C 226.726562 65.207031 227.601562 65.144531 228.609375 65.144531 C 232.019531 65.144531 235.226562 64.289062 236.480469 61.667969 C 237.859375 61.789062 239.242188 61.847656 240.625 61.847656 C 242.34375 61.847656 244.0625 61.757812 245.769531 61.574219 C 245.1875 64.191406 243.765625 66.25 242.152344 68.113281 C 239.925781 70.679688 234.585938 71.699219 230.699219 72.105469 L 230.699219 72.496094 " fill-opacity="1" fill-rule="nonzero"/><g clip-path="url(#83d2dbeddf)"><path fill="#9b8370" d="M 253.152344 83.714844 L 206.285156 83.714844 C 199.816406 83.714844 194.570312 78.4375 194.570312 71.929688 L 194.570312 48.949219 C 195.425781 50.273438 196.316406 51.574219 197.253906 52.839844 L 197.253906 70.125 C 197.253906 76.136719 202.101562 81.011719 208.074219 81.011719 L 251.359375 81.011719 C 257.339844 81.011719 262.179688 76.136719 262.179688 70.125 L 262.179688 65.632812 C 263.085938 65.183594 263.984375 64.71875 264.867188 64.238281 L 264.867188 71.929688 C 264.867188 78.4375 259.621094 83.714844 253.152344 83.714844 " fill-opacity="1" fill-rule="nonzero"/></g><path fill="#c86010" d="M 251.359375 81.011719 L 208.074219 81.011719 C 202.101562 81.011719 197.253906 76.136719 197.253906 70.125 L 197.253906 52.839844 C 197.828125 53.613281 198.421875 54.371094 199.027344 55.113281 C 202.972656 59.921875 207.902344 64.039062 213.386719 67.078125 L 213.386719 72.371094 L 223.546875 72.371094 L 223.546875 76.019531 L 230.699219 76.019531 L 230.699219 72.496094 C 232.050781 72.617188 233.410156 72.675781 234.765625 72.675781 C 244.171875 72.675781 253.632812 69.863281 262.179688 65.632812 L 262.179688 70.125 C 262.179688 76.136719 257.339844 81.011719 251.359375 81.011719 " fill-opacity="1" fill-rule="nonzero"/><path fill="#cfb097" d="M 230.699219 76.019531 L 223.546875 76.019531 L 223.546875 72.371094 L 213.386719 72.371094 L 213.386719 67.078125 C 216.121094 68.59375 218.996094 69.835938 221.949219 70.765625 C 224.828125 71.667969 227.753906 72.230469 230.699219 72.496094 L 230.699219 76.019531 " fill-opacity="1" fill-rule="nonzero"/></svg>