<svg xmlns="http://www.w3.org/2000/svg" xmlns:xlink="http://www.w3.org/1999/xlink" width="400" zoomAndPan="magnify" viewBox="0 0 300 299.999988" height="400" preserveAspectRatio="xMidYMid meet" version="1.0"><defs><clipPath id="70ac4210cf"><path d="M 90 87.003906 L 210 87.003906 L 210 153 L 90 153 Z M 90 87.003906 " clip-rule="nonzero"/></clipPath><clipPath id="50160cf76b"><path d="M 125.761719 129.175781 L 174 129.175781 L 174 200.953125 L 125.761719 200.953125 Z M 125.761719 129.175781 " clip-rule="nonzero"/></clipPath></defs><path stroke-linecap="round" transform="matrix(0.222222, 0, 0, 0.222222, 149.999994, 149.999988)" fill-opacity="1" fill="#ffffff" fill-rule="nonzero" stroke-linejoin="round" d="M 349.699281 446.607521 C 349.699281 446.607521 -349.699225 446.607521 -349.699225 446.607521 C -402.996105 446.607521 -446.607438 402.996189 -446.607438 349.699308 C -446.607438 349.699308 -446.607438 -349.699198 -446.607438 -349.699198 C -446.607438 -402.996078 -402.996105 -446.607411 -349.699225 -446.607411 C -349.699225 -446.607411 349.699281 -446.607411 349.699281 -446.607411 C 402.996162 -446.607411 446.607494 -402.996078 446.607494 -349.699198 C 446.607494 -349.699198 446.607494 349.699308 446.607494 349.699308 C 446.607494 402.996189 402.996162 446.607521 349.699281 446.607521 Z M 349.699281 446.607521 " stroke="#000000" stroke-width="5" stroke-opacity="1" stroke-miterlimit="4"/><path fill="#000000" d="M 208.695312 221.949219 C 208.871094 222.464844 208.585938 223.015625 208.070312 223.191406 C 208 223.210938 207.859375 223.246094 207.679688 223.246094 C 207.679688 223.246094 207.679688 223.246094 207.664062 223.246094 C 207.484375 223.246094 207.21875 223.210938 206.96875 223.050781 C 206.738281 222.90625 206.542969 222.675781 206.402344 222.425781 C 206.152344 221.914062 206.027344 221.273438 206.027344 220.292969 C 206.011719 219.957031 205.9375 219.726562 205.8125 219.53125 C 205.707031 219.335938 205.496094 219.15625 205.28125 219.015625 C 204.90625 218.765625 204.445312 218.625 204.285156 218.585938 C 204.285156 218.585938 202.1875 218.585938 202.1875 218.585938 C 202.1875 218.585938 202.1875 222.445312 202.1875 222.445312 C 202.1875 222.980469 201.742188 223.421875 201.191406 223.421875 C 200.640625 223.421875 200.214844 222.980469 200.214844 222.445312 C 200.214844 222.445312 200.214844 211.957031 200.214844 211.957031 C 200.214844 211.40625 200.640625 210.976562 201.191406 210.976562 C 201.191406 210.976562 201.191406 210.976562 201.210938 210.976562 C 201.210938 210.976562 204.375 210.976562 204.375 210.976562 C 206.488281 210.976562 208.179688 212.683594 208.179688 214.800781 C 208.179688 215.972656 207.644531 217.003906 206.792969 217.714844 C 207.023438 217.894531 207.238281 218.109375 207.414062 218.375 C 207.769531 218.890625 208 219.546875 208 220.292969 C 207.984375 220.828125 208.035156 221.164062 208.070312 221.34375 C 208.355469 221.433594 208.589844 221.644531 208.695312 221.949219 Z M 206.207031 214.800781 C 206.207031 213.769531 205.386719 212.953125 204.375 212.953125 C 204.375 212.953125 202.1875 212.953125 202.1875 212.953125 C 202.1875 212.953125 202.1875 216.613281 202.1875 216.613281 C 202.1875 216.613281 204.375 216.613281 204.375 216.613281 C 205.386719 216.613281 206.207031 215.796875 206.207031 214.800781 Z M 206.207031 214.800781 " fill-opacity="1" fill-rule="nonzero"/><path fill="#000000" d="M 189.566406 222.445312 C 189.566406 222.445312 189.566406 211.957031 189.566406 211.957031 C 189.566406 211.40625 189.992188 210.976562 190.542969 210.976562 C 190.542969 210.976562 190.5625 210.976562 190.5625 210.976562 C 190.5625 210.976562 190.5625 210.976562 190.597656 210.976562 C 190.597656 210.976562 196.355469 210.976562 196.355469 210.976562 C 196.871094 210.976562 197.335938 211.40625 197.335938 211.957031 C 197.335938 212.507812 196.871094 212.953125 196.355469 212.953125 C 196.355469 212.953125 191.539062 212.953125 191.539062 212.953125 C 191.539062 212.953125 191.539062 216.207031 191.539062 216.207031 C 191.539062 216.207031 195.679688 216.207031 195.679688 216.207031 C 196.214844 216.207031 196.660156 216.667969 196.660156 217.183594 C 196.660156 217.734375 196.214844 218.179688 195.679688 218.179688 C 195.679688 218.179688 191.539062 218.179688 191.539062 218.179688 C 191.539062 218.179688 191.539062 221.449219 191.539062 221.449219 C 191.539062 221.449219 196.355469 221.449219 196.355469 221.449219 C 196.871094 221.449219 197.335938 221.894531 197.335938 222.445312 C 197.335938 222.980469 196.871094 223.421875 196.355469 223.421875 C 196.355469 223.421875 190.597656 223.421875 190.597656 223.421875 C 190.5625 223.421875 190.5625 223.40625 190.5625 223.40625 C 190.5625 223.40625 190.542969 223.421875 190.542969 223.421875 C 189.992188 223.421875 189.566406 222.980469 189.566406 222.445312 Z M 189.566406 222.445312 " fill-opacity="1" fill-rule="nonzero"/><path fill="#000000" d="M 185.65625 212.953125 C 185.65625 212.953125 182.828125 212.953125 182.828125 212.953125 C 182.828125 212.953125 182.828125 222.445312 182.828125 222.445312 C 182.828125 222.996094 182.402344 223.421875 181.851562 223.421875 C 181.316406 223.421875 180.871094 222.996094 180.871094 222.445312 C 180.871094 222.445312 180.871094 212.953125 180.871094 212.953125 C 180.871094 212.953125 178.0625 212.953125 178.0625 212.953125 C 177.511719 212.953125 177.085938 212.488281 177.085938 211.957031 C 177.085938 211.40625 177.511719 210.976562 178.0625 210.976562 C 178.0625 210.976562 185.65625 210.976562 185.65625 210.976562 C 186.1875 210.976562 186.632812 211.40625 186.632812 211.957031 C 186.632812 212.488281 186.1875 212.953125 185.65625 212.953125 Z M 185.65625 212.953125 " fill-opacity="1" fill-rule="nonzero"/><path fill="#000000" d="M 174.136719 212.953125 C 174.136719 212.953125 171.308594 212.953125 171.308594 212.953125 C 171.308594 212.953125 171.308594 222.445312 171.308594 222.445312 C 171.308594 222.996094 170.882812 223.421875 170.332031 223.421875 C 169.796875 223.421875 169.351562 222.996094 169.351562 222.445312 C 169.351562 222.445312 169.351562 212.953125 169.351562 212.953125 C 169.351562 212.953125 166.542969 212.953125 166.542969 212.953125 C 165.992188 212.953125 165.566406 212.488281 165.566406 211.957031 C 165.566406 211.40625 165.992188 210.976562 166.542969 210.976562 C 166.542969 210.976562 174.136719 210.976562 174.136719 210.976562 C 174.667969 210.976562 175.113281 211.40625 175.113281 211.957031 C 175.113281 212.488281 174.667969 212.953125 174.136719 212.953125 Z M 174.136719 212.953125 " fill-opacity="1" fill-rule="nonzero"/><path fill="#000000" d="M 155.984375 222.445312 C 155.984375 222.445312 155.984375 211.957031 155.984375 211.957031 C 155.984375 211.40625 156.410156 210.976562 156.960938 210.976562 C 156.960938 210.976562 156.980469 210.976562 156.980469 210.976562 C 156.980469 210.976562 156.980469 210.976562 157.015625 210.976562 C 157.015625 210.976562 162.773438 210.976562 162.773438 210.976562 C 163.289062 210.976562 163.753906 211.40625 163.753906 211.957031 C 163.753906 212.507812 163.289062 212.953125 162.773438 212.953125 C 162.773438 212.953125 157.957031 212.953125 157.957031 212.953125 C 157.957031 212.953125 157.957031 216.207031 157.957031 216.207031 C 157.957031 216.207031 162.101562 216.207031 162.101562 216.207031 C 162.632812 216.207031 163.078125 216.667969 163.078125 217.183594 C 163.078125 217.734375 162.632812 218.179688 162.101562 218.179688 C 162.101562 218.179688 157.957031 218.179688 157.957031 218.179688 C 157.957031 218.179688 157.957031 221.449219 157.957031 221.449219 C 157.957031 221.449219 162.773438 221.449219 162.773438 221.449219 C 163.289062 221.449219 163.753906 221.894531 163.753906 222.445312 C 163.753906 222.980469 163.289062 223.421875 162.773438 223.421875 C 162.773438 223.421875 157.015625 223.421875 157.015625 223.421875 C 156.980469 223.421875 156.980469 223.40625 156.980469 223.40625 C 156.980469 223.40625 156.960938 223.421875 156.960938 223.421875 C 156.410156 223.421875 155.984375 222.980469 155.984375 222.445312 Z M 155.984375 222.445312 " fill-opacity="1" fill-rule="nonzero"/><path fill="#000000" d="M 145.976562 222.445312 C 145.976562 222.445312 145.976562 211.957031 145.976562 211.957031 C 145.976562 211.421875 146.402344 210.976562 146.953125 210.976562 C 147.503906 210.976562 147.949219 211.421875 147.949219 211.957031 C 147.949219 211.957031 147.949219 221.449219 147.949219 221.449219 C 147.949219 221.449219 152.765625 221.449219 152.765625 221.449219 C 153.28125 221.449219 153.746094 221.894531 153.746094 222.445312 C 153.746094 222.980469 153.28125 223.421875 152.765625 223.421875 C 152.765625 223.421875 147.007812 223.421875 147.007812 223.421875 C 146.972656 223.421875 146.972656 223.421875 146.972656 223.421875 C 146.953125 223.421875 146.953125 223.421875 146.953125 223.421875 C 146.402344 223.421875 145.976562 222.980469 145.976562 222.445312 Z M 145.976562 222.445312 " fill-opacity="1" fill-rule="nonzero"/><path fill="#000000" d="M 133.726562 220.328125 C 134.046875 219.9375 134.632812 219.886719 135.023438 220.207031 C 135.808594 220.84375 137.15625 221.59375 138.421875 221.574219 C 139.308594 221.574219 140.109375 221.308594 140.640625 220.917969 C 141.175781 220.523438 141.40625 220.082031 141.40625 219.636719 C 141.40625 219.40625 141.351562 219.246094 141.246094 219.066406 C 141.140625 218.890625 140.980469 218.710938 140.714844 218.535156 C 140.199219 218.195312 139.328125 217.894531 138.277344 217.699219 C 138.277344 217.699219 138.242188 217.699219 138.242188 217.699219 C 137.40625 217.539062 136.625 217.324219 135.949219 217.003906 C 135.273438 216.683594 134.6875 216.242188 134.296875 215.617188 C 134.027344 215.191406 133.886719 214.695312 133.886719 214.160156 C 133.886719 213.09375 134.492188 212.167969 135.308594 211.566406 C 136.144531 210.960938 137.230469 210.621094 138.382812 210.621094 C 140.089844 210.621094 141.355469 211.457031 142.261719 212.046875 C 142.667969 212.328125 142.792969 212.898438 142.507812 213.308594 C 142.242188 213.734375 141.671875 213.859375 141.246094 213.574219 C 140.339844 212.96875 139.46875 212.4375 138.382812 212.4375 C 137.585938 212.4375 136.875 212.683594 136.394531 213.039062 C 135.914062 213.394531 135.71875 213.789062 135.71875 214.160156 C 135.71875 214.375 135.753906 214.515625 135.84375 214.660156 C 135.929688 214.800781 136.089844 214.960938 136.320312 215.121094 C 136.785156 215.441406 137.585938 215.726562 138.542969 215.902344 C 138.542969 215.902344 138.578125 215.902344 138.578125 215.902344 C 139.488281 216.082031 140.324219 216.3125 141.035156 216.648438 C 141.761719 217.003906 142.402344 217.46875 142.8125 218.125 C 143.078125 218.550781 143.238281 219.085938 143.238281 219.636719 C 143.238281 220.773438 142.597656 221.753906 141.710938 222.390625 C 140.835938 223.03125 139.683594 223.40625 138.421875 223.40625 C 136.5 223.386719 134.882812 222.425781 133.867188 221.628906 C 133.476562 221.308594 133.425781 220.722656 133.726562 220.328125 Z M 133.726562 220.328125 " fill-opacity="1" fill-rule="nonzero"/><path fill="#000000" d="M 131.273438 212.453125 C 131.273438 212.453125 126.917969 222.820312 126.917969 222.820312 C 126.898438 222.871094 126.863281 222.941406 126.828125 222.980469 C 126.828125 222.980469 126.8125 222.996094 126.8125 222.996094 C 126.792969 223.03125 126.757812 223.066406 126.722656 223.101562 C 126.722656 223.136719 126.703125 223.136719 126.703125 223.15625 C 126.667969 223.175781 126.617188 223.210938 126.582031 223.246094 C 126.582031 223.246094 126.5625 223.246094 126.5625 223.246094 C 126.507812 223.28125 126.472656 223.335938 126.402344 223.351562 C 126.402344 223.351562 126.382812 223.351562 126.382812 223.351562 C 126.382812 223.351562 126.367188 223.351562 126.367188 223.371094 C 126.332031 223.371094 126.277344 223.386719 126.226562 223.40625 C 126.207031 223.40625 126.1875 223.40625 126.1875 223.40625 C 126.136719 223.421875 126.082031 223.421875 126.011719 223.421875 C 125.957031 223.421875 125.90625 223.421875 125.851562 223.40625 C 125.816406 223.40625 125.796875 223.40625 125.796875 223.40625 C 125.746094 223.386719 125.710938 223.371094 125.671875 223.371094 C 125.65625 223.351562 125.65625 223.351562 125.636719 223.351562 C 125.566406 223.335938 125.511719 223.28125 125.476562 223.246094 C 125.460938 223.246094 125.460938 223.246094 125.460938 223.246094 C 125.40625 223.210938 125.371094 223.175781 125.335938 223.15625 C 125.316406 223.136719 125.316406 223.136719 125.300781 223.101562 C 125.28125 223.066406 125.246094 223.03125 125.230469 222.996094 C 125.195312 222.996094 125.195312 222.980469 125.195312 222.980469 C 125.15625 222.941406 125.140625 222.871094 125.121094 222.820312 C 125.121094 222.820312 122.792969 217.308594 122.792969 217.308594 C 122.792969 217.308594 120.464844 222.820312 120.464844 222.820312 C 120.445312 222.871094 120.410156 222.941406 120.394531 222.980469 C 120.375 222.980469 120.375 222.996094 120.375 222.996094 C 120.339844 223.03125 120.304688 223.066406 120.269531 223.101562 C 120.269531 223.136719 120.25 223.136719 120.25 223.15625 C 120.214844 223.175781 120.179688 223.210938 120.144531 223.246094 C 120.109375 223.246094 120.109375 223.246094 120.109375 223.246094 C 120.054688 223.28125 120.003906 223.335938 119.964844 223.351562 C 119.949219 223.351562 119.949219 223.351562 119.949219 223.351562 C 119.949219 223.351562 119.929688 223.351562 119.929688 223.371094 C 119.859375 223.371094 119.824219 223.386719 119.789062 223.40625 C 119.769531 223.40625 119.753906 223.40625 119.734375 223.40625 C 119.683594 223.421875 119.628906 223.421875 119.574219 223.421875 C 119.523438 223.421875 119.449219 223.421875 119.398438 223.40625 C 119.378906 223.40625 119.363281 223.40625 119.34375 223.40625 C 119.292969 223.386719 119.253906 223.371094 119.21875 223.371094 C 119.203125 223.351562 119.203125 223.351562 119.183594 223.351562 C 119.132812 223.335938 119.058594 223.28125 119.023438 223.246094 C 119.007812 223.246094 119.007812 223.246094 119.007812 223.246094 C 118.953125 223.210938 118.9375 223.175781 118.882812 223.15625 C 118.863281 223.136719 118.863281 223.136719 118.847656 223.101562 C 118.8125 223.066406 118.792969 223.03125 118.757812 222.996094 C 118.757812 222.996094 118.757812 222.980469 118.757812 222.980469 C 118.722656 222.941406 118.703125 222.871094 118.667969 222.820312 C 118.667969 222.820312 114.296875 212.453125 114.296875 212.453125 C 114.101562 211.972656 114.3125 211.386719 114.828125 211.191406 C 115.308594 210.976562 115.894531 211.210938 116.089844 211.707031 C 116.089844 211.707031 119.574219 219.9375 119.574219 219.9375 C 119.574219 219.9375 121.867188 214.480469 121.867188 214.480469 C 122.027344 214.089844 122.402344 213.875 122.792969 213.875 C 123.167969 213.875 123.539062 214.089844 123.71875 214.480469 C 123.71875 214.480469 126.011719 219.9375 126.011719 219.9375 C 126.011719 219.9375 129.476562 211.707031 129.476562 211.707031 C 129.691406 211.210938 130.261719 210.976562 130.777344 211.191406 C 131.253906 211.386719 131.488281 211.972656 131.273438 212.453125 Z M 131.273438 212.453125 " fill-opacity="1" fill-rule="nonzero"/><path fill="#000000" d="M 104.339844 222.445312 C 104.339844 222.445312 104.339844 211.957031 104.339844 211.957031 C 104.339844 211.40625 104.765625 210.976562 105.316406 210.976562 C 105.316406 210.976562 105.335938 210.976562 105.335938 210.976562 C 105.335938 210.976562 105.335938 210.976562 105.371094 210.976562 C 105.371094 210.976562 111.132812 210.976562 111.132812 210.976562 C 111.648438 210.976562 112.109375 211.40625 112.109375 211.957031 C 112.109375 212.507812 111.648438 212.953125 111.132812 212.953125 C 111.132812 212.953125 106.3125 212.953125 106.3125 212.953125 C 106.3125 212.953125 106.3125 216.207031 106.3125 216.207031 C 106.3125 216.207031 110.457031 216.207031 110.457031 216.207031 C 110.988281 216.207031 111.433594 216.667969 111.433594 217.183594 C 111.433594 217.734375 110.988281 218.179688 110.457031 218.179688 C 110.457031 218.179688 106.3125 218.179688 106.3125 218.179688 C 106.3125 218.179688 106.3125 221.449219 106.3125 221.449219 C 106.3125 221.449219 111.132812 221.449219 111.132812 221.449219 C 111.648438 221.449219 112.109375 221.894531 112.109375 222.445312 C 112.109375 222.980469 111.648438 223.421875 111.132812 223.421875 C 111.132812 223.421875 105.371094 223.421875 105.371094 223.421875 C 105.335938 223.421875 105.335938 223.40625 105.335938 223.40625 C 105.335938 223.40625 105.316406 223.421875 105.316406 223.421875 C 104.765625 223.421875 104.339844 222.980469 104.339844 222.445312 Z M 104.339844 222.445312 " fill-opacity="1" fill-rule="nonzero"/><path fill="#000000" d="M 93.746094 222.445312 C 93.746094 222.980469 93.300781 223.421875 92.785156 223.421875 C 92.234375 223.421875 91.808594 222.980469 91.808594 222.445312 C 91.808594 222.445312 91.808594 212.117188 91.808594 212.117188 C 91.808594 212.117188 91.808594 212.117188 91.808594 212.097656 C 91.789062 211.796875 91.929688 211.476562 92.199219 211.28125 C 92.640625 210.980469 93.246094 211.066406 93.550781 211.492188 C 93.550781 211.492188 99.292969 219.441406 99.292969 219.441406 C 99.292969 219.441406 99.292969 212.117188 99.292969 212.117188 C 99.292969 211.601562 99.71875 211.15625 100.25 211.15625 C 100.785156 211.15625 101.230469 211.601562 101.230469 212.117188 C 101.230469 212.117188 101.230469 222.445312 101.230469 222.445312 C 101.230469 222.980469 100.785156 223.421875 100.25 223.421875 C 99.96875 223.421875 99.699219 223.28125 99.523438 223.066406 C 99.488281 223.03125 99.453125 222.996094 99.433594 222.960938 C 99.433594 222.960938 93.746094 215.066406 93.746094 215.066406 C 93.746094 215.066406 93.746094 222.445312 93.746094 222.445312 Z M 93.746094 222.445312 " fill-opacity="1" fill-rule="nonzero"/><path fill="#65a6eb" d="M 201.878906 195.675781 C 201.878906 195.675781 98.121094 195.675781 98.121094 195.675781 C 93.605469 195.675781 89.941406 192.011719 89.941406 187.492188 C 89.941406 187.492188 89.941406 129.433594 89.941406 129.433594 C 89.941406 124.914062 93.605469 121.25 98.121094 121.25 C 98.121094 121.25 201.878906 121.25 201.878906 121.25 C 206.394531 121.25 210.058594 124.914062 210.058594 129.433594 C 210.058594 129.433594 210.058594 187.492188 210.058594 187.492188 C 210.058594 192.011719 206.394531 195.675781 201.878906 195.675781 Z M 201.878906 195.675781 " fill-opacity="1" fill-rule="nonzero"/><path fill="#fcd7d7" d="M 182.734375 92.6875 C 182.734375 92.6875 199.464844 96.28125 199.464844 110.304688 C 199.464844 110.304688 199.464844 165.109375 199.464844 165.109375 C 199.464844 165.347656 199.363281 165.574219 199.1875 165.734375 C 199.1875 165.734375 187.320312 176.34375 187.320312 176.34375 C 187.054688 176.582031 186.660156 176.625 186.347656 176.449219 C 186.347656 176.449219 159.945312 161.484375 159.945312 161.484375 C 159.898438 161.457031 159.851562 161.4375 159.800781 161.421875 C 159.800781 161.421875 154.410156 158.203125 150.902344 158.203125 C 147.664062 158.203125 141.734375 161.386719 141.734375 161.386719 C 141.683594 161.40625 141.632812 161.425781 141.582031 161.453125 C 141.582031 161.453125 113.660156 176.460938 113.660156 176.460938 C 113.339844 176.628906 112.949219 176.578125 112.6875 176.332031 C 112.6875 176.332031 100.464844 164.839844 100.464844 164.839844 C 100.296875 164.683594 100.199219 164.460938 100.199219 164.230469 C 100.199219 164.230469 100.199219 93.523438 100.199219 93.523438 C 100.199219 93.0625 100.574219 92.6875 101.039062 92.6875 C 101.039062 92.6875 182.632812 92.6875 182.632812 92.6875 C 182.703125 92.6875 182.769531 92.695312 182.835938 92.710938 C 184.226562 93.0625 199.464844 97.222656 199.464844 110.832031 C 199.464844 125.132812 199.464844 165.484375 199.464844 165.484375 " fill-opacity="1" fill-rule="nonzero"/><path stroke-linecap="round" transform="matrix(0.222222, 0, 0, 0.222222, 149.832884, 152.172439)" fill="none" stroke-linejoin="round" d="M -177.578074 -0.00253698 C -177.578074 -0.00253698 177.570398 -0.00253698 177.570398 -0.00253698 " stroke="#65a6eb" stroke-width="6" stroke-opacity="1" stroke-miterlimit="4"/><path stroke-linecap="round" transform="matrix(0.222222, 0, 0, 0.222222, 134.957779, 144.767976)" fill="none" stroke-linejoin="round" d="M -110.640094 0.00699783 C -110.640094 0.00699783 110.633365 0.00699783 110.633365 0.00699783 " stroke="#65a6eb" stroke-width="6" stroke-opacity="1" stroke-miterlimit="4"/><path stroke-linecap="round" transform="matrix(0.222222, 0, 0, 0.222222, 150.000198, 135.696875)" fill="none" stroke-linejoin="round" d="M -177.575126 -0.00702908 C -177.575126 -0.00702908 177.573346 -0.00702908 177.573346 -0.00702908 " stroke="#65a6eb" stroke-width="6" stroke-opacity="1" stroke-miterlimit="4"/><path stroke-linecap="round" transform="matrix(0.222222, 0, 0, 0.222222, 149.925315, 127.067774)" fill="none" stroke-linejoin="round" d="M -177.57214 -0.00615318 C -177.57214 -0.00615318 177.576333 -0.00615318 177.576333 -0.00615318 " stroke="#65a6eb" stroke-width="6" stroke-opacity="1" stroke-miterlimit="4"/><path stroke-linecap="round" transform="matrix(0.222222, 0, 0, 0.222222, 141.655542, 117.359762)" fill="none" stroke-linejoin="round" d="M -140.358158 -0.00174337 C -140.358158 -0.00174337 140.364526 -0.00174337 140.364526 -0.00174337 " stroke="#65a6eb" stroke-width="6" stroke-opacity="1" stroke-miterlimit="4"/><path stroke-linecap="round" transform="matrix(0.222222, 0, 0, 0.222222, 128.442212, 106.033995)" fill="none" stroke-linejoin="round" d="M -80.898163 0.00522409 C -80.898163 0.00522409 80.890916 0.00522409 80.890916 0.00522409 " stroke="#65a6eb" stroke-width="6" stroke-opacity="1" stroke-miterlimit="4"/><path fill="#f47769" d="M 182.734375 92.6875 C 182.734375 92.6875 182.542969 108.945312 182.542969 108.945312 C 182.542969 108.945312 199.464844 108.945312 199.464844 108.945312 C 199.464844 108.945312 198.835938 96.292969 182.734375 92.6875 Z M 182.734375 92.6875 " fill-opacity="1" fill-rule="nonzero"/><path fill="#65a6eb" d="M 151.109375 143.777344 C 151.109375 143.777344 131.777344 152 131.777344 152 C 131.777344 152 113.109375 162.667969 113.109375 162.667969 C 113.109375 162.667969 93.554688 144 93.554688 144 C 93.554688 144 93.109375 148.890625 93.109375 148.890625 C 93.109375 148.890625 93.109375 188.667969 93.109375 188.667969 C 93.109375 188.667969 98 193.109375 98 193.109375 C 98 193.109375 201.554688 193.109375 201.554688 193.109375 C 201.554688 193.109375 206 188.667969 206 188.667969 C 206 188.667969 206 145.777344 206 145.777344 C 206 145.777344 187.109375 162.890625 187.109375 162.890625 C 187.109375 162.890625 165.554688 150.445312 165.554688 150.445312 C 165.554688 150.445312 151.109375 143.777344 151.109375 143.777344 Z M 151.109375 143.777344 " fill-opacity="1" fill-rule="nonzero"/><path stroke-linecap="round" transform="matrix(0.222222, 0, 0, 0.222222, 101.533774, 151.938868)" fill="none" stroke-linejoin="round" d="M -52.165659 -47.625303 C -52.165659 -47.625303 52.178102 47.630566 52.178102 47.630566 " stroke="#ffffff" stroke-width="8" stroke-opacity="1" stroke-miterlimit="4"/><path stroke-linecap="round" transform="matrix(0.222222, 0, 0, 0.222222, 198.466221, 152.522887)" fill="none" stroke-linejoin="round" d="M -52.178078 45.002483 C -52.178078 45.002483 52.165683 -44.997526 52.165683 -44.997526 " stroke="#ffffff" stroke-width="8" stroke-opacity="1" stroke-miterlimit="4"/><path stroke-linecap="round" transform="matrix(0.222222, 0, 0, 0.222222, 149.999994, 161.354869)" fill="none" stroke-linejoin="round" d="M 270.263727 76.994893 C 270.263727 76.994893 49.14847 -76.989497 5.466826 -76.989497 C -43.611304 -76.989497 -270.26367 69.69997 -270.26367 69.69997 " stroke="#ffffff" stroke-width="8" stroke-opacity="1" stroke-miterlimit="4"/><path fill="#000000" d="M 180.054688 149.289062 C 178.722656 149.289062 177.644531 148.214844 177.644531 146.890625 C 177.644531 131.65625 165.269531 119.3125 150 119.3125 C 134.730469 119.3125 122.351562 131.65625 122.351562 146.890625 C 122.351562 148.214844 121.277344 149.289062 119.945312 149.289062 C 118.613281 149.289062 117.535156 148.214844 117.535156 146.890625 C 117.535156 129.003906 132.070312 114.507812 150 114.507812 C 167.929688 114.507812 182.464844 129.003906 182.464844 146.890625 C 182.464844 148.214844 181.382812 149.289062 180.054688 149.289062 Z M 150 111.121094 C 130.226562 111.121094 114.140625 127.167969 114.140625 146.890625 C 114.140625 150.078125 116.746094 152.679688 119.945312 152.679688 C 123.144531 152.679688 125.75 150.078125 125.75 146.890625 C 125.75 133.550781 136.628906 122.699219 150 122.699219 C 163.371094 122.699219 174.25 133.550781 174.25 146.890625 C 174.25 150.078125 176.855469 152.679688 180.054688 152.679688 C 183.253906 152.679688 185.859375 150.078125 185.859375 146.890625 C 185.859375 127.167969 169.773438 111.121094 150 111.121094 " fill-opacity="1" fill-rule="nonzero"/><g clip-path="url(#70ac4210cf)"><path fill="#000000" d="M 204.195312 149.289062 C 202.863281 149.289062 201.785156 148.214844 201.785156 146.890625 C 201.785156 118.359375 178.597656 95.234375 150 95.234375 C 121.398438 95.234375 98.210938 118.359375 98.210938 146.890625 C 98.210938 148.214844 97.136719 149.289062 95.804688 149.289062 C 94.472656 149.289062 93.398438 148.214844 93.398438 146.890625 C 93.429688 115.722656 118.753906 90.464844 150 90.429688 C 181.246094 90.464844 206.570312 115.722656 206.601562 146.890625 C 206.601562 148.214844 205.523438 149.289062 204.195312 149.289062 Z M 149.996094 87.042969 C 116.953125 87.078125 90.039062 113.925781 90 146.890625 C 90 150.078125 92.605469 152.679688 95.804688 152.679688 C 99.003906 152.679688 101.609375 150.078125 101.609375 146.890625 C 101.609375 120.273438 123.316406 98.621094 150 98.621094 C 176.679688 98.621094 198.390625 120.273438 198.390625 146.890625 C 198.390625 150.078125 200.996094 152.679688 204.195312 152.679688 C 207.394531 152.679688 210 150.078125 210 146.882812 C 209.960938 113.925781 183.046875 87.078125 149.996094 87.042969 " fill-opacity="1" fill-rule="nonzero"/></g><g clip-path="url(#50160cf76b)"><path fill="#000000" d="M 169.710938 196.9375 C 168.699219 197.761719 167.210938 197.628906 166.359375 196.636719 L 150 176.589844 L 133.636719 196.636719 C 133.238281 197.148438 132.652344 197.480469 132.007812 197.550781 C 131.363281 197.625 130.714844 197.4375 130.210938 197.027344 C 129.707031 196.617188 129.394531 196.023438 129.335938 195.378906 C 129.277344 194.734375 129.480469 194.09375 129.902344 193.601562 L 147.589844 171.929688 L 147.589844 160.863281 C 140.304688 159.617188 135.191406 153.015625 135.816406 145.667969 C 136.445312 138.320312 142.605469 132.675781 150 132.675781 C 157.390625 132.675781 163.550781 138.320312 164.183594 145.667969 C 164.808594 153.015625 159.695312 159.617188 152.410156 160.863281 L 152.410156 171.929688 L 170.09375 193.601562 C 170.894531 194.632812 170.726562 196.113281 169.710938 196.9375 Z M 155.804688 170.722656 L 155.804688 163.484375 C 163.339844 160.898438 168.265625 153.566406 167.566406 145.378906 C 166.78125 136.207031 159.226562 129.289062 150 129.289062 C 140.769531 129.289062 133.21875 136.207031 132.433594 145.378906 C 131.734375 153.566406 136.65625 160.898438 144.195312 163.484375 L 144.195312 170.722656 L 127.320312 191.402344 C 126.3125 192.582031 125.8125 194.144531 125.953125 195.679688 C 126.089844 197.222656 126.859375 198.667969 128.070312 199.65625 C 129.101562 200.492188 130.402344 200.953125 131.730469 200.953125 C 131.953125 200.953125 132.175781 200.941406 132.390625 200.917969 C 133.941406 200.742188 135.375 199.933594 136.269531 198.777344 L 150 181.953125 L 163.78125 198.839844 C 164.886719 200.125 166.492188 200.867188 168.191406 200.867188 C 169.519531 200.867188 170.820312 200.40625 171.863281 199.5625 C 174.324219 197.554688 174.722656 194.027344 172.726562 191.464844 L 155.804688 170.722656 " fill-opacity="1" fill-rule="nonzero"/></g><path fill="#000000" d="M 158.695312 150.480469 C 160.15625 146.972656 159.347656 142.933594 156.65625 140.246094 C 153.964844 137.558594 149.914062 136.757812 146.394531 138.210938 C 142.878906 139.667969 140.585938 143.089844 140.585938 146.890625 C 140.589844 152.070312 144.800781 156.273438 150 156.277344 C 153.808594 156.277344 157.242188 153.992188 158.695312 150.480469 " fill-opacity="1" fill-rule="nonzero"/></svg>