<svg xmlns="http://www.w3.org/2000/svg" xmlns:xlink="http://www.w3.org/1999/xlink" width="236" zoomAndPan="magnify" viewBox="0 0 177 37.5" height="50" preserveAspectRatio="xMidYMid meet" version="1.0"><defs><g/></defs><g fill="#ff0000" fill-opacity="1"><g transform="translate(17.596619, 22.381796)"><g><path d="M 0 -10.15625 L 0 -1.125 L 1.125 -1.125 L 1.125 -10.15625 Z M 1.125 0 L 5.640625 0 L 5.640625 -1.125 L 1.125 -1.125 Z M 1.125 -10.15625 L 5.640625 -10.15625 L 5.640625 -11.28125 L 1.125 -11.28125 Z M 5.640625 -1.125 L 6.765625 -1.125 L 6.765625 -10.15625 L 5.640625 -10.15625 Z M 5.640625 -1.125 "/></g></g></g><g fill="#ff0000" fill-opacity="1"><g transform="translate(26.63462, 22.381796)"><g><path d="M 0 -9.015625 L 0 -1.125 L 1.125 -1.125 L 1.125 -9.015625 Z M 1.125 0 L 4.515625 0 L 4.515625 -1.125 L 1.125 -1.125 Z M 4.515625 -1.125 L 5.640625 -1.125 L 5.640625 -9.015625 L 4.515625 -9.015625 Z M 4.515625 -1.125 "/></g></g></g><g fill="#ff0000" fill-opacity="1"><g transform="translate(34.545256, 22.381796)"><g><path d="M 0 -9.015625 L 0 0 L 1.125 0 L 1.125 -6.765625 L 2.25 -6.765625 L 2.25 -7.890625 L 1.125 -7.890625 L 1.125 -9.015625 Z M 2.25 -7.890625 L 4.515625 -7.890625 L 4.515625 -9.015625 L 2.25 -9.015625 Z M 2.25 -7.890625 "/></g></g></g><g fill="#ff0000" fill-opacity="1"><g transform="translate(41.328528, 22.381796)"><g/></g></g><g fill="#ff0000" fill-opacity="1"><g transform="translate(45.857068, 22.381796)"><g><path d="M 0 -11.28125 L 0 -1.125 L 1.125 -1.125 L 1.125 -11.28125 Z M 1.125 0 L 5.640625 0 L 5.640625 -1.125 L 1.125 -1.125 Z M 1.125 0 "/></g></g></g><g fill="#ff0000" fill-opacity="1"><g transform="translate(53.767705, 22.381796)"><g><path d="M 0 -7.890625 L 0 -1.125 L 1.125 -1.125 L 1.125 -4.515625 L 5.640625 -4.515625 L 5.640625 -7.890625 L 4.515625 -7.890625 L 4.515625 -5.640625 L 1.125 -5.640625 L 1.125 -7.890625 Z M 1.125 0 L 4.515625 0 L 4.515625 -1.125 L 1.125 -1.125 Z M 1.125 -7.890625 L 4.515625 -7.890625 L 4.515625 -9.015625 L 1.125 -9.015625 Z M 4.515625 -1.125 L 5.640625 -1.125 L 5.640625 -2.25 L 4.515625 -2.25 Z M 4.515625 -1.125 "/></g></g></g><g fill="#ff0000" fill-opacity="1"><g transform="translate(61.678341, 22.381796)"><g><path d="M 5.640625 -1.125 L 5.640625 -11.28125 L 4.515625 -11.28125 L 4.515625 -9.015625 L 1.125 -9.015625 L 1.125 -7.890625 L 4.515625 -7.890625 L 4.515625 -1.125 Z M 0 -1.125 L 1.125 -1.125 L 1.125 -7.890625 L 0 -7.890625 Z M 1.125 0 L 4.515625 0 L 4.515625 -1.125 L 1.125 -1.125 Z M 1.125 0 "/></g></g></g><g fill="#ff0000" fill-opacity="1"><g transform="translate(69.588977, 22.381796)"><g><path d="M 0 -7.890625 L 0 -1.125 L 1.125 -1.125 L 1.125 -7.890625 Z M 0 2.25 L 1.125 2.25 L 1.125 1.125 L 0 1.125 Z M 1.125 3.390625 L 4.515625 3.390625 L 4.515625 2.25 L 1.125 2.25 Z M 1.125 0 L 4.515625 0 L 4.515625 2.25 L 5.640625 2.25 L 5.640625 -7.890625 L 4.515625 -7.890625 L 4.515625 -1.125 L 1.125 -1.125 Z M 1.125 -7.890625 L 4.515625 -7.890625 L 4.515625 -9.015625 L 1.125 -9.015625 Z M 1.125 -7.890625 "/></g></g></g><g fill="#ff0000" fill-opacity="1"><g transform="translate(77.499613, 22.381796)"><g><path d="M 0 -7.890625 L 0 -1.125 L 1.125 -1.125 L 1.125 -4.515625 L 5.640625 -4.515625 L 5.640625 -7.890625 L 4.515625 -7.890625 L 4.515625 -5.640625 L 1.125 -5.640625 L 1.125 -7.890625 Z M 1.125 0 L 4.515625 0 L 4.515625 -1.125 L 1.125 -1.125 Z M 1.125 -7.890625 L 4.515625 -7.890625 L 4.515625 -9.015625 L 1.125 -9.015625 Z M 4.515625 -1.125 L 5.640625 -1.125 L 5.640625 -2.25 L 4.515625 -2.25 Z M 4.515625 -1.125 "/></g></g></g><g fill="#ff0000" fill-opacity="1"><g transform="translate(85.41025, 22.381796)"><g><path d="M 0 -9.015625 L 0 0 L 1.125 0 L 1.125 -6.765625 L 2.25 -6.765625 L 2.25 -7.890625 L 1.125 -7.890625 L 1.125 -9.015625 Z M 2.25 -7.890625 L 4.515625 -7.890625 L 4.515625 -9.015625 L 2.25 -9.015625 Z M 2.25 -7.890625 "/></g></g></g><g fill="#ff0000" fill-opacity="1"><g transform="translate(92.193518, 22.381796)"><g/></g></g><g fill="#ff0000" fill-opacity="1"><g transform="translate(96.722054, 22.381796)"><g><path d="M 0 -10.15625 L 0 -1.125 L 1.125 -1.125 L 1.125 -10.15625 Z M 1.125 0 L 5.640625 0 L 5.640625 -1.125 L 1.125 -1.125 Z M 1.125 -10.15625 L 5.640625 -10.15625 L 5.640625 -11.28125 L 1.125 -11.28125 Z M 3.390625 -5.640625 L 5.640625 -5.640625 L 5.640625 -6.765625 L 3.390625 -6.765625 Z M 5.640625 -1.125 L 6.765625 -1.125 L 6.765625 -5.640625 L 5.640625 -5.640625 Z M 5.640625 -9.015625 L 6.765625 -9.015625 L 6.765625 -10.15625 L 5.640625 -10.15625 Z M 5.640625 -9.015625 "/></g></g></g><g fill="#ff0000" fill-opacity="1"><g transform="translate(105.760055, 22.381796)"><g><path d="M 0 -9.015625 L 0 0 L 1.125 0 L 1.125 -9.015625 Z M 0 -10.15625 L 1.125 -10.15625 L 1.125 -11.28125 L 0 -11.28125 Z M 0 -10.15625 "/></g></g></g><g fill="#ff0000" fill-opacity="1"><g transform="translate(109.16123, 22.381796)"><g><path d="M 5.640625 -3.390625 L 5.640625 -9.015625 L 4.515625 -9.015625 L 4.515625 -3.390625 Z M 0 -3.390625 L 1.125 -3.390625 L 1.125 -9.015625 L 0 -9.015625 Z M 1.125 -1.125 L 2.25 -1.125 L 2.25 -3.390625 L 1.125 -3.390625 Z M 2.25 0 L 3.390625 0 L 3.390625 -1.125 L 2.25 -1.125 Z M 3.390625 -1.125 L 4.515625 -1.125 L 4.515625 -3.390625 L 3.390625 -3.390625 Z M 3.390625 -1.125 "/></g></g></g><g fill="#ff0000" fill-opacity="1"><g transform="translate(117.071863, 22.381796)"><g><path d="M 0 -7.890625 L 0 -1.125 L 1.125 -1.125 L 1.125 -4.515625 L 5.640625 -4.515625 L 5.640625 -7.890625 L 4.515625 -7.890625 L 4.515625 -5.640625 L 1.125 -5.640625 L 1.125 -7.890625 Z M 1.125 0 L 4.515625 0 L 4.515625 -1.125 L 1.125 -1.125 Z M 1.125 -7.890625 L 4.515625 -7.890625 L 4.515625 -9.015625 L 1.125 -9.015625 Z M 4.515625 -1.125 L 5.640625 -1.125 L 5.640625 -2.25 L 4.515625 -2.25 Z M 4.515625 -1.125 "/></g></g></g><g fill="#ff0000" fill-opacity="1"><g transform="translate(124.982495, 22.381796)"><g><path d="M 0 -10.15625 L 0 0 L 1.125 0 L 1.125 -6.765625 L 5.640625 -6.765625 L 5.640625 0 L 6.765625 0 L 6.765625 -10.15625 L 5.640625 -10.15625 L 5.640625 -7.890625 L 1.125 -7.890625 L 1.125 -10.15625 Z M 1.125 -10.15625 L 5.640625 -10.15625 L 5.640625 -11.28125 L 1.125 -11.28125 Z M 1.125 -10.15625 "/></g></g></g><g fill="#ff0000" fill-opacity="1"><g transform="translate(134.020496, 22.381796)"><g><path d="M 4.515625 -1.125 L 4.515625 -3.390625 L 3.390625 -3.390625 L 3.390625 -1.125 Z M 0 -3.390625 L 1.125 -3.390625 L 1.125 -9.015625 L 0 -9.015625 Z M 1.125 -1.125 L 2.25 -1.125 L 2.25 -3.390625 L 1.125 -3.390625 Z M 2.25 0 L 3.390625 0 L 3.390625 -1.125 L 2.25 -1.125 Z M 4.515625 -3.390625 L 5.640625 -3.390625 L 5.640625 -9.015625 L 4.515625 -9.015625 Z M 5.640625 -1.125 L 6.765625 -1.125 L 6.765625 -3.390625 L 5.640625 -3.390625 Z M 6.765625 0 L 7.890625 0 L 7.890625 -1.125 L 6.765625 -1.125 Z M 7.890625 -1.125 L 9.015625 -1.125 L 9.015625 -3.390625 L 7.890625 -3.390625 Z M 9.015625 -3.390625 L 10.15625 -3.390625 L 10.15625 -9.015625 L 9.015625 -9.015625 Z M 9.015625 -3.390625 "/></g></g></g><g fill="#ff0000" fill-opacity="1"><g transform="translate(146.440592, 22.381796)"><g><path d="M 0 -4.515625 L 0 -1.125 L 1.125 -1.125 L 1.125 -4.515625 Z M 0 -6.765625 L 1.125 -6.765625 L 1.125 -7.890625 L 0 -7.890625 Z M 1.125 0 L 4.515625 0 L 4.515625 -1.125 L 1.125 -1.125 Z M 1.125 -4.515625 L 4.515625 -4.515625 L 4.515625 -1.125 L 5.640625 -1.125 L 5.640625 -7.890625 L 4.515625 -7.890625 L 4.515625 -5.640625 L 1.125 -5.640625 Z M 1.125 -7.890625 L 4.515625 -7.890625 L 4.515625 -9.015625 L 1.125 -9.015625 Z M 1.125 -7.890625 "/></g></g></g><g fill="#ff0000" fill-opacity="1"><g transform="translate(154.351225, 22.381796)"><g><path d="M 0 -9.015625 L 0 -1.125 L 1.125 -1.125 L 1.125 -9.015625 Z M 0 2.25 L 1.125 2.25 L 1.125 1.125 L 0 1.125 Z M 1.125 3.390625 L 4.515625 3.390625 L 4.515625 2.25 L 1.125 2.25 Z M 1.125 0 L 4.515625 0 L 4.515625 2.25 L 5.640625 2.25 L 5.640625 -9.015625 L 4.515625 -9.015625 L 4.515625 -1.125 L 1.125 -1.125 Z M 1.125 0 "/></g></g></g><g fill="#00ffff" fill-opacity="1"><g transform="translate(15.878473, 23.983993)"><g><path d="M 0 -10.15625 L 0 -1.125 L 1.125 -1.125 L 1.125 -10.15625 Z M 1.125 0 L 5.640625 0 L 5.640625 -1.125 L 1.125 -1.125 Z M 1.125 -10.15625 L 5.640625 -10.15625 L 5.640625 -11.28125 L 1.125 -11.28125 Z M 5.640625 -1.125 L 6.765625 -1.125 L 6.765625 -10.15625 L 5.640625 -10.15625 Z M 5.640625 -1.125 "/></g></g></g><g fill="#00ffff" fill-opacity="1"><g transform="translate(24.916474, 23.983993)"><g><path d="M 0 -9.015625 L 0 -1.125 L 1.125 -1.125 L 1.125 -9.015625 Z M 1.125 0 L 4.515625 0 L 4.515625 -1.125 L 1.125 -1.125 Z M 4.515625 -1.125 L 5.640625 -1.125 L 5.640625 -9.015625 L 4.515625 -9.015625 Z M 4.515625 -1.125 "/></g></g></g><g fill="#00ffff" fill-opacity="1"><g transform="translate(32.82711, 23.983993)"><g><path d="M 0 -9.015625 L 0 0 L 1.125 0 L 1.125 -6.765625 L 2.25 -6.765625 L 2.25 -7.890625 L 1.125 -7.890625 L 1.125 -9.015625 Z M 2.25 -7.890625 L 4.515625 -7.890625 L 4.515625 -9.015625 L 2.25 -9.015625 Z M 2.25 -7.890625 "/></g></g></g><g fill="#00ffff" fill-opacity="1"><g transform="translate(39.610382, 23.983993)"><g/></g></g><g fill="#00ffff" fill-opacity="1"><g transform="translate(44.138922, 23.983993)"><g><path d="M 0 -11.28125 L 0 -1.125 L 1.125 -1.125 L 1.125 -11.28125 Z M 1.125 0 L 5.640625 0 L 5.640625 -1.125 L 1.125 -1.125 Z M 1.125 0 "/></g></g></g><g fill="#00ffff" fill-opacity="1"><g transform="translate(52.049558, 23.983993)"><g><path d="M 0 -7.890625 L 0 -1.125 L 1.125 -1.125 L 1.125 -4.515625 L 5.640625 -4.515625 L 5.640625 -7.890625 L 4.515625 -7.890625 L 4.515625 -5.640625 L 1.125 -5.640625 L 1.125 -7.890625 Z M 1.125 0 L 4.515625 0 L 4.515625 -1.125 L 1.125 -1.125 Z M 1.125 -7.890625 L 4.515625 -7.890625 L 4.515625 -9.015625 L 1.125 -9.015625 Z M 4.515625 -1.125 L 5.640625 -1.125 L 5.640625 -2.25 L 4.515625 -2.25 Z M 4.515625 -1.125 "/></g></g></g><g fill="#00ffff" fill-opacity="1"><g transform="translate(59.960195, 23.983993)"><g><path d="M 5.640625 -1.125 L 5.640625 -11.28125 L 4.515625 -11.28125 L 4.515625 -9.015625 L 1.125 -9.015625 L 1.125 -7.890625 L 4.515625 -7.890625 L 4.515625 -1.125 Z M 0 -1.125 L 1.125 -1.125 L 1.125 -7.890625 L 0 -7.890625 Z M 1.125 0 L 4.515625 0 L 4.515625 -1.125 L 1.125 -1.125 Z M 1.125 0 "/></g></g></g><g fill="#00ffff" fill-opacity="1"><g transform="translate(67.870831, 23.983993)"><g><path d="M 0 -7.890625 L 0 -1.125 L 1.125 -1.125 L 1.125 -7.890625 Z M 0 2.25 L 1.125 2.25 L 1.125 1.125 L 0 1.125 Z M 1.125 3.390625 L 4.515625 3.390625 L 4.515625 2.25 L 1.125 2.25 Z M 1.125 0 L 4.515625 0 L 4.515625 2.25 L 5.640625 2.25 L 5.640625 -7.890625 L 4.515625 -7.890625 L 4.515625 -1.125 L 1.125 -1.125 Z M 1.125 -7.890625 L 4.515625 -7.890625 L 4.515625 -9.015625 L 1.125 -9.015625 Z M 1.125 -7.890625 "/></g></g></g><g fill="#00ffff" fill-opacity="1"><g transform="translate(75.781467, 23.983993)"><g><path d="M 0 -7.890625 L 0 -1.125 L 1.125 -1.125 L 1.125 -4.515625 L 5.640625 -4.515625 L 5.640625 -7.890625 L 4.515625 -7.890625 L 4.515625 -5.640625 L 1.125 -5.640625 L 1.125 -7.890625 Z M 1.125 0 L 4.515625 0 L 4.515625 -1.125 L 1.125 -1.125 Z M 1.125 -7.890625 L 4.515625 -7.890625 L 4.515625 -9.015625 L 1.125 -9.015625 Z M 4.515625 -1.125 L 5.640625 -1.125 L 5.640625 -2.25 L 4.515625 -2.25 Z M 4.515625 -1.125 "/></g></g></g><g fill="#00ffff" fill-opacity="1"><g transform="translate(83.692104, 23.983993)"><g><path d="M 0 -9.015625 L 0 0 L 1.125 0 L 1.125 -6.765625 L 2.25 -6.765625 L 2.25 -7.890625 L 1.125 -7.890625 L 1.125 -9.015625 Z M 2.25 -7.890625 L 4.515625 -7.890625 L 4.515625 -9.015625 L 2.25 -9.015625 Z M 2.25 -7.890625 "/></g></g></g><g fill="#00ffff" fill-opacity="1"><g transform="translate(90.475372, 23.983993)"><g/></g></g><g fill="#00ffff" fill-opacity="1"><g transform="translate(95.003908, 23.983993)"><g><path d="M 0 -10.15625 L 0 -1.125 L 1.125 -1.125 L 1.125 -10.15625 Z M 1.125 0 L 5.640625 0 L 5.640625 -1.125 L 1.125 -1.125 Z M 1.125 -10.15625 L 5.640625 -10.15625 L 5.640625 -11.28125 L 1.125 -11.28125 Z M 3.390625 -5.640625 L 5.640625 -5.640625 L 5.640625 -6.765625 L 3.390625 -6.765625 Z M 5.640625 -1.125 L 6.765625 -1.125 L 6.765625 -5.640625 L 5.640625 -5.640625 Z M 5.640625 -9.015625 L 6.765625 -9.015625 L 6.765625 -10.15625 L 5.640625 -10.15625 Z M 5.640625 -9.015625 "/></g></g></g><g fill="#00ffff" fill-opacity="1"><g transform="translate(104.041908, 23.983993)"><g><path d="M 0 -9.015625 L 0 0 L 1.125 0 L 1.125 -9.015625 Z M 0 -10.15625 L 1.125 -10.15625 L 1.125 -11.28125 L 0 -11.28125 Z M 0 -10.15625 "/></g></g></g><g fill="#00ffff" fill-opacity="1"><g transform="translate(107.443084, 23.983993)"><g><path d="M 5.640625 -3.390625 L 5.640625 -9.015625 L 4.515625 -9.015625 L 4.515625 -3.390625 Z M 0 -3.390625 L 1.125 -3.390625 L 1.125 -9.015625 L 0 -9.015625 Z M 1.125 -1.125 L 2.25 -1.125 L 2.25 -3.390625 L 1.125 -3.390625 Z M 2.25 0 L 3.390625 0 L 3.390625 -1.125 L 2.25 -1.125 Z M 3.390625 -1.125 L 4.515625 -1.125 L 4.515625 -3.390625 L 3.390625 -3.390625 Z M 3.390625 -1.125 "/></g></g></g><g fill="#00ffff" fill-opacity="1"><g transform="translate(115.353717, 23.983993)"><g><path d="M 0 -7.890625 L 0 -1.125 L 1.125 -1.125 L 1.125 -4.515625 L 5.640625 -4.515625 L 5.640625 -7.890625 L 4.515625 -7.890625 L 4.515625 -5.640625 L 1.125 -5.640625 L 1.125 -7.890625 Z M 1.125 0 L 4.515625 0 L 4.515625 -1.125 L 1.125 -1.125 Z M 1.125 -7.890625 L 4.515625 -7.890625 L 4.515625 -9.015625 L 1.125 -9.015625 Z M 4.515625 -1.125 L 5.640625 -1.125 L 5.640625 -2.25 L 4.515625 -2.25 Z M 4.515625 -1.125 "/></g></g></g><g fill="#00ffff" fill-opacity="1"><g transform="translate(123.264349, 23.983993)"><g><path d="M 0 -10.15625 L 0 0 L 1.125 0 L 1.125 -6.765625 L 5.640625 -6.765625 L 5.640625 0 L 6.765625 0 L 6.765625 -10.15625 L 5.640625 -10.15625 L 5.640625 -7.890625 L 1.125 -7.890625 L 1.125 -10.15625 Z M 1.125 -10.15625 L 5.640625 -10.15625 L 5.640625 -11.28125 L 1.125 -11.28125 Z M 1.125 -10.15625 "/></g></g></g><g fill="#00ffff" fill-opacity="1"><g transform="translate(132.30235, 23.983993)"><g><path d="M 4.515625 -1.125 L 4.515625 -3.390625 L 3.390625 -3.390625 L 3.390625 -1.125 Z M 0 -3.390625 L 1.125 -3.390625 L 1.125 -9.015625 L 0 -9.015625 Z M 1.125 -1.125 L 2.25 -1.125 L 2.25 -3.390625 L 1.125 -3.390625 Z M 2.25 0 L 3.390625 0 L 3.390625 -1.125 L 2.25 -1.125 Z M 4.515625 -3.390625 L 5.640625 -3.390625 L 5.640625 -9.015625 L 4.515625 -9.015625 Z M 5.640625 -1.125 L 6.765625 -1.125 L 6.765625 -3.390625 L 5.640625 -3.390625 Z M 6.765625 0 L 7.890625 0 L 7.890625 -1.125 L 6.765625 -1.125 Z M 7.890625 -1.125 L 9.015625 -1.125 L 9.015625 -3.390625 L 7.890625 -3.390625 Z M 9.015625 -3.390625 L 10.15625 -3.390625 L 10.15625 -9.015625 L 9.015625 -9.015625 Z M 9.015625 -3.390625 "/></g></g></g><g fill="#00ffff" fill-opacity="1"><g transform="translate(144.722446, 23.983993)"><g><path d="M 0 -4.515625 L 0 -1.125 L 1.125 -1.125 L 1.125 -4.515625 Z M 0 -6.765625 L 1.125 -6.765625 L 1.125 -7.890625 L 0 -7.890625 Z M 1.125 0 L 4.515625 0 L 4.515625 -1.125 L 1.125 -1.125 Z M 1.125 -4.515625 L 4.515625 -4.515625 L 4.515625 -1.125 L 5.640625 -1.125 L 5.640625 -7.890625 L 4.515625 -7.890625 L 4.515625 -5.640625 L 1.125 -5.640625 Z M 1.125 -7.890625 L 4.515625 -7.890625 L 4.515625 -9.015625 L 1.125 -9.015625 Z M 1.125 -7.890625 "/></g></g></g><g fill="#00ffff" fill-opacity="1"><g transform="translate(152.633079, 23.983993)"><g><path d="M 0 -9.015625 L 0 -1.125 L 1.125 -1.125 L 1.125 -9.015625 Z M 0 2.25 L 1.125 2.25 L 1.125 1.125 L 0 1.125 Z M 1.125 3.390625 L 4.515625 3.390625 L 4.515625 2.25 L 1.125 2.25 Z M 1.125 0 L 4.515625 0 L 4.515625 2.25 L 5.640625 2.25 L 5.640625 -9.015625 L 4.515625 -9.015625 L 4.515625 -1.125 L 1.125 -1.125 Z M 1.125 0 "/></g></g></g><g fill="#000000" fill-opacity="1"><g transform="translate(16.737546, 23.182895)"><g><path d="M 0 -10.15625 L 0 -1.125 L 1.125 -1.125 L 1.125 -10.15625 Z M 1.125 0 L 5.640625 0 L 5.640625 -1.125 L 1.125 -1.125 Z M 1.125 -10.15625 L 5.640625 -10.15625 L 5.640625 -11.28125 L 1.125 -11.28125 Z M 5.640625 -1.125 L 6.765625 -1.125 L 6.765625 -10.15625 L 5.640625 -10.15625 Z M 5.640625 -1.125 "/></g></g></g><g fill="#000000" fill-opacity="1"><g transform="translate(25.775547, 23.182895)"><g><path d="M 0 -9.015625 L 0 -1.125 L 1.125 -1.125 L 1.125 -9.015625 Z M 1.125 0 L 4.515625 0 L 4.515625 -1.125 L 1.125 -1.125 Z M 4.515625 -1.125 L 5.640625 -1.125 L 5.640625 -9.015625 L 4.515625 -9.015625 Z M 4.515625 -1.125 "/></g></g></g><g fill="#000000" fill-opacity="1"><g transform="translate(33.686183, 23.182895)"><g><path d="M 0 -9.015625 L 0 0 L 1.125 0 L 1.125 -6.765625 L 2.25 -6.765625 L 2.25 -7.890625 L 1.125 -7.890625 L 1.125 -9.015625 Z M 2.25 -7.890625 L 4.515625 -7.890625 L 4.515625 -9.015625 L 2.25 -9.015625 Z M 2.25 -7.890625 "/></g></g></g><g fill="#000000" fill-opacity="1"><g transform="translate(40.469455, 23.182895)"><g/></g></g><g fill="#000000" fill-opacity="1"><g transform="translate(44.997995, 23.182895)"><g><path d="M 0 -11.28125 L 0 -1.125 L 1.125 -1.125 L 1.125 -11.28125 Z M 1.125 0 L 5.640625 0 L 5.640625 -1.125 L 1.125 -1.125 Z M 1.125 0 "/></g></g></g><g fill="#000000" fill-opacity="1"><g transform="translate(52.908632, 23.182895)"><g><path d="M 0 -7.890625 L 0 -1.125 L 1.125 -1.125 L 1.125 -4.515625 L 5.640625 -4.515625 L 5.640625 -7.890625 L 4.515625 -7.890625 L 4.515625 -5.640625 L 1.125 -5.640625 L 1.125 -7.890625 Z M 1.125 0 L 4.515625 0 L 4.515625 -1.125 L 1.125 -1.125 Z M 1.125 -7.890625 L 4.515625 -7.890625 L 4.515625 -9.015625 L 1.125 -9.015625 Z M 4.515625 -1.125 L 5.640625 -1.125 L 5.640625 -2.25 L 4.515625 -2.25 Z M 4.515625 -1.125 "/></g></g></g><g fill="#000000" fill-opacity="1"><g transform="translate(60.819268, 23.182895)"><g><path d="M 5.640625 -1.125 L 5.640625 -11.28125 L 4.515625 -11.28125 L 4.515625 -9.015625 L 1.125 -9.015625 L 1.125 -7.890625 L 4.515625 -7.890625 L 4.515625 -1.125 Z M 0 -1.125 L 1.125 -1.125 L 1.125 -7.890625 L 0 -7.890625 Z M 1.125 0 L 4.515625 0 L 4.515625 -1.125 L 1.125 -1.125 Z M 1.125 0 "/></g></g></g><g fill="#000000" fill-opacity="1"><g transform="translate(68.729904, 23.182895)"><g><path d="M 0 -7.890625 L 0 -1.125 L 1.125 -1.125 L 1.125 -7.890625 Z M 0 2.25 L 1.125 2.25 L 1.125 1.125 L 0 1.125 Z M 1.125 3.390625 L 4.515625 3.390625 L 4.515625 2.25 L 1.125 2.25 Z M 1.125 0 L 4.515625 0 L 4.515625 2.25 L 5.640625 2.25 L 5.640625 -7.890625 L 4.515625 -7.890625 L 4.515625 -1.125 L 1.125 -1.125 Z M 1.125 -7.890625 L 4.515625 -7.890625 L 4.515625 -9.015625 L 1.125 -9.015625 Z M 1.125 -7.890625 "/></g></g></g><g fill="#000000" fill-opacity="1"><g transform="translate(76.64054, 23.182895)"><g><path d="M 0 -7.890625 L 0 -1.125 L 1.125 -1.125 L 1.125 -4.515625 L 5.640625 -4.515625 L 5.640625 -7.890625 L 4.515625 -7.890625 L 4.515625 -5.640625 L 1.125 -5.640625 L 1.125 -7.890625 Z M 1.125 0 L 4.515625 0 L 4.515625 -1.125 L 1.125 -1.125 Z M 1.125 -7.890625 L 4.515625 -7.890625 L 4.515625 -9.015625 L 1.125 -9.015625 Z M 4.515625 -1.125 L 5.640625 -1.125 L 5.640625 -2.25 L 4.515625 -2.25 Z M 4.515625 -1.125 "/></g></g></g><g fill="#000000" fill-opacity="1"><g transform="translate(84.551177, 23.182895)"><g><path d="M 0 -9.015625 L 0 0 L 1.125 0 L 1.125 -6.765625 L 2.25 -6.765625 L 2.25 -7.890625 L 1.125 -7.890625 L 1.125 -9.015625 Z M 2.25 -7.890625 L 4.515625 -7.890625 L 4.515625 -9.015625 L 2.25 -9.015625 Z M 2.25 -7.890625 "/></g></g></g><g fill="#000000" fill-opacity="1"><g transform="translate(91.334445, 23.182895)"><g/></g></g><g fill="#000000" fill-opacity="1"><g transform="translate(95.862981, 23.182895)"><g><path d="M 0 -10.15625 L 0 -1.125 L 1.125 -1.125 L 1.125 -10.15625 Z M 1.125 0 L 5.640625 0 L 5.640625 -1.125 L 1.125 -1.125 Z M 1.125 -10.15625 L 5.640625 -10.15625 L 5.640625 -11.28125 L 1.125 -11.28125 Z M 3.390625 -5.640625 L 5.640625 -5.640625 L 5.640625 -6.765625 L 3.390625 -6.765625 Z M 5.640625 -1.125 L 6.765625 -1.125 L 6.765625 -5.640625 L 5.640625 -5.640625 Z M 5.640625 -9.015625 L 6.765625 -9.015625 L 6.765625 -10.15625 L 5.640625 -10.15625 Z M 5.640625 -9.015625 "/></g></g></g><g fill="#000000" fill-opacity="1"><g transform="translate(104.900982, 23.182895)"><g><path d="M 0 -9.015625 L 0 0 L 1.125 0 L 1.125 -9.015625 Z M 0 -10.15625 L 1.125 -10.15625 L 1.125 -11.28125 L 0 -11.28125 Z M 0 -10.15625 "/></g></g></g><g fill="#000000" fill-opacity="1"><g transform="translate(108.302157, 23.182895)"><g><path d="M 5.640625 -3.390625 L 5.640625 -9.015625 L 4.515625 -9.015625 L 4.515625 -3.390625 Z M 0 -3.390625 L 1.125 -3.390625 L 1.125 -9.015625 L 0 -9.015625 Z M 1.125 -1.125 L 2.25 -1.125 L 2.25 -3.390625 L 1.125 -3.390625 Z M 2.25 0 L 3.390625 0 L 3.390625 -1.125 L 2.25 -1.125 Z M 3.390625 -1.125 L 4.515625 -1.125 L 4.515625 -3.390625 L 3.390625 -3.390625 Z M 3.390625 -1.125 "/></g></g></g><g fill="#000000" fill-opacity="1"><g transform="translate(116.21279, 23.182895)"><g><path d="M 0 -7.890625 L 0 -1.125 L 1.125 -1.125 L 1.125 -4.515625 L 5.640625 -4.515625 L 5.640625 -7.890625 L 4.515625 -7.890625 L 4.515625 -5.640625 L 1.125 -5.640625 L 1.125 -7.890625 Z M 1.125 0 L 4.515625 0 L 4.515625 -1.125 L 1.125 -1.125 Z M 1.125 -7.890625 L 4.515625 -7.890625 L 4.515625 -9.015625 L 1.125 -9.015625 Z M 4.515625 -1.125 L 5.640625 -1.125 L 5.640625 -2.25 L 4.515625 -2.25 Z M 4.515625 -1.125 "/></g></g></g><g fill="#000000" fill-opacity="1"><g transform="translate(124.123422, 23.182895)"><g><path d="M 0 -10.15625 L 0 0 L 1.125 0 L 1.125 -6.765625 L 5.640625 -6.765625 L 5.640625 0 L 6.765625 0 L 6.765625 -10.15625 L 5.640625 -10.15625 L 5.640625 -7.890625 L 1.125 -7.890625 L 1.125 -10.15625 Z M 1.125 -10.15625 L 5.640625 -10.15625 L 5.640625 -11.28125 L 1.125 -11.28125 Z M 1.125 -10.15625 "/></g></g></g><g fill="#000000" fill-opacity="1"><g transform="translate(133.161423, 23.182895)"><g><path d="M 4.515625 -1.125 L 4.515625 -3.390625 L 3.390625 -3.390625 L 3.390625 -1.125 Z M 0 -3.390625 L 1.125 -3.390625 L 1.125 -9.015625 L 0 -9.015625 Z M 1.125 -1.125 L 2.25 -1.125 L 2.25 -3.390625 L 1.125 -3.390625 Z M 2.25 0 L 3.390625 0 L 3.390625 -1.125 L 2.25 -1.125 Z M 4.515625 -3.390625 L 5.640625 -3.390625 L 5.640625 -9.015625 L 4.515625 -9.015625 Z M 5.640625 -1.125 L 6.765625 -1.125 L 6.765625 -3.390625 L 5.640625 -3.390625 Z M 6.765625 0 L 7.890625 0 L 7.890625 -1.125 L 6.765625 -1.125 Z M 7.890625 -1.125 L 9.015625 -1.125 L 9.015625 -3.390625 L 7.890625 -3.390625 Z M 9.015625 -3.390625 L 10.15625 -3.390625 L 10.15625 -9.015625 L 9.015625 -9.015625 Z M 9.015625 -3.390625 "/></g></g></g><g fill="#000000" fill-opacity="1"><g transform="translate(145.581519, 23.182895)"><g><path d="M 0 -4.515625 L 0 -1.125 L 1.125 -1.125 L 1.125 -4.515625 Z M 0 -6.765625 L 1.125 -6.765625 L 1.125 -7.890625 L 0 -7.890625 Z M 1.125 0 L 4.515625 0 L 4.515625 -1.125 L 1.125 -1.125 Z M 1.125 -4.515625 L 4.515625 -4.515625 L 4.515625 -1.125 L 5.640625 -1.125 L 5.640625 -7.890625 L 4.515625 -7.890625 L 4.515625 -5.640625 L 1.125 -5.640625 Z M 1.125 -7.890625 L 4.515625 -7.890625 L 4.515625 -9.015625 L 1.125 -9.015625 Z M 1.125 -7.890625 "/></g></g></g><g fill="#000000" fill-opacity="1"><g transform="translate(153.492152, 23.182895)"><g><path d="M 0 -9.015625 L 0 -1.125 L 1.125 -1.125 L 1.125 -9.015625 Z M 0 2.25 L 1.125 2.25 L 1.125 1.125 L 0 1.125 Z M 1.125 3.390625 L 4.515625 3.390625 L 4.515625 2.25 L 1.125 2.25 Z M 1.125 0 L 4.515625 0 L 4.515625 2.25 L 5.640625 2.25 L 5.640625 -9.015625 L 4.515625 -9.015625 L 4.515625 -1.125 L 1.125 -1.125 Z M 1.125 0 "/></g></g></g></svg>