<svg xmlns="http://www.w3.org/2000/svg" xmlns:xlink="http://www.w3.org/1999/xlink" width="500" zoomAndPan="magnify" viewBox="0 0 375 374.999991" height="500" preserveAspectRatio="xMidYMid meet" version="1.0"><defs><clipPath id="644ff0c324"><path d="M 131 16.953125 L 349 16.953125 L 349 234 L 131 234 Z M 131 16.953125 " clip-rule="nonzero"/></clipPath><clipPath id="6b863f3e28"><path d="M 26 129 L 237 129 L 237 358.203125 L 26 358.203125 Z M 26 129 " clip-rule="nonzero"/></clipPath></defs><g clip-path="url(#644ff0c324)"><path fill="#946c0a" d="M 131.96875 44.714844 C 236.410156 44.714844 321.019531 129.324219 321.019531 233.765625 L 348.785156 233.765625 C 348.785156 114.121094 251.613281 16.953125 131.96875 16.953125 Z M 131.96875 44.714844 " fill-opacity="1" fill-rule="evenodd"/></g><path fill="#ffc61a" d="M 292.925781 233.765625 C 292.925781 144.859375 220.875 72.808594 131.96875 72.808594 L 131.96875 100.570312 C 205.34375 100.570312 265.164062 160.0625 265.164062 233.765625 Z M 292.925781 233.765625 " fill-opacity="1" fill-rule="evenodd"/><path fill="#efcecb" d="M 237.070312 233.765625 C 237.070312 175.597656 189.808594 128.332031 131.640625 128.332031 L 131.640625 156.097656 C 174.273438 156.097656 208.976562 190.800781 208.976562 233.4375 L 236.742188 233.4375 Z M 237.070312 233.765625 " fill-opacity="1" fill-rule="evenodd"/><g clip-path="url(#6b863f3e28)"><path fill="#fff4ea" d="M 54.300781 233.765625 C 54.300781 195.097656 82.722656 163.039062 120.070312 157.417969 L 120.070312 129.324219 C 67.519531 135.273438 26.535156 179.894531 26.535156 234.097656 C 26.535156 258.554688 34.800781 281.03125 49.011719 298.875 C 48.679688 298.214844 48.019531 297.554688 47.691406 297.222656 L 35.460938 358.367188 L 93.960938 332.257812 L 93.628906 332.257812 C 105.527344 336.886719 118.417969 339.53125 132.300781 339.53125 C 185.84375 339.53125 230.460938 299.207031 236.742188 247.316406 L 208.648438 247.316406 C 202.367188 283.671875 170.640625 311.765625 132.300781 311.765625 C 89.664062 311.765625 54.960938 277.0625 54.960938 234.425781 Z M 49.011719 298.875 C 49.671875 299.539062 50.003906 300.199219 50.664062 300.859375 C 50.003906 300.199219 49.671875 299.539062 49.011719 298.875 Z M 50.664062 300.859375 C 51.324219 301.519531 51.65625 302.183594 52.316406 302.84375 C 51.65625 302.183594 51.324219 301.519531 50.664062 300.859375 Z M 52.316406 302.84375 C 52.976562 303.503906 53.308594 304.164062 53.96875 304.824219 C 53.308594 304.164062 52.976562 303.503906 52.316406 302.84375 Z M 53.96875 304.824219 C 54.628906 305.488281 54.960938 306.148438 55.621094 306.480469 C 54.960938 305.816406 54.628906 305.15625 53.96875 304.824219 Z M 55.621094 306.808594 C 56.28125 307.46875 56.613281 307.800781 57.273438 308.460938 C 56.613281 307.800781 56.28125 307.46875 55.621094 306.808594 Z M 57.273438 308.792969 C 57.933594 309.453125 58.265625 309.785156 58.925781 310.445312 C 58.265625 309.785156 57.933594 309.453125 57.273438 308.792969 Z M 60.910156 312.097656 C 61.570312 312.757812 62.230469 313.089844 62.894531 313.75 C 62.230469 313.089844 61.570312 312.757812 60.910156 312.097656 Z M 62.894531 313.75 C 63.554688 314.410156 64.214844 314.742188 64.875 315.402344 C 64.214844 314.742188 63.554688 314.410156 62.894531 313.75 Z M 64.875 315.402344 C 65.535156 316.0625 66.199219 316.394531 66.859375 317.054688 C 66.199219 316.394531 65.535156 316.0625 64.875 315.402344 Z M 66.859375 317.054688 C 68.179688 318.046875 69.503906 319.039062 70.824219 320.03125 C 69.503906 319.039062 68.179688 318.046875 66.859375 317.054688 Z M 70.824219 320.03125 C 71.484375 320.359375 72.148438 321.019531 72.808594 321.351562 C 72.148438 321.019531 71.484375 320.359375 70.824219 320.03125 Z M 72.808594 321.351562 C 73.46875 321.683594 74.128906 322.34375 74.792969 322.671875 C 74.128906 322.34375 73.46875 321.683594 72.808594 321.351562 Z M 74.792969 322.671875 C 75.453125 323.003906 76.113281 323.664062 76.773438 323.996094 C 76.113281 323.664062 75.453125 323.003906 74.792969 322.671875 Z M 79.089844 325.316406 C 79.75 325.648438 80.410156 325.980469 81.402344 326.640625 C 80.742188 326.308594 80.078125 325.980469 79.089844 325.316406 Z M 81.402344 326.640625 C 82.0625 326.96875 82.722656 327.300781 83.714844 327.632812 C 83.054688 327.300781 82.394531 326.96875 81.402344 326.640625 Z M 83.714844 327.960938 C 84.375 328.292969 85.039062 328.621094 86.027344 328.953125 C 85.367188 328.621094 84.707031 328.292969 83.714844 327.960938 Z M 86.027344 329.285156 C 86.691406 329.613281 87.351562 329.945312 88.34375 330.273438 C 87.679688 329.945312 87.019531 329.613281 86.027344 329.285156 Z M 88.34375 330.273438 C 89.003906 330.605469 89.996094 330.9375 90.65625 331.265625 C 89.996094 330.9375 89.003906 330.605469 88.34375 330.273438 Z M 90.65625 331.265625 C 91.316406 331.597656 92.308594 331.929688 92.96875 332.257812 C 92.308594 331.929688 91.316406 331.597656 90.65625 331.265625 Z M 79.089844 325.648438 C 78.425781 325.316406 77.765625 324.65625 76.773438 324.324219 Z M 60.578125 312.097656 C 59.917969 311.4375 59.257812 311.105469 58.925781 310.445312 Z M 60.578125 312.097656 " fill-opacity="1" fill-rule="evenodd"/></g><path fill="#fff4ea" d="M 93.628906 216.910156 C 101.230469 216.910156 107.511719 223.191406 107.511719 230.792969 C 107.511719 238.394531 101.230469 244.671875 93.628906 244.671875 C 86.027344 244.671875 79.75 238.394531 79.75 230.792969 C 79.75 223.191406 86.027344 216.910156 93.628906 216.910156 Z M 168.988281 216.910156 C 176.589844 216.910156 182.867188 223.191406 182.867188 230.792969 C 182.867188 238.394531 176.589844 244.671875 168.988281 244.671875 C 161.386719 244.671875 155.105469 238.394531 155.105469 230.792969 C 155.105469 223.191406 161.386719 216.910156 168.988281 216.910156 Z M 131.308594 216.910156 C 138.910156 216.910156 145.191406 223.191406 145.191406 230.792969 C 145.191406 238.394531 138.910156 244.671875 131.308594 244.671875 C 123.707031 244.671875 117.425781 238.394531 117.425781 230.792969 C 117.425781 223.191406 123.707031 216.910156 131.308594 216.910156 Z M 131.308594 216.910156 " fill-opacity="1" fill-rule="evenodd"/></svg>