<svg xmlns="http://www.w3.org/2000/svg" xmlns:xlink="http://www.w3.org/1999/xlink" width="45" zoomAndPan="magnify" viewBox="0 0 33.75 33.749999" height="45" preserveAspectRatio="xMidYMid meet" version="1.0"><defs><clipPath id="7601c7d95c"><path d="M 7.839844 2.171875 L 25.707031 2.171875 L 25.707031 31.207031 L 7.839844 31.207031 Z M 7.839844 2.171875 " clip-rule="nonzero"/></clipPath><clipPath id="6f3b3724ff"><path d="M 21.917969 23.84375 L 29.363281 23.84375 L 29.363281 31.289062 L 21.917969 31.289062 Z M 21.917969 23.84375 " clip-rule="nonzero"/></clipPath></defs><g clip-path="url(#7601c7d95c)"><path fill="#ff0000" d="M 25.703125 11.042969 C 25.703125 15.945312 16.773438 31.207031 16.773438 31.207031 C 16.773438 31.207031 7.839844 15.945312 7.839844 11.042969 C 7.839844 6.140625 11.839844 2.171875 16.773438 2.171875 C 21.703125 2.171875 25.703125 6.144531 25.703125 11.042969 Z M 25.703125 11.042969 " fill-opacity="1" fill-rule="nonzero"/></g><path fill="#ffffff" d="M 23.96875 10.992188 C 23.96875 11.460938 23.921875 11.925781 23.828125 12.386719 C 23.738281 12.84375 23.601562 13.292969 23.417969 13.726562 C 23.238281 14.160156 23.015625 14.570312 22.753906 14.960938 C 22.492188 15.351562 22.195312 15.710938 21.859375 16.042969 C 21.527344 16.375 21.164062 16.671875 20.769531 16.933594 C 20.375 17.195312 19.960938 17.414062 19.527344 17.59375 C 19.089844 17.773438 18.640625 17.910156 18.175781 18 C 17.710938 18.09375 17.246094 18.136719 16.773438 18.136719 C 16.300781 18.136719 15.832031 18.09375 15.367188 18 C 14.90625 17.910156 14.457031 17.773438 14.019531 17.59375 C 13.582031 17.414062 13.167969 17.195312 12.777344 16.933594 C 12.382812 16.671875 12.019531 16.375 11.683594 16.042969 C 11.351562 15.710938 11.054688 15.351562 10.789062 14.960938 C 10.527344 14.570312 10.304688 14.160156 10.125 13.726562 C 9.945312 13.292969 9.808594 12.84375 9.714844 12.386719 C 9.625 11.925781 9.578125 11.460938 9.578125 10.992188 C 9.578125 10.523438 9.625 10.058594 9.714844 9.597656 C 9.808594 9.136719 9.945312 8.6875 10.125 8.253906 C 10.304688 7.824219 10.527344 7.410156 10.789062 7.019531 C 11.054688 6.628906 11.351562 6.269531 11.683594 5.9375 C 12.019531 5.605469 12.382812 5.308594 12.777344 5.046875 C 13.167969 4.789062 13.582031 4.566406 14.019531 4.386719 C 14.457031 4.207031 14.90625 4.074219 15.367188 3.980469 C 15.832031 3.890625 16.300781 3.84375 16.773438 3.84375 C 17.246094 3.84375 17.710938 3.890625 18.175781 3.980469 C 18.640625 4.074219 19.089844 4.207031 19.527344 4.386719 C 19.960938 4.566406 20.375 4.789062 20.769531 5.046875 C 21.164062 5.308594 21.527344 5.605469 21.859375 5.9375 C 22.195312 6.269531 22.492188 6.628906 22.753906 7.019531 C 23.015625 7.410156 23.238281 7.824219 23.417969 8.253906 C 23.601562 8.6875 23.738281 9.136719 23.828125 9.597656 C 23.921875 10.058594 23.96875 10.523438 23.96875 10.992188 Z M 23.96875 10.992188 " fill-opacity="1" fill-rule="nonzero"/><path fill="#ff0000" d="M 13.03125 9.9375 C 13.03125 10.167969 12.933594 10.351562 12.738281 10.496094 C 12.542969 10.640625 12.277344 10.710938 11.941406 10.710938 C 11.75 10.710938 11.578125 10.695312 11.433594 10.660156 C 11.289062 10.625 11.15625 10.582031 11.03125 10.53125 L 11.03125 9.972656 L 11.09375 9.972656 C 11.21875 10.070312 11.359375 10.148438 11.515625 10.203125 C 11.667969 10.253906 11.816406 10.28125 11.960938 10.28125 C 11.996094 10.28125 12.042969 10.277344 12.105469 10.269531 C 12.164062 10.265625 12.214844 10.253906 12.25 10.242188 C 12.296875 10.222656 12.335938 10.199219 12.363281 10.171875 C 12.394531 10.144531 12.410156 10.101562 12.410156 10.046875 C 12.410156 9.996094 12.386719 9.953125 12.34375 9.914062 C 12.300781 9.878906 12.238281 9.851562 12.152344 9.828125 C 12.0625 9.808594 11.972656 9.789062 11.871094 9.769531 C 11.773438 9.753906 11.683594 9.730469 11.597656 9.703125 C 11.398438 9.640625 11.261719 9.550781 11.171875 9.441406 C 11.085938 9.332031 11.042969 9.199219 11.042969 9.039062 C 11.042969 8.820312 11.140625 8.644531 11.335938 8.507812 C 11.53125 8.371094 11.78125 8.300781 12.089844 8.300781 C 12.242188 8.300781 12.394531 8.316406 12.546875 8.34375 C 12.699219 8.375 12.824219 8.414062 12.9375 8.457031 L 12.9375 8.992188 L 12.871094 8.992188 C 12.777344 8.917969 12.664062 8.855469 12.523438 8.804688 C 12.386719 8.753906 12.246094 8.726562 12.105469 8.726562 C 12.054688 8.726562 12.003906 8.730469 11.957031 8.738281 C 11.90625 8.742188 11.859375 8.753906 11.8125 8.777344 C 11.769531 8.792969 11.734375 8.816406 11.707031 8.847656 C 11.675781 8.878906 11.664062 8.914062 11.664062 8.957031 C 11.664062 9.019531 11.6875 9.066406 11.734375 9.097656 C 11.78125 9.128906 11.867188 9.160156 12 9.1875 C 12.085938 9.207031 12.167969 9.222656 12.246094 9.238281 C 12.328125 9.253906 12.414062 9.277344 12.503906 9.308594 C 12.683594 9.367188 12.816406 9.445312 12.898438 9.546875 C 12.992188 9.644531 13.03125 9.777344 13.03125 9.9375 Z M 13.03125 9.9375 " fill-opacity="1" fill-rule="nonzero"/><path fill="#ff0000" d="M 15.277344 8.792969 L 14.546875 8.792969 L 14.546875 10.667969 L 13.945312 10.667969 L 13.945312 8.792969 L 13.210938 8.792969 L 13.210938 8.34375 L 15.277344 8.34375 Z M 15.277344 8.792969 " fill-opacity="1" fill-rule="nonzero"/><path fill="#ff0000" d="M 17.804688 10.667969 L 17.183594 10.667969 L 17.019531 10.195312 L 16.152344 10.195312 L 15.988281 10.667969 L 15.382812 10.667969 L 16.246094 8.339844 L 16.941406 8.339844 Z M 16.871094 9.769531 L 16.582031 8.9375 L 16.292969 9.769531 Z M 16.871094 9.769531 " fill-opacity="1" fill-rule="nonzero"/><path fill="#ff0000" d="M 20.394531 10.667969 L 19.65625 10.667969 L 19.023438 9.816406 L 18.742188 9.816406 L 18.742188 10.667969 L 18.140625 10.667969 L 18.140625 8.34375 L 19.15625 8.34375 C 19.292969 8.34375 19.414062 8.351562 19.511719 8.367188 C 19.613281 8.382812 19.707031 8.414062 19.792969 8.46875 C 19.878906 8.519531 19.949219 8.589844 20 8.667969 C 20.054688 8.753906 20.078125 8.855469 20.078125 8.980469 C 20.078125 9.152344 20.039062 9.292969 19.957031 9.402344 C 19.878906 9.511719 19.761719 9.601562 19.613281 9.675781 Z M 19.453125 9.054688 C 19.453125 8.996094 19.441406 8.945312 19.417969 8.902344 C 19.394531 8.863281 19.351562 8.828125 19.292969 8.804688 C 19.25 8.789062 19.203125 8.777344 19.152344 8.773438 C 19.097656 8.769531 19.03125 8.769531 18.960938 8.769531 L 18.742188 8.769531 L 18.742188 9.394531 L 18.925781 9.394531 C 19.023438 9.394531 19.105469 9.390625 19.167969 9.382812 C 19.234375 9.375 19.289062 9.351562 19.332031 9.316406 C 19.375 9.285156 19.40625 9.25 19.421875 9.210938 C 19.445312 9.171875 19.453125 9.121094 19.453125 9.054688 Z M 19.453125 9.054688 " fill-opacity="1" fill-rule="nonzero"/><path fill="#ff0000" d="M 22.492188 8.792969 L 21.761719 8.792969 L 21.761719 10.667969 L 21.15625 10.667969 L 21.15625 8.792969 L 20.425781 8.792969 L 20.425781 8.34375 L 22.492188 8.34375 Z M 22.492188 8.792969 " fill-opacity="1" fill-rule="nonzero"/><path fill="#ff0000" d="M 14.953125 13.894531 L 14.347656 13.894531 L 14.347656 12.867188 L 13.457031 12.867188 L 13.457031 13.894531 L 12.855469 13.894531 L 12.855469 11.566406 L 13.457031 11.566406 L 13.457031 12.417969 L 14.347656 12.417969 L 14.347656 11.566406 L 14.953125 11.566406 Z M 14.953125 13.894531 " fill-opacity="1" fill-rule="nonzero"/><path fill="#ff0000" d="M 17.242188 13.894531 L 15.550781 13.894531 L 15.550781 11.566406 L 17.242188 11.566406 L 17.242188 12.015625 L 16.152344 12.015625 L 16.152344 12.417969 L 17.164062 12.417969 L 17.164062 12.867188 L 16.152344 12.867188 L 16.152344 13.441406 L 17.242188 13.441406 Z M 17.242188 13.894531 " fill-opacity="1" fill-rule="nonzero"/><path fill="#ff0000" d="M 20.003906 13.894531 L 19.265625 13.894531 L 18.628906 13.042969 L 18.351562 13.042969 L 18.351562 13.894531 L 17.75 13.894531 L 17.75 11.566406 L 18.761719 11.566406 C 18.898438 11.566406 19.019531 11.574219 19.117188 11.589844 C 19.21875 11.605469 19.3125 11.640625 19.398438 11.691406 C 19.488281 11.746094 19.554688 11.8125 19.609375 11.894531 C 19.660156 11.976562 19.683594 12.082031 19.683594 12.207031 C 19.683594 12.378906 19.644531 12.519531 19.5625 12.628906 C 19.484375 12.734375 19.367188 12.828125 19.222656 12.898438 Z M 19.0625 12.28125 C 19.0625 12.222656 19.050781 12.171875 19.023438 12.128906 C 19.003906 12.089844 18.960938 12.054688 18.902344 12.03125 C 18.859375 12.015625 18.8125 12.003906 18.761719 12 C 18.707031 11.996094 18.640625 11.996094 18.570312 11.996094 L 18.351562 11.996094 L 18.351562 12.621094 L 18.535156 12.621094 C 18.632812 12.621094 18.714844 12.617188 18.777344 12.609375 C 18.84375 12.597656 18.898438 12.578125 18.941406 12.542969 C 18.984375 12.511719 19.015625 12.476562 19.03125 12.4375 C 19.054688 12.398438 19.0625 12.347656 19.0625 12.28125 Z M 19.0625 12.28125 " fill-opacity="1" fill-rule="nonzero"/><path fill="#ff0000" d="M 21.960938 13.894531 L 20.265625 13.894531 L 20.265625 11.566406 L 21.960938 11.566406 L 21.960938 12.015625 L 20.867188 12.015625 L 20.867188 12.417969 L 21.882812 12.417969 L 21.882812 12.867188 L 20.867188 12.867188 L 20.867188 13.441406 L 21.960938 13.441406 Z M 21.960938 13.894531 " fill-opacity="1" fill-rule="nonzero"/><g clip-path="url(#6f3b3724ff)"><path fill="#ffffff" d="M 25.660156 23.84375 C 23.597656 23.84375 21.921875 25.523438 21.921875 27.585938 C 21.921875 29.648438 23.597656 31.324219 25.660156 31.324219 C 27.722656 31.324219 29.398438 29.648438 29.398438 27.585938 C 29.398438 25.523438 27.722656 23.84375 25.660156 23.84375 Z M 25.660156 30.71875 C 23.929688 30.71875 22.527344 29.3125 22.527344 27.585938 C 22.527344 25.855469 23.929688 24.449219 25.660156 24.449219 C 27.386719 24.449219 28.792969 25.855469 28.792969 27.585938 C 28.792969 29.3125 27.386719 30.71875 25.660156 30.71875 Z M 25.660156 30.71875 " fill-opacity="1" fill-rule="nonzero"/></g><path fill="#ffffff" d="M 27.324219 27.472656 L 24.671875 25.941406 C 24.589844 25.890625 24.480469 25.953125 24.480469 26.050781 L 24.480469 29.113281 C 24.480469 29.210938 24.589844 29.273438 24.671875 29.226562 L 27.324219 27.695312 C 27.410156 27.644531 27.410156 27.519531 27.324219 27.472656 Z M 27.324219 27.472656 " fill-opacity="1" fill-rule="nonzero"/></svg>