<svg xmlns="http://www.w3.org/2000/svg" xmlns:xlink="http://www.w3.org/1999/xlink" width="450" zoomAndPan="magnify" viewBox="0 0 337.5 149.999998" height="200" preserveAspectRatio="xMidYMid meet" version="1.0"><defs><clipPath id="ce4a01ab41"><path d="M 88.585938 4.9375 L 180.699219 4.9375 L 180.699219 144.980469 L 88.585938 144.980469 Z M 88.585938 4.9375 " clip-rule="nonzero"/></clipPath><clipPath id="446203022f"><path d="M 216 45 L 229 45 L 229 140.484375 L 216 140.484375 Z M 216 45 " clip-rule="nonzero"/></clipPath><clipPath id="2662dcf13f"><path d="M 185.875 9.425781 L 259.265625 9.425781 L 259.265625 83 L 185.875 83 Z M 185.875 9.425781 " clip-rule="nonzero"/></clipPath></defs><path fill="#f6ba99" d="M 148.558594 45.515625 C 154.023438 18.074219 157.070312 6.464844 168.34375 8.617188 C 174.4375 9.78125 180.078125 13.441406 174.441406 38.480469 C 168.800781 63.519531 155.980469 74.359375 161.675781 78.085938 C 161.675781 78.085938 176.332031 79.019531 176.332031 92.210938 C 176.332031 105.402344 172.089844 126.613281 161.78125 134.609375 C 153.28125 141.203125 140.914062 139.390625 140.914062 139.390625 C 140.914062 139.390625 133.230469 137.597656 130.480469 138.757812 C 127.730469 139.917969 116.945312 143.613281 102.777344 130.53125 C 88.609375 117.449219 91.890625 84.773438 91.808594 79.460938 C 91.441406 55.363281 103.796875 60.113281 103.796875 60.113281 C 103.796875 60.113281 100.449219 52.550781 112.082031 47.976562 C 123.71875 43.40625 124.425781 52.726562 124.425781 52.726562 C 124.425781 52.726562 125.070312 40.894531 134.722656 40.367188 C 134.722656 40.367188 146.222656 39.3125 148.207031 48.8125 L 148.558594 45.515625 " fill-opacity="1" fill-rule="nonzero"/><g clip-path="url(#ce4a01ab41)"><path stroke-linecap="butt" transform="matrix(0.0528871, 0, 0, -0.0527666, 13.979262, 184.397484)" fill="none" stroke-linejoin="miter" d="M 2544.652905 2632.003676 C 2647.983264 3152.056352 2705.594186 3372.070096 2918.754596 3331.280199 C 3033.976439 3309.219602 3140.630505 3239.854568 3034.050299 2765.329636 C 2927.396234 2290.804703 2684.987202 2085.374643 2792.675309 2014.751119 C 2792.675309 2014.751119 3069.798615 1997.058224 3069.798615 1747.062796 C 3069.798615 1497.067367 2989.586486 1095.090708 2794.669534 943.553651 C 2633.949834 818.592951 2400.10858 852.942338 2400.10858 852.942338 C 2400.10858 852.942338 2254.825653 886.92158 2202.828103 864.935011 C 2150.830553 842.948443 1946.902663 772.91715 1679.011877 1020.839771 C 1411.121091 1268.762392 1473.163622 1888.013727 1471.612558 1988.692964 C 1464.669704 2445.376944 1698.289377 2355.357861 1698.289377 2355.357861 C 1698.289377 2355.357861 1634.991224 2498.677716 1854.946768 2585.3655 C 2074.976173 2671.979255 2088.344861 2495.346418 2088.344861 2495.346418 C 2088.344861 2495.346418 2100.531787 2719.579806 2283.040233 2729.573701 C 2283.040233 2729.573701 2500.484532 2749.561491 2538.005491 2569.523326 Z M 2544.652905 2632.003676 " stroke="#1e1613" stroke-width="47.986" stroke-opacity="1" stroke-miterlimit="10"/></g><path fill="#1e1613" d="M 126.707031 84.234375 C 123.785156 77.949219 123.308594 53.792969 123.144531 52.722656 L 125.714844 52.492188 C 125.417969 53.792969 125.367188 77.597656 128.144531 83.570312 L 126.707031 84.234375 " fill-opacity="1" fill-rule="nonzero"/><path fill="#1e1613" d="M 148.324219 79.046875 L 146.769531 78.714844 C 149.097656 67.871094 147.433594 49.070312 147.417969 48.882812 L 149 48.742188 C 149.070312 49.519531 150.699219 67.964844 148.324219 79.046875 " fill-opacity="1" fill-rule="nonzero"/><path fill="#1e1613" d="M 124.609375 88.824219 C 123.832031 88.824219 123.035156 88.667969 122.214844 88.347656 C 112.980469 84.777344 103.460938 61.402344 103.0625 60.410156 L 104.871094 59.515625 C 104.96875 59.753906 114.195312 83.550781 122.789062 86.875 C 124.085938 87.375 125.25 87.367188 126.34375 86.839844 L 127.03125 88.265625 C 126.257812 88.640625 125.445312 88.824219 124.609375 88.824219 " fill-opacity="1" fill-rule="nonzero"/><path fill="#1e1613" d="M 159.824219 97.511719 C 156.84375 97.511719 155.53125 96.292969 155.449219 96.210938 L 156.5625 95.335938 C 156.589844 95.363281 159.410156 97.730469 166.898438 94.234375 L 172.242188 91.773438 L 167.507812 95.175781 C 164.191406 96.722656 161.703125 97.511719 159.824219 97.511719 " fill-opacity="1" fill-rule="nonzero"/><path stroke-linecap="butt" transform="matrix(0.0528871, 0, 0, -0.0527666, 13.979262, 184.397484)" fill-opacity="1" fill="#fcebdc" fill-rule="nonzero" stroke-linejoin="miter" d="M 2249.950883 2011.567879 C 2249.950883 2011.567879 2309.92533 1993.652897 2322.481556 1938.649461 C 2335.037783 1883.646025 2447.157499 1896.156901 2479.803688 1903.707843 C 2512.523738 1911.184757 2542.0678 1971.814386 2509.790912 1998.982974 " stroke="#1e1613" stroke-width="10" stroke-opacity="1" stroke-miterlimit="10"/><path fill="#1e1613" d="M 143.820312 98.097656 C 138.824219 98.097656 134.488281 97.234375 131.183594 95.492188 C 128.488281 94.074219 126.746094 92.144531 126.136719 89.914062 C 125.515625 87.636719 126.160156 82.867188 128.980469 79.84375 C 130.484375 78.230469 133.207031 76.492188 137.632812 77.351562 C 146.570312 79.097656 161.457031 77.359375 161.605469 77.34375 L 161.445312 79.371094 C 160.1875 79.222656 146.511719 80.699219 137.328125 78.90625 C 134.347656 78.324219 131.933594 79.003906 130.144531 80.921875 C 127.746094 83.492188 127.160156 87.625 127.671875 89.5 C 128.160156 91.296875 129.628906 92.886719 131.921875 94.09375 C 137.328125 96.9375 148.671875 98.375 164.152344 93.003906 L 168.109375 91.917969 L 164.582031 93.875 C 157.101562 96.464844 149.976562 98.097656 143.820312 98.097656 " fill-opacity="1" fill-rule="nonzero"/><path fill="#1e1613" d="M 111.402344 94.917969 C 103.285156 94.917969 98.3125 88.007812 95.707031 73.925781 L 95.457031 70.445312 L 96.515625 73.777344 C 99.003906 87.226562 104.347656 93.570312 111.8125 93.324219 C 119.636719 93.078125 121.34375 87.894531 121.359375 87.84375 L 122.875 88.316406 C 122.792969 88.570312 120.804688 94.625 111.867188 94.910156 C 111.707031 94.914062 111.554688 94.917969 111.402344 94.917969 " fill-opacity="1" fill-rule="nonzero"/><path fill="#1e1613" d="M 98.945312 85.242188 C 97.074219 84.601562 94.734375 77.730469 93.789062 74.929688 L 93.414062 72.410156 L 94.566406 74.617188 C 95.9375 78.671875 98.324219 83.199219 99.164062 83.582031 L 98.945312 85.242188 " fill-opacity="1" fill-rule="nonzero"/><path fill="#1e1613" d="M 103.835938 83.847656 C 103.835938 83.847656 103.21875 84.320312 102.996094 83.976562 C 102.773438 83.628906 103.476562 83.273438 103.476562 83.273438 L 112.917969 78.449219 C 112.917969 78.449219 113.621094 78.011719 113.808594 78.363281 C 113.996094 78.714844 113.277344 79.023438 113.277344 79.023438 L 103.835938 83.847656 " fill-opacity="1" fill-rule="nonzero"/><path fill="#1e1613" d="M 114.925781 72.867188 C 114.925781 72.867188 114.304688 73.34375 114.082031 72.996094 C 113.859375 72.648438 114.566406 72.289062 114.566406 72.289062 L 122.875 67.941406 C 122.875 67.941406 123.574219 67.503906 123.761719 67.851562 C 123.949219 68.207031 123.234375 68.511719 123.234375 68.511719 L 114.925781 72.867188 " fill-opacity="1" fill-rule="nonzero"/><path fill="#1e1613" d="M 130.046875 68.34375 C 130.046875 68.34375 129.273438 68.472656 129.242188 68.0625 C 129.210938 67.648438 130.003906 67.671875 130.003906 67.671875 L 144.476562 67.730469 C 144.476562 67.730469 145.300781 67.675781 145.296875 68.074219 C 145.296875 68.472656 144.515625 68.40625 144.515625 68.40625 L 130.046875 68.34375 " fill-opacity="1" fill-rule="nonzero"/><path fill="#1e1613" d="M 129.953125 113.648438 L 129.402344 118.75 L 129.007812 113.472656 C 129.007812 100.503906 142.007812 96.519531 142.144531 96.480469 L 142.597656 97.996094 C 142.09375 98.144531 130.945312 102.105469 129.953125 113.648438 " fill-opacity="1" fill-rule="nonzero"/><path fill="#ffffff" d="M 227.722656 139.746094 L 217.378906 139.746094 L 217.378906 46.171875 L 227.722656 46.171875 L 227.722656 139.746094 " fill-opacity="1" fill-rule="nonzero"/><g clip-path="url(#446203022f)"><path fill="#231f20" d="M 227.722656 139.746094 L 227.722656 138.984375 L 218.136719 138.984375 L 218.136719 46.9375 L 226.960938 46.9375 L 226.960938 139.746094 L 227.722656 139.746094 L 227.722656 138.984375 L 227.722656 139.746094 L 228.480469 139.746094 L 228.480469 46.171875 C 228.480469 45.972656 228.402344 45.777344 228.261719 45.632812 C 228.117188 45.492188 227.921875 45.410156 227.722656 45.410156 L 217.378906 45.410156 C 217.179688 45.410156 216.980469 45.492188 216.839844 45.632812 C 216.699219 45.777344 216.617188 45.972656 216.617188 46.171875 L 216.617188 139.746094 C 216.617188 139.945312 216.699219 140.144531 216.839844 140.285156 C 216.980469 140.429688 217.179688 140.507812 217.378906 140.507812 L 227.722656 140.507812 C 227.921875 140.507812 228.117188 140.429688 228.261719 140.285156 C 228.402344 140.144531 228.480469 139.945312 228.480469 139.746094 L 227.722656 139.746094 " fill-opacity="1" fill-rule="nonzero"/></g><path fill="#ffffff" d="M 258.441406 70.15625 C 258.441406 76.777344 253.085938 82.144531 246.480469 82.144531 L 198.621094 82.144531 C 192.011719 82.144531 186.660156 76.777344 186.660156 70.15625 L 186.660156 22.191406 C 186.660156 15.570312 192.011719 10.199219 198.621094 10.199219 L 246.480469 10.199219 C 253.085938 10.199219 258.441406 15.570312 258.441406 22.191406 L 258.441406 70.15625 " fill-opacity="1" fill-rule="nonzero"/><g clip-path="url(#2662dcf13f)"><path fill="#231f20" d="M 258.441406 70.15625 L 257.683594 70.15625 C 257.679688 73.261719 256.429688 76.0625 254.402344 78.09375 C 252.371094 80.128906 249.574219 81.382812 246.480469 81.382812 L 198.621094 81.382812 C 195.523438 81.382812 192.730469 80.128906 190.699219 78.09375 C 188.671875 76.0625 187.417969 73.261719 187.417969 70.15625 L 187.417969 22.191406 C 187.417969 19.089844 188.671875 16.285156 190.699219 14.253906 C 192.730469 12.21875 195.523438 10.964844 198.621094 10.964844 L 246.480469 10.964844 C 249.574219 10.964844 252.371094 12.21875 254.402344 14.253906 C 256.429688 16.285156 257.679688 19.089844 257.683594 22.191406 L 257.683594 70.15625 L 259.203125 70.15625 L 259.203125 22.191406 C 259.203125 15.148438 253.507812 9.4375 246.480469 9.4375 L 198.621094 9.4375 C 191.59375 9.4375 185.898438 15.148438 185.898438 22.191406 L 185.898438 70.15625 C 185.898438 77.199219 191.59375 82.910156 198.621094 82.910156 L 246.480469 82.910156 C 253.507812 82.910156 259.203125 77.199219 259.203125 70.15625 L 258.441406 70.15625 " fill-opacity="1" fill-rule="nonzero"/></g><path fill="#ffffff" d="M 255.699219 68.324219 C 255.699219 74.441406 250.753906 79.398438 244.648438 79.398438 L 200.449219 79.398438 C 194.347656 79.398438 189.398438 74.441406 189.398438 68.324219 L 189.398438 24.023438 C 189.398438 17.90625 194.347656 12.949219 200.449219 12.949219 L 244.648438 12.949219 C 250.753906 12.949219 255.699219 17.90625 255.699219 24.023438 L 255.699219 68.324219 " fill-opacity="1" fill-rule="nonzero"/><path fill="#231f20" d="M 255.699219 68.324219 L 254.9375 68.324219 C 254.9375 71.171875 253.789062 73.746094 251.925781 75.617188 C 250.0625 77.484375 247.496094 78.636719 244.648438 78.636719 L 200.449219 78.636719 C 197.605469 78.636719 195.039062 77.484375 193.175781 75.617188 C 191.308594 73.746094 190.160156 71.171875 190.160156 68.324219 L 190.160156 24.023438 C 190.160156 21.175781 191.308594 18.601562 193.175781 16.730469 C 195.039062 14.863281 197.605469 13.710938 200.449219 13.710938 L 244.648438 13.710938 C 247.496094 13.710938 250.0625 14.863281 251.925781 16.730469 C 253.789062 18.601562 254.9375 21.175781 254.9375 24.023438 L 254.9375 68.324219 L 256.460938 68.324219 L 256.460938 24.023438 C 256.460938 17.484375 251.175781 12.1875 244.648438 12.1875 L 200.449219 12.1875 C 193.925781 12.1875 188.640625 17.484375 188.636719 24.023438 L 188.636719 68.324219 C 188.640625 74.859375 193.925781 80.160156 200.449219 80.164062 L 244.648438 80.164062 C 251.175781 80.160156 256.460938 74.859375 256.460938 68.324219 L 255.699219 68.324219 " fill-opacity="1" fill-rule="nonzero"/><path fill="#ffffff" d="M 221.417969 63.253906 C 219.875 63.253906 218.632812 63.402344 217.785156 63.253906 L 217.785156 50.550781 L 221.367188 50.550781 C 226.09375 50.550781 230.023438 52.429688 230.023438 56.976562 C 230.023438 61.820312 225.894531 63.253906 221.417969 63.253906 Z M 228.90625 36.230469 C 228.90625 39.429688 226.160156 41.785156 221.476562 41.785156 L 217.460938 41.785156 L 217.460938 30.824219 L 221.375 30.824219 C 225.851562 30.824219 228.90625 32.351562 228.90625 36.230469 Z M 232.089844 45.34375 C 232.089844 45.34375 237.480469 43.09375 237.480469 35.023438 C 237.480469 31.371094 235.722656 28.949219 233.570312 26.832031 C 231.066406 24.359375 226.527344 23.667969 223.550781 23.492188 L 223.550781 19.238281 L 216.246094 19.238281 L 216.246094 23.449219 L 205.871094 23.433594 L 205.871094 30.824219 L 209.542969 30.824219 L 209.542969 63.253906 L 205.871094 63.253906 L 205.871094 70.605469 L 216.246094 70.605469 L 216.246094 74.320312 L 223.550781 74.320312 L 223.550781 70.335938 C 227.523438 69.921875 232.972656 68.886719 235.246094 66.273438 C 237.402344 63.796875 239.226562 60.972656 239.226562 56.980469 C 239.226562 47.019531 232.089844 45.34375 232.089844 45.34375 " fill-opacity="1" fill-rule="nonzero"/><path fill="#231f20" d="M 221.417969 63.253906 L 221.417969 62.488281 C 220.355469 62.488281 219.449219 62.554688 218.757812 62.554688 C 218.417969 62.554688 218.128906 62.539062 217.917969 62.5 L 217.785156 63.253906 L 218.546875 63.253906 L 218.546875 51.3125 L 221.367188 51.3125 C 223.632812 51.308594 225.660156 51.773438 227.046875 52.695312 C 227.746094 53.15625 228.289062 53.722656 228.667969 54.417969 C 229.042969 55.113281 229.261719 55.949219 229.261719 56.976562 C 229.261719 58.078125 229.03125 58.9375 228.644531 59.625 C 228.351562 60.144531 227.972656 60.574219 227.503906 60.9375 C 226.800781 61.480469 225.894531 61.875 224.847656 62.125 C 223.804688 62.378906 222.632812 62.488281 221.417969 62.488281 L 221.417969 64.015625 C 222.574219 64.015625 223.722656 63.921875 224.804688 63.699219 C 226.421875 63.363281 227.910156 62.734375 229.015625 61.628906 C 229.570312 61.078125 230.015625 60.410156 230.320312 59.632812 C 230.625 58.851562 230.785156 57.964844 230.78125 56.976562 C 230.785156 55.730469 230.511719 54.625 230.003906 53.691406 C 229.625 52.988281 229.113281 52.386719 228.515625 51.886719 C 227.613281 51.136719 226.511719 50.613281 225.296875 50.277344 C 224.085938 49.941406 222.753906 49.789062 221.367188 49.785156 L 217.785156 49.785156 C 217.585938 49.785156 217.390625 49.867188 217.25 50.011719 C 217.105469 50.152344 217.023438 50.347656 217.023438 50.550781 L 217.023438 63.253906 C 217.023438 63.621094 217.289062 63.9375 217.652344 64.003906 C 218.007812 64.0625 218.371094 64.082031 218.757812 64.082031 C 219.535156 64.082031 220.417969 64.015625 221.417969 64.015625 Z M 228.90625 36.230469 L 228.144531 36.230469 C 228.144531 36.921875 227.996094 37.546875 227.722656 38.109375 C 227.304688 38.953125 226.589844 39.667969 225.546875 40.1875 C 224.503906 40.707031 223.136719 41.023438 221.476562 41.023438 L 218.222656 41.023438 L 218.222656 31.585938 L 221.375 31.585938 C 222.453125 31.585938 223.429688 31.679688 224.277344 31.867188 C 225.550781 32.152344 226.511719 32.644531 227.144531 33.332031 C 227.460938 33.679688 227.707031 34.074219 227.878906 34.550781 C 228.046875 35.023438 228.144531 35.578125 228.144531 36.230469 L 229.667969 36.230469 C 229.667969 35.160156 229.453125 34.210938 229.035156 33.398438 C 228.71875 32.789062 228.292969 32.265625 227.777344 31.835938 C 227.003906 31.1875 226.050781 30.75 224.972656 30.46875 C 223.890625 30.1875 222.683594 30.0625 221.375 30.0625 L 217.460938 30.0625 C 217.261719 30.0625 217.0625 30.144531 216.921875 30.285156 C 216.78125 30.429688 216.699219 30.625 216.699219 30.824219 L 216.699219 41.785156 C 216.699219 41.988281 216.78125 42.183594 216.921875 42.328125 C 217.0625 42.46875 217.261719 42.550781 217.460938 42.550781 L 221.476562 42.550781 C 223.941406 42.546875 225.96875 41.929688 227.414062 40.808594 C 228.132812 40.25 228.703125 39.566406 229.085938 38.785156 C 229.46875 38.007812 229.667969 37.140625 229.667969 36.230469 Z M 232.089844 45.34375 L 232.382812 46.046875 C 232.457031 46.015625 233.90625 45.402344 235.363281 43.707031 C 236.089844 42.859375 236.8125 41.742188 237.351562 40.308594 C 237.890625 38.875 238.242188 37.125 238.242188 35.023438 C 238.246094 33.074219 237.765625 31.414062 237.003906 29.992188 C 236.242188 28.566406 235.207031 27.375 234.105469 26.285156 L 234.105469 26.289062 C 232.707031 24.917969 230.832031 24.09375 228.941406 23.566406 C 227.046875 23.042969 225.125 22.820312 223.597656 22.730469 L 223.550781 23.492188 L 224.3125 23.492188 L 224.3125 19.238281 C 224.3125 19.035156 224.234375 18.839844 224.089844 18.699219 C 223.949219 18.554688 223.753906 18.476562 223.550781 18.476562 L 216.246094 18.476562 C 216.046875 18.476562 215.851562 18.554688 215.707031 18.699219 C 215.566406 18.839844 215.484375 19.035156 215.484375 19.238281 L 215.484375 22.6875 L 205.875 22.671875 C 205.667969 22.671875 205.476562 22.75 205.335938 22.894531 C 205.191406 23.039062 205.109375 23.230469 205.109375 23.433594 L 205.109375 30.824219 C 205.109375 31.027344 205.191406 31.222656 205.332031 31.363281 C 205.476562 31.507812 205.671875 31.585938 205.871094 31.585938 L 208.78125 31.585938 L 208.78125 62.488281 L 205.871094 62.488281 C 205.671875 62.488281 205.476562 62.570312 205.332031 62.710938 C 205.191406 62.855469 205.109375 63.050781 205.109375 63.253906 L 205.109375 70.605469 C 205.109375 70.808594 205.191406 71.003906 205.332031 71.144531 C 205.476562 71.289062 205.671875 71.371094 205.871094 71.371094 L 215.484375 71.371094 L 215.484375 74.320312 C 215.484375 74.519531 215.566406 74.714844 215.707031 74.859375 C 215.851562 75 216.046875 75.082031 216.246094 75.082031 L 223.550781 75.082031 C 223.753906 75.082031 223.949219 75 224.089844 74.859375 C 224.234375 74.714844 224.3125 74.519531 224.3125 74.320312 L 224.3125 70.335938 L 223.550781 70.335938 L 223.632812 71.09375 C 225.644531 70.882812 228.039062 70.519531 230.253906 69.859375 C 231.359375 69.53125 232.421875 69.128906 233.371094 68.628906 C 234.324219 68.125 235.167969 67.523438 235.820312 66.773438 C 236.921875 65.507812 237.960938 64.128906 238.730469 62.523438 C 239.5 60.921875 239.988281 59.09375 239.988281 56.980469 C 239.988281 54.398438 239.527344 52.316406 238.8125 50.660156 C 237.742188 48.167969 236.117188 46.644531 234.765625 45.761719 C 233.410156 44.875 232.324219 44.617188 232.261719 44.601562 L 232.089844 45.34375 L 232.382812 46.046875 L 232.089844 45.34375 L 231.917969 46.085938 L 231.972656 45.839844 L 231.914062 46.085938 L 231.917969 46.085938 L 231.972656 45.839844 L 231.914062 46.085938 C 231.941406 46.089844 233.601562 46.511719 235.21875 48.058594 C 236.027344 48.832031 236.832031 49.886719 237.441406 51.332031 C 238.050781 52.773438 238.464844 54.617188 238.46875 56.980469 C 238.464844 58.859375 238.039062 60.4375 237.359375 61.863281 C 236.675781 63.289062 235.726562 64.558594 234.671875 65.773438 C 234.1875 66.332031 233.496094 66.835938 232.664062 67.277344 C 231.414062 67.941406 229.84375 68.445312 228.226562 68.816406 C 226.609375 69.1875 224.941406 69.425781 223.476562 69.578125 C 223.085938 69.617188 222.792969 69.945312 222.792969 70.335938 L 222.792969 73.554688 L 217.007812 73.554688 L 217.007812 70.605469 C 217.007812 70.40625 216.925781 70.210938 216.785156 70.066406 C 216.644531 69.925781 216.445312 69.84375 216.246094 69.84375 L 206.632812 69.84375 L 206.632812 64.015625 L 209.542969 64.015625 C 209.742188 64.015625 209.9375 63.933594 210.078125 63.792969 C 210.222656 63.648438 210.300781 63.453125 210.300781 63.253906 L 210.300781 30.824219 C 210.300781 30.625 210.222656 30.429688 210.078125 30.285156 C 209.9375 30.144531 209.742188 30.0625 209.542969 30.0625 L 206.632812 30.0625 L 206.632812 24.199219 L 216.246094 24.210938 C 216.449219 24.210938 216.640625 24.132812 216.785156 23.988281 C 216.929688 23.84375 217.007812 23.652344 217.007812 23.449219 L 217.007812 20 L 222.792969 20 L 222.792969 23.492188 C 222.792969 23.894531 223.105469 24.226562 223.507812 24.25 C 224.960938 24.335938 226.792969 24.550781 228.535156 25.035156 C 230.28125 25.515625 231.925781 26.277344 233.039062 27.375 C 234.085938 28.40625 235.007812 29.484375 235.664062 30.710938 C 236.316406 31.941406 236.71875 33.320312 236.722656 35.023438 C 236.722656 36.953125 236.398438 38.511719 235.925781 39.769531 C 235.21875 41.65625 234.167969 42.875 233.296875 43.628906 C 232.863281 44.007812 232.476562 44.265625 232.203125 44.425781 C 232.0625 44.507812 231.957031 44.5625 231.886719 44.597656 C 231.851562 44.617188 231.824219 44.628906 231.808594 44.636719 L 231.792969 44.640625 L 231.96875 45.050781 L 231.796875 44.640625 L 231.792969 44.640625 L 231.96875 45.050781 L 231.796875 44.640625 C 231.492188 44.769531 231.304688 45.078125 231.332031 45.40625 C 231.359375 45.738281 231.59375 46.011719 231.917969 46.085938 L 232.089844 45.34375 " fill-opacity="1" fill-rule="nonzero"/></svg>