<svg xmlns="http://www.w3.org/2000/svg" xmlns:xlink="http://www.w3.org/1999/xlink" width="450" zoomAndPan="magnify" viewBox="0 0 337.5 149.999998" height="200" preserveAspectRatio="xMidYMid meet" version="1.0"><defs><clipPath id="fbcf759025"><path d="M 224 48 L 235 48 L 235 140.300781 L 224 140.300781 Z M 224 48 " clip-rule="nonzero"/></clipPath><clipPath id="9b19124323"><path d="M 194.539062 13 L 264.933594 13 L 264.933594 84 L 194.539062 84 Z M 194.539062 13 " clip-rule="nonzero"/></clipPath><clipPath id="8902f8d85d"><path d="M 194.539062 25 L 264.933594 25 L 264.933594 72 L 194.539062 72 Z M 194.539062 25 " clip-rule="nonzero"/></clipPath><clipPath id="65cfe3f063"><path d="M 194.539062 48 L 264.933594 48 L 264.933594 84 L 194.539062 84 Z M 194.539062 48 " clip-rule="nonzero"/></clipPath><clipPath id="f1331e8988"><path d="M 86.042969 12.207031 L 187.144531 12.207031 L 187.144531 140.265625 L 86.042969 140.265625 Z M 86.042969 12.207031 " clip-rule="nonzero"/></clipPath></defs><g clip-path="url(#fbcf759025)"><path fill="#bdbcbc" d="M 224.652344 140.328125 L 234.78125 140.328125 L 234.78125 48.355469 L 224.652344 48.355469 Z M 224.652344 140.328125 " fill-opacity="1" fill-rule="nonzero"/></g><path fill="#7f8784" d="M 224.652344 87.519531 L 234.78125 87.519531 L 234.78125 83.714844 L 224.652344 83.714844 Z M 224.652344 87.519531 " fill-opacity="1" fill-rule="nonzero"/><g clip-path="url(#9b19124323)"><path fill="#bdbcbc" d="M 264.867188 71.929688 C 264.867188 78.4375 259.621094 83.714844 253.152344 83.714844 L 206.285156 83.714844 C 199.816406 83.714844 194.570312 78.4375 194.570312 71.929688 L 194.570312 24.785156 C 194.570312 18.277344 199.816406 13 206.285156 13 L 253.152344 13 C 259.621094 13 264.867188 18.277344 264.867188 24.785156 L 264.867188 71.929688 " fill-opacity="1" fill-rule="nonzero"/></g><path fill="#f68712" d="M 262.179688 70.125 C 262.179688 76.136719 257.339844 81.011719 251.359375 81.011719 L 208.074219 81.011719 C 202.101562 81.011719 197.253906 76.136719 197.253906 70.125 L 197.253906 26.585938 C 197.253906 20.574219 202.101562 15.703125 208.074219 15.703125 L 251.359375 15.703125 C 257.339844 15.703125 262.179688 20.574219 262.179688 26.585938 L 262.179688 70.125 " fill-opacity="1" fill-rule="nonzero"/><path fill="#ffffff" d="M 230.699219 27.886719 L 223.546875 27.886719 L 223.546875 21.882812 L 230.699219 21.882812 L 230.699219 27.886719 M 230.699219 76.019531 L 223.546875 76.019531 L 223.546875 70.015625 L 230.699219 70.015625 L 230.699219 76.019531 M 225.054688 65.144531 C 225.882812 65.289062 227.097656 65.144531 228.609375 65.144531 C 232.992188 65.144531 237.035156 63.734375 237.035156 58.972656 C 237.035156 54.503906 233.1875 52.65625 228.5625 52.65625 L 225.054688 52.65625 L 225.054688 65.144531 M 224.734375 44.046875 L 228.667969 44.046875 C 233.253906 44.046875 235.941406 41.726562 235.941406 38.585938 C 235.941406 34.769531 232.953125 33.269531 228.570312 33.269531 L 224.734375 33.269531 L 224.734375 44.046875 M 213.386719 26.007812 L 227.855469 26.027344 C 227.855469 26.027344 236.648438 25.523438 240.511719 29.347656 C 242.621094 31.429688 244.339844 33.808594 244.339844 37.394531 C 244.339844 45.328125 239.0625 47.542969 239.0625 47.542969 C 239.0625 47.542969 246.050781 49.1875 246.050781 58.976562 C 246.050781 62.902344 244.261719 65.675781 242.152344 68.113281 C 238.460938 72.371094 226.214844 72.371094 226.214844 72.371094 L 213.386719 72.371094 L 213.386719 65.144531 L 216.980469 65.144531 L 216.980469 33.269531 L 213.386719 33.269531 L 213.386719 26.007812 " fill-opacity="1" fill-rule="nonzero"/><g clip-path="url(#8902f8d85d)"><path fill="#ab9c91" d="M 194.570312 71.929688 L 194.570312 25.617188 C 195.335938 27.363281 196.265625 29.054688 197.226562 30.722656 C 197.234375 30.738281 197.246094 30.757812 197.253906 30.773438 L 197.253906 52.839844 C 196.316406 51.574219 195.425781 50.273438 194.570312 48.949219 L 194.570312 71.929688 M 262.179688 65.632812 L 262.179688 57 C 263.089844 56.578125 263.984375 56.128906 264.867188 55.660156 L 264.867188 64.238281 C 263.984375 64.71875 263.085938 65.183594 262.179688 65.632812 " fill-opacity="1" fill-rule="nonzero"/></g><path fill="#de7211" d="M 234.765625 72.675781 C 233.410156 72.675781 232.050781 72.617188 230.699219 72.496094 L 230.699219 72.105469 C 234.585938 71.699219 239.925781 70.679688 242.152344 68.113281 C 243.765625 66.25 245.1875 64.191406 245.769531 61.574219 C 251.429688 60.976562 257 59.402344 262.179688 57 L 262.179688 65.632812 C 253.632812 69.863281 244.171875 72.675781 234.765625 72.675781 M 213.386719 67.078125 C 207.902344 64.039062 202.972656 59.921875 199.027344 55.113281 C 198.421875 54.371094 197.828125 53.613281 197.253906 52.839844 L 197.253906 30.773438 C 199.71875 35.0625 202.113281 39.417969 204.898438 43.507812 C 208.148438 48.277344 212.238281 52.171875 216.980469 55.148438 L 216.980469 65.144531 L 213.386719 65.144531 L 213.386719 67.078125 M 226.007812 65.207031 C 225.648438 65.207031 225.328125 65.191406 225.054688 65.144531 L 225.054688 59.113281 C 228.757812 60.484375 232.601562 61.320312 236.480469 61.667969 C 235.226562 64.289062 232.019531 65.144531 228.609375 65.144531 C 227.601562 65.144531 226.726562 65.207031 226.007812 65.207031 " fill-opacity="1" fill-rule="nonzero"/><path fill="#e5d3c3" d="M 230.699219 72.496094 C 227.753906 72.230469 224.828125 71.667969 221.949219 70.765625 C 218.996094 69.835938 216.121094 68.59375 213.386719 67.078125 L 213.386719 65.144531 L 216.980469 65.144531 L 216.980469 55.148438 C 219.460938 56.707031 222.117188 58.011719 224.925781 59.066406 C 224.96875 59.082031 225.011719 59.097656 225.054688 59.113281 L 225.054688 65.144531 C 225.328125 65.191406 225.648438 65.207031 226.007812 65.207031 C 226.726562 65.207031 227.601562 65.144531 228.609375 65.144531 C 232.019531 65.144531 235.226562 64.289062 236.480469 61.667969 C 237.859375 61.789062 239.242188 61.847656 240.625 61.847656 C 242.34375 61.847656 244.0625 61.757812 245.769531 61.574219 C 245.1875 64.191406 243.765625 66.25 242.152344 68.113281 C 239.925781 70.679688 234.585938 71.699219 230.699219 72.105469 L 230.699219 72.496094 " fill-opacity="1" fill-rule="nonzero"/><g clip-path="url(#65cfe3f063)"><path fill="#9b8370" d="M 253.152344 83.714844 L 206.285156 83.714844 C 199.816406 83.714844 194.570312 78.4375 194.570312 71.929688 L 194.570312 48.949219 C 195.425781 50.273438 196.316406 51.574219 197.253906 52.839844 L 197.253906 70.125 C 197.253906 76.136719 202.101562 81.011719 208.074219 81.011719 L 251.359375 81.011719 C 257.339844 81.011719 262.179688 76.136719 262.179688 70.125 L 262.179688 65.632812 C 263.085938 65.183594 263.984375 64.71875 264.867188 64.238281 L 264.867188 71.929688 C 264.867188 78.4375 259.621094 83.714844 253.152344 83.714844 " fill-opacity="1" fill-rule="nonzero"/></g><path fill="#c86010" d="M 251.359375 81.011719 L 208.074219 81.011719 C 202.101562 81.011719 197.253906 76.136719 197.253906 70.125 L 197.253906 52.839844 C 197.828125 53.613281 198.421875 54.371094 199.027344 55.113281 C 202.972656 59.921875 207.902344 64.039062 213.386719 67.078125 L 213.386719 72.371094 L 223.546875 72.371094 L 223.546875 76.019531 L 230.699219 76.019531 L 230.699219 72.496094 C 232.050781 72.617188 233.410156 72.675781 234.765625 72.675781 C 244.171875 72.675781 253.632812 69.863281 262.179688 65.632812 L 262.179688 70.125 C 262.179688 76.136719 257.339844 81.011719 251.359375 81.011719 " fill-opacity="1" fill-rule="nonzero"/><path fill="#cfb097" d="M 230.699219 76.019531 L 223.546875 76.019531 L 223.546875 72.371094 L 213.386719 72.371094 L 213.386719 67.078125 C 216.121094 68.59375 218.996094 69.835938 221.949219 70.765625 C 224.828125 71.667969 227.753906 72.230469 230.699219 72.496094 L 230.699219 76.019531 " fill-opacity="1" fill-rule="nonzero"/><path fill="#f6ba99" d="M 126.066406 60.691406 C 126.066406 60.691406 145.625 61.796875 148.148438 60.691406 C 150.671875 59.589844 136.523438 13.703125 155.46875 13.664062 C 172.253906 13.628906 172.5 28.253906 170.859375 37.515625 C 169.222656 46.777344 170.070312 56.605469 175.152344 65.933594 L 177.25 69.8125 C 183.558594 77.96875 181.824219 89.835938 181.824219 89.835938 C 181.824219 89.835938 180.109375 97.207031 181.21875 99.84375 C 182.332031 102.484375 185.863281 112.832031 173.347656 126.429688 C 160.832031 140.027344 129.582031 136.875 124.5 136.953125 C 101.449219 137.308594 105.992188 125.449219 105.992188 125.449219 C 105.992188 125.449219 98.714844 127.265625 96.128906 117.878906 C 92.941406 106.316406 102.460938 105.660156 102.460938 105.660156 C 102.460938 105.660156 91.144531 105.039062 90.640625 95.78125 C 90.640625 95.78125 89.632812 84.742188 98.714844 82.839844 C 98.714844 82.839844 86.054688 77.449219 93.289062 65.269531 C 93.289062 65.269531 99.160156 55.585938 122.976562 60.660156 L 126.566406 60.699219 " fill-opacity="1" fill-rule="nonzero"/><g clip-path="url(#f1331e8988)"><path stroke-linecap="butt" transform="matrix(0.0504744, 0, 0, -0.0507481, 28.653607, 184.303418)" fill="none" stroke-linejoin="miter" d="M 1929.944654 2435.797646 C 1929.944654 2435.797646 2317.439972 2414.014179 2367.434375 2435.797646 C 2417.428778 2457.50414 2137.119602 3361.710453 2512.464577 3362.480187 C 2845.012487 3363.172947 2849.888102 3074.984607 2817.384001 2892.480719 C 2784.957291 2709.976831 2801.751076 2516.311803 2902.436398 2332.499368 L 2943.995213 2256.0648 C 3068.98122 2095.344379 3034.619742 1861.499246 3034.619742 1861.499246 C 3034.619742 1861.499246 3000.645218 1716.250475 3022.624181 1664.293442 C 3044.680535 1612.259436 3114.641743 1408.356949 2866.681887 1140.412607 C 2618.722031 872.468266 1999.596299 934.585785 1898.910977 933.046317 C 1442.228358 926.04174 1532.233761 1159.732926 1532.233761 1159.732926 C 1532.233761 1159.732926 1388.054857 1123.940304 1336.822202 1308.90734 C 1273.671377 1536.748549 1462.272554 1549.680077 1462.272554 1549.680077 C 1462.272554 1549.680077 1238.071648 1561.918845 1228.088245 1744.345759 C 1228.088245 1744.345759 1208.121441 1961.872535 1388.054857 1999.358572 C 1388.054857 1999.358572 1137.231544 2105.581839 1280.559151 2345.584843 C 1280.559151 2345.584843 1396.877398 2536.401856 1868.728597 2436.413433 L 1939.850666 2435.643699 " stroke="#1e1613" stroke-width="47.986" stroke-opacity="1" stroke-miterlimit="10"/></g><path fill="#1e1613" d="M 123.585938 133.511719 L 119.675781 134.359375 L 123.335938 132.902344 C 123.484375 132.847656 138.777344 128.039062 141.746094 121.238281 C 142.382812 119.78125 142.402344 118.402344 141.808594 117.023438 L 141.769531 116.925781 C 141.734375 116.800781 140.820312 113.792969 137.015625 113.105469 L 137.285156 111.605469 C 141.796875 112.421875 143.054688 115.949219 143.214844 116.457031 C 143.957031 118.210938 143.933594 120.023438 143.132812 121.847656 C 139.898438 129.257812 124.230469 133.289062 123.585938 133.511719 " fill-opacity="1" fill-rule="nonzero"/><path fill="#1e1613" d="M 121.441406 85.589844 C 111.015625 85.589844 99.371094 83.714844 98.59375 83.589844 L 98.839844 82.085938 C 99.136719 82.136719 128.945312 86.929688 135.480469 81.46875 C 136.203125 80.867188 136.5625 80.179688 136.582031 79.363281 C 136.679688 75.085938 135.675781 71.878906 133.601562 69.835938 C 131.074219 67.34375 127.816406 67.457031 127.78125 67.457031 L 127.734375 67.457031 L 127.683594 67.453125 C 127.601562 67.445312 121.398438 66.789062 104.660156 64.792969 L 99.214844 63.585938 L 104.703125 63.925781 C 120.808594 65.84375 127.105469 65.875 127.769531 65.929688 C 128.273438 65.917969 131.828125 65.953125 134.660156 68.746094 C 137.046875 71.097656 138.203125 74.683594 138.097656 79.398438 C 138.066406 80.660156 137.511719 81.753906 136.449219 82.640625 C 133.765625 84.882812 127.832031 85.589844 121.441406 85.589844 " fill-opacity="1" fill-rule="nonzero"/><path fill="#1e1613" d="M 111.5625 65.328125 C 111.550781 65.214844 111.179688 62.128906 105.96875 62.464844 L 100.808594 62.59375 L 106.109375 61.449219 C 112.378906 61.027344 113.058594 65.039062 113.070312 65.203125 L 111.5625 65.3125 L 112.316406 65.257812 L 111.5625 65.328125 " fill-opacity="1" fill-rule="nonzero"/><path fill="#1e1613" d="M 111.507812 106.855469 C 106.007812 106.855469 102.429688 106.902344 102.371094 106.894531 L 102.125 104.398438 C 111.566406 105.160156 135.957031 105.984375 136.699219 97.960938 C 136.792969 96.96875 136.882812 96.046875 136.964844 95.1875 C 137.804688 86.589844 137.859375 84.914062 134.59375 83.179688 L 135.300781 81.832031 C 139.566406 84.101562 139.292969 86.933594 138.472656 95.335938 C 138.390625 96.191406 138.300781 97.113281 138.207031 98.101562 C 137.761719 102.894531 131.402344 105.757812 119.304688 106.601562 C 116.621094 106.792969 113.941406 106.855469 111.507812 106.855469 " fill-opacity="1" fill-rule="nonzero"/><path fill="#1e1613" d="M 106.265625 126.160156 L 107.371094 123.894531 L 132.960938 114.195312 C 133.039062 114.167969 136.839844 112.894531 137.902344 109.648438 C 138.660156 107.328125 137.875 104.511719 135.570312 101.277344 L 136.804688 100.390625 C 139.40625 104.046875 140.257812 107.328125 139.335938 110.136719 C 138.027344 114.117188 133.652344 115.570312 133.46875 115.628906 L 106.265625 126.160156 " fill-opacity="1" fill-rule="nonzero"/><path fill="#1e1613" d="M 126.699219 134.441406 L 124.070312 134.992188 C 126.746094 134.320312 128.917969 131.480469 128.953125 131.394531 L 130.652344 130.808594 C 130.609375 130.921875 130.148438 133.578125 126.699219 134.441406 " fill-opacity="1" fill-rule="nonzero"/><path fill="#1e1613" d="M 130.15625 80.128906 C 130.15625 80.128906 130.347656 80.855469 129.960938 80.921875 C 129.574219 80.992188 129.519531 80.234375 129.519531 80.234375 L 128.785156 70.773438 C 128.785156 70.773438 128.65625 69.988281 129.035156 69.953125 C 129.417969 69.917969 129.421875 70.667969 129.421875 70.667969 L 130.15625 80.128906 " fill-opacity="1" fill-rule="nonzero"/><path fill="#1e1613" d="M 132.238281 100.054688 C 132.238281 100.054688 132.371094 100.792969 131.980469 100.832031 C 131.585938 100.871094 131.59375 100.109375 131.59375 100.109375 L 131.539062 87.101562 C 131.539062 87.101562 131.46875 86.3125 131.851562 86.308594 C 132.234375 86.300781 132.183594 87.046875 132.183594 87.046875 L 132.238281 100.054688 " fill-opacity="1" fill-rule="nonzero"/><path fill="#1e1613" d="M 135.976562 109.90625 C 135.976562 109.90625 136.34375 110.554688 135.988281 110.722656 C 135.632812 110.890625 135.382812 110.171875 135.382812 110.171875 L 133.402344 104.652344 C 133.402344 104.652344 133.078125 103.929688 133.4375 103.796875 C 133.792969 103.664062 133.992188 104.386719 133.992188 104.386719 L 135.976562 109.90625 " fill-opacity="1" fill-rule="nonzero"/><path fill="#1e1613" d="M 140.246094 119.984375 C 140.246094 119.984375 140.789062 120.5 140.492188 120.765625 C 140.199219 121.027344 139.757812 120.410156 139.757812 120.410156 L 136.269531 115.707031 C 136.269531 115.707031 135.753906 115.105469 136.058594 114.878906 C 136.363281 114.648438 136.757812 115.28125 136.757812 115.28125 L 140.246094 119.984375 " fill-opacity="1" fill-rule="nonzero"/><path fill="#1e1613" d="M 164.75 94.992188 C 164.75 94.992188 165.871094 94.578125 166.066406 95.621094 C 166.265625 96.660156 164.734375 96.511719 164.734375 96.511719 C 153 96.402344 146.199219 88.09375 145.914062 87.738281 C 145.914062 87.738281 145.332031 86.925781 145.9375 86.457031 C 146.539062 85.988281 147.09375 86.78125 147.09375 86.78125 C 147.15625 86.863281 153.746094 94.890625 164.75 94.992188 " fill-opacity="1" fill-rule="nonzero"/></svg>