<svg xmlns="http://www.w3.org/2000/svg" xmlns:xlink="http://www.w3.org/1999/xlink" width="450" zoomAndPan="magnify" viewBox="0 0 337.5 149.999998" height="200" preserveAspectRatio="xMidYMid meet" version="1.0"><defs><clipPath id="a02e2208a6"><path d="M 160 43.085938 L 171 43.085938 L 171 53 L 160 53 Z M 160 43.085938 " clip-rule="nonzero"/></clipPath><clipPath id="af7b3e6a3d"><path d="M 176 43.085938 L 200.222656 43.085938 L 200.222656 45 L 176 45 Z M 176 43.085938 " clip-rule="nonzero"/></clipPath><clipPath id="ad9061cbef"><path d="M 176 44 L 200.222656 44 L 200.222656 60 L 176 60 Z M 176 44 " clip-rule="nonzero"/></clipPath><clipPath id="2131cf66aa"><path d="M 176 43.085938 L 178 43.085938 L 178 45 L 176 45 Z M 176 43.085938 " clip-rule="nonzero"/></clipPath><clipPath id="0f574a66c4"><path d="M 178 43.085938 L 179 43.085938 L 179 45 L 178 45 Z M 178 43.085938 " clip-rule="nonzero"/></clipPath><clipPath id="2918432407"><path d="M 179 43.085938 L 181 43.085938 L 181 45 L 179 45 Z M 179 43.085938 " clip-rule="nonzero"/></clipPath><clipPath id="5ec2a586a7"><path d="M 185 43.085938 L 189 43.085938 L 189 53 L 185 53 Z M 185 43.085938 " clip-rule="nonzero"/></clipPath><clipPath id="1024e89276"><path d="M 136.566406 105 L 143 105 L 143 106.742188 L 136.566406 106.742188 Z M 136.566406 105 " clip-rule="nonzero"/></clipPath><clipPath id="ca3ee9b3c6"><path d="M 149 103 L 155 103 L 155 106.742188 L 149 106.742188 Z M 149 103 " clip-rule="nonzero"/></clipPath><clipPath id="87523d60b2"><path d="M 148 105 L 155 105 L 155 106.742188 L 148 106.742188 Z M 148 105 " clip-rule="nonzero"/></clipPath></defs><path fill="#fda4ff" d="M 158.351562 54.175781 C 157.441406 54.441406 156.488281 53.917969 156.226562 53.011719 C 155.960938 52.101562 156.484375 51.148438 157.394531 50.882812 C 158.304688 50.613281 159.257812 51.136719 159.519531 52.042969 C 159.785156 52.953125 159.261719 53.90625 158.351562 54.175781 Z M 161.632812 52.132812 L 161.253906 50.828125 L 160.4375 51.066406 C 160.28125 50.789062 160.082031 50.542969 159.851562 50.335938 L 160.261719 49.589844 L 159.066406 48.9375 L 158.660156 49.683594 C 158.359375 49.601562 158.042969 49.566406 157.726562 49.582031 L 157.488281 48.769531 L 156.179688 49.152344 L 156.417969 49.964844 C 156.140625 50.125 155.894531 50.324219 155.683594 50.554688 L 154.941406 50.148438 L 154.285156 51.34375 L 155.027344 51.75 C 154.945312 52.046875 154.910156 52.363281 154.925781 52.683594 L 154.097656 52.964844 L 154.492188 54.226562 L 155.304688 53.988281 C 155.464844 54.265625 155.664062 54.511719 155.894531 54.71875 L 155.484375 55.464844 L 156.675781 56.117188 L 157.085938 55.371094 C 157.386719 55.453125 157.699219 55.488281 158.019531 55.472656 L 158.257812 56.285156 L 159.5625 55.902344 L 159.328125 55.089844 C 159.605469 54.933594 159.851562 54.730469 160.058594 54.5 L 160.804688 54.90625 L 161.460938 53.714844 L 160.714844 53.308594 C 160.800781 53.007812 160.835938 52.691406 160.820312 52.371094 L 161.632812 52.132812 " fill-opacity="1" fill-rule="nonzero"/><g clip-path="url(#a02e2208a6)"><path fill="#fda4ff" d="M 166.351562 49.972656 C 165.191406 50.3125 163.980469 49.648438 163.644531 48.492188 C 163.308594 47.335938 163.972656 46.125 165.132812 45.785156 C 166.289062 45.445312 167.5 46.109375 167.835938 47.265625 C 168.175781 48.421875 167.507812 49.632812 166.351562 49.972656 Z M 170.527344 47.378906 L 170.042969 45.71875 L 169.007812 46.019531 C 168.804688 45.667969 168.550781 45.355469 168.257812 45.089844 L 168.777344 44.144531 L 167.261719 43.3125 L 166.742188 44.257812 C 166.359375 44.15625 165.957031 44.109375 165.550781 44.132812 L 165.25 43.097656 L 163.589844 43.582031 L 163.890625 44.617188 C 163.535156 44.820312 163.222656 45.074219 162.957031 45.367188 L 162.011719 44.851562 L 161.175781 46.371094 L 162.121094 46.886719 C 162.015625 47.269531 161.96875 47.667969 161.992188 48.074219 L 160.9375 48.433594 L 161.4375 50.039062 L 162.472656 49.738281 C 162.675781 50.089844 162.929688 50.402344 163.222656 50.667969 L 162.703125 51.613281 L 164.21875 52.445312 L 164.738281 51.496094 C 165.121094 51.601562 165.523438 51.648438 165.929688 51.625 L 166.230469 52.660156 L 167.890625 52.175781 L 167.589844 51.140625 C 167.945312 50.9375 168.257812 50.683594 168.523438 50.390625 L 169.46875 50.90625 L 170.304688 49.386719 L 169.359375 48.871094 C 169.464844 48.488281 169.511719 48.085938 169.488281 47.683594 L 170.527344 47.378906 " fill-opacity="1" fill-rule="nonzero"/></g><g clip-path="url(#af7b3e6a3d)"><path fill="#000000" d="M 176.503906 44.496094 L 200.0625 44.496094 L 200.0625 43.242188 L 176.503906 43.242188 Z M 200.140625 44.648438 L 176.429688 44.648438 C 176.386719 44.648438 176.351562 44.617188 176.351562 44.574219 L 176.351562 43.164062 C 176.351562 43.121094 176.386719 43.089844 176.429688 43.089844 L 200.140625 43.089844 C 200.183594 43.089844 200.21875 43.121094 200.21875 43.164062 L 200.21875 44.574219 C 200.21875 44.617188 200.183594 44.648438 200.140625 44.648438 " fill-opacity="1" fill-rule="nonzero"/></g><g clip-path="url(#ad9061cbef)"><path fill="#000000" d="M 176.503906 59.308594 L 200.0625 59.308594 L 200.0625 44.648438 L 176.503906 44.648438 Z M 200.140625 59.464844 L 176.429688 59.464844 C 176.386719 59.464844 176.351562 59.429688 176.351562 59.386719 L 176.351562 44.574219 C 176.351562 44.53125 176.386719 44.496094 176.429688 44.496094 L 200.140625 44.496094 C 200.183594 44.496094 200.21875 44.53125 200.21875 44.574219 L 200.21875 59.386719 C 200.21875 59.429688 200.183594 59.464844 200.140625 59.464844 " fill-opacity="1" fill-rule="nonzero"/></g><g clip-path="url(#2131cf66aa)"><path fill="#000000" d="M 177.246094 43.621094 C 177.097656 43.621094 176.976562 43.738281 176.976562 43.882812 C 176.976562 44.03125 177.097656 44.148438 177.246094 44.148438 C 177.394531 44.148438 177.515625 44.03125 177.515625 43.882812 C 177.515625 43.738281 177.394531 43.621094 177.246094 43.621094 Z M 177.246094 44.300781 C 177.011719 44.300781 176.824219 44.113281 176.824219 43.882812 C 176.824219 43.652344 177.011719 43.464844 177.246094 43.464844 C 177.480469 43.464844 177.667969 43.652344 177.667969 43.882812 C 177.667969 44.113281 177.480469 44.300781 177.246094 44.300781 " fill-opacity="1" fill-rule="nonzero"/></g><g clip-path="url(#0f574a66c4)"><path fill="#000000" d="M 178.453125 43.621094 C 178.300781 43.621094 178.179688 43.738281 178.179688 43.882812 C 178.179688 44.03125 178.300781 44.148438 178.453125 44.148438 C 178.601562 44.148438 178.722656 44.03125 178.722656 43.882812 C 178.722656 43.738281 178.601562 43.621094 178.453125 43.621094 Z M 178.453125 44.300781 C 178.21875 44.300781 178.027344 44.113281 178.027344 43.882812 C 178.027344 43.652344 178.21875 43.464844 178.453125 43.464844 C 178.683594 43.464844 178.875 43.652344 178.875 43.882812 C 178.875 44.113281 178.683594 44.300781 178.453125 44.300781 " fill-opacity="1" fill-rule="nonzero"/></g><g clip-path="url(#2918432407)"><path fill="#000000" d="M 179.65625 43.621094 C 179.507812 43.621094 179.386719 43.738281 179.386719 43.882812 C 179.386719 44.03125 179.507812 44.148438 179.65625 44.148438 C 179.804688 44.148438 179.925781 44.03125 179.925781 43.882812 C 179.925781 43.738281 179.804688 43.621094 179.65625 43.621094 Z M 179.65625 44.300781 C 179.421875 44.300781 179.234375 44.113281 179.234375 43.882812 C 179.234375 43.652344 179.421875 43.464844 179.65625 43.464844 C 179.890625 43.464844 180.078125 43.652344 180.078125 43.882812 C 180.078125 44.113281 179.890625 44.300781 179.65625 44.300781 " fill-opacity="1" fill-rule="nonzero"/></g><path fill="#fed101" d="M 190.082031 55.996094 L 191.015625 59.316406 L 196.839844 59.316406 L 196.140625 57 L 194.492188 54.011719 L 190.082031 55.996094 " fill-opacity="1" fill-rule="nonzero"/><path fill="#000000" d="M 196.839844 59.460938 C 196.808594 59.460938 196.777344 59.441406 196.765625 59.40625 C 196.761719 59.386719 196.160156 57.289062 195.949219 56.804688 C 195.632812 56.097656 194.4375 54.074219 194.425781 54.050781 C 194.40625 54.015625 194.417969 53.96875 194.453125 53.949219 C 194.492188 53.925781 194.539062 53.9375 194.558594 53.972656 C 194.609375 54.058594 195.769531 56.027344 196.089844 56.746094 C 196.304688 57.234375 196.890625 59.277344 196.914062 59.363281 C 196.925781 59.40625 196.902344 59.449219 196.863281 59.460938 C 196.855469 59.460938 196.847656 59.460938 196.839844 59.460938 " fill-opacity="1" fill-rule="nonzero"/><path fill="#fed101" d="M 194.382812 59.316406 L 192.8125 54.847656 L 188.394531 56.578125 L 188.410156 59.316406 L 194.382812 59.316406 " fill-opacity="1" fill-rule="nonzero"/><path fill="#020202" d="M 188.394531 57.933594 L 195.441406 55.664062 L 194.53125 54.058594 L 187.996094 56.710938 L 188.394531 57.933594 " fill-opacity="1" fill-rule="nonzero"/><path fill="#8c7bff" d="M 196.480469 46.824219 L 178.449219 46.90625 C 177.4375 46.914062 176.621094 47.738281 176.625 48.75 C 176.628906 49.761719 177.453125 50.578125 178.464844 50.574219 L 183.125 50.550781 L 187.726562 57.75 L 195.210938 54.628906 L 192.839844 50.503906 L 196.496094 50.488281 C 197.507812 50.484375 198.324219 49.660156 198.320312 48.648438 C 198.316406 47.636719 197.492188 46.820312 196.480469 46.824219 " fill-opacity="1" fill-rule="nonzero"/><path fill="#000000" d="M 183.65625 52.898438 L 184.863281 52.898438 L 184.863281 46.230469 L 183.898438 45.253906 L 183.65625 52.898438 " fill-opacity="1" fill-rule="nonzero"/><path fill="#955b50" d="M 187.109375 47.539062 L 186.316406 48.839844 L 184.964844 46.726562 L 186.117188 45.988281 L 187.109375 47.539062 " fill-opacity="1" fill-rule="nonzero"/><path fill="#000000" d="M 186.398438 46.425781 L 186.117188 45.988281 L 184.964844 46.726562 L 185.582031 47.691406 C 185.699219 47.644531 185.921875 47.539062 186.109375 47.308594 C 186.40625 46.945312 186.402344 46.535156 186.398438 46.425781 " fill-opacity="1" fill-rule="nonzero"/><path fill="#955b50" d="M 186.207031 45.324219 C 186.582031 45.910156 186.449219 46.773438 185.855469 47.121094 C 185.308594 47.4375 184.601562 47.226562 184.304688 46.597656 C 184.023438 46.015625 184.148438 45.285156 184.640625 44.945312 C 185.160156 44.589844 185.832031 44.738281 186.207031 45.324219 " fill-opacity="1" fill-rule="nonzero"/><path fill="#ffffff" d="M 185.847656 46.304688 C 185.8125 46.445312 185.730469 46.574219 185.609375 46.671875 C 185.335938 46.886719 184.953125 46.867188 184.707031 46.640625 L 185.847656 46.304688 " fill-opacity="1" fill-rule="nonzero"/><path fill="#000000" d="M 185.121094 45.019531 C 185.121094 45.019531 183.351562 44.066406 184.175781 50.355469 L 184.539062 52.925781 L 182.035156 52.925781 C 182.035156 52.925781 183.332031 47.3125 183.425781 46.847656 C 183.695312 45.519531 183.835938 43.835938 185.027344 44.109375 L 185.121094 45.019531 " fill-opacity="1" fill-rule="nonzero"/><g clip-path="url(#5ec2a586a7)"><path fill="#000000" d="M 186.25 52.925781 L 188.667969 52.925781 C 188.667969 52.925781 187.277344 46.300781 187.183594 45.761719 C 187.089844 45.242188 186.824219 44.707031 186.402344 44.363281 C 186.167969 44.171875 185.621094 43.789062 185.027344 44.109375 L 185.117188 45.023438 C 185.117188 45.023438 185.515625 44.777344 185.902344 45.132812 C 186.34375 45.71875 186.28125 46.609375 186.28125 46.609375 L 186.25 52.925781 " fill-opacity="1" fill-rule="nonzero"/></g><path fill="#000000" d="M 187.089844 45.390625 L 187.664062 46.867188 L 187.230469 46.871094 L 187.089844 45.390625 " fill-opacity="1" fill-rule="nonzero"/><path fill="#ffffff" d="M 188.394531 85.464844 L 140.078125 85.464844 L 140.078125 52.925781 L 188.394531 52.925781 L 188.394531 85.464844 " fill-opacity="1" fill-rule="nonzero"/><path fill="#000000" d="M 140.152344 85.390625 L 188.316406 85.390625 L 188.316406 53.003906 L 140.152344 53.003906 Z M 188.394531 85.542969 L 140.078125 85.542969 C 140.035156 85.542969 140 85.507812 140 85.464844 L 140 52.925781 C 140 52.882812 140.035156 52.851562 140.078125 52.851562 L 188.394531 52.851562 C 188.4375 52.851562 188.46875 52.882812 188.46875 52.925781 L 188.46875 85.464844 C 188.46875 85.507812 188.4375 85.542969 188.394531 85.542969 " fill-opacity="1" fill-rule="nonzero"/><path fill="#ffffff" d="M 141.945312 54.820312 L 141.945312 83.570312 L 186.449219 83.570312 L 186.449219 54.820312 L 141.945312 54.820312 " fill-opacity="1" fill-rule="nonzero"/><path fill="#000000" d="M 142.019531 83.496094 L 186.371094 83.496094 L 186.371094 54.898438 L 142.019531 54.898438 Z M 186.449219 83.648438 L 141.945312 83.648438 C 141.902344 83.648438 141.867188 83.613281 141.867188 83.570312 L 141.867188 54.820312 C 141.867188 54.777344 141.902344 54.746094 141.945312 54.746094 L 186.449219 54.746094 C 186.492188 54.746094 186.523438 54.777344 186.523438 54.820312 L 186.523438 83.570312 C 186.523438 83.613281 186.492188 83.648438 186.449219 83.648438 " fill-opacity="1" fill-rule="nonzero"/><path fill="#000000" d="M 156.6875 95.660156 L 171.78125 95.660156 L 171.78125 85.542969 L 156.6875 85.542969 Z M 171.859375 95.8125 L 156.609375 95.8125 C 156.566406 95.8125 156.535156 95.777344 156.535156 95.734375 L 156.535156 85.464844 C 156.535156 85.421875 156.566406 85.390625 156.609375 85.390625 L 171.859375 85.390625 C 171.902344 85.390625 171.9375 85.421875 171.9375 85.464844 L 171.9375 95.734375 C 171.9375 95.777344 171.902344 95.8125 171.859375 95.8125 " fill-opacity="1" fill-rule="nonzero"/><path fill="#000000" d="M 147.226562 100.34375 L 181.246094 100.34375 L 180.992188 100.070312 C 178.480469 97.363281 174.925781 95.8125 171.234375 95.8125 L 157.234375 95.8125 C 153.542969 95.8125 149.988281 97.363281 147.480469 100.070312 Z M 181.421875 100.496094 L 147.046875 100.496094 C 147.019531 100.496094 146.992188 100.480469 146.976562 100.453125 C 146.964844 100.421875 146.972656 100.390625 146.992188 100.367188 L 147.367188 99.964844 C 149.90625 97.230469 153.5 95.660156 157.234375 95.660156 L 171.234375 95.660156 C 174.96875 95.660156 178.5625 97.230469 181.101562 99.964844 L 181.476562 100.367188 C 181.496094 100.390625 181.503906 100.421875 181.492188 100.453125 C 181.480469 100.480469 181.449219 100.496094 181.421875 100.496094 " fill-opacity="1" fill-rule="nonzero"/><path fill="#8c7bff" d="M 169.152344 81.617188 L 169.152344 57.183594 L 143.636719 57.183594 L 143.636719 81.617188 L 169.152344 81.617188 " fill-opacity="1" fill-rule="nonzero"/><path fill="#ffffff" d="M 157.726562 66.191406 L 148.835938 66.191406 L 148.835938 65.542969 L 157.726562 65.542969 L 157.726562 66.191406 " fill-opacity="1" fill-rule="nonzero"/><path fill="#ffffff" d="M 152.957031 62.464844 L 148.835938 62.464844 L 148.835938 61.820312 L 152.957031 61.820312 L 152.957031 62.464844 " fill-opacity="1" fill-rule="nonzero"/><path fill="#ffffff" d="M 156.269531 62.464844 L 153.804688 62.464844 L 153.804688 61.820312 L 156.269531 61.820312 L 156.269531 62.464844 " fill-opacity="1" fill-rule="nonzero"/><path fill="#fed101" d="M 153.609375 73.636719 L 150.191406 73.636719 L 150.191406 72.992188 L 153.609375 72.992188 L 153.609375 73.636719 " fill-opacity="1" fill-rule="nonzero"/><path fill="#fed101" d="M 150.8125 79.222656 L 146.515625 79.222656 L 146.515625 78.578125 L 150.8125 78.578125 L 150.8125 79.222656 " fill-opacity="1" fill-rule="nonzero"/><path fill="#ffffff" d="M 160.980469 79.222656 L 151.535156 79.222656 L 151.535156 78.578125 L 160.980469 78.578125 L 160.980469 79.222656 " fill-opacity="1" fill-rule="nonzero"/><path fill="#fed101" d="M 167.257812 71.777344 L 158.851562 71.777344 L 158.851562 71.128906 L 167.257812 71.128906 L 167.257812 71.777344 " fill-opacity="1" fill-rule="nonzero"/><path fill="#ffffff" d="M 156.269531 71.777344 L 151.730469 71.777344 L 151.730469 71.128906 L 156.269531 71.128906 L 156.269531 71.777344 " fill-opacity="1" fill-rule="nonzero"/><path fill="#fed101" d="M 158.128906 71.777344 L 156.90625 71.777344 L 156.90625 71.128906 L 158.128906 71.128906 L 158.128906 71.777344 " fill-opacity="1" fill-rule="nonzero"/><path fill="#fed101" d="M 152.0625 75.5 L 148.539062 75.5 L 148.539062 74.855469 L 152.0625 74.855469 L 152.0625 75.5 " fill-opacity="1" fill-rule="nonzero"/><path fill="#ffffff" d="M 162.398438 75.5 L 158.402344 75.5 L 158.402344 74.855469 L 162.398438 74.855469 L 162.398438 75.5 " fill-opacity="1" fill-rule="nonzero"/><path fill="#ffffff" d="M 158.042969 75.5 L 152.730469 75.5 L 152.730469 74.855469 L 158.042969 74.855469 L 158.042969 75.5 " fill-opacity="1" fill-rule="nonzero"/><path fill="#ffffff" d="M 164.25 75.5 L 163.027344 75.5 L 163.027344 74.855469 L 164.25 74.855469 L 164.25 75.5 " fill-opacity="1" fill-rule="nonzero"/><path fill="#ffffff" d="M 153.355469 69.90625 L 150.101562 69.90625 L 150.101562 69.261719 L 153.355469 69.261719 L 153.355469 69.90625 " fill-opacity="1" fill-rule="nonzero"/><path fill="#fed101" d="M 157.917969 69.90625 L 153.929688 69.90625 L 153.929688 69.261719 L 157.917969 69.261719 L 157.917969 69.90625 " fill-opacity="1" fill-rule="nonzero"/><path fill="#ffffff" d="M 161.730469 69.90625 L 158.632812 69.90625 L 158.632812 69.261719 L 161.730469 69.261719 L 161.730469 69.90625 " fill-opacity="1" fill-rule="nonzero"/><path fill="#ffffff" d="M 163.824219 69.917969 L 162.605469 69.917969 L 162.605469 69.273438 L 163.824219 69.273438 L 163.824219 69.917969 " fill-opacity="1" fill-rule="nonzero"/><path fill="#fed101" d="M 159.75 68.050781 L 151.835938 68.050781 L 151.835938 67.40625 L 159.75 67.40625 L 159.75 68.050781 " fill-opacity="1" fill-rule="nonzero"/><path fill="#fed101" d="M 154.96875 60.589844 L 147.125 60.589844 L 147.125 59.941406 L 154.96875 59.941406 L 154.96875 60.589844 " fill-opacity="1" fill-rule="nonzero"/><path fill="#ffffff" d="M 163.832031 60.621094 L 156.394531 60.621094 L 156.394531 59.976562 L 163.832031 59.976562 L 163.832031 60.621094 " fill-opacity="1" fill-rule="nonzero"/><path fill="#ffffff" d="M 167.257812 60.621094 L 164.824219 60.621094 L 164.824219 59.976562 L 167.257812 59.976562 L 167.257812 60.621094 " fill-opacity="1" fill-rule="nonzero"/><path fill="#ffffff" d="M 166.902344 77.363281 L 159.152344 77.363281 L 159.152344 76.714844 L 166.902344 76.714844 L 166.902344 77.363281 " fill-opacity="1" fill-rule="nonzero"/><path fill="#ffffff" d="M 155.179688 77.363281 L 150.277344 77.363281 L 150.277344 76.714844 L 155.179688 76.714844 L 155.179688 77.363281 " fill-opacity="1" fill-rule="nonzero"/><path fill="#ffffff" d="M 164.078125 64.332031 L 162.527344 64.332031 L 162.527344 63.6875 L 164.078125 63.6875 L 164.078125 64.332031 " fill-opacity="1" fill-rule="nonzero"/><path fill="#fed101" d="M 151.941406 64.324219 L 148.042969 64.324219 L 148.042969 63.675781 L 151.941406 63.675781 L 151.941406 64.324219 " fill-opacity="1" fill-rule="nonzero"/><path fill="#fed101" d="M 161.730469 64.332031 L 152.957031 64.332031 L 152.957031 63.6875 L 161.730469 63.6875 L 161.730469 64.332031 " fill-opacity="1" fill-rule="nonzero"/><path fill="#955b50" d="M 177.210938 59.085938 L 176.453125 59.21875 L 176.621094 60.757812 C 176.644531 60.984375 176.835938 61.140625 177.042969 61.101562 C 177.25 61.066406 177.402344 60.855469 177.375 60.628906 L 177.210938 59.085938 " fill-opacity="1" fill-rule="nonzero"/><path fill="#955b50" d="M 176.40625 58.808594 L 175.652344 58.9375 L 175.820312 60.476562 C 175.84375 60.703125 176.03125 60.859375 176.242188 60.824219 C 176.449219 60.785156 176.597656 60.574219 176.574219 60.347656 L 176.40625 58.808594 " fill-opacity="1" fill-rule="nonzero"/><path fill="#955b50" d="M 175.640625 58.800781 L 174.964844 58.917969 L 175.113281 60.292969 C 175.136719 60.492188 175.304688 60.632812 175.492188 60.597656 C 175.675781 60.566406 175.8125 60.375 175.789062 60.175781 L 175.640625 58.800781 " fill-opacity="1" fill-rule="nonzero"/><path fill="#955b50" d="M 178.035156 59.589844 L 177.296875 59.425781 L 176.636719 62.417969 C 176.59375 62.621094 176.722656 62.820312 176.925781 62.867188 C 177.128906 62.910156 177.332031 62.78125 177.375 62.578125 L 178.035156 59.589844 " fill-opacity="1" fill-rule="nonzero"/><path fill="#955b50" d="M 178.726562 57.011719 L 177.6875 58.15625 L 179.054688 60.425781 C 179.15625 60.625 179.382812 60.691406 179.570312 60.574219 C 179.753906 60.457031 179.824219 60.203125 179.726562 60.003906 L 179.1875 58.933594 L 178.726562 57.011719 " fill-opacity="1" fill-rule="nonzero"/><path fill="#955b50" d="M 178.691406 56.957031 L 178.953125 54.453125 L 176.132812 54.203125 L 175.871094 56.421875 L 174.964844 58.914062 L 178.035156 59.589844 L 178.691406 56.957031 " fill-opacity="1" fill-rule="nonzero"/><path fill="#020202" d="M 178.953125 54.453125 L 176.132812 54.203125 L 176 55.019531 L 178.777344 56.183594 L 178.953125 54.453125 " fill-opacity="1" fill-rule="nonzero"/><path fill="#000000" d="M 176.863281 61.167969 C 176.859375 61.167969 176.855469 61.164062 176.851562 61.164062 C 176.585938 61.121094 176.554688 60.855469 176.546875 60.765625 L 176.394531 59.394531 C 176.390625 59.351562 176.421875 59.3125 176.460938 59.308594 C 176.503906 59.304688 176.542969 59.335938 176.546875 59.378906 L 176.699219 60.75 C 176.722656 60.960938 176.796875 61 176.875 61.011719 C 176.917969 61.019531 176.945312 61.058594 176.9375 61.101562 C 176.933594 61.140625 176.898438 61.167969 176.863281 61.167969 " fill-opacity="1" fill-rule="nonzero"/><path fill="#000000" d="M 176.179688 60.90625 C 176.089844 60.90625 176 60.875 175.925781 60.820312 C 175.824219 60.742188 175.757812 60.621094 175.742188 60.488281 L 175.597656 59.113281 C 175.59375 59.074219 175.621094 59.035156 175.664062 59.03125 C 175.707031 59.027344 175.746094 59.054688 175.75 59.097656 L 175.894531 60.46875 C 175.90625 60.5625 175.949219 60.644531 176.019531 60.695312 C 176.078125 60.742188 176.152344 60.761719 176.226562 60.746094 C 176.398438 60.71875 176.519531 60.542969 176.496094 60.355469 L 176.394531 59.394531 C 176.390625 59.351562 176.421875 59.316406 176.460938 59.308594 C 176.503906 59.304688 176.542969 59.335938 176.546875 59.378906 L 176.652344 60.339844 C 176.679688 60.605469 176.5 60.855469 176.253906 60.898438 C 176.230469 60.902344 176.203125 60.90625 176.179688 60.90625 " fill-opacity="1" fill-rule="nonzero"/><path fill="#000000" d="M 175.4375 60.679688 C 175.355469 60.679688 175.273438 60.652344 175.207031 60.601562 C 175.113281 60.53125 175.050781 60.421875 175.039062 60.300781 L 174.890625 58.925781 C 174.886719 58.882812 174.914062 58.84375 174.957031 58.839844 C 175 58.835938 175.039062 58.867188 175.042969 58.90625 L 175.191406 60.28125 C 175.199219 60.363281 175.238281 60.433594 175.296875 60.480469 C 175.351562 60.519531 175.414062 60.535156 175.476562 60.523438 C 175.625 60.496094 175.730469 60.34375 175.710938 60.183594 L 175.597656 59.113281 C 175.59375 59.074219 175.621094 59.035156 175.664062 59.03125 C 175.707031 59.027344 175.746094 59.054688 175.75 59.097656 L 175.863281 60.164062 C 175.890625 60.40625 175.730469 60.636719 175.503906 60.675781 C 175.480469 60.679688 175.460938 60.679688 175.4375 60.679688 " fill-opacity="1" fill-rule="nonzero"/><path fill="#000000" d="M 177.007812 62.953125 C 176.976562 62.953125 176.941406 62.949219 176.910156 62.941406 C 176.789062 62.917969 176.6875 62.84375 176.625 62.742188 C 176.558594 62.640625 176.535156 62.519531 176.5625 62.398438 L 177.15625 59.398438 C 177.164062 59.355469 177.203125 59.328125 177.246094 59.335938 C 177.289062 59.347656 177.316406 59.386719 177.304688 59.429688 L 176.714844 62.429688 C 176.695312 62.511719 176.710938 62.59375 176.753906 62.660156 C 176.796875 62.726562 176.863281 62.773438 176.941406 62.792969 C 177.105469 62.828125 177.265625 62.722656 177.300781 62.5625 L 177.960938 59.574219 C 177.96875 59.53125 178.007812 59.503906 178.050781 59.515625 C 178.09375 59.523438 178.117188 59.566406 178.109375 59.605469 L 177.453125 62.59375 C 177.40625 62.808594 177.214844 62.953125 177.007812 62.953125 " fill-opacity="1" fill-rule="nonzero"/><path fill="#000000" d="M 179.375 60.710938 C 179.335938 60.710938 179.300781 60.703125 179.261719 60.695312 C 179.144531 60.660156 179.046875 60.578125 178.988281 60.460938 L 178.128906 59.035156 C 178.105469 59 178.117188 58.953125 178.152344 58.929688 C 178.191406 58.910156 178.238281 58.921875 178.257812 58.957031 L 179.121094 60.386719 C 179.164062 60.46875 179.226562 60.523438 179.304688 60.546875 C 179.378906 60.566406 179.457031 60.554688 179.527344 60.507812 C 179.679688 60.414062 179.738281 60.203125 179.65625 60.039062 L 179.121094 58.964844 C 179.117188 58.960938 179.117188 58.957031 179.113281 58.949219 L 178.617188 56.976562 C 178.613281 56.964844 178.613281 56.957031 178.617188 56.949219 L 178.847656 54.875 C 178.855469 54.835938 178.890625 54.804688 178.933594 54.808594 C 178.976562 54.8125 179.007812 54.851562 179 54.894531 L 178.769531 56.949219 L 179.261719 58.90625 L 179.792969 59.972656 C 179.910156 60.203125 179.828125 60.503906 179.609375 60.640625 C 179.539062 60.6875 179.457031 60.710938 179.375 60.710938 " fill-opacity="1" fill-rule="nonzero"/><path fill="#000000" d="M 178.035156 59.667969 C 178.027344 59.667969 178.019531 59.664062 178.015625 59.664062 C 177.972656 59.652344 177.949219 59.609375 177.960938 59.570312 L 178.273438 58.40625 C 178.285156 58.363281 178.324219 58.339844 178.367188 58.351562 C 178.40625 58.363281 178.433594 58.402344 178.421875 58.445312 L 178.109375 59.609375 C 178.097656 59.644531 178.066406 59.667969 178.035156 59.667969 " fill-opacity="1" fill-rule="nonzero"/><path fill="#000000" d="M 174.964844 58.988281 C 174.957031 58.988281 174.949219 58.988281 174.941406 58.984375 C 174.902344 58.96875 174.878906 58.925781 174.894531 58.886719 L 175.792969 56.40625 L 176.011719 54.625 C 176.015625 54.582031 176.054688 54.554688 176.097656 54.558594 C 176.140625 54.5625 176.167969 54.601562 176.164062 54.644531 L 175.945312 56.433594 C 175.945312 56.4375 175.945312 56.445312 175.941406 56.449219 L 175.039062 58.9375 C 175.027344 58.96875 175 58.988281 174.964844 58.988281 " fill-opacity="1" fill-rule="nonzero"/><path fill="#8c7bff" d="M 175.589844 54.988281 L 179.117188 55.277344 L 179.78125 48.65625 L 176.640625 48.488281 L 175.589844 54.988281 " fill-opacity="1" fill-rule="nonzero"/><path fill="#000000" d="M 179.121094 55.355469 C 179.117188 55.355469 179.113281 55.355469 179.109375 55.355469 C 179.070312 55.351562 179.039062 55.3125 179.042969 55.269531 L 179.707031 48.648438 C 179.710938 48.609375 179.75 48.578125 179.789062 48.582031 C 179.832031 48.585938 179.863281 48.625 179.859375 48.664062 L 179.195312 55.285156 C 179.191406 55.324219 179.160156 55.355469 179.121094 55.355469 " fill-opacity="1" fill-rule="nonzero"/><path fill="#8c7bff" d="M 197.460938 49.894531 L 191.714844 53.570312 L 189.722656 50.449219 L 195.46875 46.773438 L 197.460938 49.894531 " fill-opacity="1" fill-rule="nonzero"/><path fill="#000000" d="M 191.714844 53.648438 C 191.710938 53.648438 191.703125 53.648438 191.699219 53.644531 C 191.679688 53.640625 191.660156 53.628906 191.652344 53.613281 L 189.65625 50.492188 C 189.632812 50.457031 189.644531 50.410156 189.679688 50.386719 L 194.695312 47.179688 C 194.730469 47.15625 194.777344 47.164062 194.800781 47.203125 C 194.824219 47.238281 194.8125 47.285156 194.777344 47.308594 L 189.828125 50.472656 L 191.738281 53.464844 L 193.757812 52.171875 C 193.792969 52.148438 193.84375 52.160156 193.863281 52.195312 C 193.886719 52.230469 193.878906 52.28125 193.839844 52.300781 L 191.757812 53.636719 C 191.742188 53.644531 191.730469 53.648438 191.714844 53.648438 " fill-opacity="1" fill-rule="nonzero"/><path fill="#955b50" d="M 189.207031 51.515625 C 188.957031 51.675781 188.597656 51.425781 188.035156 51.78125 L 186.6875 52.644531 C 186.285156 52.902344 186.011719 53.3125 185.925781 53.78125 L 185.882812 54.027344 C 185.847656 54.214844 185.933594 54.402344 186.089844 54.503906 L 186.09375 54.503906 L 186.046875 54.777344 C 186.007812 54.988281 186.117188 55.195312 186.308594 55.285156 L 186.28125 55.449219 C 186.242188 55.667969 186.359375 55.882812 186.566406 55.964844 L 186.746094 56.039062 C 186.742188 56.214844 186.847656 56.382812 187.015625 56.449219 C 187.269531 56.550781 187.550781 56.390625 187.597656 56.117188 L 187.644531 55.820312 C 187.667969 55.675781 187.753906 55.550781 187.875 55.472656 L 189.289062 54.566406 L 190.035156 54.089844 L 191.460938 53.175781 L 190.054688 50.972656 L 189.207031 51.515625 " fill-opacity="1" fill-rule="nonzero"/><path fill="#020202" d="M 189.269531 51.476562 L 191.460938 53.175781 L 190.054688 50.972656 L 189.269531 51.476562 " fill-opacity="1" fill-rule="nonzero"/><path fill="#000000" d="M 186.308594 55.363281 C 186.300781 55.363281 186.289062 55.359375 186.277344 55.355469 C 186.054688 55.25 185.925781 55.007812 185.96875 54.765625 L 186.046875 54.332031 C 186.113281 53.964844 186.332031 53.636719 186.648438 53.4375 L 187.339844 52.992188 C 187.375 52.972656 187.421875 52.980469 187.445312 53.015625 C 187.46875 53.054688 187.457031 53.101562 187.421875 53.125 L 186.730469 53.566406 C 186.453125 53.742188 186.257812 54.035156 186.199219 54.359375 L 186.121094 54.792969 C 186.089844 54.96875 186.179688 55.140625 186.34375 55.214844 C 186.378906 55.234375 186.398438 55.277344 186.378906 55.316406 C 186.367188 55.34375 186.339844 55.363281 186.308594 55.363281 " fill-opacity="1" fill-rule="nonzero"/><path fill="#000000" d="M 186.75 56.113281 C 186.738281 56.113281 186.730469 56.113281 186.71875 56.109375 L 186.539062 56.035156 C 186.300781 55.941406 186.160156 55.6875 186.207031 55.4375 L 186.296875 54.917969 C 186.355469 54.605469 186.542969 54.324219 186.808594 54.152344 L 187.71875 53.570312 C 187.753906 53.550781 187.800781 53.558594 187.824219 53.59375 C 187.847656 53.632812 187.835938 53.679688 187.800781 53.703125 L 186.890625 54.285156 C 186.660156 54.433594 186.5 54.671875 186.449219 54.945312 L 186.355469 55.464844 C 186.324219 55.644531 186.425781 55.828125 186.597656 55.894531 L 186.777344 55.964844 C 186.816406 55.980469 186.835938 56.027344 186.820312 56.066406 C 186.808594 56.097656 186.78125 56.113281 186.75 56.113281 " fill-opacity="1" fill-rule="nonzero"/><path fill="#000000" d="M 189.289062 54.644531 C 189.265625 54.644531 189.238281 54.628906 189.226562 54.605469 C 189.203125 54.570312 189.210938 54.523438 189.25 54.5 L 191.355469 53.152344 L 190.03125 51.078125 L 189.246094 51.582031 C 189.128906 51.65625 188.992188 51.652344 188.847656 51.652344 C 188.632812 51.648438 188.394531 51.644531 188.078125 51.847656 L 186.726562 52.710938 C 186.347656 52.953125 186.082031 53.351562 186 53.796875 L 185.957031 54.039062 C 185.929688 54.195312 185.996094 54.351562 186.132812 54.4375 C 186.167969 54.460938 186.179688 54.507812 186.15625 54.542969 C 186.132812 54.582031 186.085938 54.589844 186.050781 54.566406 C 185.863281 54.449219 185.765625 54.230469 185.804688 54.011719 L 185.851562 53.769531 C 185.9375 53.28125 186.226562 52.847656 186.644531 52.582031 L 187.996094 51.71875 C 188.351562 51.492188 188.640625 51.496094 188.851562 51.5 C 188.980469 51.5 189.085938 51.503906 189.164062 51.449219 L 190.078125 50.867188 L 191.570312 53.199219 L 189.332031 54.628906 C 189.320312 54.636719 189.304688 54.644531 189.289062 54.644531 " fill-opacity="1" fill-rule="nonzero"/><path fill="#000000" d="M 187.175781 56.554688 C 187.109375 56.554688 187.046875 56.542969 186.988281 56.519531 C 186.765625 56.429688 186.632812 56.195312 186.675781 55.960938 L 186.773438 55.421875 C 186.832031 55.101562 187.019531 54.820312 187.292969 54.644531 L 188.050781 54.160156 C 188.085938 54.136719 188.132812 54.148438 188.15625 54.183594 C 188.179688 54.21875 188.167969 54.265625 188.132812 54.289062 L 187.375 54.773438 C 187.140625 54.925781 186.976562 55.171875 186.925781 55.445312 L 186.828125 55.988281 C 186.796875 56.152344 186.890625 56.316406 187.042969 56.378906 C 187.144531 56.417969 187.253906 56.410156 187.347656 56.355469 C 187.441406 56.304688 187.503906 56.210938 187.519531 56.105469 L 187.570312 55.808594 C 187.597656 55.644531 187.691406 55.496094 187.832031 55.40625 L 189.996094 54.023438 C 190.351562 53.796875 190.566406 53.410156 190.578125 52.988281 C 190.582031 52.945312 190.617188 52.914062 190.660156 52.914062 C 190.699219 52.914062 190.734375 52.949219 190.734375 52.992188 C 190.71875 53.464844 190.476562 53.898438 190.078125 54.152344 L 187.914062 55.535156 C 187.8125 55.601562 187.742188 55.710938 187.722656 55.832031 L 187.671875 56.132812 C 187.648438 56.28125 187.554688 56.414062 187.421875 56.488281 C 187.34375 56.535156 187.261719 56.554688 187.175781 56.554688 " fill-opacity="1" fill-rule="nonzero"/><path fill="#ffffff" d="M 189.40625 92.132812 C 187.667969 91.53125 186.75 89.640625 187.351562 87.90625 C 187.957031 86.171875 189.851562 85.253906 191.589844 85.855469 C 193.328125 86.457031 194.246094 88.347656 193.644531 90.082031 C 193.042969 91.816406 191.144531 92.734375 189.40625 92.132812 Z M 196.886719 92.601562 L 197.75 90.109375 L 196.195312 89.570312 C 196.257812 88.957031 196.21875 88.34375 196.085938 87.753906 L 197.570312 87.039062 L 196.417969 84.667969 L 194.933594 85.382812 C 194.554688 84.914062 194.097656 84.503906 193.574219 84.171875 L 194.113281 82.621094 L 191.617188 81.757812 L 191.078125 83.308594 C 190.460938 83.246094 189.84375 83.285156 189.257812 83.417969 L 188.539062 81.9375 L 186.160156 83.085938 L 186.878906 84.566406 C 186.410156 84.945312 186 85.402344 185.667969 85.925781 L 184.039062 85.4375 L 183.246094 87.878906 L 184.800781 88.417969 C 184.738281 89.03125 184.777344 89.644531 184.910156 90.234375 L 183.425781 90.949219 L 184.578125 93.324219 L 186.0625 92.605469 C 186.441406 93.074219 186.902344 93.484375 187.425781 93.816406 L 186.886719 95.367188 L 189.378906 96.230469 L 189.921875 94.679688 C 190.539062 94.742188 191.152344 94.703125 191.742188 94.570312 L 192.457031 96.050781 L 194.835938 94.902344 L 194.117188 93.421875 C 194.585938 93.042969 194.996094 92.585938 195.328125 92.0625 L 196.886719 92.601562 " fill-opacity="1" fill-rule="nonzero"/><path fill="#000000" d="M 190.5 85.746094 C 189.152344 85.746094 187.890625 86.589844 187.425781 87.929688 C 187.140625 88.746094 187.191406 89.628906 187.570312 90.40625 C 187.949219 91.191406 188.609375 91.777344 189.433594 92.0625 C 191.128906 92.648438 192.984375 91.75 193.574219 90.058594 C 193.859375 89.242188 193.804688 88.359375 193.429688 87.582031 C 193.050781 86.800781 192.386719 86.210938 191.566406 85.925781 C 191.214844 85.804688 190.855469 85.746094 190.5 85.746094 Z M 190.496094 92.394531 C 190.125 92.394531 189.75 92.335938 189.382812 92.207031 C 188.519531 91.910156 187.828125 91.292969 187.429688 90.476562 C 187.035156 89.65625 186.980469 88.738281 187.28125 87.878906 C 187.894531 86.109375 189.839844 85.167969 191.617188 85.78125 C 192.476562 86.078125 193.167969 86.695312 193.566406 87.515625 C 193.960938 88.332031 194.015625 89.253906 193.71875 90.109375 C 193.230469 91.511719 191.90625 92.394531 190.496094 92.394531 Z M 186.984375 95.320312 L 189.332031 96.132812 L 189.847656 94.652344 C 189.859375 94.621094 189.894531 94.601562 189.925781 94.601562 C 190.527344 94.664062 191.132812 94.628906 191.722656 94.496094 C 191.757812 94.488281 191.792969 94.507812 191.808594 94.539062 L 192.496094 95.949219 L 194.734375 94.863281 L 194.046875 93.457031 C 194.03125 93.421875 194.042969 93.386719 194.070312 93.363281 C 194.539062 92.980469 194.941406 92.527344 195.265625 92.019531 C 195.285156 91.992188 195.320312 91.976562 195.355469 91.988281 L 196.835938 92.503906 L 197.652344 90.15625 L 196.171875 89.644531 C 196.136719 89.632812 196.117188 89.597656 196.117188 89.5625 C 196.179688 88.964844 196.144531 88.363281 196.011719 87.773438 C 196.003906 87.738281 196.023438 87.703125 196.054688 87.6875 L 197.46875 87.003906 L 196.382812 84.769531 L 194.96875 85.453125 C 194.9375 85.46875 194.898438 85.460938 194.875 85.429688 C 194.492188 84.960938 194.042969 84.5625 193.53125 84.238281 C 193.5 84.21875 193.488281 84.183594 193.5 84.148438 L 194.015625 82.667969 L 191.664062 81.855469 L 191.148438 83.335938 C 191.136719 83.367188 191.105469 83.390625 191.070312 83.386719 C 190.46875 83.324219 189.863281 83.359375 189.273438 83.492188 C 189.238281 83.5 189.203125 83.480469 189.1875 83.449219 L 188.503906 82.039062 L 186.265625 83.125 L 186.949219 84.53125 C 186.964844 84.566406 186.957031 84.605469 186.929688 84.625 C 186.457031 85.007812 186.054688 85.460938 185.734375 85.96875 C 185.714844 85.996094 185.679688 86.011719 185.644531 86 L 184.089844 85.535156 L 183.34375 87.832031 L 184.828125 88.34375 C 184.859375 88.355469 184.882812 88.390625 184.878906 88.425781 C 184.816406 89.023438 184.851562 89.628906 184.984375 90.21875 C 184.992188 90.25 184.976562 90.289062 184.941406 90.304688 L 183.53125 90.984375 L 184.617188 93.21875 L 186.027344 92.535156 C 186.058594 92.519531 186.097656 92.53125 186.121094 92.558594 C 186.503906 93.027344 186.957031 93.425781 187.464844 93.75 C 187.496094 93.769531 187.507812 93.808594 187.496094 93.839844 Z M 189.378906 96.308594 C 189.371094 96.308594 189.363281 96.308594 189.355469 96.304688 L 186.859375 95.441406 C 186.839844 95.433594 186.824219 95.417969 186.816406 95.402344 C 186.808594 95.382812 186.804688 95.359375 186.8125 95.34375 L 187.332031 93.847656 C 186.847656 93.53125 186.414062 93.148438 186.039062 92.699219 L 184.613281 93.390625 C 184.574219 93.410156 184.527344 93.394531 184.511719 93.355469 L 183.359375 90.984375 C 183.347656 90.964844 183.347656 90.945312 183.355469 90.925781 C 183.363281 90.90625 183.375 90.890625 183.394531 90.882812 L 184.820312 90.191406 C 184.699219 89.625 184.667969 89.046875 184.71875 88.46875 L 183.222656 87.949219 C 183.183594 87.9375 183.160156 87.894531 183.171875 87.855469 L 183.96875 85.414062 C 183.980469 85.375 184.023438 85.351562 184.0625 85.363281 L 185.632812 85.835938 C 185.949219 85.351562 186.335938 84.917969 186.785156 84.546875 L 186.09375 83.121094 C 186.082031 83.101562 186.082031 83.082031 186.089844 83.0625 C 186.09375 83.042969 186.109375 83.027344 186.128906 83.019531 L 188.503906 81.867188 C 188.542969 81.851562 188.589844 81.867188 188.605469 81.902344 L 189.300781 83.328125 C 189.867188 83.207031 190.449219 83.175781 191.023438 83.226562 L 191.542969 81.730469 C 191.558594 81.691406 191.601562 81.671875 191.640625 81.683594 L 194.136719 82.546875 C 194.15625 82.554688 194.171875 82.570312 194.179688 82.585938 C 194.191406 82.605469 194.191406 82.628906 194.183594 82.644531 L 193.664062 84.140625 C 194.152344 84.457031 194.585938 84.839844 194.957031 85.289062 L 196.382812 84.597656 C 196.421875 84.578125 196.46875 84.59375 196.488281 84.632812 L 197.636719 87.003906 C 197.648438 87.023438 197.648438 87.042969 197.640625 87.0625 C 197.636719 87.082031 197.621094 87.097656 197.601562 87.105469 L 196.175781 87.796875 C 196.296875 88.363281 196.332031 88.941406 196.277344 89.519531 L 197.777344 90.039062 C 197.796875 90.042969 197.8125 90.058594 197.820312 90.078125 C 197.828125 90.09375 197.828125 90.117188 197.824219 90.136719 L 196.957031 92.625 C 196.941406 92.664062 196.898438 92.6875 196.859375 92.671875 L 195.363281 92.15625 C 195.046875 92.640625 194.660156 93.070312 194.210938 93.441406 L 194.90625 94.867188 C 194.914062 94.886719 194.914062 94.90625 194.90625 94.925781 C 194.902344 94.945312 194.886719 94.960938 194.867188 94.96875 L 192.492188 96.121094 C 192.453125 96.136719 192.410156 96.121094 192.390625 96.085938 L 191.699219 94.660156 C 191.128906 94.78125 190.550781 94.8125 189.972656 94.761719 L 189.453125 96.257812 C 189.441406 96.289062 189.410156 96.308594 189.378906 96.308594 " fill-opacity="1" fill-rule="nonzero"/><path fill="#fed101" d="M 142.003906 105.875 L 137.09375 105.875 L 139.253906 101.71875 L 142.726562 101.71875 L 142.003906 105.875 " fill-opacity="1" fill-rule="nonzero"/><path fill="#000000" d="M 142.546875 102.757812 L 138.171875 103.796875 L 139.253906 101.71875 L 142.726562 101.71875 L 142.546875 102.757812 " fill-opacity="1" fill-rule="nonzero"/><g clip-path="url(#1024e89276)"><path fill="#000000" d="M 142.347656 106.742188 L 141.417969 106.742188 L 141.019531 106.332031 L 140.621094 106.742188 L 138.746094 106.742188 L 138.324219 106.332031 L 137.886719 106.742188 L 136.578125 106.742188 L 136.757812 105.78125 L 142.171875 105.78125 L 142.347656 106.742188 " fill-opacity="1" fill-rule="nonzero"/></g><g clip-path="url(#ca3ee9b3c6)"><path fill="#fed101" d="M 154.421875 106.296875 C 154.4375 106.179688 154.449219 106.058594 154.449219 105.9375 C 154.449219 104.59375 153.359375 103.503906 152.015625 103.503906 C 150.671875 103.503906 149.582031 104.59375 149.582031 105.9375 C 149.582031 106.058594 149.589844 106.179688 149.609375 106.296875 L 154.421875 106.296875 " fill-opacity="1" fill-rule="nonzero"/></g><path fill="#fed101" d="M 154 105.746094 L 148.847656 105.746094 L 149.476562 102.484375 L 152.109375 102.484375 L 154 105.746094 " fill-opacity="1" fill-rule="nonzero"/><path fill="#000000" d="M 152.269531 102.757812 L 149.253906 103.648438 L 149.476562 102.484375 L 152.109375 102.484375 L 152.269531 102.757812 " fill-opacity="1" fill-rule="nonzero"/><path fill="#000000" d="M 153.261719 104.550781 C 153.238281 104.550781 153.210938 104.539062 153.195312 104.511719 L 152.703125 103.660156 C 152.683594 103.625 152.695312 103.578125 152.730469 103.554688 C 152.769531 103.535156 152.816406 103.546875 152.835938 103.585938 L 153.328125 104.433594 C 153.351562 104.472656 153.339844 104.519531 153.300781 104.539062 C 153.289062 104.546875 153.277344 104.550781 153.261719 104.550781 " fill-opacity="1" fill-rule="nonzero"/><g clip-path="url(#87523d60b2)"><path fill="#000000" d="M 154.734375 106.707031 L 153.738281 106.707031 L 153.316406 106.296875 L 152.890625 106.707031 L 150.890625 106.707031 L 150.445312 106.296875 L 149.980469 106.707031 L 148.585938 106.707031 L 148.773438 105.746094 L 154.542969 105.746094 L 154.734375 106.707031 " fill-opacity="1" fill-rule="nonzero"/></g><path fill="#8c7bff" d="M 154.171875 85.382812 L 153.222656 78.484375 L 144.5625 78.484375 L 144.5625 83.125 L 142.921875 91.054688 L 138.269531 102.757812 L 142.929688 102.757812 L 145.878906 96.445312 C 147.203125 93.617188 148.109375 90.609375 148.566406 87.519531 L 149.078125 84.050781 L 149.710938 90.898438 L 148.566406 102.757812 L 153.222656 102.757812 L 154.128906 96.535156 C 154.667969 92.839844 154.679688 89.085938 154.171875 85.382812 " fill-opacity="1" fill-rule="nonzero"/><path fill="#6155ff" d="M 150.605469 83.042969 C 149.855469 83.042969 149.246094 82.433594 149.246094 81.683594 L 149.246094 80.097656 L 151.96875 80.097656 L 151.96875 81.683594 C 151.96875 82.433594 151.359375 83.042969 150.605469 83.042969 " fill-opacity="1" fill-rule="nonzero"/><path fill="#000000" d="M 153.222656 102.835938 L 148.566406 102.835938 C 148.542969 102.835938 148.523438 102.824219 148.507812 102.808594 C 148.496094 102.792969 148.488281 102.769531 148.488281 102.75 L 149.632812 90.898438 L 149.003906 84.054688 C 148.996094 84.015625 149.027344 83.976562 149.070312 83.972656 C 149.113281 83.96875 149.152344 84 149.15625 84.042969 L 149.785156 90.894531 C 149.785156 90.898438 149.785156 90.902344 149.785156 90.90625 L 148.648438 102.679688 L 153.15625 102.679688 L 154.050781 96.527344 C 154.589844 92.835938 154.605469 89.089844 154.097656 85.394531 L 153.148438 78.492188 C 153.140625 78.453125 153.171875 78.414062 153.214844 78.40625 C 153.253906 78.402344 153.292969 78.429688 153.300781 78.472656 L 154.25 85.375 C 154.757812 89.082031 154.742188 92.84375 154.203125 96.546875 L 153.300781 102.769531 C 153.292969 102.804688 153.261719 102.835938 153.222656 102.835938 " fill-opacity="1" fill-rule="nonzero"/><path fill="#000000" d="M 150.242188 84.097656 L 147.304688 84.097656 C 147.261719 84.097656 147.226562 84.0625 147.226562 84.019531 C 147.226562 83.976562 147.261719 83.945312 147.304688 83.945312 L 150.242188 83.945312 C 150.285156 83.945312 150.320312 83.976562 150.320312 84.019531 C 150.320312 84.0625 150.285156 84.097656 150.242188 84.097656 " fill-opacity="1" fill-rule="nonzero"/><path fill="#000000" d="M 145.015625 92.003906 C 145 92.003906 144.988281 92 144.976562 91.992188 L 142.886719 90.804688 C 142.855469 90.789062 142.839844 90.75 142.847656 90.71875 C 142.859375 90.683594 142.890625 90.660156 142.925781 90.660156 L 144.71875 90.769531 C 144.761719 90.769531 144.792969 90.808594 144.792969 90.851562 C 144.789062 90.890625 144.753906 90.925781 144.710938 90.921875 L 143.246094 90.835938 L 145.050781 91.859375 C 145.089844 91.882812 145.101562 91.929688 145.082031 91.964844 C 145.066406 91.988281 145.039062 92.003906 145.015625 92.003906 " fill-opacity="1" fill-rule="nonzero"/><path fill="#000000" d="M 150.902344 91.726562 C 150.886719 91.726562 150.875 91.722656 150.859375 91.714844 L 149.667969 90.964844 C 149.640625 90.945312 149.625 90.910156 149.636719 90.878906 C 149.644531 90.847656 149.675781 90.824219 149.710938 90.824219 L 151.421875 90.824219 C 151.464844 90.824219 151.5 90.859375 151.5 90.898438 C 151.5 90.941406 151.464844 90.976562 151.421875 90.976562 L 149.976562 90.976562 L 150.941406 91.582031 C 150.980469 91.605469 150.988281 91.652344 150.96875 91.6875 C 150.953125 91.710938 150.925781 91.726562 150.902344 91.726562 " fill-opacity="1" fill-rule="nonzero"/><path fill="#000000" d="M 144.5625 81.570312 L 144.5625 78.484375 L 153.21875 78.484375 Z M 144.5625 81.570312 " fill-opacity="1" fill-rule="nonzero"/><path fill="#fda4ff" d="M 156.074219 65.316406 L 155.46875 66.878906 L 155.324219 65.960938 L 155.472656 65.5625 C 155.554688 65.339844 155.800781 65.222656 156.023438 65.300781 L 156.074219 65.316406 " fill-opacity="1" fill-rule="nonzero"/><path fill="#fda4ff" d="M 158.417969 66.519531 L 158.179688 68.304688 L 156.003906 68.941406 L 155.363281 67.277344 C 155.191406 66.832031 155.1875 66.335938 155.351562 65.886719 L 155.453125 65.609375 L 158.417969 66.519531 " fill-opacity="1" fill-rule="nonzero"/><path fill="#ffffff" d="M 154.566406 63.78125 C 154.566406 65.835938 152.902344 67.503906 150.847656 67.503906 C 148.789062 67.503906 147.125 65.835938 147.125 63.78125 C 147.125 61.722656 148.789062 60.054688 150.847656 60.054688 C 152.902344 60.054688 154.566406 61.722656 154.566406 63.78125 " fill-opacity="1" fill-rule="nonzero"/><path fill="#000000" d="M 154.996094 65.800781 L 159.28125 67.550781 L 159.640625 66.664062 L 155.359375 64.917969 Z M 159.324219 67.726562 C 159.3125 67.726562 159.304688 67.726562 159.292969 67.722656 L 154.867188 65.914062 C 154.847656 65.90625 154.832031 65.890625 154.824219 65.871094 C 154.816406 65.851562 154.816406 65.832031 154.824219 65.8125 L 155.25 64.789062 C 155.265625 64.75 155.308594 64.730469 155.347656 64.746094 L 159.769531 66.550781 C 159.808594 66.570312 159.828125 66.613281 159.8125 66.652344 L 159.394531 67.679688 C 159.386719 67.699219 159.371094 67.710938 159.351562 67.71875 C 159.34375 67.722656 159.332031 67.726562 159.324219 67.726562 " fill-opacity="1" fill-rule="nonzero"/><path fill="#000000" d="M 150.847656 60.132812 C 148.835938 60.132812 147.203125 61.769531 147.203125 63.78125 C 147.203125 65.789062 148.835938 67.425781 150.847656 67.425781 C 152.855469 67.425781 154.492188 65.789062 154.492188 63.78125 C 154.492188 61.769531 152.855469 60.132812 150.847656 60.132812 Z M 150.847656 67.578125 C 148.753906 67.578125 147.046875 65.875 147.046875 63.78125 C 147.046875 61.683594 148.753906 59.980469 150.847656 59.980469 C 152.941406 59.980469 154.644531 61.683594 154.644531 63.78125 C 154.644531 65.875 152.941406 67.578125 150.847656 67.578125 " fill-opacity="1" fill-rule="nonzero"/><path fill="#000000" d="M 152.980469 65.992188 C 152.960938 65.992188 152.941406 65.984375 152.925781 65.96875 C 152.898438 65.941406 152.898438 65.890625 152.925781 65.863281 C 153.375 65.414062 153.660156 64.847656 153.753906 64.226562 C 153.761719 64.183594 153.800781 64.15625 153.84375 64.164062 C 153.886719 64.167969 153.914062 64.207031 153.90625 64.25 C 153.808594 64.90625 153.507812 65.5 153.035156 65.96875 C 153.019531 65.984375 153 65.992188 152.980469 65.992188 " fill-opacity="1" fill-rule="nonzero"/><path fill="#000000" d="M 153.832031 63.398438 C 153.792969 63.398438 153.761719 63.371094 153.757812 63.332031 C 153.539062 61.90625 152.289062 60.835938 150.847656 60.835938 C 150.804688 60.835938 150.769531 60.800781 150.769531 60.757812 C 150.769531 60.714844 150.804688 60.679688 150.847656 60.679688 C 152.363281 60.679688 153.679688 61.808594 153.90625 63.308594 C 153.914062 63.351562 153.886719 63.390625 153.84375 63.394531 C 153.839844 63.398438 153.835938 63.398438 153.832031 63.398438 " fill-opacity="1" fill-rule="nonzero"/><path fill="#000000" d="M 154.960938 65.769531 C 154.949219 65.769531 154.941406 65.765625 154.929688 65.761719 L 154.203125 65.464844 C 154.164062 65.445312 154.144531 65.402344 154.160156 65.363281 C 154.175781 65.324219 154.222656 65.304688 154.261719 65.320312 L 154.917969 65.589844 L 155.152344 65.023438 L 154.445312 64.730469 C 154.40625 64.714844 154.386719 64.671875 154.40625 64.632812 C 154.421875 64.59375 154.464844 64.574219 154.503906 64.589844 L 155.28125 64.910156 C 155.300781 64.917969 155.316406 64.933594 155.324219 64.949219 C 155.332031 64.96875 155.332031 64.992188 155.324219 65.007812 L 155.03125 65.722656 C 155.023438 65.738281 155.007812 65.753906 154.988281 65.761719 C 154.980469 65.765625 154.96875 65.769531 154.960938 65.769531 " fill-opacity="1" fill-rule="nonzero"/><path fill="#fda4ff" d="M 156.839844 65.019531 L 156.171875 66.839844 L 155.570312 66.617188 L 156.238281 64.796875 C 156.296875 64.636719 156.472656 64.558594 156.632812 64.617188 L 156.65625 64.625 C 156.816406 64.683594 156.898438 64.859375 156.839844 65.019531 " fill-opacity="1" fill-rule="nonzero"/><path fill="#fda4ff" d="M 157.542969 64.964844 L 156.835938 66.882812 L 156.234375 66.660156 L 156.941406 64.746094 C 157 64.585938 157.175781 64.503906 157.335938 64.5625 L 157.359375 64.570312 C 157.519531 64.628906 157.601562 64.804688 157.542969 64.964844 " fill-opacity="1" fill-rule="nonzero"/><path fill="#fda4ff" d="M 158.742188 65.410156 L 158.050781 67.296875 L 157.449219 67.074219 L 158.140625 65.191406 C 158.199219 65.027344 158.378906 64.945312 158.542969 65.003906 L 158.558594 65.011719 C 158.71875 65.070312 158.800781 65.25 158.742188 65.410156 " fill-opacity="1" fill-rule="nonzero"/><path fill="#fda4ff" d="M 158.742188 66.800781 L 158.1875 68.292969 L 157.585938 68.070312 L 158.519531 65.542969 L 158.738281 66.105469 C 158.824219 66.328125 158.824219 66.574219 158.742188 66.800781 " fill-opacity="1" fill-rule="nonzero"/><path fill="#fda4ff" d="M 157.882812 64.917969 L 157.914062 64.929688 C 158.070312 64.988281 158.144531 65.183594 158.074219 65.367188 L 157.398438 67.210938 L 156.796875 66.988281 L 157.476562 65.148438 C 157.542969 64.960938 157.726562 64.859375 157.882812 64.917969 " fill-opacity="1" fill-rule="nonzero"/><path fill="#fda4ff" d="M 158.207031 68.148438 L 158.144531 70.847656 L 155.820312 70.105469 L 155.871094 67.289062 L 158.207031 68.148438 " fill-opacity="1" fill-rule="nonzero"/><path fill="#000000" d="M 158.1875 69.066406 L 158.144531 70.847656 L 155.820312 70.105469 L 155.832031 69.324219 L 157.277344 69.167969 L 158.1875 69.066406 " fill-opacity="1" fill-rule="nonzero"/><path fill="#000000" d="M 157.304688 65.691406 C 157.296875 65.691406 157.285156 65.6875 157.277344 65.683594 C 157.238281 65.671875 157.21875 65.625 157.230469 65.585938 L 157.46875 64.941406 C 157.492188 64.882812 157.488281 64.820312 157.460938 64.761719 C 157.4375 64.707031 157.390625 64.664062 157.332031 64.640625 L 157.3125 64.632812 C 157.253906 64.613281 157.1875 64.613281 157.132812 64.640625 C 157.078125 64.667969 157.035156 64.714844 157.011719 64.773438 L 156.742188 65.507812 C 156.726562 65.546875 156.683594 65.566406 156.644531 65.550781 C 156.605469 65.535156 156.582031 65.492188 156.597656 65.453125 L 156.867188 64.71875 C 156.941406 64.519531 157.164062 64.417969 157.363281 64.488281 L 157.382812 64.496094 C 157.480469 64.53125 157.558594 64.605469 157.601562 64.699219 C 157.644531 64.792969 157.648438 64.894531 157.613281 64.992188 L 157.375 65.640625 C 157.363281 65.671875 157.335938 65.691406 157.304688 65.691406 " fill-opacity="1" fill-rule="nonzero"/><path fill="#000000" d="M 157.871094 66.003906 C 157.863281 66.003906 157.851562 66.003906 157.84375 66 C 157.804688 65.988281 157.785156 65.941406 157.796875 65.902344 L 158.023438 65.292969 C 158.066406 65.175781 158.003906 65.042969 157.886719 65 L 157.855469 64.988281 C 157.738281 64.945312 157.609375 65.007812 157.566406 65.125 L 157.347656 65.714844 C 157.335938 65.753906 157.289062 65.773438 157.25 65.757812 C 157.210938 65.742188 157.191406 65.699219 157.203125 65.660156 L 157.421875 65.070312 C 157.492188 64.875 157.710938 64.773438 157.910156 64.84375 L 157.941406 64.855469 C 158.136719 64.929688 158.238281 65.148438 158.167969 65.34375 L 157.941406 65.957031 C 157.929688 65.988281 157.902344 66.003906 157.871094 66.003906 " fill-opacity="1" fill-rule="nonzero"/><path fill="#000000" d="M 155.632812 66.527344 C 155.621094 66.527344 155.613281 66.527344 155.605469 66.523438 C 155.566406 66.507812 155.542969 66.464844 155.558594 66.425781 L 156.167969 64.773438 C 156.238281 64.574219 156.460938 64.46875 156.660156 64.542969 L 156.683594 64.550781 C 156.78125 64.585938 156.855469 64.660156 156.898438 64.75 C 156.941406 64.84375 156.945312 64.949219 156.910156 65.046875 L 156.695312 65.636719 C 156.679688 65.675781 156.636719 65.695312 156.597656 65.683594 C 156.554688 65.667969 156.535156 65.625 156.550781 65.582031 L 156.769531 64.992188 C 156.789062 64.933594 156.785156 64.871094 156.761719 64.816406 C 156.734375 64.761719 156.6875 64.71875 156.628906 64.695312 L 156.605469 64.6875 C 156.488281 64.644531 156.355469 64.703125 156.308594 64.824219 L 155.703125 66.476562 C 155.691406 66.507812 155.664062 66.527344 155.632812 66.527344 " fill-opacity="1" fill-rule="nonzero"/><path fill="#000000" d="M 158.144531 70.925781 C 158.136719 70.925781 158.128906 70.921875 158.121094 70.921875 L 155.796875 70.175781 C 155.761719 70.167969 155.742188 70.136719 155.742188 70.101562 L 155.769531 68.554688 L 155.292969 67.304688 C 155.128906 66.886719 155.109375 66.417969 155.238281 65.988281 C 155.25 65.949219 155.292969 65.925781 155.332031 65.9375 C 155.375 65.949219 155.398438 65.992188 155.386719 66.03125 C 155.269531 66.429688 155.285156 66.863281 155.433594 67.25 L 155.917969 68.515625 C 155.921875 68.523438 155.925781 68.535156 155.925781 68.542969 L 155.894531 70.050781 L 158.070312 70.742188 L 158.128906 68.253906 C 158.128906 68.242188 158.132812 68.234375 158.132812 68.226562 L 158.671875 66.773438 C 158.746094 66.566406 158.746094 66.339844 158.664062 66.136719 L 158.542969 65.8125 C 158.535156 65.796875 158.535156 65.777344 158.539062 65.757812 L 158.671875 65.386719 C 158.691406 65.324219 158.691406 65.261719 158.664062 65.203125 C 158.636719 65.148438 158.589844 65.105469 158.53125 65.082031 L 158.515625 65.078125 C 158.394531 65.03125 158.257812 65.09375 158.214844 65.214844 L 157.90625 66.050781 C 157.894531 66.089844 157.847656 66.109375 157.808594 66.09375 C 157.769531 66.082031 157.75 66.035156 157.765625 65.996094 L 158.070312 65.164062 C 158.144531 64.960938 158.367188 64.859375 158.570312 64.933594 L 158.585938 64.9375 C 158.679688 64.976562 158.757812 65.046875 158.804688 65.140625 C 158.847656 65.234375 158.851562 65.339844 158.816406 65.4375 L 158.695312 65.785156 L 158.808594 66.078125 C 158.902344 66.320312 158.902344 66.585938 158.816406 66.824219 L 158.28125 68.269531 L 158.21875 70.851562 C 158.21875 70.875 158.207031 70.894531 158.1875 70.910156 C 158.175781 70.921875 158.160156 70.925781 158.144531 70.925781 " fill-opacity="1" fill-rule="nonzero"/><path fill="#fed101" d="M 157.007812 77.355469 C 155.90625 77.335938 155.03125 76.429688 155.050781 75.332031 L 155.132812 69.710938 L 159.128906 69.71875 L 159.03125 75.398438 C 159.011719 76.5 158.105469 77.375 157.007812 77.355469 " fill-opacity="1" fill-rule="nonzero"/><path fill="#000000" d="M 155.207031 69.789062 L 155.128906 75.332031 C 155.109375 76.386719 155.953125 77.261719 157.007812 77.28125 C 157.019531 77.28125 157.03125 77.28125 157.042969 77.28125 C 158.082031 77.28125 158.9375 76.441406 158.953125 75.398438 L 159.050781 69.796875 Z M 157.042969 77.433594 C 157.03125 77.433594 157.019531 77.433594 157.003906 77.433594 C 155.867188 77.414062 154.953125 76.46875 154.972656 75.328125 L 155.054688 69.710938 C 155.054688 69.667969 155.089844 69.632812 155.132812 69.632812 L 159.128906 69.640625 C 159.152344 69.640625 159.171875 69.648438 159.183594 69.664062 C 159.199219 69.679688 159.207031 69.699219 159.207031 69.71875 L 159.109375 75.402344 C 159.089844 76.53125 158.164062 77.433594 157.042969 77.433594 " fill-opacity="1" fill-rule="nonzero"/><path fill="#fed101" d="M 158.46875 73.976562 L 154.910156 70.414062 C 153.464844 68.96875 151.503906 68.15625 149.457031 68.15625 L 147.152344 68.15625 C 145.5625 68.15625 144.113281 69.066406 143.425781 70.496094 L 141.671875 74.136719 C 141.1875 75.140625 141.480469 76.621094 142.484375 77.105469 C 143.164062 77.433594 143.734375 77.410156 144.363281 77.105469 L 144.132812 79.722656 L 153.539062 78.484375 L 153.011719 74.621094 L 155.65625 76.796875 L 158.46875 73.976562 " fill-opacity="1" fill-rule="nonzero"/><path fill="#000000" d="M 155.65625 76.871094 C 155.636719 76.871094 155.621094 76.867188 155.605469 76.855469 L 151.351562 73.359375 C 151.320312 73.332031 151.316406 73.285156 151.34375 73.253906 C 151.371094 73.21875 151.417969 73.214844 151.449219 73.242188 L 155.703125 76.734375 C 155.738281 76.761719 155.742188 76.8125 155.714844 76.84375 C 155.699219 76.863281 155.675781 76.871094 155.65625 76.871094 " fill-opacity="1" fill-rule="nonzero"/><path fill="#000000" d="M 158.46875 74.054688 C 158.449219 74.054688 158.429688 74.046875 158.417969 74.03125 L 154.855469 70.46875 C 153.394531 69.003906 151.503906 68.230469 149.394531 68.230469 C 149.351562 68.230469 149.316406 68.195312 149.316406 68.15625 C 149.316406 68.113281 149.351562 68.078125 149.394531 68.078125 C 151.546875 68.078125 153.472656 68.867188 154.964844 70.359375 L 158.523438 73.925781 C 158.554688 73.953125 158.554688 74.003906 158.523438 74.03125 C 158.507812 74.046875 158.488281 74.054688 158.46875 74.054688 " fill-opacity="1" fill-rule="nonzero"/><path fill="#000000" d="M 144.375 77.183594 C 144.371094 77.183594 144.371094 77.183594 144.367188 77.183594 C 144.324219 77.179688 144.292969 77.140625 144.296875 77.097656 L 144.859375 71.429688 C 144.863281 71.386719 144.898438 71.359375 144.941406 71.363281 C 144.984375 71.367188 145.015625 71.402344 145.011719 71.445312 L 144.449219 77.113281 C 144.445312 77.152344 144.414062 77.183594 144.375 77.183594 " fill-opacity="1" fill-rule="nonzero"/><path fill="#000000" d="M 144.917969 71.609375 L 143.640625 77.328125 C 143.640625 77.328125 143.832031 77.3125 144.035156 77.246094 C 144.179688 77.199219 144.363281 77.105469 144.363281 77.105469 L 144.917969 71.609375 " fill-opacity="1" fill-rule="nonzero"/><path fill="#fda4ff" d="M 150.167969 65.957031 C 150.167969 66.664062 150.214844 67.644531 149.507812 67.644531 C 148.800781 67.644531 147.609375 66.664062 147.609375 65.957031 C 147.609375 65.25 148.183594 64.675781 148.890625 64.675781 C 149.59375 64.675781 150.167969 65.25 150.167969 65.957031 " fill-opacity="1" fill-rule="nonzero"/><path fill="#000000" d="M 150.636719 65.644531 C 150.441406 64.992188 149.839844 64.515625 149.125 64.515625 C 148.410156 64.515625 147.828125 64.953125 147.648438 65.644531 L 150.636719 65.644531 " fill-opacity="1" fill-rule="nonzero"/><path fill="#fda4ff" d="M 149.347656 68.15625 L 147.867188 68.15625 L 147.867188 65.957031 L 149.347656 65.957031 L 149.347656 68.15625 " fill-opacity="1" fill-rule="nonzero"/><path fill="#000000" d="M 149.347656 68.253906 C 149.304688 68.253906 149.269531 68.21875 149.269531 68.175781 L 149.269531 66.9375 C 149.269531 66.894531 149.304688 66.863281 149.347656 66.863281 C 149.390625 66.863281 149.425781 66.894531 149.425781 66.9375 L 149.425781 68.175781 C 149.425781 68.21875 149.390625 68.253906 149.347656 68.253906 " fill-opacity="1" fill-rule="nonzero"/><path fill="#000000" d="M 190.902344 75.121094 L 174.328125 75.121094 L 174.328125 63.78125 L 190.902344 63.78125 L 190.902344 75.121094 " fill-opacity="1" fill-rule="nonzero"/><path fill="#4ada85" d="M 189.9375 74.125 L 173.363281 74.125 L 173.363281 63.582031 L 189.9375 63.582031 L 189.9375 74.125 " fill-opacity="1" fill-rule="nonzero"/><path fill="#ffffff" d="M 187.570312 66.558594 L 176.058594 66.558594 L 176.058594 65.695312 L 187.570312 65.695312 L 187.570312 66.558594 " fill-opacity="1" fill-rule="nonzero"/><path fill="#ffffff" d="M 187.570312 68.710938 L 176.058594 68.710938 L 176.058594 67.84375 L 187.570312 67.84375 L 187.570312 68.710938 " fill-opacity="1" fill-rule="nonzero"/><path fill="#ffffff" d="M 185.710938 71.046875 L 176.058594 71.046875 L 176.058594 70.179688 L 185.710938 70.179688 L 185.710938 71.046875 " fill-opacity="1" fill-rule="nonzero"/><path fill="#000000" d="M 190.902344 89.003906 L 174.328125 89.003906 L 174.328125 77.664062 L 190.902344 77.664062 L 190.902344 89.003906 " fill-opacity="1" fill-rule="nonzero"/><path fill="#4ada85" d="M 189.9375 88.003906 L 173.363281 88.003906 L 173.363281 77.460938 L 189.9375 77.460938 L 189.9375 88.003906 " fill-opacity="1" fill-rule="nonzero"/><path fill="#ffffff" d="M 187.570312 80.441406 L 176.058594 80.441406 L 176.058594 79.574219 L 187.570312 79.574219 L 187.570312 80.441406 " fill-opacity="1" fill-rule="nonzero"/><path fill="#ffffff" d="M 187.570312 82.589844 L 176.058594 82.589844 L 176.058594 81.726562 L 187.570312 81.726562 L 187.570312 82.589844 " fill-opacity="1" fill-rule="nonzero"/><path fill="#ffffff" d="M 185.710938 84.925781 L 176.058594 84.925781 L 176.058594 84.0625 L 185.710938 84.0625 L 185.710938 84.925781 " fill-opacity="1" fill-rule="nonzero"/><path fill="#000000" d="M 190.902344 102.878906 L 174.328125 102.878906 L 174.328125 91.539062 L 190.902344 91.539062 L 190.902344 102.878906 " fill-opacity="1" fill-rule="nonzero"/><path fill="#4ada85" d="M 189.9375 101.882812 L 173.363281 101.882812 L 173.363281 91.339844 L 189.9375 91.339844 L 189.9375 101.882812 " fill-opacity="1" fill-rule="nonzero"/><path fill="#ffffff" d="M 187.570312 94.316406 L 176.058594 94.316406 L 176.058594 93.449219 L 187.570312 93.449219 L 187.570312 94.316406 " fill-opacity="1" fill-rule="nonzero"/><path fill="#ffffff" d="M 187.570312 96.46875 L 176.058594 96.46875 L 176.058594 95.601562 L 187.570312 95.601562 L 187.570312 96.46875 " fill-opacity="1" fill-rule="nonzero"/><path fill="#ffffff" d="M 185.710938 98.804688 L 176.058594 98.804688 L 176.058594 97.9375 L 185.710938 97.9375 L 185.710938 98.804688 " fill-opacity="1" fill-rule="nonzero"/></svg>