<svg xmlns="http://www.w3.org/2000/svg" xmlns:xlink="http://www.w3.org/1999/xlink" width="400" zoomAndPan="magnify" viewBox="0 0 300 299.999988" height="400" preserveAspectRatio="xMidYMid meet" version="1.0"><path fill="#92d1f7" d="M 279.808594 150 C 279.808594 152.125 279.753906 154.246094 279.652344 156.371094 C 279.546875 158.492188 279.390625 160.609375 279.183594 162.722656 C 278.972656 164.835938 278.714844 166.945312 278.402344 169.046875 C 278.089844 171.148438 277.726562 173.242188 277.3125 175.324219 C 276.898438 177.40625 276.433594 179.480469 275.917969 181.539062 C 275.402344 183.601562 274.835938 185.648438 274.21875 187.679688 C 273.601562 189.714844 272.933594 191.730469 272.21875 193.730469 C 271.503906 195.730469 270.738281 197.710938 269.925781 199.675781 C 269.113281 201.636719 268.253906 203.578125 267.34375 205.5 C 266.4375 207.421875 265.480469 209.316406 264.480469 211.191406 C 263.480469 213.0625 262.433594 214.914062 261.339844 216.734375 C 260.246094 218.554688 259.113281 220.351562 257.929688 222.117188 C 256.75 223.882812 255.527344 225.621094 254.261719 227.328125 C 252.996094 229.03125 251.691406 230.707031 250.34375 232.347656 C 248.996094 233.992188 247.609375 235.597656 246.179688 237.171875 C 244.753906 238.746094 243.289062 240.285156 241.789062 241.789062 C 240.285156 243.289062 238.746094 244.753906 237.171875 246.179688 C 235.597656 247.609375 233.992188 248.996094 232.347656 250.34375 C 230.707031 251.691406 229.03125 252.996094 227.328125 254.261719 C 225.621094 255.527344 223.882812 256.75 222.117188 257.929688 C 220.351562 259.113281 218.554688 260.246094 216.734375 261.339844 C 214.914062 262.433594 213.0625 263.480469 211.191406 264.480469 C 209.316406 265.480469 207.421875 266.4375 205.5 267.34375 C 203.578125 268.253906 201.636719 269.113281 199.675781 269.925781 C 197.710938 270.738281 195.730469 271.503906 193.730469 272.21875 C 191.730469 272.933594 189.714844 273.601562 187.679688 274.21875 C 185.648438 274.835938 183.601562 275.402344 181.539062 275.917969 C 179.480469 276.433594 177.40625 276.898438 175.324219 277.3125 C 173.242188 277.726562 171.148438 278.089844 169.046875 278.402344 C 166.945312 278.714844 164.835938 278.972656 162.722656 279.183594 C 160.609375 279.390625 158.492188 279.546875 156.371094 279.652344 C 154.246094 279.753906 152.125 279.808594 150 279.808594 C 147.875 279.808594 145.753906 279.753906 143.628906 279.652344 C 141.507812 279.546875 139.390625 279.390625 137.277344 279.183594 C 135.164062 278.972656 133.054688 278.714844 130.953125 278.402344 C 128.851562 278.089844 126.757812 277.726562 124.675781 277.3125 C 122.59375 276.898438 120.519531 276.433594 118.460938 275.917969 C 116.398438 275.402344 114.351562 274.835938 112.320312 274.21875 C 110.285156 273.601562 108.269531 272.933594 106.269531 272.21875 C 104.269531 271.503906 102.289062 270.738281 100.324219 269.925781 C 98.363281 269.113281 96.421875 268.253906 94.5 267.34375 C 92.578125 266.4375 90.683594 265.480469 88.808594 264.480469 C 86.933594 263.480469 85.085938 262.433594 83.265625 261.339844 C 81.441406 260.246094 79.648438 259.113281 77.882812 257.929688 C 76.117188 256.75 74.378906 255.527344 72.671875 254.261719 C 70.96875 252.996094 69.292969 251.691406 67.652344 250.34375 C 66.007812 248.996094 64.402344 247.609375 62.828125 246.179688 C 61.253906 244.753906 59.714844 243.289062 58.210938 241.789062 C 56.710938 240.285156 55.246094 238.746094 53.820312 237.171875 C 52.390625 235.597656 51.003906 233.992188 49.65625 232.347656 C 48.308594 230.707031 47.003906 229.03125 45.738281 227.328125 C 44.472656 225.621094 43.25 223.882812 42.070312 222.117188 C 40.886719 220.351562 39.753906 218.554688 38.660156 216.734375 C 37.566406 214.914062 36.519531 213.0625 35.519531 211.191406 C 34.519531 209.316406 33.5625 207.421875 32.65625 205.5 C 31.746094 203.578125 30.886719 201.636719 30.074219 199.675781 C 29.261719 197.710938 28.496094 195.730469 27.78125 193.730469 C 27.066406 191.730469 26.398438 189.714844 25.78125 187.679688 C 25.164062 185.648438 24.597656 183.601562 24.082031 181.539062 C 23.566406 179.480469 23.101562 177.40625 22.6875 175.324219 C 22.273438 173.242188 21.910156 171.148438 21.597656 169.046875 C 21.285156 166.945312 21.027344 164.835938 20.816406 162.722656 C 20.609375 160.609375 20.453125 158.492188 20.347656 156.371094 C 20.246094 154.246094 20.191406 152.125 20.191406 150 C 20.191406 147.875 20.246094 145.753906 20.347656 143.628906 C 20.453125 141.507812 20.609375 139.390625 20.816406 137.277344 C 21.027344 135.164062 21.285156 133.054688 21.597656 130.953125 C 21.910156 128.851562 22.273438 126.757812 22.6875 124.675781 C 23.101562 122.59375 23.566406 120.519531 24.082031 118.460938 C 24.597656 116.398438 25.164062 114.351562 25.78125 112.320312 C 26.398438 110.285156 27.066406 108.269531 27.78125 106.269531 C 28.496094 104.269531 29.261719 102.289062 30.074219 100.324219 C 30.886719 98.363281 31.746094 96.421875 32.65625 94.5 C 33.5625 92.578125 34.519531 90.683594 35.519531 88.808594 C 36.519531 86.933594 37.566406 85.085938 38.660156 83.265625 C 39.753906 81.441406 40.886719 79.648438 42.070312 77.882812 C 43.25 76.117188 44.472656 74.378906 45.738281 72.671875 C 47.003906 70.96875 48.308594 69.292969 49.65625 67.652344 C 51.003906 66.007812 52.390625 64.402344 53.820312 62.828125 C 55.246094 61.253906 56.710938 59.714844 58.210938 58.210938 C 59.714844 56.710938 61.253906 55.246094 62.828125 53.820312 C 64.402344 52.390625 66.007812 51.003906 67.652344 49.65625 C 69.292969 48.308594 70.96875 47.003906 72.671875 45.738281 C 74.378906 44.472656 76.117188 43.25 77.882812 42.070312 C 79.648438 40.886719 81.441406 39.753906 83.265625 38.660156 C 85.085938 37.566406 86.933594 36.519531 88.808594 35.519531 C 90.683594 34.519531 92.578125 33.5625 94.5 32.65625 C 96.421875 31.746094 98.363281 30.886719 100.324219 30.074219 C 102.289062 29.261719 104.269531 28.496094 106.269531 27.78125 C 108.269531 27.066406 110.285156 26.398438 112.320312 25.78125 C 114.351562 25.164062 116.398438 24.597656 118.460938 24.082031 C 120.519531 23.566406 122.59375 23.101562 124.675781 22.6875 C 126.757812 22.273438 128.851562 21.910156 130.953125 21.597656 C 133.054688 21.285156 135.164062 21.027344 137.277344 20.816406 C 139.390625 20.609375 141.507812 20.453125 143.628906 20.347656 C 145.753906 20.246094 147.875 20.191406 150 20.191406 C 152.125 20.191406 154.246094 20.246094 156.371094 20.347656 C 158.492188 20.453125 160.609375 20.609375 162.722656 20.816406 C 164.835938 21.027344 166.945312 21.285156 169.046875 21.597656 C 171.148438 21.910156 173.242188 22.273438 175.324219 22.6875 C 177.40625 23.101562 179.480469 23.566406 181.539062 24.082031 C 183.601562 24.597656 185.648438 25.164062 187.679688 25.78125 C 189.714844 26.398438 191.730469 27.066406 193.730469 27.78125 C 195.730469 28.496094 197.710938 29.261719 199.675781 30.074219 C 201.636719 30.886719 203.578125 31.746094 205.5 32.65625 C 207.421875 33.5625 209.316406 34.519531 211.191406 35.519531 C 213.0625 36.519531 214.914062 37.566406 216.734375 38.660156 C 218.554688 39.753906 220.351562 40.886719 222.117188 42.070312 C 223.882812 43.25 225.621094 44.472656 227.328125 45.738281 C 229.03125 47.003906 230.707031 48.308594 232.347656 49.65625 C 233.992188 51.003906 235.597656 52.390625 237.171875 53.820312 C 238.746094 55.246094 240.285156 56.710938 241.789062 58.210938 C 243.289062 59.714844 244.753906 61.253906 246.179688 62.828125 C 247.609375 64.402344 248.996094 66.007812 250.34375 67.652344 C 251.691406 69.292969 252.996094 70.96875 254.261719 72.671875 C 255.527344 74.378906 256.75 76.117188 257.929688 77.882812 C 259.113281 79.648438 260.246094 81.441406 261.339844 83.265625 C 262.433594 85.085938 263.480469 86.933594 264.480469 88.808594 C 265.480469 90.683594 266.4375 92.578125 267.34375 94.5 C 268.253906 96.421875 269.113281 98.363281 269.925781 100.324219 C 270.738281 102.289062 271.503906 104.269531 272.21875 106.269531 C 272.933594 108.269531 273.601562 110.285156 274.21875 112.320312 C 274.835938 114.351562 275.402344 116.398438 275.917969 118.460938 C 276.433594 120.519531 276.898438 122.59375 277.3125 124.675781 C 277.726562 126.757812 278.089844 128.851562 278.402344 130.953125 C 278.714844 133.054688 278.972656 135.164062 279.183594 137.277344 C 279.390625 139.390625 279.546875 141.507812 279.652344 143.628906 C 279.753906 145.753906 279.808594 147.875 279.808594 150 Z M 279.808594 150 " fill-opacity="1" fill-rule="nonzero"/><path fill="#f9a40e" d="M 217.5 150 C 217.5 151.105469 217.472656 152.207031 217.417969 153.3125 C 217.363281 154.414062 217.285156 155.515625 217.175781 156.617188 C 217.066406 157.714844 216.929688 158.8125 216.769531 159.902344 C 216.605469 160.996094 216.417969 162.085938 216.203125 163.167969 C 215.988281 164.253906 215.746094 165.328125 215.476562 166.402344 C 215.207031 167.472656 214.914062 168.535156 214.59375 169.59375 C 214.273438 170.652344 213.925781 171.699219 213.554688 172.738281 C 213.183594 173.78125 212.785156 174.808594 212.363281 175.832031 C 211.9375 176.851562 211.492188 177.863281 211.019531 178.859375 C 210.546875 179.859375 210.050781 180.84375 209.53125 181.820312 C 209.007812 182.792969 208.464844 183.753906 207.898438 184.703125 C 207.328125 185.648438 206.738281 186.582031 206.125 187.5 C 205.511719 188.417969 204.875 189.324219 204.214844 190.210938 C 203.558594 191.097656 202.878906 191.96875 202.179688 192.820312 C 201.476562 193.675781 200.757812 194.511719 200.015625 195.332031 C 199.273438 196.148438 198.511719 196.949219 197.730469 197.730469 C 196.949219 198.511719 196.148438 199.273438 195.332031 200.015625 C 194.511719 200.757812 193.675781 201.476562 192.820312 202.179688 C 191.96875 202.878906 191.097656 203.558594 190.210938 204.214844 C 189.324219 204.875 188.417969 205.511719 187.5 206.125 C 186.582031 206.738281 185.648438 207.328125 184.703125 207.898438 C 183.753906 208.464844 182.792969 209.007812 181.820312 209.53125 C 180.84375 210.050781 179.859375 210.546875 178.859375 211.019531 C 177.863281 211.492188 176.851562 211.9375 175.832031 212.363281 C 174.808594 212.785156 173.78125 213.183594 172.738281 213.554688 C 171.699219 213.925781 170.652344 214.273438 169.59375 214.59375 C 168.535156 214.914062 167.472656 215.207031 166.402344 215.476562 C 165.328125 215.746094 164.253906 215.988281 163.167969 216.203125 C 162.085938 216.417969 160.996094 216.605469 159.902344 216.769531 C 158.8125 216.929688 157.714844 217.066406 156.617188 217.175781 C 155.515625 217.285156 154.414062 217.363281 153.3125 217.417969 C 152.207031 217.472656 151.105469 217.5 150 217.5 C 148.894531 217.5 147.792969 217.472656 146.6875 217.417969 C 145.585938 217.363281 144.484375 217.285156 143.382812 217.175781 C 142.285156 217.066406 141.1875 216.929688 140.09375 216.769531 C 139.003906 216.605469 137.914062 216.417969 136.832031 216.203125 C 135.746094 215.988281 134.671875 215.746094 133.597656 215.476562 C 132.527344 215.207031 131.460938 214.914062 130.40625 214.59375 C 129.347656 214.273438 128.300781 213.925781 127.261719 213.554688 C 126.21875 213.183594 125.1875 212.785156 124.167969 212.363281 C 123.148438 211.9375 122.136719 211.492188 121.140625 211.019531 C 120.140625 210.546875 119.15625 210.050781 118.179688 209.53125 C 117.207031 209.007812 116.246094 208.464844 115.296875 207.898438 C 114.351562 207.328125 113.417969 206.738281 112.5 206.125 C 111.582031 205.511719 110.675781 204.875 109.789062 204.214844 C 108.902344 203.558594 108.03125 202.878906 107.179688 202.179688 C 106.324219 201.476562 105.488281 200.757812 104.667969 200.015625 C 103.851562 199.273438 103.050781 198.511719 102.269531 197.730469 C 101.488281 196.949219 100.726562 196.148438 99.984375 195.332031 C 99.242188 194.511719 98.523438 193.675781 97.820312 192.820312 C 97.121094 191.96875 96.441406 191.097656 95.785156 190.210938 C 95.125 189.324219 94.488281 188.417969 93.875 187.5 C 93.261719 186.582031 92.671875 185.648438 92.101562 184.703125 C 91.535156 183.753906 90.992188 182.792969 90.46875 181.820312 C 89.949219 180.84375 89.453125 179.859375 88.980469 178.859375 C 88.507812 177.863281 88.0625 176.851562 87.636719 175.832031 C 87.214844 174.808594 86.816406 173.78125 86.445312 172.738281 C 86.074219 171.699219 85.726562 170.652344 85.40625 169.59375 C 85.085938 168.535156 84.792969 167.472656 84.523438 166.402344 C 84.253906 165.328125 84.011719 164.253906 83.796875 163.167969 C 83.582031 162.085938 83.394531 160.996094 83.230469 159.902344 C 83.070312 158.8125 82.933594 157.714844 82.824219 156.617188 C 82.714844 155.515625 82.636719 154.414062 82.582031 153.3125 C 82.527344 152.207031 82.5 151.105469 82.5 150 C 82.5 148.894531 82.527344 147.792969 82.582031 146.6875 C 82.636719 145.585938 82.714844 144.484375 82.824219 143.382812 C 82.933594 142.285156 83.070312 141.1875 83.230469 140.09375 C 83.394531 139.003906 83.582031 137.914062 83.796875 136.832031 C 84.011719 135.746094 84.253906 134.671875 84.523438 133.597656 C 84.792969 132.527344 85.085938 131.460938 85.40625 130.40625 C 85.726562 129.347656 86.074219 128.300781 86.445312 127.261719 C 86.816406 126.21875 87.214844 125.1875 87.636719 124.167969 C 88.0625 123.148438 88.507812 122.136719 88.980469 121.140625 C 89.453125 120.140625 89.949219 119.15625 90.46875 118.179688 C 90.992188 117.207031 91.535156 116.246094 92.101562 115.296875 C 92.671875 114.351562 93.261719 113.417969 93.875 112.5 C 94.488281 111.582031 95.125 110.675781 95.785156 109.789062 C 96.441406 108.902344 97.121094 108.03125 97.820312 107.179688 C 98.523438 106.324219 99.242188 105.488281 99.984375 104.667969 C 100.726562 103.851562 101.488281 103.050781 102.269531 102.269531 C 103.050781 101.488281 103.851562 100.726562 104.667969 99.984375 C 105.488281 99.242188 106.324219 98.523438 107.179688 97.820312 C 108.03125 97.121094 108.902344 96.441406 109.789062 95.785156 C 110.675781 95.125 111.582031 94.488281 112.5 93.875 C 113.417969 93.261719 114.351562 92.671875 115.296875 92.101562 C 116.246094 91.535156 117.207031 90.992188 118.179688 90.46875 C 119.15625 89.949219 120.140625 89.453125 121.140625 88.980469 C 122.136719 88.507812 123.148438 88.0625 124.167969 87.636719 C 125.1875 87.214844 126.21875 86.816406 127.261719 86.445312 C 128.300781 86.074219 129.347656 85.726562 130.40625 85.40625 C 131.464844 85.085938 132.527344 84.792969 133.597656 84.523438 C 134.671875 84.253906 135.746094 84.011719 136.832031 83.796875 C 137.914062 83.582031 139.003906 83.394531 140.09375 83.230469 C 141.1875 83.070312 142.285156 82.933594 143.382812 82.824219 C 144.484375 82.714844 145.585938 82.636719 146.6875 82.582031 C 147.792969 82.527344 148.894531 82.5 150 82.5 C 151.105469 82.5 152.207031 82.527344 153.3125 82.582031 C 154.414062 82.636719 155.515625 82.714844 156.617188 82.824219 C 157.714844 82.933594 158.8125 83.070312 159.902344 83.230469 C 160.996094 83.394531 162.085938 83.582031 163.167969 83.796875 C 164.253906 84.011719 165.328125 84.253906 166.402344 84.523438 C 167.472656 84.792969 168.535156 85.085938 169.59375 85.40625 C 170.652344 85.726562 171.699219 86.074219 172.738281 86.445312 C 173.78125 86.816406 174.808594 87.214844 175.832031 87.636719 C 176.851562 88.0625 177.863281 88.507812 178.859375 88.980469 C 179.859375 89.453125 180.84375 89.949219 181.820312 90.46875 C 182.792969 90.992188 183.753906 91.535156 184.703125 92.101562 C 185.648438 92.671875 186.582031 93.261719 187.5 93.875 C 188.417969 94.488281 189.324219 95.125 190.210938 95.785156 C 191.097656 96.441406 191.96875 97.121094 192.820312 97.820312 C 193.675781 98.523438 194.511719 99.242188 195.332031 99.984375 C 196.148438 100.726562 196.949219 101.488281 197.730469 102.269531 C 198.511719 103.050781 199.273438 103.851562 200.015625 104.667969 C 200.757812 105.488281 201.476562 106.324219 202.179688 107.179688 C 202.878906 108.03125 203.558594 108.902344 204.214844 109.789062 C 204.875 110.675781 205.511719 111.582031 206.125 112.5 C 206.738281 113.417969 207.328125 114.351562 207.898438 115.296875 C 208.464844 116.246094 209.007812 117.207031 209.53125 118.179688 C 210.050781 119.15625 210.546875 120.140625 211.019531 121.140625 C 211.492188 122.136719 211.9375 123.148438 212.363281 124.167969 C 212.785156 125.1875 213.183594 126.21875 213.554688 127.261719 C 213.925781 128.300781 214.273438 129.347656 214.59375 130.40625 C 214.914062 131.460938 215.207031 132.527344 215.476562 133.597656 C 215.746094 134.671875 215.988281 135.746094 216.203125 136.832031 C 216.417969 137.914062 216.605469 139.003906 216.769531 140.09375 C 216.929688 141.1875 217.066406 142.285156 217.175781 143.382812 C 217.285156 144.484375 217.363281 145.585938 217.417969 146.6875 C 217.472656 147.792969 217.5 148.894531 217.5 150 Z M 217.5 150 " fill-opacity="1" fill-rule="nonzero"/><path fill="#936108" d="M 196.730469 150 C 196.730469 151.53125 196.65625 153.058594 196.503906 154.582031 C 196.355469 156.105469 196.132812 157.617188 195.832031 159.117188 C 195.535156 160.617188 195.164062 162.101562 194.71875 163.566406 C 194.273438 165.03125 193.757812 166.46875 193.171875 167.882812 C 192.589844 169.296875 191.933594 170.679688 191.210938 172.027344 C 190.492188 173.378906 189.707031 174.691406 188.855469 175.960938 C 188.003906 177.234375 187.09375 178.460938 186.125 179.644531 C 185.152344 180.828125 184.125 181.960938 183.042969 183.042969 C 181.960938 184.125 180.828125 185.152344 179.644531 186.125 C 178.460938 187.09375 177.234375 188.003906 175.960938 188.855469 C 174.691406 189.707031 173.378906 190.492188 172.027344 191.210938 C 170.679688 191.933594 169.296875 192.589844 167.882812 193.171875 C 166.46875 193.757812 165.03125 194.273438 163.566406 194.71875 C 162.101562 195.164062 160.617188 195.535156 159.117188 195.832031 C 157.617188 196.132812 156.105469 196.355469 154.582031 196.503906 C 153.058594 196.65625 151.53125 196.730469 150 196.730469 C 148.46875 196.730469 146.941406 196.65625 145.417969 196.503906 C 143.898438 196.355469 142.382812 196.132812 140.882812 195.832031 C 139.382812 195.535156 137.898438 195.164062 136.433594 194.71875 C 134.96875 194.273438 133.53125 193.757812 132.117188 193.171875 C 130.703125 192.589844 129.320312 191.933594 127.972656 191.210938 C 126.621094 190.492188 125.308594 189.707031 124.039062 188.855469 C 122.765625 188.003906 121.539062 187.09375 120.355469 186.125 C 119.171875 185.152344 118.039062 184.125 116.957031 183.042969 C 115.875 181.960938 114.847656 180.828125 113.875 179.644531 C 112.90625 178.460938 111.996094 177.234375 111.144531 175.960938 C 110.292969 174.691406 109.507812 173.378906 108.789062 172.027344 C 108.066406 170.679688 107.410156 169.296875 106.828125 167.882812 C 106.242188 166.46875 105.726562 165.03125 105.28125 163.566406 C 104.835938 162.101562 104.464844 160.617188 104.167969 159.117188 C 103.867188 157.617188 103.644531 156.105469 103.496094 154.582031 C 103.34375 153.058594 103.269531 151.53125 103.269531 150 C 103.269531 148.46875 103.34375 146.941406 103.496094 145.417969 C 103.644531 143.898438 103.867188 142.382812 104.167969 140.882812 C 104.464844 139.382812 104.835938 137.898438 105.28125 136.433594 C 105.726562 134.96875 106.242188 133.53125 106.828125 132.117188 C 107.410156 130.703125 108.066406 129.320312 108.789062 127.972656 C 109.507812 126.621094 110.292969 125.308594 111.144531 124.039062 C 111.996094 122.765625 112.90625 121.539062 113.875 120.355469 C 114.847656 119.171875 115.875 118.039062 116.957031 116.957031 C 118.039062 115.875 119.171875 114.847656 120.355469 113.875 C 121.539062 112.90625 122.765625 111.996094 124.039062 111.144531 C 125.308594 110.292969 126.621094 109.507812 127.972656 108.789062 C 129.320312 108.066406 130.703125 107.410156 132.117188 106.828125 C 133.53125 106.242188 134.96875 105.726562 136.433594 105.28125 C 137.898438 104.835938 139.382812 104.464844 140.882812 104.167969 C 142.382812 103.867188 143.898438 103.644531 145.417969 103.496094 C 146.941406 103.34375 148.46875 103.269531 150 103.269531 C 151.53125 103.269531 153.058594 103.34375 154.582031 103.496094 C 156.105469 103.644531 157.617188 103.867188 159.117188 104.167969 C 160.617188 104.464844 162.101562 104.835938 163.566406 105.28125 C 165.03125 105.726562 166.46875 106.242188 167.882812 106.828125 C 169.296875 107.410156 170.679688 108.066406 172.027344 108.789062 C 173.378906 109.507812 174.691406 110.292969 175.960938 111.144531 C 177.234375 111.996094 178.460938 112.90625 179.644531 113.875 C 180.828125 114.847656 181.960938 115.875 183.042969 116.957031 C 184.125 118.039062 185.152344 119.171875 186.125 120.355469 C 187.09375 121.539062 188.003906 122.765625 188.855469 124.039062 C 189.707031 125.308594 190.492188 126.621094 191.210938 127.972656 C 191.933594 129.320312 192.589844 130.703125 193.171875 132.117188 C 193.757812 133.53125 194.273438 134.96875 194.71875 136.433594 C 195.164062 137.898438 195.535156 139.382812 195.832031 140.882812 C 196.132812 142.382812 196.355469 143.898438 196.503906 145.417969 C 196.65625 146.941406 196.730469 148.46875 196.730469 150 Z M 196.730469 150 " fill-opacity="1" fill-rule="nonzero"/><path fill="#000000" d="M 150 201.921875 C 178.628906 201.921875 201.921875 178.628906 201.921875 150 C 201.921875 121.371094 178.628906 98.078125 150 98.078125 C 121.371094 98.078125 98.078125 121.371094 98.078125 150 C 98.078125 178.628906 121.371094 201.921875 150 201.921875 Z M 150 108.460938 C 172.90625 108.460938 191.539062 127.09375 191.539062 150 C 191.539062 172.90625 172.90625 191.539062 150 191.539062 C 127.09375 191.539062 108.460938 172.90625 108.460938 150 C 108.460938 127.09375 127.09375 108.460938 150 108.460938 Z M 150 108.460938 " fill-opacity="1" fill-rule="nonzero"/><path fill="#000000" d="M 134.421875 165.578125 L 133.007812 165.578125 C 130.140625 165.578125 127.816406 167.902344 127.816406 170.769531 C 127.816406 173.636719 130.140625 175.960938 133.007812 175.960938 L 138.011719 175.960938 L 138.011719 178.039062 C 138.011719 180.90625 140.335938 183.230469 143.203125 183.230469 C 146.070312 183.230469 148.394531 180.90625 148.394531 178.039062 L 148.394531 175.960938 L 151.605469 175.960938 L 151.605469 178.039062 C 151.605469 180.90625 153.929688 183.230469 156.796875 183.230469 C 159.664062 183.230469 161.988281 180.90625 161.988281 178.039062 L 161.988281 174.398438 C 167.179688 171.867188 170.769531 166.539062 170.769531 160.382812 C 170.769531 156.398438 169.261719 152.757812 166.789062 150 C 169.261719 147.242188 170.769531 143.601562 170.769531 139.617188 C 170.769531 133.460938 167.179688 128.132812 161.988281 125.601562 L 161.988281 121.960938 C 161.988281 119.09375 159.664062 116.769531 156.796875 116.769531 C 153.929688 116.769531 151.605469 119.09375 151.605469 121.960938 L 151.605469 124.039062 L 148.394531 124.039062 L 148.394531 121.960938 C 148.394531 119.09375 146.070312 116.769531 143.203125 116.769531 C 140.335938 116.769531 138.011719 119.09375 138.011719 121.960938 L 138.011719 124.039062 L 133.007812 124.039062 C 130.140625 124.039062 127.816406 126.363281 127.816406 129.230469 C 127.816406 132.097656 130.140625 134.421875 133.007812 134.421875 L 134.421875 134.421875 Z M 144.808594 134.421875 L 155.191406 134.421875 C 158.054688 134.421875 160.382812 136.753906 160.382812 139.617188 C 160.382812 142.476562 158.054688 144.808594 155.191406 144.808594 L 144.808594 144.808594 Z M 160.382812 160.382812 C 160.382812 163.246094 158.054688 165.578125 155.191406 165.578125 L 144.808594 165.578125 L 144.808594 155.191406 L 155.191406 155.191406 C 158.054688 155.191406 160.382812 157.523438 160.382812 160.382812 Z M 160.382812 160.382812 " fill-opacity="1" fill-rule="nonzero"/><path fill="#000000" d="M 150 285 C 224.4375 285 285 224.4375 285 150 C 285 75.5625 224.4375 15 150 15 C 75.5625 15 15 75.5625 15 150 C 15 224.4375 75.5625 285 150 285 Z M 57.203125 66.921875 L 68.089844 66.921875 C 54.679688 89.203125 47.0625 116.234375 46.234375 144.808594 L 25.5 144.808594 C 26.730469 114.957031 38.507812 87.78125 57.203125 66.921875 Z M 242.796875 233.078125 L 231.910156 233.078125 C 245.320312 210.796875 252.9375 183.765625 253.765625 155.191406 L 274.5 155.191406 C 273.269531 185.042969 261.492188 212.21875 242.796875 233.078125 Z M 155.191406 233.078125 L 155.191406 222.503906 C 191.144531 219.953125 219.953125 191.144531 222.503906 155.191406 L 243.375 155.191406 C 242.453125 185.042969 233.617188 212.21875 219.597656 233.078125 Z M 211.746094 243.460938 C 196.480469 261.410156 176.804688 272.832031 155.191406 274.421875 L 155.191406 243.460938 Z M 150 87.691406 C 184.355469 87.691406 212.308594 115.644531 212.308594 150 C 212.308594 184.355469 184.355469 212.308594 150 212.308594 C 115.644531 212.308594 87.691406 184.355469 87.691406 150 C 87.691406 115.644531 115.644531 87.691406 150 87.691406 Z M 222.503906 144.808594 C 219.953125 108.855469 191.144531 80.046875 155.191406 77.496094 L 155.191406 66.921875 L 219.597656 66.921875 C 233.617188 87.78125 242.453125 114.957031 243.375 144.808594 Z M 155.191406 56.539062 L 155.191406 25.578125 C 176.804688 27.164062 196.480469 38.589844 211.746094 56.539062 Z M 144.808594 66.921875 L 144.808594 77.496094 C 108.855469 80.046875 80.046875 108.855469 77.496094 144.808594 L 56.625 144.808594 C 57.546875 114.957031 66.382812 87.78125 80.402344 66.921875 Z M 88.253906 56.539062 C 103.519531 38.589844 123.195312 27.167969 144.808594 25.578125 L 144.808594 56.539062 Z M 77.496094 155.191406 C 80.046875 191.144531 108.855469 219.953125 144.808594 222.503906 L 144.808594 233.078125 L 80.402344 233.078125 C 66.382812 212.21875 57.546875 185.042969 56.625 155.191406 Z M 144.808594 243.460938 L 144.808594 274.421875 C 123.195312 272.835938 103.519531 261.410156 88.253906 243.460938 Z M 76.105469 244.929688 C 79.597656 249.523438 83.300781 253.738281 87.179688 257.582031 C 80.21875 253.503906 73.6875 248.769531 67.671875 243.460938 L 75.019531 243.460938 C 75.378906 243.953125 75.738281 244.445312 76.105469 244.929688 Z M 223.894531 244.929688 C 224.261719 244.445312 224.621094 243.953125 224.980469 243.460938 L 232.328125 243.460938 C 226.3125 248.769531 219.78125 253.503906 212.820312 257.582031 C 216.699219 253.738281 220.402344 249.523438 223.894531 244.929688 Z M 253.765625 144.808594 C 252.9375 116.234375 245.316406 89.203125 231.910156 66.921875 L 242.796875 66.921875 C 261.492188 87.78125 273.269531 114.957031 274.5 144.808594 Z M 224.980469 56.539062 C 224.621094 56.046875 224.261719 55.554688 223.894531 55.070312 C 220.402344 50.476562 216.699219 46.261719 212.820312 42.417969 C 219.78125 46.496094 226.3125 51.230469 232.328125 56.539062 Z M 76.105469 55.070312 C 75.738281 55.554688 75.378906 56.046875 75.019531 56.539062 L 67.671875 56.539062 C 73.6875 51.230469 80.21875 46.496094 87.179688 42.417969 C 83.300781 46.261719 79.597656 50.476562 76.105469 55.070312 Z M 46.234375 155.191406 C 47.0625 183.765625 54.679688 210.796875 68.089844 233.078125 L 57.203125 233.078125 C 38.507812 212.21875 26.730469 185.042969 25.5 155.191406 Z M 46.234375 155.191406 " fill-opacity="1" fill-rule="nonzero"/><path fill="#000000" d="M 150 135 C 116.914062 135 90 108.085938 90 75 C 90 41.914062 116.914062 15 150 15 C 183.085938 15 210 41.914062 210 75 C 210 108.085938 183.085938 135 150 135 Z M 150 18.671875 C 118.941406 18.671875 93.671875 43.941406 93.671875 75 C 93.671875 106.058594 118.941406 131.328125 150 131.328125 C 181.058594 131.328125 206.328125 106.058594 206.328125 75 C 206.328125 43.941406 181.058594 18.671875 150 18.671875 Z M 161.71875 105.703125 C 161.71875 105.703125 138.28125 105.703125 138.28125 105.703125 C 137.53125 105.703125 136.855469 105.246094 136.574219 104.550781 L 127.867188 82.863281 L 117.816406 82.863281 C 116.800781 82.863281 115.980469 82.039062 115.980469 81.027344 L 115.980469 68.972656 C 115.980469 67.957031 116.800781 67.136719 117.816406 67.136719 L 121.554688 67.136719 L 113.398438 46.816406 C 112.898438 45.664062 113.839844 44.257812 115.101562 44.292969 C 115.101562 44.292969 135.9375 44.292969 135.9375 44.292969 C 136.6875 44.292969 137.363281 44.75 137.640625 45.445312 L 150 76.234375 L 162.359375 45.449219 C 162.640625 44.753906 163.316406 44.296875 164.066406 44.296875 L 184.898438 44.296875 C 186.152344 44.261719 187.109375 45.660156 186.601562 46.816406 C 186.601562 46.816406 178.445312 67.136719 178.445312 67.136719 C 178.445312 67.136719 182.183594 67.136719 182.183594 67.136719 C 183.199219 67.136719 184.019531 67.960938 184.019531 68.972656 L 184.019531 81.027344 C 184.019531 82.042969 183.199219 82.863281 182.183594 82.863281 C 182.183594 82.863281 172.132812 82.863281 172.132812 82.863281 L 163.425781 104.550781 C 163.144531 105.246094 162.46875 105.703125 161.71875 105.703125 Z M 139.523438 102.03125 L 160.476562 102.03125 L 169.183594 80.34375 C 169.460938 79.648438 170.136719 79.191406 170.886719 79.191406 L 180.347656 79.191406 C 180.347656 79.191406 180.347656 70.808594 180.347656 70.808594 L 175.730469 70.808594 C 174.464844 70.84375 173.523438 69.441406 174.023438 68.289062 C 174.023438 68.289062 182.179688 47.96875 182.179688 47.96875 L 165.304688 47.96875 L 151.757812 81.710938 C 151.203125 83.253906 148.828125 83.183594 148.242188 81.710938 C 148.242188 81.710938 134.695312 47.96875 134.695312 47.96875 L 117.820312 47.96875 L 125.976562 68.289062 C 126.484375 69.441406 125.53125 70.84375 124.273438 70.808594 C 124.273438 70.808594 119.652344 70.808594 119.652344 70.808594 C 119.652344 70.808594 119.652344 79.191406 119.652344 79.191406 L 129.113281 79.191406 C 129.863281 79.191406 130.539062 79.648438 130.816406 80.34375 Z M 139.523438 102.03125 " fill-opacity="1" fill-rule="nonzero"/></svg>