<svg xmlns="http://www.w3.org/2000/svg" xmlns:xlink="http://www.w3.org/1999/xlink" width="400" zoomAndPan="magnify" viewBox="0 0 300 299.999988" height="400" preserveAspectRatio="xMidYMid meet" version="1.0"><defs><clipPath id="b3a3ad7ce2"><path d="M 30 32 L 265 32 L 265 268 L 30 268 Z M 30 32 " clip-rule="nonzero"/></clipPath><clipPath id="d9b10f515a"><path d="M 145 16.480469 L 150 16.480469 L 150 283.480469 L 145 283.480469 Z M 145 16.480469 " clip-rule="nonzero"/></clipPath><clipPath id="654aef27cf"><path d="M 71 100 L 199 100 L 199 214 L 71 214 Z M 71 100 " clip-rule="nonzero"/></clipPath><clipPath id="1b7c4b7b65"><path d="M 154.148438 84.195312 L 210.492188 167.417969 L 111.125 234.691406 L 54.78125 151.472656 Z M 154.148438 84.195312 " clip-rule="nonzero"/></clipPath><clipPath id="87fcc21cf9"><path d="M 154.148438 84.195312 L 210.492188 167.417969 L 111.125 234.691406 L 54.78125 151.472656 Z M 154.148438 84.195312 " clip-rule="nonzero"/></clipPath><clipPath id="650a3e5d95"><path d="M 154.148438 84.195312 L 210.492188 167.417969 L 111.125 234.691406 L 54.78125 151.472656 Z M 154.148438 84.195312 " clip-rule="nonzero"/></clipPath></defs><rect x="-30" width="360" fill="#ffffff" y="-29.999999" height="359.999986" fill-opacity="1"/><rect x="-30" width="360" fill="#e7e9ea" y="-29.999999" height="359.999986" fill-opacity="1"/><path fill="#f5f5f5" d="M 263.074219 149.980469 C 263.074219 151.875 263.03125 153.765625 262.9375 155.65625 C 262.84375 157.542969 262.703125 159.429688 262.519531 161.316406 C 262.332031 163.199219 262.101562 165.074219 261.824219 166.949219 C 261.546875 168.820312 261.222656 170.683594 260.855469 172.539062 C 260.484375 174.394531 260.070312 176.242188 259.609375 178.078125 C 259.152344 179.910156 258.644531 181.734375 258.097656 183.546875 C 257.546875 185.355469 256.953125 187.152344 256.316406 188.933594 C 255.679688 190.714844 254.996094 192.480469 254.273438 194.230469 C 253.550781 195.976562 252.78125 197.707031 251.972656 199.417969 C 251.164062 201.128906 250.3125 202.820312 249.421875 204.488281 C 248.527344 206.15625 247.597656 207.800781 246.625 209.425781 C 245.652344 211.050781 244.636719 212.648438 243.585938 214.21875 C 242.535156 215.792969 241.445312 217.339844 240.320312 218.859375 C 239.191406 220.378906 238.027344 221.871094 236.828125 223.335938 C 235.625 224.796875 234.390625 226.230469 233.117188 227.632812 C 231.847656 229.035156 230.542969 230.402344 229.203125 231.742188 C 227.867188 233.082031 226.496094 234.386719 225.09375 235.65625 C 223.691406 236.925781 222.257812 238.164062 220.796875 239.363281 C 219.332031 240.5625 217.839844 241.726562 216.320312 242.855469 C 214.800781 243.980469 213.253906 245.070312 211.679688 246.121094 C 210.105469 247.171875 208.507812 248.183594 206.886719 249.160156 C 205.261719 250.132812 203.617188 251.0625 201.945312 251.957031 C 200.277344 252.847656 198.585938 253.699219 196.875 254.507812 C 195.164062 255.316406 193.4375 256.082031 191.6875 256.808594 C 189.9375 257.53125 188.175781 258.210938 186.390625 258.851562 C 184.609375 259.488281 182.8125 260.082031 181.003906 260.628906 C 179.191406 261.179688 177.367188 261.683594 175.53125 262.144531 C 173.695312 262.601562 171.851562 263.019531 169.992188 263.386719 C 168.136719 263.757812 166.273438 264.078125 164.402344 264.359375 C 162.53125 264.636719 160.652344 264.867188 158.769531 265.050781 C 156.882812 265.238281 154.996094 265.375 153.109375 265.46875 C 151.21875 265.5625 149.324219 265.609375 147.433594 265.609375 C 145.539062 265.609375 143.648438 265.5625 141.757812 265.46875 C 139.867188 265.375 137.980469 265.238281 136.097656 265.050781 C 134.214844 264.867188 132.335938 264.636719 130.464844 264.355469 C 128.59375 264.078125 126.726562 263.757812 124.871094 263.386719 C 123.015625 263.019531 121.171875 262.601562 119.335938 262.144531 C 117.5 261.683594 115.675781 261.179688 113.863281 260.628906 C 112.050781 260.082031 110.257812 259.488281 108.472656 258.851562 C 106.691406 258.210938 104.925781 257.53125 103.179688 256.808594 C 101.429688 256.082031 99.699219 255.316406 97.988281 254.507812 C 96.277344 253.699219 94.589844 252.847656 92.917969 251.957031 C 91.25 251.0625 89.605469 250.132812 87.980469 249.160156 C 86.355469 248.183594 84.757812 247.171875 83.183594 246.121094 C 81.613281 245.070312 80.066406 243.980469 78.542969 242.855469 C 77.023438 241.726562 75.53125 240.5625 74.070312 239.363281 C 72.605469 238.164062 71.175781 236.925781 69.773438 235.65625 C 68.371094 234.386719 67 233.082031 65.660156 231.742188 C 64.324219 230.402344 63.019531 229.035156 61.746094 227.632812 C 60.476562 226.230469 59.242188 224.796875 58.039062 223.335938 C 56.839844 221.871094 55.675781 220.378906 54.546875 218.859375 C 53.421875 217.339844 52.332031 215.792969 51.28125 214.21875 C 50.226562 212.648438 49.214844 211.050781 48.242188 209.425781 C 47.269531 207.800781 46.335938 206.15625 45.445312 204.488281 C 44.554688 202.820312 43.703125 201.128906 42.894531 199.417969 C 42.082031 197.707031 41.316406 195.976562 40.59375 194.230469 C 39.867188 192.480469 39.1875 190.714844 38.550781 188.933594 C 37.914062 187.152344 37.320312 185.355469 36.769531 183.546875 C 36.21875 181.734375 35.714844 179.910156 35.253906 178.078125 C 34.796875 176.242188 34.382812 174.394531 34.011719 172.539062 C 33.644531 170.683594 33.320312 168.820312 33.042969 166.949219 C 32.765625 165.074219 32.53125 163.199219 32.347656 161.316406 C 32.160156 159.429688 32.023438 157.542969 31.929688 155.65625 C 31.835938 153.765625 31.789062 151.875 31.789062 149.980469 C 31.789062 148.089844 31.835938 146.199219 31.929688 144.308594 C 32.023438 142.417969 32.160156 140.53125 32.347656 138.648438 C 32.53125 136.765625 32.765625 134.886719 33.042969 133.015625 C 33.320312 131.144531 33.644531 129.28125 34.011719 127.421875 C 34.382812 125.566406 34.796875 123.722656 35.253906 121.886719 C 35.714844 120.050781 36.21875 118.226562 36.769531 116.417969 C 37.320312 114.605469 37.914062 112.808594 38.550781 111.027344 C 39.1875 109.246094 39.867188 107.480469 40.59375 105.730469 C 41.316406 103.984375 42.082031 102.253906 42.894531 100.542969 C 43.703125 98.832031 44.554688 97.144531 45.445312 95.476562 C 46.335938 93.804688 47.269531 92.160156 48.242188 90.535156 C 49.214844 88.914062 50.226562 87.316406 51.28125 85.742188 C 52.332031 84.167969 53.421875 82.621094 54.546875 81.101562 C 55.675781 79.582031 56.839844 78.089844 58.039062 76.628906 C 59.242188 75.164062 60.476562 73.734375 61.746094 72.332031 C 63.019531 70.929688 64.324219 69.558594 65.660156 68.21875 C 67 66.882812 68.371094 65.578125 69.773438 64.308594 C 71.175781 63.035156 72.605469 61.800781 74.070312 60.601562 C 75.53125 59.398438 77.023438 58.234375 78.542969 57.109375 C 80.066406 55.980469 81.613281 54.890625 83.183594 53.839844 C 84.757812 52.789062 86.355469 51.777344 87.980469 50.804688 C 89.605469 49.832031 91.25 48.898438 92.917969 48.007812 C 94.589844 47.113281 96.277344 46.265625 97.988281 45.453125 C 99.699219 44.644531 101.429688 43.878906 103.179688 43.15625 C 104.925781 42.429688 106.691406 41.75 108.472656 41.113281 C 110.257812 40.476562 112.050781 39.882812 113.863281 39.332031 C 115.675781 38.78125 117.5 38.277344 119.335938 37.820312 C 121.171875 37.359375 123.015625 36.945312 124.871094 36.574219 C 126.726562 36.207031 128.59375 35.882812 130.464844 35.605469 C 132.335938 35.328125 134.214844 35.097656 136.097656 34.910156 C 137.980469 34.726562 139.867188 34.585938 141.757812 34.492188 C 143.648438 34.398438 145.539062 34.351562 147.433594 34.351562 C 149.324219 34.351562 151.21875 34.398438 153.109375 34.492188 C 154.996094 34.585938 156.882812 34.726562 158.769531 34.910156 C 160.652344 35.097656 162.53125 35.328125 164.402344 35.605469 C 166.273438 35.882812 168.136719 36.207031 169.992188 36.574219 C 171.851562 36.945312 173.695312 37.359375 175.53125 37.820312 C 177.367188 38.277344 179.191406 38.78125 181.003906 39.332031 C 182.8125 39.882812 184.609375 40.476562 186.390625 41.113281 C 188.175781 41.75 189.9375 42.429688 191.6875 43.15625 C 193.4375 43.878906 195.164062 44.644531 196.875 45.453125 C 198.585938 46.265625 200.277344 47.113281 201.945312 48.007812 C 203.617188 48.898438 205.261719 49.832031 206.886719 50.804688 C 208.507812 51.777344 210.105469 52.789062 211.679688 53.839844 C 213.253906 54.890625 214.800781 55.980469 216.320312 57.109375 C 217.839844 58.234375 219.332031 59.398438 220.796875 60.601562 C 222.257812 61.800781 223.691406 63.035156 225.09375 64.308594 C 226.496094 65.578125 227.867188 66.882812 229.203125 68.21875 C 230.542969 69.558594 231.847656 70.929688 233.117188 72.332031 C 234.390625 73.734375 235.625 75.164062 236.828125 76.628906 C 238.027344 78.089844 239.191406 79.582031 240.320312 81.101562 C 241.445312 82.621094 242.535156 84.167969 243.585938 85.742188 C 244.636719 87.316406 245.652344 88.914062 246.625 90.535156 C 247.597656 92.160156 248.527344 93.804688 249.421875 95.476562 C 250.3125 97.144531 251.164062 98.832031 251.972656 100.542969 C 252.78125 102.253906 253.550781 103.984375 254.273438 105.730469 C 254.996094 107.480469 255.679688 109.246094 256.316406 111.027344 C 256.953125 112.808594 257.546875 114.605469 258.097656 116.417969 C 258.644531 118.226562 259.152344 120.050781 259.609375 121.886719 C 260.070312 123.722656 260.484375 125.566406 260.855469 127.421875 C 261.222656 129.28125 261.546875 131.144531 261.824219 133.015625 C 262.101562 134.886719 262.332031 136.765625 262.519531 138.648438 C 262.703125 140.53125 262.84375 142.417969 262.9375 144.308594 C 263.03125 146.199219 263.074219 148.089844 263.074219 149.980469 Z M 263.074219 149.980469 " fill-opacity="1" fill-rule="nonzero"/><path fill="#a9afc4" d="M 67.683594 103.949219 L 111.859375 91.527344 L 147.433594 57.917969 L 170.105469 109.457031 L 207.417969 115.355469 L 193.867188 146.757812 L 247.597656 207.804688 L 181.007812 210.550781 L 147.433594 242.042969 L 136.875 170.039062 L 67.683594 196.019531 L 78.175781 149.980469 Z M 67.683594 103.949219 " fill-opacity="1" fill-rule="nonzero"/><path fill="#a9afc4" d="M 67.683594 103.949219 L 111.859375 91.527344 L 147.433594 57.917969 L 170.105469 109.457031 L 207.417969 115.355469 L 193.867188 146.757812 L 247.597656 207.804688 L 181.007812 210.550781 L 147.433594 242.042969 L 136.875 170.039062 L 67.683594 196.019531 L 78.175781 149.980469 Z M 67.683594 103.949219 " fill-opacity="1" fill-rule="nonzero"/><path fill="#5e6175" d="M 147.433594 174.46875 C 146.632812 174.46875 145.832031 174.429688 145.03125 174.351562 C 144.234375 174.273438 143.441406 174.15625 142.65625 174 C 141.867188 173.84375 141.089844 173.648438 140.324219 173.414062 C 139.554688 173.183594 138.800781 172.914062 138.0625 172.605469 C 137.320312 172.296875 136.59375 171.957031 135.886719 171.578125 C 135.179688 171.199219 134.492188 170.789062 133.828125 170.34375 C 133.160156 169.898438 132.515625 169.417969 131.894531 168.910156 C 131.277344 168.402344 130.683594 167.863281 130.113281 167.296875 C 129.546875 166.730469 129.011719 166.136719 128.5 165.515625 C 127.992188 164.894531 127.515625 164.253906 127.070312 163.585938 C 126.625 162.917969 126.210938 162.230469 125.832031 161.523438 C 125.457031 160.816406 125.113281 160.09375 124.804688 159.351562 C 124.5 158.613281 124.230469 157.855469 123.996094 157.089844 C 123.761719 156.324219 123.570312 155.546875 123.414062 154.757812 C 123.253906 153.972656 123.136719 153.179688 123.058594 152.382812 C 122.980469 151.582031 122.941406 150.785156 122.941406 149.980469 C 122.941406 149.179688 122.980469 148.378906 123.058594 147.582031 C 123.136719 146.78125 123.253906 145.992188 123.414062 145.203125 C 123.570312 144.417969 123.761719 143.640625 123.996094 142.871094 C 124.230469 142.105469 124.5 141.351562 124.804688 140.609375 C 125.113281 139.867188 125.457031 139.144531 125.832031 138.4375 C 126.210938 137.730469 126.625 137.042969 127.070312 136.375 C 127.515625 135.710938 127.992188 135.066406 128.5 134.445312 C 129.011719 133.824219 129.546875 133.234375 130.113281 132.664062 C 130.683594 132.097656 131.277344 131.558594 131.894531 131.050781 C 132.515625 130.542969 133.160156 130.066406 133.828125 129.621094 C 134.492188 129.175781 135.179688 128.761719 135.886719 128.382812 C 136.59375 128.007812 137.320312 127.664062 138.0625 127.355469 C 138.800781 127.050781 139.554688 126.78125 140.324219 126.546875 C 141.089844 126.316406 141.867188 126.121094 142.65625 125.964844 C 143.441406 125.808594 144.234375 125.6875 145.03125 125.609375 C 145.832031 125.53125 146.632812 125.492188 147.433594 125.492188 C 148.234375 125.492188 149.035156 125.53125 149.832031 125.609375 C 150.632812 125.6875 151.425781 125.808594 152.210938 125.964844 C 152.996094 126.121094 153.773438 126.316406 154.542969 126.546875 C 155.308594 126.78125 156.066406 127.050781 156.804688 127.355469 C 157.546875 127.664062 158.269531 128.007812 158.976562 128.382812 C 159.6875 128.761719 160.371094 129.175781 161.039062 129.621094 C 161.707031 130.066406 162.351562 130.542969 162.96875 131.050781 C 163.589844 131.558594 164.183594 132.097656 164.75 132.664062 C 165.320312 133.234375 165.855469 133.824219 166.367188 134.445312 C 166.875 135.066406 167.351562 135.710938 167.796875 136.375 C 168.242188 137.042969 168.65625 137.730469 169.03125 138.4375 C 169.410156 139.144531 169.753906 139.867188 170.058594 140.609375 C 170.367188 141.351562 170.636719 142.105469 170.871094 142.871094 C 171.101562 143.640625 171.296875 144.417969 171.453125 145.203125 C 171.609375 145.992188 171.726562 146.78125 171.808594 147.582031 C 171.886719 148.378906 171.925781 149.179688 171.925781 149.980469 C 171.921875 150.78125 171.882812 151.582031 171.804688 152.378906 C 171.722656 153.179688 171.605469 153.96875 171.449219 154.757812 C 171.292969 155.542969 171.097656 156.320312 170.863281 157.085938 C 170.628906 157.851562 170.359375 158.605469 170.050781 159.347656 C 169.746094 160.089844 169.402344 160.8125 169.023438 161.519531 C 168.644531 162.226562 168.234375 162.914062 167.789062 163.578125 C 167.34375 164.246094 166.863281 164.886719 166.355469 165.507812 C 165.847656 166.128906 165.308594 166.722656 164.742188 167.289062 C 164.175781 167.855469 163.582031 168.394531 162.960938 168.902344 C 162.34375 169.410156 161.699219 169.886719 161.03125 170.332031 C 160.367188 170.777344 159.679688 171.191406 158.972656 171.570312 C 158.265625 171.945312 157.542969 172.289062 156.800781 172.597656 C 156.058594 172.90625 155.304688 173.175781 154.539062 173.410156 C 153.773438 173.640625 152.996094 173.835938 152.210938 173.992188 C 151.421875 174.152344 150.628906 174.269531 149.832031 174.347656 C 149.035156 174.429688 148.234375 174.46875 147.433594 174.46875 Z M 147.433594 129.132812 C 146.75 129.132812 146.070312 129.167969 145.390625 129.234375 C 144.710938 129.300781 144.035156 129.402344 143.367188 129.535156 C 142.695312 129.667969 142.035156 129.832031 141.378906 130.03125 C 140.726562 130.230469 140.085938 130.460938 139.453125 130.71875 C 138.824219 130.980469 138.207031 131.273438 137.605469 131.59375 C 137.003906 131.917969 136.417969 132.265625 135.847656 132.648438 C 135.28125 133.027344 134.734375 133.433594 134.207031 133.867188 C 133.679688 134.296875 133.171875 134.757812 132.691406 135.238281 C 132.207031 135.722656 131.75 136.226562 131.316406 136.753906 C 130.882812 137.285156 130.476562 137.832031 130.097656 138.398438 C 129.71875 138.964844 129.367188 139.550781 129.042969 140.152344 C 128.722656 140.753906 128.429688 141.371094 128.167969 142.003906 C 127.910156 142.632812 127.679688 143.277344 127.480469 143.929688 C 127.28125 144.582031 127.117188 145.246094 126.984375 145.914062 C 126.851562 146.582031 126.75 147.257812 126.683594 147.9375 C 126.617188 148.617188 126.582031 149.296875 126.582031 149.980469 C 126.582031 150.664062 126.617188 151.34375 126.683594 152.023438 C 126.75 152.703125 126.851562 153.378906 126.984375 154.046875 C 127.117188 154.71875 127.28125 155.378906 127.480469 156.03125 C 127.679688 156.6875 127.910156 157.328125 128.167969 157.960938 C 128.429688 158.589844 128.722656 159.207031 129.042969 159.808594 C 129.367188 160.410156 129.71875 160.996094 130.097656 161.5625 C 130.476562 162.132812 130.882812 162.679688 131.316406 163.207031 C 131.75 163.734375 132.207031 164.238281 132.691406 164.722656 C 133.171875 165.207031 133.679688 165.664062 134.207031 166.097656 C 134.734375 166.53125 135.28125 166.9375 135.847656 167.316406 C 136.417969 167.695312 137.003906 168.046875 137.605469 168.367188 C 138.207031 168.6875 138.824219 168.980469 139.453125 169.242188 C 140.085938 169.503906 140.726562 169.734375 141.378906 169.929688 C 142.035156 170.128906 142.695312 170.296875 143.367188 170.429688 C 144.035156 170.5625 144.710938 170.660156 145.390625 170.730469 C 146.070312 170.796875 146.75 170.828125 147.433594 170.828125 C 148.117188 170.828125 148.796875 170.796875 149.476562 170.730469 C 150.15625 170.660156 150.832031 170.5625 151.5 170.429688 C 152.171875 170.296875 152.832031 170.128906 153.484375 169.929688 C 154.140625 169.734375 154.78125 169.503906 155.414062 169.242188 C 156.042969 168.980469 156.660156 168.6875 157.261719 168.367188 C 157.863281 168.046875 158.449219 167.695312 159.015625 167.316406 C 159.585938 166.9375 160.132812 166.53125 160.660156 166.097656 C 161.1875 165.664062 161.695312 165.207031 162.175781 164.722656 C 162.660156 164.238281 163.117188 163.734375 163.550781 163.207031 C 163.984375 162.679688 164.390625 162.132812 164.769531 161.5625 C 165.148438 160.996094 165.5 160.410156 165.820312 159.808594 C 166.144531 159.207031 166.433594 158.589844 166.695312 157.960938 C 166.957031 157.328125 167.1875 156.6875 167.386719 156.03125 C 167.585938 155.378906 167.75 154.71875 167.882812 154.046875 C 168.015625 153.378906 168.117188 152.703125 168.183594 152.023438 C 168.25 151.34375 168.285156 150.664062 168.285156 149.980469 C 168.28125 149.296875 168.25 148.617188 168.179688 147.9375 C 168.113281 147.257812 168.015625 146.585938 167.878906 145.914062 C 167.746094 145.246094 167.582031 144.585938 167.382812 143.929688 C 167.183594 143.277344 166.953125 142.636719 166.691406 142.007812 C 166.429688 141.375 166.136719 140.757812 165.816406 140.15625 C 165.496094 139.554688 165.144531 138.96875 164.765625 138.402344 C 164.382812 137.835938 163.976562 137.289062 163.546875 136.761719 C 163.113281 136.234375 162.652344 135.726562 162.171875 135.246094 C 161.6875 134.761719 161.183594 134.304688 160.65625 133.871094 C 160.128906 133.4375 159.582031 133.03125 159.011719 132.652344 C 158.445312 132.273438 157.859375 131.921875 157.257812 131.601562 C 156.65625 131.277344 156.039062 130.988281 155.410156 130.726562 C 154.777344 130.464844 154.136719 130.234375 153.484375 130.035156 C 152.832031 129.835938 152.167969 129.671875 151.5 129.535156 C 150.832031 129.402344 150.15625 129.304688 149.476562 129.234375 C 148.796875 129.167969 148.117188 129.132812 147.433594 129.132812 Z M 147.433594 129.132812 " fill-opacity="1" fill-rule="nonzero"/><path fill="#5e6175" d="M 147.433594 198.230469 C 145.851562 198.230469 144.277344 198.152344 142.703125 197.996094 C 141.128906 197.84375 139.570312 197.609375 138.019531 197.300781 C 136.46875 196.996094 134.9375 196.609375 133.425781 196.152344 C 131.914062 195.695312 130.425781 195.160156 128.964844 194.558594 C 127.507812 193.953125 126.078125 193.277344 124.6875 192.53125 C 123.292969 191.789062 121.9375 190.976562 120.625 190.097656 C 119.308594 189.21875 118.042969 188.28125 116.820312 187.277344 C 115.597656 186.273438 114.429688 185.214844 113.3125 184.097656 C 112.195312 182.980469 111.132812 181.8125 110.132812 180.589844 C 109.128906 179.367188 108.1875 178.101562 107.3125 176.785156 C 106.433594 175.472656 105.621094 174.117188 104.875 172.726562 C 104.132812 171.332031 103.457031 169.90625 102.851562 168.445312 C 102.246094 166.984375 101.714844 165.5 101.257812 163.988281 C 100.796875 162.476562 100.414062 160.945312 100.105469 159.394531 C 99.796875 157.84375 99.566406 156.28125 99.410156 154.710938 C 99.253906 153.136719 99.179688 151.5625 99.179688 149.980469 C 99.179688 148.402344 99.253906 146.824219 99.410156 145.253906 C 99.566406 143.679688 99.796875 142.117188 100.105469 140.570312 C 100.414062 139.019531 100.796875 137.488281 101.257812 135.976562 C 101.714844 134.464844 102.246094 132.976562 102.851562 131.515625 C 103.457031 130.058594 104.132812 128.628906 104.875 127.238281 C 105.621094 125.84375 106.433594 124.488281 107.3125 123.175781 C 108.1875 121.863281 109.128906 120.59375 110.132812 119.371094 C 111.132812 118.152344 112.195312 116.980469 113.3125 115.863281 C 114.429688 114.746094 115.597656 113.6875 116.820312 112.683594 C 118.042969 111.683594 119.308594 110.742188 120.625 109.863281 C 121.9375 108.984375 123.292969 108.175781 124.6875 107.429688 C 126.078125 106.683594 127.507812 106.011719 128.964844 105.40625 C 130.425781 104.800781 131.914062 104.269531 133.425781 103.808594 C 134.9375 103.351562 136.46875 102.96875 138.019531 102.660156 C 139.570312 102.351562 141.128906 102.121094 142.703125 101.964844 C 144.277344 101.808594 145.851562 101.734375 147.433594 101.734375 C 149.011719 101.734375 150.589844 101.808594 152.164062 101.964844 C 153.734375 102.121094 155.296875 102.351562 156.847656 102.660156 C 158.398438 102.96875 159.929688 103.351562 161.441406 103.808594 C 162.953125 104.269531 164.4375 104.800781 165.898438 105.40625 C 167.359375 106.011719 168.785156 106.683594 170.179688 107.429688 C 171.574219 108.175781 172.929688 108.984375 174.242188 109.863281 C 175.554688 110.742188 176.824219 111.683594 178.046875 112.683594 C 179.265625 113.6875 180.4375 114.746094 181.554688 115.863281 C 182.671875 116.980469 183.730469 118.152344 184.734375 119.371094 C 185.738281 120.59375 186.675781 121.863281 187.554688 123.175781 C 188.433594 124.488281 189.246094 125.84375 189.988281 127.238281 C 190.734375 128.628906 191.410156 130.058594 192.015625 131.515625 C 192.621094 132.976562 193.152344 134.464844 193.609375 135.976562 C 194.070312 137.488281 194.453125 139.019531 194.761719 140.570312 C 195.070312 142.117188 195.300781 143.679688 195.457031 145.253906 C 195.609375 146.824219 195.6875 148.402344 195.6875 149.980469 C 195.6875 151.5625 195.605469 153.136719 195.449219 154.707031 C 195.292969 156.28125 195.058594 157.839844 194.75 159.390625 C 194.441406 160.9375 194.054688 162.46875 193.597656 163.980469 C 193.136719 165.492188 192.605469 166.976562 192 168.4375 C 191.394531 169.894531 190.71875 171.320312 189.972656 172.714844 C 189.226562 174.105469 188.414062 175.460938 187.535156 176.773438 C 186.660156 178.085938 185.71875 179.351562 184.714844 180.574219 C 183.714844 181.792969 182.652344 182.964844 181.535156 184.082031 C 180.417969 185.195312 179.25 186.257812 178.03125 187.257812 C 176.808594 188.261719 175.542969 189.203125 174.226562 190.078125 C 172.914062 190.957031 171.5625 191.769531 170.167969 192.515625 C 168.773438 193.261719 167.347656 193.933594 165.890625 194.539062 C 164.429688 195.144531 162.945312 195.679688 161.433594 196.136719 C 159.921875 196.597656 158.390625 196.984375 156.84375 197.292969 C 155.292969 197.601562 153.734375 197.835938 152.160156 197.992188 C 150.589844 198.148438 149.011719 198.226562 147.433594 198.230469 Z M 147.433594 105.398438 C 145.972656 105.398438 144.515625 105.46875 143.058594 105.613281 C 141.605469 105.753906 140.160156 105.96875 138.726562 106.253906 C 137.296875 106.539062 135.878906 106.894531 134.480469 107.320312 C 133.082031 107.742188 131.707031 108.234375 130.359375 108.792969 C 129.007812 109.351562 127.6875 109.976562 126.398438 110.664062 C 125.109375 111.355469 123.859375 112.105469 122.644531 112.917969 C 121.429688 113.730469 120.257812 114.597656 119.128906 115.523438 C 118 116.453125 116.917969 117.433594 115.882812 118.464844 C 114.851562 119.5 113.871094 120.582031 112.941406 121.710938 C 112.015625 122.839844 111.148438 124.011719 110.335938 125.226562 C 109.523438 126.441406 108.773438 127.695312 108.085938 128.980469 C 107.394531 130.269531 106.773438 131.589844 106.214844 132.941406 C 105.652344 134.289062 105.164062 135.664062 104.738281 137.0625 C 104.3125 138.460938 103.960938 139.875 103.675781 141.308594 C 103.390625 142.742188 103.175781 144.1875 103.035156 145.640625 C 102.890625 147.09375 102.820312 148.550781 102.820312 150.011719 C 102.820312 151.476562 102.890625 152.933594 103.035156 154.386719 C 103.179688 155.839844 103.394531 157.285156 103.679688 158.71875 C 103.964844 160.148438 104.320312 161.566406 104.742188 162.964844 C 105.167969 164.363281 105.660156 165.734375 106.21875 167.085938 C 106.777344 168.433594 107.402344 169.753906 108.09375 171.042969 C 108.78125 172.332031 109.53125 173.582031 110.34375 174.796875 C 111.15625 176.011719 112.027344 177.183594 112.953125 178.3125 C 113.878906 179.441406 114.859375 180.523438 115.894531 181.558594 C 116.929688 182.589844 118.011719 183.570312 119.140625 184.496094 C 120.269531 185.421875 121.441406 186.292969 122.65625 187.101562 C 123.875 187.914062 125.125 188.664062 126.414062 189.351562 C 127.703125 190.039062 129.023438 190.664062 130.375 191.222656 C 131.722656 191.78125 133.097656 192.273438 134.496094 192.695312 C 135.894531 193.121094 137.3125 193.476562 138.746094 193.757812 C 140.175781 194.042969 141.621094 194.257812 143.074219 194.398438 C 144.53125 194.542969 145.988281 194.613281 147.449219 194.613281 C 148.910156 194.613281 150.367188 194.539062 151.824219 194.398438 C 153.277344 194.253906 154.71875 194.039062 156.152344 193.753906 C 157.585938 193.46875 159.003906 193.113281 160.402344 192.6875 C 161.800781 192.261719 163.171875 191.769531 164.523438 191.210938 C 165.871094 190.652344 167.191406 190.027344 168.480469 189.335938 C 169.769531 188.648438 171.019531 187.898438 172.234375 187.085938 C 173.449219 186.273438 174.621094 185.402344 175.75 184.476562 C 176.878906 183.546875 177.960938 182.566406 178.996094 181.535156 C 180.027344 180.5 181.007812 179.417969 181.933594 178.289062 C 182.859375 177.160156 183.730469 175.984375 184.539062 174.769531 C 185.351562 173.554688 186.101562 172.304688 186.789062 171.015625 C 187.476562 169.726562 188.101562 168.40625 188.660156 167.054688 C 189.21875 165.707031 189.710938 164.332031 190.132812 162.933594 C 190.554688 161.535156 190.910156 160.117188 191.195312 158.683594 C 191.480469 157.253906 191.691406 155.808594 191.835938 154.355469 C 191.976562 152.898438 192.046875 151.441406 192.046875 149.980469 C 192.046875 148.519531 191.972656 147.0625 191.828125 145.609375 C 191.683594 144.15625 191.46875 142.714844 191.179688 141.28125 C 190.894531 139.851562 190.539062 138.433594 190.113281 137.039062 C 189.6875 135.640625 189.195312 134.269531 188.636719 132.917969 C 188.078125 131.570312 187.453125 130.25 186.761719 128.964844 C 186.074219 127.675781 185.324219 126.425781 184.511719 125.210938 C 183.699219 123.996094 182.832031 122.824219 181.902344 121.695312 C 180.976562 120.566406 179.996094 119.488281 178.964844 118.453125 C 177.929688 117.421875 176.851562 116.441406 175.722656 115.515625 C 174.59375 114.589844 173.421875 113.71875 172.207031 112.90625 C 170.992188 112.097656 169.742188 111.34375 168.453125 110.65625 C 167.164062 109.96875 165.847656 109.34375 164.496094 108.785156 C 163.148438 108.222656 161.773438 107.730469 160.378906 107.304688 C 158.980469 106.882812 157.566406 106.527344 156.132812 106.238281 C 154.699219 105.953125 153.257812 105.738281 151.804688 105.59375 C 150.351562 105.449219 148.894531 105.375 147.433594 105.375 Z M 147.433594 105.398438 " fill-opacity="1" fill-rule="nonzero"/><path fill="#5e6175" d="M 147.433594 221.050781 C 146.269531 221.050781 145.109375 221.019531 143.945312 220.960938 C 142.785156 220.90625 141.625 220.820312 140.46875 220.703125 C 139.308594 220.589844 138.15625 220.445312 137.003906 220.277344 C 135.855469 220.105469 134.710938 219.90625 133.570312 219.679688 C 132.425781 219.449219 131.292969 219.195312 130.164062 218.914062 C 129.035156 218.628906 127.917969 218.320312 126.804688 217.980469 C 125.691406 217.644531 124.585938 217.277344 123.492188 216.886719 C 122.398438 216.492188 121.3125 216.074219 120.238281 215.628906 C 119.164062 215.183594 118.101562 214.710938 117.050781 214.214844 C 115.996094 213.714844 114.960938 213.195312 113.933594 212.644531 C 112.90625 212.097656 111.898438 211.523438 110.898438 210.925781 C 109.902344 210.328125 108.917969 209.703125 107.953125 209.058594 C 106.984375 208.410156 106.035156 207.742188 105.101562 207.046875 C 104.167969 206.355469 103.25 205.640625 102.351562 204.902344 C 101.453125 204.164062 100.574219 203.402344 99.710938 202.621094 C 98.851562 201.839844 98.007812 201.039062 97.1875 200.214844 C 96.363281 199.394531 95.5625 198.550781 94.78125 197.6875 C 94 196.828125 93.242188 195.945312 92.503906 195.046875 C 91.765625 194.148438 91.050781 193.230469 90.359375 192.296875 C 89.667969 191.363281 88.996094 190.410156 88.351562 189.445312 C 87.707031 188.476562 87.082031 187.496094 86.484375 186.496094 C 85.886719 185.5 85.316406 184.488281 84.765625 183.460938 C 84.21875 182.4375 83.695312 181.398438 83.199219 180.347656 C 82.703125 179.292969 82.230469 178.230469 81.789062 177.15625 C 81.34375 176.082031 80.925781 174.996094 80.53125 173.902344 C 80.140625 172.808594 79.777344 171.703125 79.441406 170.589844 C 79.101562 169.476562 78.792969 168.355469 78.511719 167.226562 C 78.226562 166.101562 77.972656 164.964844 77.746094 163.824219 C 77.519531 162.683594 77.324219 161.539062 77.152344 160.386719 C 76.980469 159.238281 76.839844 158.082031 76.726562 156.925781 C 76.613281 155.769531 76.527344 154.609375 76.46875 153.449219 C 76.414062 152.285156 76.386719 151.125 76.386719 149.960938 C 76.386719 148.796875 76.414062 147.636719 76.472656 146.472656 C 76.53125 145.3125 76.617188 144.152344 76.730469 142.996094 C 76.84375 141.839844 76.988281 140.683594 77.15625 139.535156 C 77.328125 138.382812 77.527344 137.238281 77.753906 136.097656 C 77.984375 134.957031 78.238281 133.824219 78.519531 132.695312 C 78.804688 131.566406 79.113281 130.445312 79.453125 129.332031 C 79.789062 128.222656 80.15625 127.117188 80.546875 126.023438 C 80.9375 124.925781 81.359375 123.84375 81.804688 122.769531 C 82.25 121.695312 82.71875 120.632812 83.21875 119.578125 C 83.714844 118.527344 84.238281 117.492188 84.785156 116.464844 C 85.335938 115.4375 85.910156 114.429688 86.507812 113.429688 C 87.105469 112.433594 87.726562 111.449219 88.375 110.484375 C 89.019531 109.515625 89.691406 108.566406 90.382812 107.632812 C 91.074219 106.699219 91.792969 105.78125 92.53125 104.882812 C 93.269531 103.984375 94.027344 103.105469 94.808594 102.242188 C 95.589844 101.382812 96.390625 100.539062 97.214844 99.71875 C 98.039062 98.894531 98.878906 98.09375 99.742188 97.3125 C 100.605469 96.53125 101.484375 95.773438 102.382812 95.035156 C 103.28125 94.296875 104.199219 93.582031 105.132812 92.890625 C 106.070312 92.199219 107.019531 91.527344 107.988281 90.882812 C 108.953125 90.238281 109.9375 89.613281 110.933594 89.015625 C 111.933594 88.417969 112.945312 87.847656 113.96875 87.296875 C 114.996094 86.75 116.035156 86.226562 117.085938 85.730469 C 118.136719 85.234375 119.199219 84.761719 120.273438 84.316406 C 121.347656 83.871094 122.433594 83.453125 123.53125 83.0625 C 124.625 82.671875 125.730469 82.308594 126.84375 81.96875 C 127.957031 81.632812 129.074219 81.324219 130.203125 81.039062 C 131.332031 80.757812 132.46875 80.503906 133.609375 80.277344 C 134.75 80.050781 135.894531 79.851562 137.046875 79.679688 C 138.195312 79.511719 139.351562 79.367188 140.507812 79.253906 C 141.664062 79.140625 142.824219 79.054688 143.984375 79 C 145.148438 78.941406 146.308594 78.914062 147.472656 78.914062 C 148.636719 78.914062 149.800781 78.941406 150.960938 79 C 152.121094 79.054688 153.28125 79.140625 154.441406 79.257812 C 155.597656 79.371094 156.75 79.511719 157.902344 79.683594 C 159.050781 79.855469 160.199219 80.054688 161.339844 80.28125 C 162.480469 80.507812 163.613281 80.761719 164.742188 81.042969 C 165.871094 81.328125 166.992188 81.636719 168.105469 81.976562 C 169.21875 82.3125 170.320312 82.679688 171.417969 83.070312 C 172.511719 83.460938 173.597656 83.878906 174.671875 84.324219 C 175.746094 84.769531 176.808594 85.242188 177.859375 85.738281 C 178.910156 86.238281 179.949219 86.757812 180.976562 87.308594 C 182 87.855469 183.011719 88.429688 184.011719 89.027344 C 185.007812 89.625 185.992188 90.246094 186.957031 90.894531 C 187.925781 91.539062 188.875 92.210938 189.808594 92.902344 C 190.742188 93.59375 191.660156 94.308594 192.558594 95.046875 C 193.457031 95.785156 194.339844 96.546875 195.199219 97.328125 C 196.0625 98.109375 196.902344 98.910156 197.726562 99.730469 C 198.550781 100.554688 199.351562 101.394531 200.132812 102.257812 C 200.914062 103.121094 201.671875 104 202.410156 104.898438 C 203.148438 105.796875 203.863281 106.714844 204.554688 107.648438 C 205.25 108.582031 205.917969 109.535156 206.5625 110.5 C 207.210938 111.46875 207.832031 112.449219 208.429688 113.449219 C 209.027344 114.445312 209.601562 115.457031 210.148438 116.484375 C 210.699219 117.507812 211.222656 118.546875 211.71875 119.597656 C 212.214844 120.648438 212.6875 121.710938 213.132812 122.785156 C 213.578125 123.863281 213.996094 124.945312 214.386719 126.042969 C 214.777344 127.136719 215.144531 128.238281 215.480469 129.351562 C 215.820312 130.464844 216.128906 131.585938 216.410156 132.714844 C 216.695312 133.84375 216.949219 134.976562 217.175781 136.117188 C 217.402344 137.257812 217.601562 138.402344 217.773438 139.554688 C 217.941406 140.703125 218.085938 141.859375 218.199219 143.015625 C 218.3125 144.171875 218.398438 145.332031 218.457031 146.496094 C 218.511719 147.65625 218.542969 148.816406 218.542969 149.980469 C 218.539062 151.144531 218.511719 152.304688 218.453125 153.46875 C 218.394531 154.628906 218.308594 155.789062 218.191406 156.945312 C 218.078125 158.105469 217.933594 159.257812 217.761719 160.40625 C 217.589844 161.558594 217.390625 162.703125 217.160156 163.84375 C 216.933594 164.984375 216.679688 166.117188 216.394531 167.246094 C 216.109375 168.375 215.800781 169.496094 215.460938 170.609375 C 215.121094 171.71875 214.757812 172.824219 214.363281 173.917969 C 213.972656 175.015625 213.550781 176.097656 213.105469 177.171875 C 212.660156 178.246094 212.1875 179.308594 211.691406 180.359375 C 211.191406 181.410156 210.667969 182.449219 210.121094 183.476562 C 209.570312 184.5 209 185.511719 208.398438 186.507812 C 207.800781 187.507812 207.179688 188.488281 206.53125 189.457031 C 205.886719 190.421875 205.214844 191.371094 204.523438 192.304688 C 203.828125 193.242188 203.113281 194.15625 202.375 195.054688 C 201.636719 195.953125 200.875 196.835938 200.09375 197.695312 C 199.3125 198.558594 198.511719 199.398438 197.6875 200.222656 C 196.867188 201.042969 196.023438 201.84375 195.160156 202.625 C 194.300781 203.40625 193.417969 204.167969 192.519531 204.90625 C 191.621094 205.640625 190.703125 206.359375 189.769531 207.050781 C 188.835938 207.742188 187.886719 208.414062 186.917969 209.058594 C 185.949219 209.703125 184.96875 210.328125 183.96875 210.925781 C 182.972656 211.523438 181.960938 212.097656 180.933594 212.644531 C 179.910156 213.191406 178.871094 213.714844 177.820312 214.214844 C 176.769531 214.710938 175.703125 215.183594 174.628906 215.628906 C 173.554688 216.074219 172.472656 216.492188 171.375 216.882812 C 170.28125 217.277344 169.175781 217.640625 168.0625 217.980469 C 166.949219 218.316406 165.832031 218.628906 164.703125 218.910156 C 163.574219 219.195312 162.4375 219.449219 161.296875 219.675781 C 160.15625 219.902344 159.011719 220.101562 157.863281 220.273438 C 156.710938 220.445312 155.558594 220.589844 154.398438 220.703125 C 153.242188 220.816406 152.082031 220.902344 150.921875 220.960938 C 149.757812 221.019531 148.597656 221.046875 147.433594 221.050781 Z M 147.433594 82.554688 C 146.328125 82.554688 145.226562 82.582031 144.125 82.636719 C 143.023438 82.691406 141.921875 82.773438 140.824219 82.882812 C 139.726562 82.988281 138.632812 83.125 137.539062 83.289062 C 136.449219 83.449219 135.359375 83.640625 134.277344 83.855469 C 133.195312 84.070312 132.121094 84.3125 131.050781 84.582031 C 129.980469 84.851562 128.917969 85.144531 127.859375 85.464844 C 126.804688 85.785156 125.757812 86.132812 124.71875 86.503906 C 123.679688 86.875 122.648438 87.273438 121.632812 87.695312 C 120.613281 88.121094 119.601562 88.566406 118.605469 89.039062 C 117.609375 89.511719 116.625 90.007812 115.648438 90.527344 C 114.675781 91.046875 113.71875 91.59375 112.769531 92.160156 C 111.824219 92.726562 110.894531 93.320312 109.976562 93.933594 C 109.058594 94.546875 108.15625 95.179688 107.269531 95.839844 C 106.382812 96.496094 105.515625 97.175781 104.660156 97.875 C 103.808594 98.574219 102.972656 99.296875 102.15625 100.039062 C 101.339844 100.777344 100.539062 101.539062 99.761719 102.320312 C 98.980469 103.101562 98.21875 103.898438 97.480469 104.71875 C 96.738281 105.535156 96.019531 106.371094 95.320312 107.222656 C 94.617188 108.078125 93.941406 108.949219 93.285156 109.835938 C 92.625 110.71875 91.992188 111.621094 91.378906 112.539062 C 90.765625 113.457031 90.175781 114.390625 89.609375 115.335938 C 89.042969 116.285156 88.5 117.242188 87.980469 118.214844 C 87.457031 119.191406 86.964844 120.175781 86.492188 121.171875 C 86.019531 122.171875 85.574219 123.179688 85.152344 124.199219 C 84.730469 125.21875 84.332031 126.246094 83.960938 127.285156 C 83.589844 128.324219 83.246094 129.375 82.925781 130.429688 C 82.605469 131.484375 82.308594 132.546875 82.042969 133.617188 C 81.773438 134.6875 81.535156 135.765625 81.320312 136.847656 C 81.101562 137.929688 80.914062 139.015625 80.753906 140.109375 C 80.59375 141.199219 80.457031 142.292969 80.347656 143.394531 C 80.242188 144.492188 80.160156 145.589844 80.105469 146.691406 C 80.054688 147.796875 80.027344 148.898438 80.027344 150 C 80.027344 151.105469 80.054688 152.207031 80.109375 153.308594 C 80.164062 154.410156 80.246094 155.511719 80.351562 156.609375 C 80.460938 157.707031 80.597656 158.800781 80.757812 159.894531 C 80.921875 160.984375 81.109375 162.070312 81.328125 163.152344 C 81.542969 164.238281 81.785156 165.3125 82.050781 166.382812 C 82.320312 167.453125 82.617188 168.515625 82.9375 169.570312 C 83.257812 170.628906 83.601562 171.675781 83.976562 172.714844 C 84.347656 173.753906 84.746094 174.78125 85.167969 175.800781 C 85.589844 176.820312 86.035156 177.828125 86.507812 178.824219 C 86.980469 179.824219 87.476562 180.808594 87.996094 181.78125 C 88.519531 182.753906 89.0625 183.714844 89.628906 184.660156 C 90.199219 185.605469 90.789062 186.539062 91.402344 187.457031 C 92.015625 188.371094 92.648438 189.273438 93.308594 190.160156 C 93.964844 191.046875 94.644531 191.917969 95.34375 192.769531 C 96.042969 193.621094 96.765625 194.457031 97.507812 195.273438 C 98.246094 196.09375 99.007812 196.890625 99.789062 197.671875 C 100.570312 198.449219 101.367188 199.210938 102.1875 199.953125 C 103.003906 200.691406 103.839844 201.414062 104.691406 202.113281 C 105.546875 202.8125 106.417969 203.492188 107.304688 204.148438 C 108.1875 204.804688 109.089844 205.441406 110.007812 206.054688 C 110.925781 206.664062 111.859375 207.253906 112.804688 207.824219 C 113.753906 208.390625 114.710938 208.933594 115.6875 209.453125 C 116.660156 209.972656 117.644531 210.46875 118.640625 210.941406 C 119.640625 211.414062 120.648438 211.859375 121.667969 212.28125 C 122.6875 212.703125 123.71875 213.101562 124.757812 213.472656 C 125.796875 213.84375 126.84375 214.1875 127.898438 214.507812 C 128.957031 214.828125 130.019531 215.125 131.089844 215.390625 C 132.160156 215.660156 133.234375 215.902344 134.316406 216.117188 C 135.402344 216.332031 136.488281 216.519531 137.578125 216.679688 C 138.671875 216.84375 139.765625 216.976562 140.863281 217.085938 C 141.960938 217.191406 143.0625 217.273438 144.164062 217.328125 C 145.265625 217.382812 146.371094 217.410156 147.472656 217.410156 C 148.578125 217.410156 149.679688 217.382812 150.78125 217.328125 C 151.882812 217.273438 152.984375 217.191406 154.082031 217.082031 C 155.179688 216.976562 156.277344 216.839844 157.367188 216.679688 C 158.460938 216.515625 159.546875 216.328125 160.628906 216.113281 C 161.710938 215.894531 162.785156 215.65625 163.859375 215.386719 C 164.929688 215.117188 165.992188 214.824219 167.046875 214.503906 C 168.101562 214.183594 169.152344 213.835938 170.191406 213.464844 C 171.230469 213.09375 172.257812 212.695312 173.277344 212.273438 C 174.296875 211.851562 175.304688 211.402344 176.304688 210.933594 C 177.300781 210.460938 178.285156 209.964844 179.257812 209.445312 C 180.230469 208.921875 181.191406 208.378906 182.136719 207.8125 C 183.085938 207.246094 184.015625 206.65625 184.933594 206.042969 C 185.851562 205.429688 186.753906 204.792969 187.640625 204.136719 C 188.527344 203.480469 189.394531 202.800781 190.25 202.101562 C 191.101562 201.398438 191.9375 200.679688 192.753906 199.9375 C 193.574219 199.195312 194.371094 198.4375 195.152344 197.65625 C 195.933594 196.875 196.691406 196.078125 197.433594 195.257812 C 198.175781 194.441406 198.894531 193.605469 199.59375 192.753906 C 200.296875 191.902344 200.972656 191.03125 201.632812 190.144531 C 202.289062 189.257812 202.925781 188.355469 203.535156 187.4375 C 204.148438 186.519531 204.742188 185.589844 205.308594 184.644531 C 205.875 183.695312 206.417969 182.738281 206.9375 181.765625 C 207.457031 180.789062 207.953125 179.804688 208.425781 178.808594 C 208.898438 177.808594 209.34375 176.800781 209.769531 175.78125 C 210.191406 174.761719 210.585938 173.734375 210.957031 172.695312 C 211.332031 171.65625 211.675781 170.609375 211.996094 169.550781 C 212.316406 168.496094 212.613281 167.433594 212.878906 166.363281 C 213.148438 165.292969 213.390625 164.214844 213.605469 163.132812 C 213.820312 162.050781 214.007812 160.964844 214.171875 159.875 C 214.332031 158.78125 214.46875 157.6875 214.574219 156.589844 C 214.683594 155.492188 214.765625 154.390625 214.820312 153.289062 C 214.871094 152.1875 214.898438 151.085938 214.898438 149.980469 C 214.898438 148.878906 214.871094 147.773438 214.816406 146.671875 C 214.761719 145.570312 214.679688 144.46875 214.570312 143.371094 C 214.460938 142.273438 214.324219 141.179688 214.160156 140.089844 C 213.996094 138.996094 213.808594 137.910156 213.589844 136.828125 C 213.375 135.746094 213.132812 134.667969 212.863281 133.597656 C 212.59375 132.53125 212.300781 131.464844 211.976562 130.410156 C 211.65625 129.355469 211.308594 128.308594 210.9375 127.269531 C 210.566406 126.230469 210.167969 125.203125 209.746094 124.183594 C 209.320312 123.164062 208.875 122.15625 208.402344 121.15625 C 207.929688 120.160156 207.433594 119.175781 206.910156 118.203125 C 206.390625 117.230469 205.847656 116.269531 205.277344 115.324219 C 204.710938 114.378906 204.121094 113.445312 203.507812 112.527344 C 202.894531 111.609375 202.257812 110.710938 201.597656 109.824219 C 200.941406 108.9375 200.261719 108.066406 199.5625 107.214844 C 198.863281 106.363281 198.140625 105.527344 197.398438 104.710938 C 196.65625 103.890625 195.898438 103.09375 195.117188 102.3125 C 194.335938 101.53125 193.535156 100.773438 192.71875 100.03125 C 191.902344 99.289062 191.066406 98.570312 190.210938 97.871094 C 189.359375 97.171875 188.488281 96.492188 187.601562 95.835938 C 186.714844 95.175781 185.8125 94.542969 184.894531 93.929688 C 183.980469 93.316406 183.046875 92.726562 182.101562 92.160156 C 181.152344 91.589844 180.191406 91.046875 179.21875 90.527344 C 178.246094 90.007812 177.261719 89.511719 176.265625 89.039062 C 175.265625 88.566406 174.257812 88.121094 173.238281 87.695312 C 172.21875 87.273438 171.1875 86.878906 170.148438 86.503906 C 169.109375 86.132812 168.0625 85.785156 167.007812 85.464844 C 165.953125 85.144531 164.886719 84.851562 163.816406 84.582031 C 162.746094 84.3125 161.671875 84.070312 160.589844 83.855469 C 159.507812 83.640625 158.417969 83.449219 157.328125 83.289062 C 156.234375 83.125 155.140625 82.992188 154.042969 82.882812 C 152.945312 82.773438 151.84375 82.691406 150.742188 82.636719 C 149.640625 82.582031 148.535156 82.554688 147.433594 82.554688 Z M 147.433594 82.554688 " fill-opacity="1" fill-rule="nonzero"/><path fill="#5e6175" d="M 147.433594 243.863281 C 95.660156 243.863281 53.539062 201.75 53.539062 149.980469 C 53.539062 98.214844 95.660156 56.097656 147.433594 56.097656 C 199.207031 56.097656 241.328125 98.214844 241.328125 149.980469 C 241.328125 201.75 199.207031 243.863281 147.433594 243.863281 Z M 147.433594 59.738281 C 97.671875 59.738281 57.179688 100.222656 57.179688 149.980469 C 57.179688 199.742188 97.667969 240.222656 147.433594 240.222656 C 197.199219 240.222656 237.6875 199.734375 237.6875 149.980469 C 237.6875 100.226562 197.199219 59.738281 147.433594 59.738281 Z M 147.433594 59.738281 " fill-opacity="1" fill-rule="nonzero"/><g clip-path="url(#b3a3ad7ce2)"><path fill="#5e6175" d="M 147.433594 267.429688 C 82.667969 267.429688 29.96875 214.738281 29.96875 149.980469 C 29.96875 85.222656 82.667969 32.535156 147.433594 32.535156 C 212.199219 32.535156 264.898438 85.222656 264.898438 149.980469 C 264.898438 214.738281 212.199219 267.429688 147.433594 267.429688 Z M 147.433594 36.171875 C 84.667969 36.171875 33.609375 87.230469 33.609375 149.980469 C 33.609375 212.730469 84.667969 263.789062 147.433594 263.789062 C 210.195312 263.789062 261.253906 212.730469 261.253906 149.980469 C 261.253906 87.230469 210.191406 36.171875 147.433594 36.171875 Z M 147.433594 36.171875 " fill-opacity="1" fill-rule="nonzero"/></g><path fill="#a9afc4" d="M 240.652344 64.121094 C 239.847656 63.242188 239.015625 62.367188 238.183594 61.515625 L 240.792969 58.976562 C 241.644531 59.847656 242.5 60.753906 243.328125 61.652344 Z M 233.90625 57.335938 C 233.039062 56.519531 232.140625 55.710938 231.246094 54.910156 L 233.675781 52.179688 C 234.589844 52.992188 235.496094 53.824219 236.414062 54.660156 Z M 226.671875 51.082031 C 225.742188 50.335938 224.792969 49.59375 223.84375 48.871094 L 226.042969 45.972656 C 227.019531 46.714844 227.996094 47.472656 228.949219 48.242188 Z M 218.988281 45.378906 C 218.007812 44.703125 217 44.039062 216 43.394531 L 217.96875 40.359375 C 219.003906 41.023438 220.035156 41.707031 221.046875 42.398438 Z M 210.902344 40.273438 C 209.875 39.667969 208.824219 39.0625 207.769531 38.523438 L 209.503906 35.304688 C 210.589844 35.914062 211.671875 36.519531 212.722656 37.125 Z M 202.449219 35.792969 C 201.375 35.277344 200.28125 34.765625 199.195312 34.273438 L 200.683594 30.957031 C 201.804688 31.453125 202.925781 31.980469 204.027344 32.507812 Z M 193.660156 31.960938 C 192.550781 31.527344 191.421875 31.101562 190.304688 30.699219 L 191.519531 27.277344 C 192.671875 27.691406 193.832031 28.128906 194.972656 28.570312 Z M 184.648438 28.8125 C 183.507812 28.460938 182.351562 28.128906 181.210938 27.8125 L 182.179688 24.304688 C 183.351562 24.628906 184.546875 24.972656 185.71875 25.332031 Z M 175.40625 26.386719 C 174.253906 26.125 173.070312 25.878906 171.898438 25.648438 L 172.597656 22.074219 C 173.8125 22.308594 175.027344 22.5625 176.207031 22.832031 Z M 166.007812 24.640625 L 163.75 24.328125 L 164.21875 20.71875 C 164.988281 20.816406 165.765625 20.925781 166.535156 21.035156 Z M 166.007812 24.640625 " fill-opacity="1" fill-rule="nonzero"/><g clip-path="url(#d9b10f515a)"><path fill="#5e6175" d="M 145.613281 16.496094 L 149.253906 16.496094 L 149.253906 283.464844 L 145.613281 283.464844 Z M 145.613281 16.496094 " fill-opacity="1" fill-rule="nonzero"/></g><path fill="#5e6175" d="M 30.902344 215.160156 L 262.132812 81.675781 L 263.953125 84.828125 L 32.722656 218.3125 Z M 30.902344 215.160156 " fill-opacity="1" fill-rule="nonzero"/><path fill="#5e6175" d="M 30.910156 84.816406 L 32.730469 81.660156 L 263.960938 215.144531 L 262.140625 218.296875 Z M 30.910156 84.816406 " fill-opacity="1" fill-rule="nonzero"/><path fill="#e1830e" d="M 233.347656 255.386719 C 233.949219 255.386719 234.546875 255.414062 235.140625 255.472656 C 235.738281 255.53125 236.332031 255.621094 236.917969 255.738281 C 237.507812 255.855469 238.089844 256 238.664062 256.175781 C 239.238281 256.347656 239.800781 256.550781 240.355469 256.78125 C 240.910156 257.011719 241.449219 257.265625 241.976562 257.550781 C 242.507812 257.832031 243.019531 258.140625 243.519531 258.472656 C 244.019531 258.808594 244.5 259.164062 244.960938 259.542969 C 245.425781 259.925781 245.871094 260.328125 246.292969 260.75 C 246.71875 261.175781 247.121094 261.617188 247.5 262.082031 C 247.878906 262.546875 248.238281 263.027344 248.570312 263.523438 C 248.902344 264.023438 249.210938 264.539062 249.492188 265.066406 C 249.777344 265.59375 250.03125 266.136719 250.261719 266.691406 C 250.492188 267.246094 250.691406 267.808594 250.867188 268.382812 C 251.042969 268.957031 251.1875 269.539062 251.304688 270.125 C 251.421875 270.714844 251.507812 271.304688 251.566406 271.902344 C 251.625 272.5 251.65625 273.097656 251.65625 273.695312 C 251.65625 273.097656 251.683594 272.5 251.746094 271.902344 C 251.804688 271.304688 251.890625 270.714844 252.007812 270.125 C 252.125 269.535156 252.269531 268.957031 252.445312 268.382812 C 252.621094 267.808594 252.820312 267.246094 253.050781 266.691406 C 253.28125 266.136719 253.539062 265.59375 253.820312 265.066406 C 254.101562 264.539062 254.410156 264.023438 254.742188 263.523438 C 255.078125 263.027344 255.433594 262.546875 255.816406 262.082031 C 256.195312 261.617188 256.597656 261.175781 257.019531 260.75 C 257.445312 260.328125 257.890625 259.925781 258.351562 259.542969 C 258.816406 259.164062 259.296875 258.804688 259.796875 258.472656 C 260.296875 258.140625 260.808594 257.832031 261.335938 257.550781 C 261.867188 257.265625 262.40625 257.011719 262.960938 256.78125 C 263.515625 256.550781 264.082031 256.347656 264.652344 256.175781 C 265.226562 256 265.808594 255.855469 266.398438 255.738281 C 266.984375 255.621094 267.578125 255.53125 268.175781 255.472656 C 268.773438 255.414062 269.371094 255.386719 269.96875 255.386719 C 269.371094 255.386719 268.773438 255.355469 268.175781 255.296875 C 267.578125 255.238281 266.984375 255.148438 266.398438 255.035156 C 265.808594 254.917969 265.226562 254.769531 264.652344 254.597656 C 264.078125 254.421875 263.515625 254.222656 262.960938 253.992188 C 262.40625 253.761719 261.867188 253.503906 261.335938 253.222656 C 260.808594 252.941406 260.292969 252.632812 259.796875 252.300781 C 259.296875 251.964844 258.816406 251.609375 258.351562 251.230469 C 257.886719 250.847656 257.445312 250.445312 257.019531 250.023438 C 256.59375 249.597656 256.191406 249.152344 255.8125 248.691406 C 255.433594 248.226562 255.074219 247.746094 254.742188 247.246094 C 254.410156 246.75 254.101562 246.234375 253.816406 245.707031 C 253.535156 245.175781 253.277344 244.636719 253.050781 244.082031 C 252.820312 243.527344 252.617188 242.964844 252.445312 242.390625 C 252.269531 241.816406 252.125 241.234375 252.007812 240.644531 C 251.890625 240.058594 251.800781 239.464844 251.742188 238.867188 C 251.683594 238.273438 251.65625 237.671875 251.65625 237.074219 C 251.65625 237.671875 251.625 238.269531 251.566406 238.867188 C 251.507812 239.464844 251.421875 240.058594 251.304688 240.644531 C 251.1875 241.234375 251.042969 241.8125 250.867188 242.386719 C 250.691406 242.960938 250.492188 243.527344 250.261719 244.078125 C 250.03125 244.632812 249.777344 245.175781 249.492188 245.703125 C 249.210938 246.234375 248.902344 246.746094 248.570312 247.246094 C 248.238281 247.742188 247.878906 248.226562 247.5 248.6875 C 247.121094 249.152344 246.71875 249.597656 246.292969 250.019531 C 245.871094 250.445312 245.425781 250.847656 244.960938 251.226562 C 244.5 251.605469 244.019531 251.964844 243.519531 252.296875 C 243.019531 252.628906 242.507812 252.9375 241.976562 253.222656 C 241.449219 253.503906 240.910156 253.761719 240.355469 253.988281 C 239.800781 254.21875 239.238281 254.421875 238.664062 254.59375 C 238.089844 254.769531 237.507812 254.914062 236.917969 255.03125 C 236.332031 255.148438 235.738281 255.238281 235.140625 255.296875 C 234.546875 255.355469 233.949219 255.386719 233.347656 255.386719 Z M 233.347656 255.386719 " fill-opacity="1" fill-rule="nonzero"/><path fill="#e1830e" d="M 31.8125 57.917969 C 32.351562 57.917969 32.882812 57.972656 33.410156 58.078125 C 33.9375 58.179688 34.449219 58.335938 34.945312 58.542969 C 35.441406 58.746094 35.914062 59 36.359375 59.296875 C 36.804688 59.597656 37.21875 59.933594 37.597656 60.316406 C 37.976562 60.695312 38.316406 61.109375 38.617188 61.554688 C 38.914062 62 39.167969 62.472656 39.371094 62.96875 C 39.578125 63.464844 39.734375 63.976562 39.835938 64.503906 C 39.941406 65.03125 39.996094 65.5625 39.996094 66.097656 C 39.996094 65.5625 40.046875 65.03125 40.152344 64.503906 C 40.257812 63.976562 40.410156 63.464844 40.617188 62.96875 C 40.824219 62.472656 41.074219 62 41.371094 61.554688 C 41.671875 61.109375 42.011719 60.695312 42.390625 60.316406 C 42.769531 59.933594 43.183594 59.597656 43.628906 59.296875 C 44.078125 59 44.546875 58.746094 45.042969 58.542969 C 45.539062 58.335938 46.050781 58.179688 46.578125 58.078125 C 47.105469 57.972656 47.636719 57.917969 48.175781 57.917969 C 47.636719 57.917969 47.105469 57.867188 46.578125 57.761719 C 46.050781 57.65625 45.539062 57.503906 45.042969 57.296875 C 44.546875 57.089844 44.078125 56.839844 43.628906 56.542969 C 43.183594 56.242188 42.769531 55.902344 42.390625 55.523438 C 42.011719 55.144531 41.671875 54.730469 41.371094 54.285156 C 41.074219 53.839844 40.824219 53.367188 40.617188 52.871094 C 40.410156 52.375 40.257812 51.863281 40.152344 51.335938 C 40.046875 50.808594 39.996094 50.277344 39.996094 49.742188 C 39.996094 50.277344 39.941406 50.808594 39.839844 51.335938 C 39.734375 51.863281 39.578125 52.375 39.375 52.871094 C 39.167969 53.367188 38.917969 53.839844 38.617188 54.285156 C 38.320312 54.734375 37.980469 55.144531 37.601562 55.527344 C 37.21875 55.90625 36.808594 56.246094 36.359375 56.542969 C 35.914062 56.839844 35.441406 57.09375 34.945312 57.296875 C 34.449219 57.503906 33.9375 57.660156 33.410156 57.761719 C 32.882812 57.867188 32.351562 57.917969 31.8125 57.917969 Z M 31.8125 57.917969 " fill-opacity="1" fill-rule="nonzero"/><path fill="#5e6175" d="M 44.601562 250.878906 C 44.15625 250.878906 43.710938 250.839844 43.273438 250.757812 C 42.835938 250.675781 42.410156 250.550781 41.996094 250.386719 C 41.582031 250.222656 41.1875 250.019531 40.8125 249.777344 C 40.4375 249.535156 40.089844 249.261719 39.765625 248.953125 C 39.445312 248.644531 39.15625 248.308594 38.898438 247.945312 C 38.640625 247.582031 38.421875 247.199219 38.238281 246.792969 C 38.054688 246.382812 37.910156 245.964844 37.808594 245.53125 C 37.707031 245.097656 37.648438 244.65625 37.628906 244.210938 C 37.613281 243.765625 37.636719 243.324219 37.707031 242.882812 C 37.773438 242.441406 37.882812 242.011719 38.035156 241.59375 C 38.1875 241.175781 38.375 240.773438 38.605469 240.390625 C 38.832031 240.007812 39.09375 239.652344 39.390625 239.320312 C 39.6875 238.988281 40.015625 238.6875 40.371094 238.417969 C 40.726562 238.148438 41.101562 237.914062 41.503906 237.71875 C 41.902344 237.519531 42.316406 237.363281 42.75 237.25 C 43.179688 237.132812 43.617188 237.058594 44.058594 237.023438 C 44.523438 236.992188 44.988281 237.003906 45.449219 237.0625 C 45.910156 237.125 46.359375 237.226562 46.800781 237.378906 C 47.242188 237.527344 47.660156 237.722656 48.0625 237.957031 C 48.464844 238.191406 48.839844 238.464844 49.183594 238.773438 C 49.53125 239.082031 49.84375 239.425781 50.121094 239.796875 C 50.402344 240.171875 50.636719 240.566406 50.835938 240.988281 C 51.035156 241.410156 51.1875 241.84375 51.300781 242.296875 C 51.410156 242.75 51.472656 243.207031 51.492188 243.671875 C 51.511719 244.136719 51.480469 244.597656 51.40625 245.058594 C 51.332031 245.515625 51.210938 245.964844 51.046875 246.398438 C 50.882812 246.832031 50.675781 247.246094 50.429688 247.640625 C 50.179688 248.035156 49.894531 248.398438 49.574219 248.734375 C 49.253906 249.070312 48.902344 249.371094 48.519531 249.636719 C 48.136719 249.902344 47.730469 250.128906 47.304688 250.3125 C 46.878906 250.496094 46.4375 250.636719 45.980469 250.730469 C 45.527344 250.824219 45.066406 250.875 44.601562 250.878906 Z M 44.34375 240.660156 C 44.074219 240.679688 43.8125 240.734375 43.554688 240.820312 C 43.296875 240.90625 43.054688 241.023438 42.828125 241.167969 C 42.597656 241.3125 42.390625 241.484375 42.203125 241.683594 C 42.019531 241.878906 41.859375 242.097656 41.726562 242.332031 C 41.59375 242.570312 41.492188 242.816406 41.421875 243.078125 C 41.351562 243.339844 41.3125 243.605469 41.304688 243.878906 C 41.300781 244.148438 41.328125 244.417969 41.390625 244.679688 C 41.449219 244.945312 41.542969 245.195312 41.664062 245.4375 C 41.785156 245.679688 41.9375 245.902344 42.117188 246.105469 C 42.292969 246.3125 42.492188 246.492188 42.714844 246.648438 C 42.9375 246.800781 43.175781 246.925781 43.429688 247.023438 C 43.683594 247.121094 43.945312 247.183594 44.210938 247.214844 C 44.480469 247.246094 44.75 247.246094 45.019531 247.210938 C 45.289062 247.175781 45.550781 247.109375 45.800781 247.011719 C 46.054688 246.914062 46.289062 246.785156 46.511719 246.628906 C 46.730469 246.472656 46.929688 246.289062 47.105469 246.082031 C 47.546875 245.578125 47.804688 244.996094 47.886719 244.332031 C 47.96875 243.667969 47.859375 243.035156 47.554688 242.441406 C 47.25 241.84375 46.808594 241.382812 46.222656 241.058594 C 45.636719 240.734375 45.011719 240.601562 44.34375 240.660156 Z M 44.34375 240.660156 " fill-opacity="1" fill-rule="nonzero"/><path fill="#5e6175" d="M 69.753906 271.632812 C 69.40625 271.632812 69.0625 271.601562 68.722656 271.535156 C 68.382812 271.464844 68.050781 271.367188 67.730469 271.238281 C 67.410156 271.105469 67.105469 270.945312 66.816406 270.757812 C 66.523438 270.566406 66.257812 270.351562 66.007812 270.109375 C 65.761719 269.867188 65.539062 269.601562 65.339844 269.316406 C 65.144531 269.03125 64.976562 268.730469 64.835938 268.414062 C 64.699219 268.097656 64.589844 267.769531 64.515625 267.429688 C 64.441406 267.089844 64.398438 266.75 64.390625 266.402344 C 64.378906 266.054688 64.40625 265.710938 64.460938 265.371094 C 64.519531 265.027344 64.609375 264.695312 64.730469 264.371094 C 64.855469 264.046875 65.007812 263.738281 65.1875 263.441406 C 65.371094 263.148438 65.578125 262.875 65.816406 262.617188 C 66.050781 262.363281 66.308594 262.136719 66.585938 261.929688 C 66.867188 261.726562 67.164062 261.550781 67.476562 261.402344 C 67.792969 261.253906 68.117188 261.140625 68.453125 261.054688 C 68.789062 260.972656 69.128906 260.921875 69.476562 260.902344 C 69.820312 260.882812 70.167969 260.898438 70.511719 260.949219 C 70.851562 260.996094 71.1875 261.078125 71.515625 261.191406 C 71.84375 261.304688 72.15625 261.449219 72.457031 261.621094 C 72.757812 261.796875 73.035156 261.996094 73.296875 262.226562 C 73.558594 262.453125 73.792969 262.707031 74.007812 262.980469 C 74.21875 263.253906 74.402344 263.546875 74.558594 263.855469 C 74.714844 264.164062 74.835938 264.488281 74.929688 264.820312 C 75.023438 265.15625 75.085938 265.492188 75.113281 265.839844 C 75.140625 266.207031 75.128906 266.578125 75.082031 266.945312 C 75.035156 267.3125 74.949219 267.671875 74.828125 268.019531 C 74.707031 268.371094 74.550781 268.703125 74.359375 269.019531 C 74.167969 269.339844 73.949219 269.632812 73.695312 269.90625 C 73.445312 270.175781 73.167969 270.421875 72.867188 270.636719 C 72.566406 270.851562 72.246094 271.03125 71.90625 271.179688 C 71.566406 271.328125 71.214844 271.441406 70.851562 271.519531 C 70.488281 271.59375 70.125 271.632812 69.753906 271.632812 Z M 68.441406 265.136719 C 68.347656 265.242188 68.269531 265.359375 68.207031 265.488281 C 68.144531 265.617188 68.097656 265.75 68.066406 265.886719 C 68.035156 266.027344 68.019531 266.167969 68.023438 266.308594 C 68.027344 266.453125 68.046875 266.59375 68.085938 266.730469 C 68.125 266.867188 68.179688 266.996094 68.25 267.121094 C 68.320312 267.246094 68.40625 267.359375 68.503906 267.460938 C 68.601562 267.5625 68.710938 267.652344 68.832031 267.726562 C 68.953125 267.804688 69.082031 267.863281 69.214844 267.910156 C 69.351562 267.953125 69.492188 267.980469 69.632812 267.988281 C 69.773438 268 69.917969 267.992188 70.054688 267.964844 C 70.195312 267.941406 70.332031 267.898438 70.460938 267.839844 C 70.589844 267.78125 70.710938 267.710938 70.824219 267.621094 C 70.9375 267.535156 71.035156 267.433594 71.121094 267.320312 C 71.210938 267.207031 71.28125 267.085938 71.339844 266.953125 C 71.394531 266.824219 71.433594 266.6875 71.457031 266.546875 C 71.480469 266.40625 71.488281 266.265625 71.476562 266.125 C 71.449219 265.777344 71.328125 265.464844 71.109375 265.191406 C 70.894531 264.917969 70.621094 264.726562 70.289062 264.621094 C 69.957031 264.511719 69.625 264.503906 69.289062 264.597656 C 68.953125 264.691406 68.671875 264.871094 68.441406 265.136719 Z M 68.441406 265.136719 " fill-opacity="1" fill-rule="nonzero"/><path fill="#e1830e" d="M 153.921875 58.894531 C 153.921875 59.335938 153.878906 59.773438 153.792969 60.207031 C 153.703125 60.640625 153.578125 61.058594 153.410156 61.464844 C 153.238281 61.875 153.03125 62.261719 152.789062 62.628906 C 152.542969 62.996094 152.265625 63.332031 151.953125 63.644531 C 151.640625 63.957031 151.300781 64.234375 150.933594 64.480469 C 150.566406 64.726562 150.179688 64.933594 149.773438 65.101562 C 149.367188 65.269531 148.945312 65.398438 148.511719 65.484375 C 148.082031 65.570312 147.644531 65.613281 147.203125 65.613281 C 146.761719 65.613281 146.324219 65.570312 145.890625 65.484375 C 145.460938 65.398438 145.039062 65.269531 144.632812 65.101562 C 144.222656 64.933594 143.835938 64.726562 143.46875 64.480469 C 143.105469 64.234375 142.765625 63.957031 142.453125 63.644531 C 142.140625 63.332031 141.863281 62.996094 141.617188 62.628906 C 141.371094 62.261719 141.164062 61.875 140.996094 61.464844 C 140.828125 61.058594 140.699219 60.640625 140.613281 60.207031 C 140.527344 59.773438 140.484375 59.335938 140.484375 58.894531 C 140.484375 58.457031 140.527344 58.019531 140.613281 57.585938 C 140.699219 57.152344 140.828125 56.734375 140.996094 56.324219 C 141.164062 55.917969 141.371094 55.53125 141.617188 55.164062 C 141.863281 54.796875 142.140625 54.457031 142.453125 54.148438 C 142.765625 53.835938 143.105469 53.558594 143.46875 53.3125 C 143.835938 53.066406 144.222656 52.859375 144.632812 52.691406 C 145.039062 52.523438 145.460938 52.394531 145.890625 52.308594 C 146.324219 52.222656 146.761719 52.179688 147.203125 52.179688 C 147.644531 52.179688 148.082031 52.222656 148.511719 52.308594 C 148.945312 52.394531 149.367188 52.523438 149.773438 52.691406 C 150.179688 52.859375 150.566406 53.066406 150.933594 53.3125 C 151.300781 53.558594 151.640625 53.835938 151.953125 54.148438 C 152.265625 54.457031 152.542969 54.796875 152.789062 55.164062 C 153.03125 55.53125 153.238281 55.917969 153.410156 56.324219 C 153.578125 56.734375 153.703125 57.152344 153.792969 57.585938 C 153.878906 58.019531 153.921875 58.457031 153.921875 58.894531 Z M 153.921875 58.894531 " fill-opacity="1" fill-rule="nonzero"/><path fill="#e1830e" d="M 212.351562 116.046875 C 212.351562 116.488281 212.308594 116.921875 212.222656 117.355469 C 212.136719 117.789062 212.007812 118.207031 211.839844 118.617188 C 211.671875 119.023438 211.464844 119.410156 211.21875 119.777344 C 210.972656 120.144531 210.695312 120.484375 210.382812 120.796875 C 210.070312 121.105469 209.734375 121.386719 209.367188 121.628906 C 209 121.875 208.613281 122.082031 208.203125 122.25 C 207.796875 122.421875 207.378906 122.546875 206.945312 122.632812 C 206.511719 122.71875 206.074219 122.761719 205.632812 122.761719 C 205.191406 122.761719 204.757812 122.71875 204.324219 122.632812 C 203.890625 122.546875 203.46875 122.421875 203.0625 122.25 C 202.65625 122.082031 202.269531 121.875 201.902344 121.628906 C 201.535156 121.386719 201.195312 121.105469 200.882812 120.796875 C 200.570312 120.484375 200.292969 120.144531 200.046875 119.777344 C 199.804688 119.410156 199.597656 119.023438 199.425781 118.617188 C 199.257812 118.207031 199.132812 117.789062 199.046875 117.355469 C 198.960938 116.921875 198.917969 116.488281 198.917969 116.046875 C 198.917969 115.605469 198.960938 115.167969 199.046875 114.734375 C 199.132812 114.304688 199.257812 113.882812 199.425781 113.476562 C 199.597656 113.066406 199.804688 112.679688 200.046875 112.3125 C 200.292969 111.949219 200.570312 111.609375 200.882812 111.296875 C 201.195312 110.984375 201.535156 110.707031 201.902344 110.460938 C 202.269531 110.214844 202.65625 110.007812 203.0625 109.839844 C 203.46875 109.671875 203.890625 109.542969 204.324219 109.457031 C 204.757812 109.371094 205.191406 109.328125 205.632812 109.328125 C 206.074219 109.328125 206.511719 109.371094 206.945312 109.457031 C 207.378906 109.542969 207.796875 109.671875 208.203125 109.839844 C 208.613281 110.007812 209 110.214844 209.367188 110.460938 C 209.734375 110.707031 210.070312 110.984375 210.382812 111.296875 C 210.695312 111.609375 210.972656 111.949219 211.21875 112.3125 C 211.464844 112.679688 211.671875 113.066406 211.839844 113.476562 C 212.007812 113.882812 212.136719 114.304688 212.222656 114.734375 C 212.308594 115.167969 212.351562 115.605469 212.351562 116.046875 Z M 212.351562 116.046875 " fill-opacity="1" fill-rule="nonzero"/><path fill="#e1830e" d="M 250.285156 205.8125 C 250.285156 206.253906 250.242188 206.691406 250.15625 207.125 C 250.070312 207.558594 249.941406 207.976562 249.773438 208.382812 C 249.605469 208.792969 249.398438 209.179688 249.152344 209.546875 C 248.90625 209.914062 248.628906 210.25 248.316406 210.5625 C 248.003906 210.875 247.664062 211.152344 247.296875 211.398438 C 246.933594 211.644531 246.542969 211.851562 246.136719 212.019531 C 245.730469 212.1875 245.308594 212.316406 244.878906 212.402344 C 244.445312 212.488281 244.007812 212.53125 243.566406 212.53125 C 243.125 212.53125 242.6875 212.488281 242.257812 212.402344 C 241.824219 212.316406 241.402344 212.1875 240.996094 212.019531 C 240.589844 211.851562 240.203125 211.644531 239.835938 211.398438 C 239.46875 211.152344 239.128906 210.875 238.816406 210.5625 C 238.503906 210.25 238.226562 209.914062 237.980469 209.546875 C 237.734375 209.179688 237.527344 208.792969 237.359375 208.382812 C 237.191406 207.976562 237.0625 207.558594 236.976562 207.125 C 236.890625 206.691406 236.847656 206.253906 236.847656 205.8125 C 236.847656 205.371094 236.890625 204.9375 236.976562 204.503906 C 237.0625 204.070312 237.191406 203.652344 237.359375 203.242188 C 237.527344 202.835938 237.734375 202.449219 237.980469 202.082031 C 238.226562 201.714844 238.503906 201.375 238.816406 201.066406 C 239.128906 200.753906 239.46875 200.472656 239.835938 200.230469 C 240.203125 199.984375 240.589844 199.777344 240.996094 199.609375 C 241.402344 199.441406 241.824219 199.3125 242.257812 199.226562 C 242.6875 199.140625 243.125 199.097656 243.566406 199.097656 C 244.007812 199.097656 244.445312 199.140625 244.878906 199.226562 C 245.308594 199.3125 245.730469 199.441406 246.136719 199.609375 C 246.542969 199.777344 246.933594 199.984375 247.296875 200.230469 C 247.664062 200.472656 248.003906 200.753906 248.316406 201.066406 C 248.628906 201.375 248.90625 201.714844 249.152344 202.082031 C 249.398438 202.449219 249.605469 202.835938 249.773438 203.242188 C 249.941406 203.652344 250.070312 204.070312 250.15625 204.503906 C 250.242188 204.9375 250.285156 205.371094 250.285156 205.8125 Z M 250.285156 205.8125 " fill-opacity="1" fill-rule="nonzero"/><path fill="#e1830e" d="M 153.59375 240.570312 C 153.59375 241.007812 153.550781 241.445312 153.464844 241.878906 C 153.378906 242.3125 153.25 242.730469 153.082031 243.140625 C 152.914062 243.546875 152.707031 243.933594 152.460938 244.300781 C 152.214844 244.667969 151.9375 245.007812 151.625 245.316406 C 151.3125 245.628906 150.972656 245.90625 150.605469 246.152344 C 150.238281 246.398438 149.851562 246.605469 149.445312 246.773438 C 149.039062 246.941406 148.617188 247.070312 148.183594 247.15625 C 147.753906 247.242188 147.316406 247.285156 146.875 247.285156 C 146.433594 247.285156 145.996094 247.242188 145.5625 247.15625 C 145.132812 247.070312 144.710938 246.941406 144.304688 246.773438 C 143.898438 246.605469 143.507812 246.398438 143.144531 246.152344 C 142.777344 245.90625 142.4375 245.628906 142.125 245.316406 C 141.8125 245.007812 141.535156 244.667969 141.289062 244.300781 C 141.042969 243.933594 140.835938 243.546875 140.667969 243.140625 C 140.5 242.730469 140.371094 242.3125 140.285156 241.878906 C 140.199219 241.445312 140.15625 241.007812 140.15625 240.570312 C 140.15625 240.128906 140.199219 239.691406 140.285156 239.257812 C 140.371094 238.824219 140.5 238.40625 140.667969 238 C 140.835938 237.589844 141.042969 237.203125 141.289062 236.835938 C 141.535156 236.46875 141.8125 236.132812 142.125 235.820312 C 142.4375 235.507812 142.777344 235.230469 143.144531 234.984375 C 143.507812 234.738281 143.898438 234.53125 144.304688 234.363281 C 144.710938 234.195312 145.132812 234.066406 145.5625 233.980469 C 145.996094 233.894531 146.433594 233.851562 146.875 233.851562 C 147.316406 233.851562 147.753906 233.894531 148.183594 233.980469 C 148.617188 234.066406 149.039062 234.195312 149.445312 234.363281 C 149.851562 234.53125 150.238281 234.738281 150.605469 234.984375 C 150.972656 235.230469 151.3125 235.507812 151.625 235.820312 C 151.9375 236.132812 152.214844 236.46875 152.460938 236.835938 C 152.707031 237.203125 152.914062 237.589844 153.082031 238 C 153.25 238.40625 153.378906 238.824219 153.464844 239.257812 C 153.550781 239.691406 153.59375 240.128906 153.59375 240.570312 Z M 153.59375 240.570312 " fill-opacity="1" fill-rule="nonzero"/><path fill="#e1830e" d="M 74.730469 195.777344 C 74.730469 196.21875 74.6875 196.65625 74.601562 197.089844 C 74.515625 197.519531 74.386719 197.941406 74.21875 198.347656 C 74.050781 198.757812 73.84375 199.144531 73.597656 199.511719 C 73.351562 199.875 73.074219 200.214844 72.761719 200.527344 C 72.449219 200.839844 72.109375 201.117188 71.742188 201.363281 C 71.378906 201.609375 70.988281 201.816406 70.582031 201.984375 C 70.175781 202.152344 69.753906 202.28125 69.320312 202.367188 C 68.890625 202.453125 68.453125 202.496094 68.011719 202.496094 C 67.570312 202.496094 67.132812 202.453125 66.699219 202.367188 C 66.269531 202.28125 65.847656 202.152344 65.441406 201.984375 C 65.035156 201.816406 64.644531 201.609375 64.28125 201.363281 C 63.914062 201.117188 63.574219 200.839844 63.261719 200.527344 C 62.949219 200.214844 62.671875 199.875 62.425781 199.511719 C 62.179688 199.144531 61.972656 198.757812 61.804688 198.347656 C 61.636719 197.941406 61.507812 197.519531 61.421875 197.089844 C 61.335938 196.65625 61.292969 196.21875 61.292969 195.777344 C 61.292969 195.335938 61.335938 194.902344 61.421875 194.46875 C 61.507812 194.035156 61.636719 193.617188 61.804688 193.207031 C 61.972656 192.800781 62.179688 192.414062 62.425781 192.046875 C 62.671875 191.679688 62.949219 191.339844 63.261719 191.027344 C 63.574219 190.71875 63.914062 190.4375 64.28125 190.195312 C 64.644531 189.949219 65.035156 189.742188 65.441406 189.574219 C 65.847656 189.402344 66.269531 189.277344 66.699219 189.191406 C 67.132812 189.105469 67.570312 189.0625 68.011719 189.0625 C 68.453125 189.0625 68.890625 189.105469 69.320312 189.191406 C 69.753906 189.277344 70.175781 189.402344 70.582031 189.574219 C 70.988281 189.742188 71.378906 189.949219 71.742188 190.195312 C 72.109375 190.4375 72.449219 190.71875 72.761719 191.027344 C 73.074219 191.339844 73.351562 191.679688 73.597656 192.046875 C 73.84375 192.414062 74.050781 192.800781 74.21875 193.207031 C 74.386719 193.617188 74.515625 194.035156 74.601562 194.46875 C 74.6875 194.902344 74.730469 195.335938 74.730469 195.777344 Z M 74.730469 195.777344 " fill-opacity="1" fill-rule="nonzero"/><path fill="#e1830e" d="M 73.714844 104.613281 C 73.714844 105.054688 73.671875 105.492188 73.585938 105.925781 C 73.5 106.359375 73.375 106.777344 73.203125 107.183594 C 73.035156 107.59375 72.828125 107.980469 72.582031 108.347656 C 72.339844 108.714844 72.058594 109.050781 71.75 109.363281 C 71.4375 109.675781 71.097656 109.953125 70.730469 110.199219 C 70.363281 110.445312 69.976562 110.652344 69.570312 110.820312 C 69.160156 110.988281 68.742188 111.117188 68.308594 111.203125 C 67.875 111.289062 67.4375 111.332031 67 111.332031 C 66.558594 111.332031 66.121094 111.289062 65.6875 111.203125 C 65.253906 111.117188 64.835938 110.988281 64.425781 110.820312 C 64.019531 110.652344 63.632812 110.445312 63.265625 110.199219 C 62.898438 109.953125 62.558594 109.675781 62.25 109.363281 C 61.9375 109.050781 61.65625 108.714844 61.414062 108.347656 C 61.167969 107.980469 60.960938 107.59375 60.792969 107.183594 C 60.625 106.777344 60.496094 106.359375 60.410156 105.925781 C 60.324219 105.492188 60.28125 105.054688 60.28125 104.613281 C 60.28125 104.171875 60.324219 103.738281 60.410156 103.304688 C 60.496094 102.871094 60.625 102.453125 60.792969 102.042969 C 60.960938 101.636719 61.167969 101.25 61.414062 100.882812 C 61.65625 100.515625 61.9375 100.175781 62.25 99.867188 C 62.558594 99.554688 62.898438 99.273438 63.265625 99.03125 C 63.632812 98.785156 64.019531 98.578125 64.425781 98.410156 C 64.835938 98.242188 65.253906 98.113281 65.6875 98.027344 C 66.121094 97.941406 66.558594 97.898438 67 97.898438 C 67.4375 97.898438 67.875 97.941406 68.308594 98.027344 C 68.742188 98.113281 69.160156 98.242188 69.570312 98.410156 C 69.976562 98.578125 70.363281 98.785156 70.730469 99.03125 C 71.097656 99.273438 71.4375 99.554688 71.75 99.867188 C 72.058594 100.175781 72.339844 100.515625 72.582031 100.882812 C 72.828125 101.25 73.035156 101.636719 73.203125 102.042969 C 73.375 102.453125 73.5 102.871094 73.585938 103.304688 C 73.671875 103.738281 73.714844 104.171875 73.714844 104.613281 Z M 73.714844 104.613281 " fill-opacity="1" fill-rule="nonzero"/><g clip-path="url(#654aef27cf)"><g clip-path="url(#1b7c4b7b65)"><g clip-path="url(#87fcc21cf9)"><g clip-path="url(#650a3e5d95)"><path fill="#9c1116" d="M 157.8125 197.019531 L 149.546875 172.726562 L 142.941406 162.453125 L 148.730469 167.832031 L 163.8125 189.84375 L 166.511719 196.0625 C 196.0625 176.195312 198.664062 149.996094 198.664062 149.996094 C 189.121094 174.699219 167.535156 188.683594 167.535156 188.683594 L 151.417969 166.332031 L 145.078125 160.679688 L 149.863281 161.933594 L 164.539062 175.609375 L 168.792969 181.894531 C 181.207031 170.59375 181.472656 143.785156 181.472656 143.785156 C 181.472656 143.785156 173.917969 171.5 168.519531 175.152344 L 151.132812 160.113281 L 145.636719 158.484375 L 146.507812 158.042969 L 152.84375 159.574219 L 157.25 161.714844 C 157.949219 154.519531 152.964844 150.324219 152.964844 150.324219 C 152.964844 150.324219 155.011719 154.46875 154.207031 157.625 L 146.375 156.941406 L 145.242188 157.472656 C 146.171875 155.257812 145.867188 153.390625 145.867188 153.390625 C 145.867188 153.390625 144.839844 155.964844 143.695312 156.167969 C 143.695312 156.167969 144.867188 154 143.089844 152.386719 C 142.25 150.132812 139.800781 150.417969 139.800781 150.417969 C 140.417969 149.433594 143.1875 149.433594 143.1875 149.433594 C 143.1875 149.433594 141.566406 148.457031 139.164062 148.496094 L 140.082031 147.640625 L 142.355469 140.117188 C 145.582031 140.542969 148.671875 143.980469 148.671875 143.980469 C 148.671875 143.980469 146.625 137.796875 139.683594 135.773438 L 140.039062 140.660156 L 139.109375 147.109375 L 138.371094 147.757812 L 138.902344 142.046875 L 131.394531 120.320312 C 136.792969 116.664062 165.332031 119.945312 165.332031 119.945312 C 165.332031 119.945312 140.339844 110.234375 125.234375 117.5625 L 129.492188 123.847656 L 136.738281 142.550781 L 136.125 147.457031 L 133.234375 139.472656 L 118.46875 116.210938 C 118.46875 116.210938 139.46875 101.359375 165.949219 101.671875 C 165.949219 101.671875 140.65625 94.359375 111.234375 114.417969 L 116.007812 119.230469 L 130.84375 141.414062 L 133.6875 148.785156 L 126.601562 138.835938 L 107.113281 122.140625 L 105.9375 118.285156 C 105.9375 118.285156 75.894531 137.195312 71.136719 175.640625 C 71.136719 175.640625 82.785156 142.519531 106.1875 125.011719 L 125.222656 142.976562 L 131.382812 150.667969 L 120.523438 145.195312 L 119.957031 143.652344 C 119.957031 143.652344 91.167969 155.285156 84.9375 182.113281 C 84.9375 182.113281 95.488281 157.171875 121.050781 149.324219 L 130.996094 152.210938 L 129.464844 154.53125 C 118.167969 151.746094 116.910156 163.507812 119.976562 168.035156 C 123.042969 172.5625 134.429688 175.761719 136.039062 164.238281 L 138.761719 163.675781 L 137.746094 173.984375 C 120.964844 194.804688 93.890625 195.339844 93.890625 195.339844 C 121.113281 199.515625 142.605469 177.105469 142.605469 177.105469 L 141.386719 176.007812 L 140.335938 163.890625 L 145.191406 172.472656 L 154.800781 196.8125 C 129.855469 212.039062 94.777344 210.554688 94.777344 210.554688 C 132.238281 220.417969 160.953125 199.542969 160.953125 199.542969 L 157.8125 197.019531 " fill-opacity="1" fill-rule="nonzero"/></g></g></g></g></svg>